<svg width="174" height="166" viewBox="0 0 174 166" fill="none" xmlns="http://www.w3.org/2000/svg">
<g filter="url(#filter0_d)">
<path d="M1 7.99999V161.16L7.23853 156.645L15.0367 161.16L22.8349 156.645L30.633 161.16L38.4312 156.645L46.2294 161.16L54.0275 156.645L61.8257 161.16L69.6239 156.645L77.422 161.16L85.2202 156.645L93.0183 161.16L100.817 156.645L108.615 161.16L116.413 156.645L124.211 161.16L132.009 156.645L139.807 161.16L147.605 156.645L155.404 161.16L163.202 156.645L171 161.16V8C171 3.58172 167.418 0 163 0H9C4.58172 0 1 3.58171 1 7.99999Z" fill="white"/>
<path d="M7.48907 156.212L7.20825 156.049L6.94538 156.24L1.5 160.181V7.99999C1.5 3.85786 4.85786 0.5 9 0.5H163C167.142 0.5 170.5 3.85786 170.5 8V160.293L163.452 156.212L163.202 156.067L162.951 156.212L155.404 160.582L147.856 156.212L147.605 156.067L147.355 156.212L139.807 160.582L132.26 156.212L132.009 156.067L131.759 156.212L124.211 160.582L116.663 156.212L116.413 156.067L116.162 156.212L108.615 160.582L101.067 156.212L100.817 156.067L100.566 156.212L93.0183 160.582L85.4707 156.212L85.2202 156.067L84.9697 156.212L77.422 160.582L69.8744 156.212L69.6239 156.067L69.3733 156.212L61.8257 160.582L54.2781 156.212L54.0275 156.067L53.777 156.212L46.2294 160.582L38.6817 156.212L38.4312 156.067L38.1807 156.212L30.633 160.582L23.0854 156.212L22.8349 156.067L22.5843 156.212L15.0367 160.582L7.48907 156.212Z" stroke="black" stroke-opacity="0.1"/>
</g>
<g opacity="0.5">
<line x1="14.5996" y1="13.0996" x2="157.4" y2="13.0996" stroke="black" stroke-opacity="0.1"/>
<line x1="14.5996" y1="26.6992" x2="157.4" y2="26.6992" stroke="black" stroke-opacity="0.1"/>
<line x1="14.5996" y1="40.2998" x2="157.4" y2="40.2998" stroke="black" stroke-opacity="0.1"/>
<line x1="14.5996" y1="53.8994" x2="157.4" y2="53.8994" stroke="black" stroke-opacity="0.1"/>
<line x1="14.5996" y1="67.5" x2="157.4" y2="67.5" stroke="black" stroke-opacity="0.1"/>
<line x1="14.5996" y1="81.0996" x2="157.4" y2="81.0996" stroke="black" stroke-opacity="0.1"/>
<line x1="14.5996" y1="94.6992" x2="157.4" y2="94.6992" stroke="black" stroke-opacity="0.1"/>
<line x1="14.5996" y1="108.3" x2="157.4" y2="108.3" stroke="black" stroke-opacity="0.1"/>
<line x1="14.5996" y1="121.899" x2="157.4" y2="121.899" stroke="black" stroke-opacity="0.1"/>
<line x1="14.5996" y1="135.5" x2="157.4" y2="135.5" stroke="black" stroke-opacity="0.1"/>
</g>
<g clip-path="url(#clip0)">
<path d="M119.06 85.4791L111.049 93.4902L112.667 95.1088L120.679 87.0977L119.06 85.4791Z" fill="#314252" fill-opacity="0.5"/>
<path d="M113.24 98.636L101.828 87.2241C102.639 86.6829 103.394 86.0637 104.084 85.3757L108.09 81.37L106.472 79.7516L102.466 83.7574C97.5367 88.6751 89.5568 88.6751 84.6276 83.7574L82.9108 82.0406C82.4823 81.6126 81.7945 81.5926 81.3417 81.9949L78.2984 84.6982C75.0125 87.6141 70.1198 87.7884 66.6347 85.1136L82.0478 70.6642C83.1071 69.6673 84.5075 69.1134 85.9621 69.1157H99.4673C100.379 69.1185 101.253 68.7563 101.896 68.1096L108.092 61.9133L106.472 60.2949L100.275 66.4913C100.06 66.7062 99.7689 66.8269 99.465 66.8266H85.9598C83.9236 66.8239 81.9632 67.5993 80.4799 68.9944L64.1511 84.3045C63.6902 84.7371 63.6673 85.4613 64.0999 85.9222C64.1081 85.931 64.1164 85.9396 64.1248 85.948C68.4121 90.2269 75.2899 90.4275 79.8195 86.4058L82.0547 84.4201L83.0092 85.3735C87.4093 89.7761 94.086 90.9723 99.7408 88.3709L111.622 100.254C112.737 101.406 112.708 103.243 111.557 104.359C110.432 105.449 108.643 105.449 107.518 104.359L104.657 101.497L103.038 103.116L105.899 105.977C107.031 107.111 107.031 108.947 105.899 110.081C104.75 111.175 102.944 111.175 101.795 110.081L98.934 107.22L97.3156 108.838L100.177 111.7C101.309 112.833 101.309 114.67 100.177 115.804C99.0277 116.898 97.2219 116.898 96.0727 115.804L93.2114 112.942L91.5931 114.561L94.4544 117.422C95.5863 118.556 95.5863 120.392 94.4544 121.526C93.3051 122.621 91.4994 122.621 90.3501 121.526L88.274 119.45C90.1692 117.329 89.9859 114.073 87.8647 112.178C86.7565 111.188 85.2748 110.725 83.8001 110.907C84.1506 108.097 82.1567 105.535 79.3467 105.185C78.9252 105.132 78.499 105.132 78.0775 105.185C78.428 102.375 76.4342 99.8129 73.6241 99.4624C73.2026 99.4099 72.7764 99.4099 72.355 99.4624C72.7033 96.6393 70.6972 94.0684 67.8742 93.7201C66.4009 93.5382 64.921 94.0011 63.8135 94.9896L54.298 85.4742L52.6797 87.0925L62.1711 96.5839L60.119 98.636C58.0919 100.661 58.0901 103.946 60.1151 105.973C61.0891 106.948 62.4112 107.496 63.7895 107.495C63.9872 107.487 64.1843 107.468 64.38 107.438C64.033 110.262 66.0403 112.832 68.8635 113.179C69.0787 113.205 69.2953 113.218 69.512 113.217C69.7097 113.209 69.9069 113.191 70.1026 113.161C69.7555 115.984 71.7628 118.554 74.5861 118.901C74.8012 118.928 75.0178 118.941 75.2346 118.94C75.4323 118.932 75.6294 118.913 75.8251 118.884C75.4915 121.722 77.5223 124.294 80.3611 124.628C81.9354 124.813 83.5075 124.266 84.6276 123.145L86.6797 121.093L88.7318 123.145C90.7576 125.172 94.0432 125.173 96.0704 123.147C97.1843 122.034 97.7324 120.475 97.5606 118.91C100.407 119.224 102.969 117.17 103.283 114.323C103.325 113.946 103.325 113.565 103.283 113.187C106.13 113.501 108.692 111.448 109.006 108.601C109.047 108.223 109.047 107.842 109.006 107.465C111.854 107.778 114.417 105.722 114.731 102.873C114.902 101.308 114.354 99.7492 113.24 98.636ZM65.8416 104.359C64.7071 105.489 62.8718 105.489 61.7374 104.359C60.6054 103.225 60.6054 101.388 61.7374 100.254L65.1709 96.8209C66.3221 95.7054 68.1596 95.7344 69.2751 96.8857C70.3658 98.0113 70.3658 99.7994 69.2751 100.925L65.8416 104.359ZM71.5641 110.081C70.4296 111.212 68.5944 111.212 67.4599 110.081C66.328 108.947 66.328 107.111 67.4599 105.977L70.8934 102.543C72.0447 101.428 73.8822 101.457 74.9977 102.608C76.0884 103.734 76.0884 105.522 74.9977 106.648L71.5641 110.081ZM73.1825 115.804C72.0505 114.67 72.0505 112.833 73.1825 111.7L76.616 108.266C77.7672 107.15 79.6047 107.18 80.7202 108.331C81.8109 109.456 81.8109 111.244 80.7202 112.37L77.2867 115.804C76.1522 116.934 74.317 116.934 73.1825 115.804ZM86.4428 118.093L83.0092 121.526C81.858 122.642 80.0205 122.613 78.905 121.461C77.8143 120.336 77.8143 118.548 78.905 117.422L82.3386 113.989C83.4898 112.873 85.3273 112.902 86.4428 114.053C87.5335 115.179 87.5335 116.967 86.4428 118.093Z" fill="#314252" fill-opacity="0.5"/>
<path d="M73.8946 66.8266C73.5907 66.8269 73.2991 66.7062 73.0843 66.4913L66.8879 60.2949L65.2695 61.9133L71.4659 68.1096C72.1084 68.7563 72.9831 69.1185 73.8946 69.1157H77.5238V66.8266H73.8946Z" fill="#314252" fill-opacity="0.5"/>
</g>
<path d="M37.0137 25.5596L36.0157 22.7842H32.1944L31.2169 25.5596H29.4942L33.2335 15.5244H35.0108L38.7501 25.5596H37.0137ZM35.585 21.376L34.6485 18.6553C34.5802 18.473 34.4845 18.1859 34.3614 17.7939C34.2429 17.402 34.1609 17.1149 34.1153 16.9326C33.9923 17.4932 33.8123 18.1061 33.5753 18.7715L32.6729 21.376H35.585ZM44.9776 23.4062C44.9776 24.1445 44.7087 24.7119 44.171 25.1084C43.6332 25.5003 42.863 25.6963 41.8604 25.6963C40.8533 25.6963 40.0443 25.5436 39.4337 25.2383V23.8506C40.3223 24.2607 41.1495 24.4658 41.9151 24.4658C42.904 24.4658 43.3985 24.1673 43.3985 23.5703C43.3985 23.3789 43.3438 23.2194 43.2345 23.0918C43.1251 22.9642 42.9451 22.832 42.6944 22.6953C42.4438 22.5586 42.0951 22.4036 41.6485 22.2305C40.7781 21.8932 40.1879 21.556 39.878 21.2188C39.5727 20.8815 39.42 20.444 39.42 19.9062C39.42 19.2591 39.6798 18.7578 40.1993 18.4023C40.7234 18.0423 41.4343 17.8623 42.3321 17.8623C43.2208 17.8623 44.0616 18.0423 44.8546 18.4023L44.335 19.6123C43.5193 19.2751 42.8334 19.1064 42.2774 19.1064C41.4298 19.1064 41.0059 19.348 41.0059 19.8311C41.0059 20.068 41.1153 20.2686 41.3341 20.4326C41.5574 20.5967 42.0404 20.8223 42.7833 21.1094C43.4076 21.3509 43.8611 21.5719 44.1436 21.7725C44.4262 21.973 44.6358 22.2054 44.7725 22.4697C44.9093 22.7295 44.9776 23.0417 44.9776 23.4062ZM51.7999 23.4062C51.7999 24.1445 51.531 24.7119 50.9932 25.1084C50.4555 25.5003 49.6853 25.6963 48.6827 25.6963C47.6755 25.6963 46.8666 25.5436 46.2559 25.2383V23.8506C47.1446 24.2607 47.9718 24.4658 48.7374 24.4658C49.7263 24.4658 50.2208 24.1673 50.2208 23.5703C50.2208 23.3789 50.1661 23.2194 50.0567 23.0918C49.9473 22.9642 49.7673 22.832 49.5167 22.6953C49.266 22.5586 48.9174 22.4036 48.4708 22.2305C47.6003 21.8932 47.0102 21.556 46.7003 21.2188C46.3949 20.8815 46.2423 20.444 46.2423 19.9062C46.2423 19.2591 46.502 18.7578 47.0216 18.4023C47.5456 18.0423 48.2566 17.8623 49.1544 17.8623C50.043 17.8623 50.8839 18.0423 51.6768 18.4023L51.1573 19.6123C50.3415 19.2751 49.6557 19.1064 49.0997 19.1064C48.252 19.1064 47.8282 19.348 47.8282 19.8311C47.8282 20.068 47.9376 20.2686 48.1563 20.4326C48.3796 20.5967 48.8627 20.8223 49.6055 21.1094C50.2299 21.3509 50.6833 21.5719 50.9659 21.7725C51.2484 21.973 51.4581 22.2054 51.5948 22.4697C51.7315 22.7295 51.7999 23.0417 51.7999 23.4062ZM56.8448 25.6963C55.669 25.6963 54.7484 25.3545 54.0831 24.6709C53.4223 23.9827 53.0919 23.0371 53.0919 21.834C53.0919 20.599 53.3995 19.6283 54.0147 18.9219C54.63 18.2155 55.4753 17.8623 56.5509 17.8623C57.5489 17.8623 58.3373 18.1654 58.9161 18.7715C59.4949 19.3776 59.7843 20.2116 59.7843 21.2734V22.1416H54.7462C54.769 22.8753 54.9672 23.4404 55.3409 23.8369C55.7146 24.2288 56.241 24.4248 56.92 24.4248C57.3666 24.4248 57.7813 24.3838 58.1641 24.3018C58.5515 24.2152 58.9662 24.0739 59.4083 23.8779V25.1836C59.0164 25.3704 58.6199 25.5026 58.2188 25.5801C57.8178 25.6576 57.3598 25.6963 56.8448 25.6963ZM56.5509 19.0791C56.0404 19.0791 55.6303 19.2409 55.3204 19.5645C55.0151 19.888 54.8328 20.3597 54.7735 20.9795H58.2052C58.196 20.3551 58.0456 19.8835 57.754 19.5645C57.4623 19.2409 57.0613 19.0791 56.5509 19.0791ZM66.6886 23.4062C66.6886 24.1445 66.4197 24.7119 65.8819 25.1084C65.3442 25.5003 64.574 25.6963 63.5714 25.6963C62.5642 25.6963 61.7553 25.5436 61.1446 25.2383V23.8506C62.0333 24.2607 62.8604 24.4658 63.6261 24.4658C64.615 24.4658 65.1095 24.1673 65.1095 23.5703C65.1095 23.3789 65.0548 23.2194 64.9454 23.0918C64.836 22.9642 64.656 22.832 64.4053 22.6953C64.1547 22.5586 63.8061 22.4036 63.3595 22.2305C62.489 21.8932 61.8988 21.556 61.5889 21.2188C61.2836 20.8815 61.1309 20.444 61.1309 19.9062C61.1309 19.2591 61.3907 18.7578 61.9102 18.4023C62.4343 18.0423 63.1453 17.8623 64.043 17.8623C64.9317 17.8623 65.7725 18.0423 66.5655 18.4023L66.046 19.6123C65.2302 19.2751 64.5443 19.1064 63.9884 19.1064C63.1407 19.1064 62.7169 19.348 62.7169 19.8311C62.7169 20.068 62.8262 20.2686 63.045 20.4326C63.2683 20.5967 63.7514 20.8223 64.4942 21.1094C65.1186 21.3509 65.572 21.5719 65.8546 21.7725C66.1371 21.973 66.3468 22.2054 66.4835 22.4697C66.6202 22.7295 66.6886 23.0417 66.6886 23.4062ZM73.5108 23.4062C73.5108 24.1445 73.2419 24.7119 72.7042 25.1084C72.1664 25.5003 71.3962 25.6963 70.3936 25.6963C69.3865 25.6963 68.5776 25.5436 67.9669 25.2383V23.8506C68.8555 24.2607 69.6827 24.4658 70.4483 24.4658C71.4373 24.4658 71.9317 24.1673 71.9317 23.5703C71.9317 23.3789 71.877 23.2194 71.7677 23.0918C71.6583 22.9642 71.4783 22.832 71.2276 22.6953C70.977 22.5586 70.6283 22.4036 70.1817 22.2305C69.3113 21.8932 68.7211 21.556 68.4112 21.2188C68.1059 20.8815 67.9532 20.444 67.9532 19.9062C67.9532 19.2591 68.213 18.7578 68.7325 18.4023C69.2566 18.0423 69.9675 17.8623 70.8653 17.8623C71.754 17.8623 72.5948 18.0423 73.3878 18.4023L72.8682 19.6123C72.0525 19.2751 71.3666 19.1064 70.8106 19.1064C69.963 19.1064 69.5391 19.348 69.5391 19.8311C69.5391 20.068 69.6485 20.2686 69.8673 20.4326C70.0906 20.5967 70.5736 20.8223 71.3165 21.1094C71.9408 21.3509 72.3943 21.5719 72.6768 21.7725C72.9594 21.973 73.169 22.2054 73.3057 22.4697C73.4425 22.7295 73.5108 23.0417 73.5108 23.4062ZM77.797 28.3486C77.3503 28.3486 76.9766 28.2917 76.6759 28.1777V26.8037C77.0587 26.8994 77.3914 26.9473 77.6739 26.9473C78.5671 26.9473 79.0137 26.3822 79.0137 25.252V15.5654H80.6544V25.1973C80.6544 26.2181 80.4106 26.9974 79.9229 27.5352C79.4399 28.0775 78.7312 28.3486 77.797 28.3486ZM89.7803 21.7656C89.7803 23.0007 89.4636 23.9645 88.8302 24.6572C88.1967 25.3499 87.3149 25.6963 86.1846 25.6963C85.4783 25.6963 84.8539 25.5368 84.3116 25.2178C83.7693 24.8988 83.3523 24.4408 83.0606 23.8438C82.769 23.2467 82.6231 22.554 82.6231 21.7656C82.6231 20.5397 82.9376 19.5827 83.5665 18.8945C84.1954 18.2064 85.0818 17.8623 86.2257 17.8623C87.3194 17.8623 88.1853 18.2155 88.8233 18.9219C89.4613 19.6237 89.7803 20.5716 89.7803 21.7656ZM84.2774 21.7656C84.2774 23.5111 84.9223 24.3838 86.212 24.3838C87.488 24.3838 88.1261 23.5111 88.1261 21.7656C88.1261 20.0384 87.4835 19.1748 86.1983 19.1748C85.5238 19.1748 85.0339 19.3981 84.7286 19.8447C84.4278 20.2913 84.2774 20.9316 84.2774 21.7656ZM95.4952 17.8623C96.4386 17.8623 97.1723 18.2041 97.6964 18.8877C98.225 19.5713 98.4893 20.5306 98.4893 21.7656C98.4893 23.0052 98.2227 23.9714 97.6895 24.6641C97.1563 25.3522 96.4158 25.6963 95.4678 25.6963C94.5108 25.6963 93.768 25.3522 93.2393 24.6641H93.13L92.836 25.5596H91.6329V14.9229H93.2393V17.4521C93.2393 17.639 93.2302 17.917 93.212 18.2861C93.1938 18.6553 93.1801 18.89 93.171 18.9902H93.2393C93.7498 18.2383 94.5017 17.8623 95.4952 17.8623ZM95.0782 19.1748C94.4311 19.1748 93.9639 19.3662 93.6768 19.749C93.3943 20.1273 93.2484 20.763 93.2393 21.6562V21.7656C93.2393 22.6862 93.3852 23.3538 93.6768 23.7686C93.9685 24.1787 94.4447 24.3838 95.1055 24.3838C95.6752 24.3838 96.1059 24.1582 96.3975 23.707C96.6938 23.2559 96.8419 22.6042 96.8419 21.752C96.8419 20.0339 96.254 19.1748 95.0782 19.1748ZM110.698 21.7656C110.698 23.0007 110.382 23.9645 109.748 24.6572C109.115 25.3499 108.233 25.6963 107.103 25.6963C106.396 25.6963 105.772 25.5368 105.23 25.2178C104.687 24.8988 104.27 24.4408 103.979 23.8438C103.687 23.2467 103.541 22.554 103.541 21.7656C103.541 20.5397 103.856 19.5827 104.484 18.8945C105.113 18.2064 106 17.8623 107.144 17.8623C108.237 17.8623 109.103 18.2155 109.741 18.9219C110.379 19.6237 110.698 20.5716 110.698 21.7656ZM105.195 21.7656C105.195 23.5111 105.84 24.3838 107.13 24.3838C108.406 24.3838 109.044 23.5111 109.044 21.7656C109.044 20.0384 108.401 19.1748 107.116 19.1748C106.442 19.1748 105.952 19.3981 105.647 19.8447C105.346 20.2913 105.195 20.9316 105.195 21.7656ZM116.345 19.2158H114.499V25.5596H112.886V19.2158H111.642V18.4639L112.886 17.9717V17.4795C112.886 16.5863 113.095 15.9255 113.515 15.4971C113.934 15.0641 114.574 14.8477 115.436 14.8477C116.001 14.8477 116.557 14.9411 117.104 15.1279L116.68 16.3447C116.283 16.2171 115.905 16.1533 115.545 16.1533C115.18 16.1533 114.914 16.2673 114.745 16.4951C114.581 16.7184 114.499 17.0557 114.499 17.5068V17.999H116.345V19.2158ZM121.424 19.2158H119.578V25.5596H117.965V19.2158H116.721V18.4639L117.965 17.9717V17.4795C117.965 16.5863 118.175 15.9255 118.594 15.4971C119.013 15.0641 119.653 14.8477 120.515 14.8477C121.08 14.8477 121.636 14.9411 122.183 15.1279L121.759 16.3447C121.362 16.2171 120.984 16.1533 120.624 16.1533C120.26 16.1533 119.993 16.2673 119.824 16.4951C119.66 16.7184 119.578 17.0557 119.578 17.5068V17.999H121.424V19.2158ZM126.024 25.6963C124.849 25.6963 123.928 25.3545 123.263 24.6709C122.602 23.9827 122.272 23.0371 122.272 21.834C122.272 20.599 122.579 19.6283 123.194 18.9219C123.81 18.2155 124.655 17.8623 125.731 17.8623C126.729 17.8623 127.517 18.1654 128.096 18.7715C128.675 19.3776 128.964 20.2116 128.964 21.2734V22.1416H123.926C123.949 22.8753 124.147 23.4404 124.521 23.8369C124.894 24.2288 125.421 24.4248 126.1 24.4248C126.546 24.4248 126.961 24.3838 127.344 24.3018C127.731 24.2152 128.146 24.0739 128.588 23.8779V25.1836C128.196 25.3704 127.8 25.5026 127.399 25.5801C126.997 25.6576 126.539 25.6963 126.024 25.6963ZM125.731 19.0791C125.22 19.0791 124.81 19.2409 124.5 19.5645C124.195 19.888 124.012 20.3597 123.953 20.9795H127.385C127.376 20.3551 127.225 19.8835 126.934 19.5645C126.642 19.2409 126.241 19.0791 125.731 19.0791ZM134.624 17.8623C134.948 17.8623 135.214 17.8851 135.424 17.9307L135.267 19.4277C135.039 19.373 134.802 19.3457 134.556 19.3457C133.913 19.3457 133.391 19.5553 132.99 19.9746C132.594 20.3939 132.396 20.9385 132.396 21.6084V25.5596H130.789V17.999H132.047L132.259 19.332H132.341C132.592 18.8809 132.917 18.5231 133.318 18.2588C133.724 17.9945 134.159 17.8623 134.624 17.8623ZM141.911 23.4062C141.911 24.1445 141.642 24.7119 141.105 25.1084C140.567 25.5003 139.797 25.6963 138.794 25.6963C137.787 25.6963 136.978 25.5436 136.367 25.2383V23.8506C137.256 24.2607 138.083 24.4658 138.849 24.4658C139.838 24.4658 140.332 24.1673 140.332 23.5703C140.332 23.3789 140.277 23.2194 140.168 23.0918C140.059 22.9642 139.879 22.832 139.628 22.6953C139.377 22.5586 139.029 22.4036 138.582 22.2305C137.712 21.8932 137.121 21.556 136.812 21.2188C136.506 20.8815 136.354 20.444 136.354 19.9062C136.354 19.2591 136.613 18.7578 137.133 18.4023C137.657 18.0423 138.368 17.8623 139.266 17.8623C140.154 17.8623 140.995 18.0423 141.788 18.4023L141.269 19.6123C140.453 19.2751 139.767 19.1064 139.211 19.1064C138.363 19.1064 137.94 19.348 137.94 19.8311C137.94 20.068 138.049 20.2686 138.268 20.4326C138.491 20.5967 138.974 20.8223 139.717 21.1094C140.341 21.3509 140.795 21.5719 141.077 21.7725C141.36 21.973 141.569 22.2054 141.706 22.4697C141.843 22.7295 141.911 23.0417 141.911 23.4062Z" fill="#314252"/>
<defs>
<filter id="filter0_d" x="0" y="0" width="174" height="165.16" filterUnits="userSpaceOnUse" color-interpolation-filters="sRGB">
<feFlood flood-opacity="0" result="BackgroundImageFix"/>
<feColorMatrix in="SourceAlpha" type="matrix" values="0 0 0 0 0 0 0 0 0 0 0 0 0 0 0 0 0 0 127 0"/>
<feOffset dx="1" dy="2"/>
<feGaussianBlur stdDeviation="1"/>
<feColorMatrix type="matrix" values="0 0 0 0 0 0 0 0 0 0 0 0 0 0 0 0 0 0 0.1 0"/>
<feBlend mode="normal" in2="BackgroundImageFix" result="effect1_dropShadow"/>
<feBlend mode="normal" in="SourceGraphic" in2="effect1_dropShadow" result="shape"/>
</filter>
<clipPath id="clip0">
<rect width="68" height="68" fill="white" transform="translate(52.6797 58.4805)"/>
</clipPath>
</defs>
</svg>
