<svg width="174" height="166" viewBox="0 0 174 166" fill="none" xmlns="http://www.w3.org/2000/svg">
<g filter="url(#filter0_d)">
<path d="M1 7.99999V161.16L7.23853 156.645L15.0367 161.16L22.8349 156.645L30.633 161.16L38.4312 156.645L46.2294 161.16L54.0275 156.645L61.8257 161.16L69.6239 156.645L77.422 161.16L85.2202 156.645L93.0183 161.16L100.817 156.645L108.615 161.16L116.413 156.645L124.211 161.16L132.009 156.645L139.807 161.16L147.605 156.645L155.404 161.16L163.202 156.645L171 161.16V8C171 3.58172 167.418 0 163 0H9C4.58172 0 1 3.58171 1 7.99999Z" fill="white"/>
<path d="M7.48907 156.212L7.20825 156.049L6.94538 156.24L1.5 160.181V7.99999C1.5 3.85786 4.85786 0.5 9 0.5H163C167.142 0.5 170.5 3.85786 170.5 8V160.293L163.452 156.212L163.202 156.067L162.951 156.212L155.404 160.582L147.856 156.212L147.605 156.067L147.355 156.212L139.807 160.582L132.26 156.212L132.009 156.067L131.759 156.212L124.211 160.582L116.663 156.212L116.413 156.067L116.162 156.212L108.615 160.582L101.067 156.212L100.817 156.067L100.566 156.212L93.0183 160.582L85.4707 156.212L85.2202 156.067L84.9696 156.212L77.422 160.582L69.8744 156.212L69.6239 156.067L69.3733 156.212L61.8257 160.582L54.2781 156.212L54.0275 156.067L53.777 156.212L46.2294 160.582L38.6817 156.212L38.4312 156.067L38.1807 156.212L30.633 160.582L23.0854 156.212L22.8349 156.067L22.5843 156.212L15.0367 160.582L7.48907 156.212Z" stroke="black" stroke-opacity="0.1"/>
</g>
<g opacity="0.5">
<line x1="14.5996" y1="13.0996" x2="157.4" y2="13.0996" stroke="black" stroke-opacity="0.1"/>
<line x1="14.5986" y1="26.7002" x2="157.399" y2="26.7002" stroke="black" stroke-opacity="0.1"/>
<line x1="14.5986" y1="40.2998" x2="157.399" y2="40.2998" stroke="black" stroke-opacity="0.1"/>
<line x1="14.5986" y1="53.9004" x2="157.399" y2="53.9004" stroke="black" stroke-opacity="0.1"/>
<line x1="14.5986" y1="67.5" x2="157.399" y2="67.5" stroke="black" stroke-opacity="0.1"/>
<line x1="14.5986" y1="81.1006" x2="157.399" y2="81.1006" stroke="black" stroke-opacity="0.1"/>
<line x1="14.5986" y1="94.7002" x2="157.399" y2="94.7002" stroke="black" stroke-opacity="0.1"/>
<line x1="14.5986" y1="108.3" x2="157.399" y2="108.3" stroke="black" stroke-opacity="0.1"/>
<line x1="14.5986" y1="121.9" x2="157.399" y2="121.9" stroke="black" stroke-opacity="0.1"/>
<line x1="14.5986" y1="135.5" x2="157.399" y2="135.5" stroke="black" stroke-opacity="0.1"/>
</g>
<g clip-path="url(#clip0)">
<path d="M112.746 92.2553H109.346V86.567C112.196 84.4337 113.876 81.0825 113.88 77.522C116.322 77.5237 118.325 75.5852 118.403 73.1436C118.481 70.7021 116.606 68.6397 114.168 68.4853L114.588 65.1318C114.881 62.7395 113.508 60.4551 111.257 59.593C110.306 58.0512 108.623 57.1155 106.812 57.1221H93.4797C91.4299 57.1155 89.632 58.489 89.1002 60.4684C88.5684 62.4479 89.4355 64.5374 91.213 65.559V68.4554C88.7089 68.4554 86.6797 70.4852 86.6797 72.9887C86.6797 75.4927 88.7089 77.522 91.213 77.522C91.2163 81.0825 92.8958 84.4337 95.7463 86.567V92.2553H92.3463C91.4449 92.2553 90.5506 92.4085 89.7012 92.709L90.4582 94.8451C91.0641 94.6309 91.7027 94.5214 92.3463 94.5219H98.4457L100.245 98.1228L98.0218 115.916C97.9787 116.263 98.0976 116.61 98.345 116.858L101.745 120.258C102.187 120.7 102.905 120.7 103.348 120.258L106.748 116.858C106.994 116.61 107.114 116.263 107.07 115.916L104.847 98.1228L106.646 94.5219H112.746C115.874 94.5258 118.409 97.0608 118.413 100.189V125.122H120.68V100.189C120.675 95.8096 117.125 92.2602 112.746 92.2553ZM113.88 70.7923L113.888 70.722C115.14 70.7248 116.153 71.7414 116.151 72.9937C116.148 74.2454 115.131 75.2581 113.88 75.2553V70.7923ZM91.213 75.2553C89.9607 75.2553 88.9463 74.241 88.9463 72.9887C88.9463 71.7369 89.9607 70.722 91.213 70.722V75.2553ZM91.213 61.6554C91.213 60.4037 92.2273 59.3888 93.4797 59.3888H106.812C107.937 59.3843 108.966 60.0207 109.465 61.029C109.6 61.2968 109.835 61.5005 110.119 61.5957L110.332 61.6681C111.672 62.1169 112.51 63.4467 112.338 64.8495L112.167 66.2208L111.532 64.6343C111.36 64.2037 110.943 63.9221 110.48 63.9221H93.4797C92.2273 63.9221 91.213 62.9077 91.213 61.6554ZM102.546 117.853L100.339 115.646L102.413 99.0552H102.679L104.753 115.646L102.546 117.853ZM100.98 94.5219H104.112L102.979 96.7886H102.113L100.98 94.5219ZM107.08 92.2553H98.013V87.9023C100.902 89.1729 104.191 89.1729 107.08 87.9023V92.2553ZM102.546 86.5886C97.5409 86.5831 93.4852 82.5273 93.4797 77.522V66.1887H109.712L111.613 70.9412V77.522C111.607 82.5273 107.551 86.5831 102.546 86.5886Z" fill="#314252" fill-opacity="0.5"/>
<path d="M53.8142 125.12H87.814C88.4399 125.12 88.9473 124.613 88.9473 123.987V105.695C90.4957 106.156 92.1597 105.506 92.9854 104.117C93.8116 102.728 93.5886 100.956 92.4447 99.8154L83.4628 90.8335C87.5744 85.1248 87.7426 77.4732 83.8867 71.589C80.0307 65.7049 72.9474 62.8052 66.0722 64.296C59.1969 65.7868 53.9509 71.3605 52.879 78.3132C51.8065 85.2659 55.1296 92.1605 61.2362 95.6534H56.0808C55.455 95.6534 54.9475 96.1609 54.9475 96.7868V100.187H53.8142C53.1883 100.187 52.6809 100.694 52.6809 101.32V123.987C52.6809 124.613 53.1883 125.12 53.8142 125.12ZM86.6807 97.256L90.8421 101.418C91.2057 101.781 91.3147 102.328 91.1177 102.803C90.9213 103.278 90.4575 103.587 89.9434 103.587C89.6059 103.588 89.2821 103.454 89.0447 103.215L86.6807 100.851V97.256ZM85.0781 95.6534H81.4828L80.1309 94.3015C80.7993 93.7775 81.428 93.2047 82.0124 92.5883L85.0781 95.6534ZM54.9475 80.9202C54.9475 72.7832 61.5438 66.1869 69.6808 66.1869C77.8177 66.1869 84.414 72.7832 84.414 80.9202C84.414 89.0571 77.8177 95.6534 69.6808 95.6534C61.5477 95.644 54.9569 89.0532 54.9475 80.9202ZM78.2781 95.6534H78.1248C78.158 95.6357 78.1885 95.6153 78.22 95.5959L78.2781 95.6534ZM57.2142 97.9201H84.414V103.587H82.1474V100.187H79.8807V103.587H77.6141V100.187H75.3474V103.587H73.0808V100.187H70.8141V103.587H68.5474V100.187H66.2808V103.587H65.7534L63.8271 100.691C63.6163 100.375 63.2604 100.186 62.8808 100.187H57.2142V97.9201ZM54.9475 102.453H62.2743L64.2012 105.349C64.412 105.665 64.7673 105.855 65.1475 105.853H86.6807V122.853H54.9475V102.453Z" fill="#314252" fill-opacity="0.5"/>
<path d="M99.1461 72.4197C99.1461 73.3588 98.3846 74.1197 97.4461 74.1197C96.507 74.1197 95.7461 73.3588 95.7461 72.4197C95.7461 71.4812 96.507 70.7197 97.4461 70.7197C98.3846 70.7197 99.1461 71.4812 99.1461 72.4197Z" fill="#314252" fill-opacity="0.5"/>
<path d="M109.346 72.4197C109.346 73.3588 108.585 74.1197 107.646 74.1197C106.707 74.1197 105.946 73.3588 105.946 72.4197C105.946 71.4812 106.707 70.7197 107.646 70.7197C108.585 70.7197 109.346 71.4812 109.346 72.4197Z" fill="#314252" fill-opacity="0.5"/>
<path d="M82.1472 80.9198C82.1472 74.0351 76.5652 68.4531 69.6805 68.4531C62.7953 68.4531 57.2139 74.0351 57.2139 80.9198C57.2139 87.805 62.7953 93.3865 69.6805 93.3865C76.5619 93.3787 82.1389 87.8017 82.1472 80.9198ZM59.4805 80.9198C59.4805 75.2869 64.0471 70.7198 69.6805 70.7198C75.3134 70.7198 79.8805 75.2869 79.8805 80.9198C79.8805 86.5533 75.3134 91.1198 69.6805 91.1198C64.0498 91.1137 59.4866 86.5505 59.4805 80.9198Z" fill="#314252" fill-opacity="0.5"/>
<path d="M69.6804 72.9863C65.3009 72.9913 61.7521 76.5407 61.7471 80.9197H64.0137C64.0171 77.7919 66.5521 75.2569 69.6804 75.253V72.9863Z" fill="#314252" fill-opacity="0.5"/>
<path d="M57.2139 104.72H60.6139V106.986H57.2139V104.72Z" fill="#314252" fill-opacity="0.5"/>
<path d="M108.214 106.986H116.147V109.253H108.214V106.986Z" fill="#314252" fill-opacity="0.5"/>
</g>
<path d="M57.6925 25.5605H52.0391V15.5664H57.6925V16.9473H53.6729V19.668H57.4395V21.0352H53.6729V24.1729H57.6925V25.5605ZM64.419 25.5605L64.0977 24.5078H64.043C63.6785 24.9681 63.3116 25.2826 62.9425 25.4512C62.5733 25.6152 62.0994 25.6973 61.5206 25.6973C60.7777 25.6973 60.1967 25.4967 59.7774 25.0957C59.3627 24.6947 59.1553 24.1273 59.1553 23.3936C59.1553 22.6143 59.4447 22.0264 60.0235 21.6299C60.6023 21.2334 61.4841 21.0169 62.669 20.9805L63.9747 20.9395V20.5361C63.9747 20.0531 63.8608 19.693 63.6329 19.4561C63.4096 19.2145 63.0609 19.0938 62.587 19.0938C62.1996 19.0938 61.8282 19.1507 61.4727 19.2646C61.1173 19.3786 60.7755 19.513 60.4473 19.668L59.9278 18.5195C60.338 18.3053 60.7869 18.1436 61.2745 18.0342C61.7621 17.9202 62.2224 17.8633 62.6553 17.8633C63.6169 17.8633 64.3415 18.0729 64.8292 18.4922C65.3214 18.9115 65.5675 19.57 65.5675 20.4678V25.5605H64.419ZM62.0264 24.4668C62.6098 24.4668 63.0769 24.305 63.4278 23.9814C63.7833 23.6533 63.961 23.1953 63.961 22.6074V21.9512L62.9903 21.9922C62.2338 22.0195 61.6824 22.1471 61.336 22.375C60.9942 22.5983 60.8233 22.9424 60.8233 23.4072C60.8233 23.7445 60.9236 24.0065 61.1241 24.1934C61.3246 24.3757 61.6254 24.4668 62.0264 24.4668ZM71.6446 17.8633C71.9682 17.8633 72.2348 17.8861 72.4444 17.9316L72.2872 19.4287C72.0593 19.374 71.8223 19.3467 71.5762 19.3467C70.9337 19.3467 70.4119 19.5563 70.0108 19.9756C69.6143 20.3949 69.4161 20.9395 69.4161 21.6094V25.5605H67.8096V18H69.0675L69.2794 19.333H69.3614C69.6121 18.8818 69.9379 18.5241 70.3389 18.2598C70.7445 17.9954 71.1798 17.8633 71.6446 17.8633ZM80.504 25.5605H78.8907V20.9121C78.8907 20.3288 78.7722 19.8936 78.5352 19.6064C78.3028 19.3193 77.9314 19.1758 77.421 19.1758C76.7419 19.1758 76.2452 19.3763 75.9307 19.7773C75.6163 20.1784 75.4591 20.8506 75.4591 21.7939V25.5605H73.8526V18H75.1104L75.336 18.9912H75.418C75.6459 18.6312 75.9695 18.3532 76.3887 18.1572C76.808 17.9613 77.2729 17.8633 77.7833 17.8633C79.5971 17.8633 80.504 18.7861 80.504 20.6318V25.5605ZM92.7471 25.5605H91.1339V20.8984C91.1339 20.3197 91.0245 19.889 90.8057 19.6064C90.587 19.3193 90.2452 19.1758 89.7803 19.1758C89.1606 19.1758 88.7048 19.3786 88.4132 19.7842C88.1261 20.1852 87.9825 20.8551 87.9825 21.7939V25.5605H86.3761V18H87.6339L87.8595 18.9912H87.9415C88.1511 18.6312 88.4542 18.3532 88.8507 18.1572C89.2517 17.9613 89.6915 17.8633 90.17 17.8633C91.3321 17.8633 92.1023 18.2598 92.4805 19.0527H92.5899C92.8132 18.679 93.1277 18.3874 93.5333 18.1777C93.9389 17.9681 94.4037 17.8633 94.9278 17.8633C95.8302 17.8633 96.4864 18.0911 96.8966 18.5469C97.3113 19.0026 97.5186 19.6976 97.5186 20.6318V25.5605H95.9122V20.8984C95.9122 20.3197 95.8005 19.889 95.5772 19.6064C95.3585 19.3193 95.0167 19.1758 94.5518 19.1758C93.9275 19.1758 93.4695 19.3717 93.1778 19.7637C92.8907 20.151 92.7471 20.748 92.7471 21.5547V25.5605ZM106.467 21.7666C106.467 23.0016 106.15 23.9655 105.517 24.6582C104.883 25.3509 104.001 25.6973 102.871 25.6973C102.165 25.6973 101.54 25.5378 100.998 25.2188C100.456 24.8997 100.039 24.4417 99.7471 23.8447C99.4555 23.2477 99.3096 22.555 99.3096 21.7666C99.3096 20.5407 99.6241 19.5837 100.253 18.8955C100.882 18.2074 101.768 17.8633 102.912 17.8633C104.006 17.8633 104.872 18.2165 105.51 18.9229C106.148 19.6247 106.467 20.5726 106.467 21.7666ZM100.964 21.7666C100.964 23.512 101.609 24.3848 102.899 24.3848C104.175 24.3848 104.813 23.512 104.813 21.7666C104.813 20.0394 104.17 19.1758 102.885 19.1758C102.21 19.1758 101.72 19.3991 101.415 19.8457C101.114 20.2923 100.964 20.9326 100.964 21.7666ZM112.154 17.8633C112.478 17.8633 112.745 17.8861 112.954 17.9316L112.797 19.4287C112.569 19.374 112.332 19.3467 112.086 19.3467C111.443 19.3467 110.922 19.5563 110.521 19.9756C110.124 20.3949 109.926 20.9395 109.926 21.6094V25.5605H108.319V18H109.577L109.789 19.333H109.871C110.122 18.8818 110.448 18.5241 110.849 18.2598C111.254 17.9954 111.69 17.8633 112.154 17.8633ZM117.664 25.6973C116.488 25.6973 115.568 25.3555 114.902 24.6719C114.242 23.9837 113.911 23.0381 113.911 21.835C113.911 20.5999 114.219 19.6292 114.834 18.9229C115.449 18.2165 116.295 17.8633 117.37 17.8633C118.368 17.8633 119.157 18.1663 119.735 18.7725C120.314 19.3786 120.604 20.2126 120.604 21.2744V22.1426H115.566C115.588 22.8763 115.787 23.4414 116.16 23.8379C116.534 24.2298 117.06 24.4258 117.739 24.4258C118.186 24.4258 118.601 24.3848 118.983 24.3027C119.371 24.2161 119.786 24.0749 120.228 23.8789V25.1846C119.836 25.3714 119.439 25.5036 119.038 25.5811C118.637 25.6585 118.179 25.6973 117.664 25.6973ZM117.37 19.0801C116.86 19.0801 116.45 19.2419 116.14 19.5654C115.834 19.889 115.652 20.3607 115.593 20.9805H119.024C119.015 20.3561 118.865 19.8844 118.573 19.5654C118.282 19.2419 117.881 19.0801 117.37 19.0801Z" fill="#314252"/>
<defs>
<filter id="filter0_d" x="0" y="0" width="174" height="165.16" filterUnits="userSpaceOnUse" color-interpolation-filters="sRGB">
<feFlood flood-opacity="0" result="BackgroundImageFix"/>
<feColorMatrix in="SourceAlpha" type="matrix" values="0 0 0 0 0 0 0 0 0 0 0 0 0 0 0 0 0 0 127 0"/>
<feOffset dx="1" dy="2"/>
<feGaussianBlur stdDeviation="1"/>
<feColorMatrix type="matrix" values="0 0 0 0 0 0 0 0 0 0 0 0 0 0 0 0 0 0 0.1 0"/>
<feBlend mode="normal" in2="BackgroundImageFix" result="effect1_dropShadow"/>
<feBlend mode="normal" in="SourceGraphic" in2="effect1_dropShadow" result="shape"/>
</filter>
<clipPath id="clip0">
<rect width="68" height="68" fill="white" transform="translate(52.6797 57.1201)"/>
</clipPath>
</defs>
</svg>
