<svg width="177" height="32" viewBox="0 0 177 32" fill="none" xmlns="http://www.w3.org/2000/svg">
<g clip-path="url(#clip0)">
<path d="M72.4212 9.28974C72.3519 9.21391 72.2603 9.1616 72.1596 9.14003C67.7934 8.29054 63.2873 10.7659 59.4615 12.6738C57.3916 13.7145 55.1435 14.3559 52.8352 14.5643C52.6847 14.5778 52.5335 14.5495 52.3979 14.4825C52.2624 14.4156 52.1481 14.3126 52.068 14.1848C50.1952 11.1698 46.9238 10.0383 45.7517 9.7145C45.6228 9.68094 45.5022 9.61962 45.3995 9.53482C45.2963 9.45002 45.213 9.34383 45.1556 9.22358C43.6455 6.12501 38.5571 5.3695 37.6292 5.25461C37.5888 5.24911 37.5515 5.22981 37.5237 5.2C37.4954 5.17023 37.4787 5.13169 37.4759 5.09096L37.4202 3.99078C37.4136 3.8528 37.4411 3.7153 37.5003 3.5904C39.3452 -0.340272 36.7087 0.00788475 36.1226 0.00788475C35.9049 0.00703268 35.6899 0.0571114 35.4951 0.154111C33.8977 0.951388 35.1464 3.1204 35.5927 3.7993C35.684 3.9384 35.7282 4.10323 35.7181 4.26932L35.6763 4.96563C35.6714 5.03144 35.6432 5.09332 35.5965 5.13997C35.5495 5.18664 35.4878 5.21496 35.4216 5.21979C29.8416 5.56793 27.8188 8.15127 27.362 9.17485C27.2331 9.47381 27.0375 9.73937 26.79 9.95123L26.7482 9.98605C25.7298 10.8738 24.2127 10.8425 22.8177 10.5222C20.9886 10.0527 19.3245 9.08897 18.0083 7.73697C7.2422 -2.77737 0.793703 3.8376 0.179893 7.07896C-0.168863 9.00076 -0.517619 14.8219 4.86371 15.2815C10.245 15.7411 12.4666 16.6742 14.7684 17.8892C17.0702 19.1043 18.0327 20.6466 16.9969 22.833C16.1669 24.5842 13.4989 24.3789 12.2085 24.0307C12.159 24.0178 12.1066 24.022 12.0598 24.0426C12.013 24.0632 11.9745 24.099 11.9507 24.1442C11.9268 24.1894 11.919 24.2413 11.9284 24.2914C11.9379 24.3416 11.9641 24.3872 12.0027 24.4206C17.0074 28.5498 20.2264 24.4728 21.2029 22.9062C21.239 22.8473 21.2892 22.7983 21.3489 22.7635C21.4086 22.7288 21.476 22.7093 21.5451 22.7069C21.6142 22.7045 21.6828 22.7192 21.7448 22.7497C21.8068 22.7802 21.8603 22.8256 21.9004 22.8818C23.7837 25.2806 28.3664 27.2964 30.0823 27.9927C30.1641 28.0256 30.2362 28.0787 30.2918 28.1471C30.3473 28.2155 30.3846 28.2969 30.3999 28.3837C30.4153 28.4704 30.4083 28.5596 30.3795 28.6429C30.3508 28.7261 30.3013 28.8007 30.2357 28.8596C29.9355 29.1143 29.6173 29.347 29.2836 29.5559C28.9484 29.7821 28.5652 29.9274 28.1641 29.9807C26.5239 30.2299 24.933 30.7339 23.4489 31.4743C23.3939 31.5027 23.35 31.5487 23.324 31.6048C23.298 31.661 23.2916 31.7242 23.3055 31.7845C23.3195 31.8447 23.3532 31.8986 23.4013 31.9376C23.4493 31.9766 23.5091 31.9986 23.571 32H49.759C49.8293 32.0003 49.8973 31.9766 49.952 31.9328C50.0067 31.889 50.045 31.8279 50.06 31.7595C50.075 31.6911 50.0663 31.6197 50.0349 31.557C50.0035 31.4943 49.952 31.4442 49.8882 31.4151C48.4931 30.7466 46.8015 30.5134 44.9531 30.0851C43.6176 29.7718 43.0037 29.072 42.7246 28.5393C42.6845 28.4635 42.6615 28.3798 42.658 28.2942C42.6542 28.2085 42.6695 28.1231 42.703 28.0441C42.7361 27.9651 42.787 27.8945 42.8511 27.8375C42.9152 27.7804 42.9911 27.7383 43.0734 27.7142C52.1167 25.2771 65.0451 15.4695 67.5248 13.1438C68.8711 11.8747 70.4432 10.8675 72.1596 10.1741C72.2439 10.1432 72.3198 10.093 72.3812 10.0277C72.4425 9.96226 72.4878 9.88344 72.5132 9.79753C72.5386 9.71158 72.5435 9.62094 72.5275 9.53277C72.5115 9.44459 72.4752 9.36136 72.4212 9.28974ZM19.358 16.9492C19.1278 16.3155 16.7074 14.6479 11.1204 14.2475C5.53331 13.8471 4.38239 11.8452 4.15222 11.497C3.92205 11.1489 3.17222 7.98066 4.78695 6.3687C6.40169 4.75673 10.4891 5.50529 16.132 9.01471C21.7749 12.5241 19.358 16.9492 19.358 16.9492Z" fill="#E3B550"/>
<path d="M0 8.49662C0 8.49662 0 8.13105 0.055801 7.73763C0.162153 6.68319 0.574233 5.6826 1.24157 4.85839C2.56336 3.14197 5.193 1.48823 8.89328 2.20543C12.6878 2.93656 16.0811 5.88197 18.0865 7.82121C18.7608 8.5059 19.5287 9.09196 20.3674 9.56197C18.8328 8.67766 11.7322 4.75046 7.35878 4.74003C6.10769 4.75731 4.87363 5.03178 3.73355 5.54636C2.59345 6.0609 1.57182 6.80448 0.73239 7.73067C0.518708 8.01338 0.27294 8.27039 0 8.49662Z" fill="#FEEAB3"/>
<path d="M43.4756 29.4201C43.9087 29.748 44.4107 29.973 44.9438 30.0781C46.6448 30.2677 48.3068 30.7162 49.8719 31.4081C49.9357 31.4372 49.9873 31.4873 50.0186 31.55C50.05 31.6126 50.0587 31.6841 50.0437 31.7525C50.0287 31.8209 49.9904 31.882 49.9357 31.9258C49.881 31.9695 49.8131 31.9932 49.7427 31.993H23.5617C23.4998 31.9916 23.44 31.9696 23.392 31.9306C23.3439 31.8916 23.3102 31.8377 23.2963 31.7774C23.2823 31.7172 23.2888 31.654 23.3147 31.5978C23.3407 31.5417 23.3846 31.4957 23.4396 31.4673C24.9237 30.7269 26.5146 30.2229 28.1548 29.9737C28.5559 29.9204 28.9391 29.775 29.2743 29.5489C29.2743 29.5489 32.0853 28.6402 43.4756 29.4201Z" fill="#F0CF63"/>
<path d="M27.0359 10.7376C26.4675 15.6327 29.5365 20.2283 34.1785 21.9064C42.0779 24.7578 47.3022 23.6821 49.6423 22.9857C56.8721 20.7993 63.4601 16.9522 67.5231 13.1468C68.8694 11.8765 70.4412 10.8681 72.1578 10.1736C72.2251 10.147 72.2868 10.108 72.3394 10.0587C72.7648 9.6792 72.5871 9.21614 72.0254 9.11517C67.7008 8.34226 63.2472 10.7829 59.4703 12.6733C57.4013 13.7164 55.1526 14.3579 52.8439 14.5638C52.6948 14.5768 52.545 14.5485 52.4108 14.4822C52.2767 14.4159 52.1635 14.3141 52.0837 14.1878C50.2353 11.2076 47.0162 10.0622 45.8061 9.72793C45.6636 9.68689 45.5312 9.6168 45.4169 9.52212C45.303 9.42748 45.2099 9.31023 45.1434 9.17784C43.6507 6.20807 38.8658 5.41426 37.7359 5.26803C37.6683 5.25843 37.6066 5.2257 37.5606 5.17555C37.515 5.12536 37.4881 5.0608 37.4847 4.99301L37.4324 4.02163C37.4254 3.86456 37.4568 3.70814 37.523 3.56557C39.3052 -0.264164 36.7767 0.0073978 36.1279 0.0143609C35.8934 0.0153666 35.6624 0.0689071 35.4512 0.171031C33.9064 0.971791 35.1028 3.0851 35.5596 3.7849C35.66 3.94244 35.7077 4.12776 35.6955 4.31409L35.6641 4.87113C35.6544 4.96014 35.6147 5.04313 35.5512 5.10643C35.4878 5.1697 35.4046 5.20953 35.3154 5.2193C30.4328 5.56744 28.3089 7.6007 27.573 8.76703C27.3739 9.06824 27.2353 9.40525 27.165 9.75927C27.1161 10.1039 27.0848 10.3059 27.0359 10.7376Z" fill="#F2CC65"/>
<path d="M27.6492 9.84631H41.8748C35.0778 9.36582 31.6809 5.99219 31.6809 5.99219C29.3581 6.51097 28.3119 7.61462 27.576 8.77744C27.4245 8.99024 27.3069 9.22513 27.2272 9.47375C27.2206 9.53295 27.2294 9.59285 27.2526 9.6477C27.2757 9.70255 27.3127 9.75055 27.3598 9.78711C27.4516 9.8252 27.5498 9.8453 27.6492 9.84631Z" fill="#E3B550"/>
<path d="M52.3589 14.4525C52.3589 14.4525 52.4251 14.5604 52.753 14.5465C53.9376 14.4922 55.1101 14.2839 56.2407 13.9268C58.109 13.3094 59.919 12.5288 61.65 11.5942C67.6659 8.50254 70.9652 8.8089 72.2557 9.15708C72.2557 9.15708 66.7454 9.38685 60.8723 13.5264C54.9989 17.666 53.2972 16.9732 53.154 16.8304C53.0111 16.6877 53.1366 15.7198 52.3589 14.4525Z" fill="#FEEAB3"/>
<path d="M41.5266 21.0714C46.9101 21.0714 51.2745 18.8736 51.2745 16.1624C51.2745 13.4513 46.9101 11.2534 41.5266 11.2534C36.143 11.2534 31.7788 13.4513 31.7788 16.1624C31.7788 18.8736 36.143 21.0714 41.5266 21.0714Z" fill="#FEEAB3"/>
<path d="M39.8246 11.4347C39.6086 11.3511 39.7096 10.8741 39.9431 10.8428C42.088 10.5329 47.0126 10.2475 49.3596 12.2354C51.8463 14.3244 52.2822 17.5204 49.175 19.8252C48.7178 20.1734 48.4774 19.6825 48.2088 19.209C47.1172 17.2245 45.5409 13.6733 39.8246 11.4347Z" fill="white"/>
<path d="M82.9988 18.4423C82.9988 19.2371 82.711 19.8607 82.135 20.3132C81.5594 20.7656 80.7654 20.9919 79.7528 20.9919C78.74 20.9919 77.911 20.8349 77.2661 20.521V19.1393C77.6745 19.3308 78.1072 19.4817 78.5643 19.5917C79.026 19.7018 79.4546 19.7568 79.8507 19.7568C80.4305 19.7568 80.857 19.6467 81.1308 19.4266C81.4082 19.2065 81.5472 18.911 81.5472 18.5401C81.5472 18.2058 81.4207 17.9225 81.1674 17.6902C80.9145 17.4579 80.3918 17.1827 79.5995 16.8648C78.7828 16.5346 78.2072 16.1576 77.8724 15.7337C77.5375 15.3098 77.3703 14.8003 77.3703 14.2051C77.3703 13.4592 77.6354 12.8723 78.1664 12.4443C78.6971 12.0163 79.4096 11.8023 80.304 11.8023C81.1615 11.8023 82.0148 11.9898 82.8639 12.3648L82.3984 13.5571C81.6023 13.2228 80.8918 13.0557 80.2671 13.0557C79.7936 13.0557 79.434 13.1596 79.1891 13.3675C78.9441 13.5713 78.8218 13.8424 78.8218 14.1807C78.8218 14.413 78.8706 14.6128 78.9689 14.7799C79.0668 14.9429 79.2281 15.0978 79.4525 15.2445C79.6772 15.3913 80.0814 15.5849 80.6654 15.8254C81.3225 16.0985 81.8044 16.3532 82.1106 16.5897C82.4169 16.8261 82.6416 17.0931 82.7845 17.3906C82.9273 17.6882 82.9988 18.0387 82.9988 18.4423ZM87.1022 19.8301C87.4534 19.8301 87.8046 19.7751 88.1558 19.6651V20.7473C87.9966 20.8166 87.7903 20.8736 87.537 20.9185C87.2879 20.9674 87.0286 20.9919 86.7593 20.9919C85.3956 20.9919 84.7137 20.2745 84.7137 18.8397V15.1956H83.789V14.5598L84.781 14.034L85.2708 12.6033H86.159V14.1073H88.0882V15.1956H86.159V18.8152C86.159 19.1617 86.2447 19.4185 86.4165 19.5856C86.5917 19.7486 86.8206 19.8301 87.1022 19.8301ZM95.5236 17.4762C95.5236 18.5808 95.24 19.4429 94.6724 20.0625C94.1048 20.682 93.3146 20.9919 92.3021 20.9919C91.6693 20.9919 91.1097 20.8492 90.624 20.5639C90.138 20.2785 89.7645 19.8689 89.5032 19.3349C89.2418 18.8009 89.1112 18.1814 89.1112 17.4762C89.1112 16.3797 89.3927 15.5238 89.9565 14.9083C90.5199 14.2928 91.3139 13.985 92.339 13.985C93.3188 13.985 94.0947 14.3009 94.6661 14.9327C95.2379 15.5604 95.5236 16.4083 95.5236 17.4762ZM90.5934 17.4762C90.5934 19.0373 91.1711 19.8179 92.3264 19.8179C93.47 19.8179 94.0414 19.0373 94.0414 17.4762C94.0414 15.9314 93.4658 15.1589 92.3142 15.1589C91.7101 15.1589 91.2711 15.3587 90.9976 15.7581C90.7282 16.1576 90.5934 16.7303 90.5934 17.4762ZM99.9151 20.9919C98.8901 20.9919 98.1103 20.6943 97.5755 20.0992C97.0445 19.5 96.7793 18.642 96.7793 17.5251C96.7793 16.3879 97.057 15.5136 97.6121 14.9022C98.1716 14.2907 98.9779 13.985 100.032 13.985C100.746 13.985 101.389 14.1175 101.961 14.3825L101.526 15.538C100.918 15.3016 100.415 15.1834 100.019 15.1834C98.8472 15.1834 98.2615 15.9599 98.2615 17.5129C98.2615 18.2711 98.4065 18.8417 98.6964 19.2249C98.9901 19.6039 99.419 19.7935 99.9824 19.7935C100.623 19.7935 101.23 19.6345 101.802 19.3166V20.57C101.544 20.7208 101.268 20.8288 100.975 20.894C100.685 20.9592 100.332 20.9919 99.9151 20.9919ZM104.784 17.2989L105.599 16.284L107.644 14.1073H109.304L106.579 17.0115L109.476 20.8696H107.785L105.611 17.9042L104.821 18.5523V20.8696H103.394V11.356H104.821V15.9966L104.747 17.2989H104.784ZM118.675 16.3879C118.675 17.8431 118.31 18.9742 117.579 19.7812C116.852 20.5883 115.821 20.9919 114.486 20.9919C113.134 20.9919 112.095 20.5924 111.368 19.7935C110.646 18.9905 110.284 17.8512 110.284 16.3757C110.284 14.9001 110.647 13.767 111.374 12.9762C112.105 12.1855 113.146 11.7901 114.498 11.7901C115.829 11.7901 116.858 12.1916 117.585 12.9946C118.312 13.7976 118.675 14.9287 118.675 16.3879ZM111.84 16.3879C111.84 17.4884 112.062 18.324 112.507 18.8947C112.953 19.4613 113.612 19.7445 114.486 19.7445C115.355 19.7445 116.011 19.4633 116.452 18.9008C116.897 18.3383 117.119 17.5007 117.119 16.3879C117.119 15.2914 116.899 14.4599 116.458 13.8933C116.021 13.3268 115.367 13.0435 114.498 13.0435C113.62 13.0435 112.956 13.3268 112.507 13.8933C112.062 14.4599 111.84 15.2914 111.84 16.3879ZM123.881 20.9919C123.023 20.9919 122.358 20.6841 121.884 20.0686H121.798C121.855 20.6393 121.884 20.9857 121.884 21.108V23.8777H120.445V14.1073H121.608C121.641 14.2337 121.709 14.5353 121.811 15.0122H121.884C122.334 14.3274 123.007 13.985 123.905 13.985C124.751 13.985 125.408 14.2907 125.877 14.9022C126.351 15.5136 126.588 16.3716 126.588 17.4762C126.588 18.5808 126.347 19.4429 125.865 20.0625C125.387 20.682 124.726 20.9919 123.881 20.9919ZM123.532 15.1589C122.96 15.1589 122.542 15.3261 122.276 15.6603C122.015 15.9946 121.884 16.5285 121.884 17.2622V17.4762C121.884 18.2996 122.015 18.8967 122.276 19.2676C122.537 19.6345 122.964 19.8179 123.556 19.8179C124.054 19.8179 124.438 19.6141 124.708 19.2065C124.977 18.7989 125.112 18.2181 125.112 17.464C125.112 16.7058 124.977 16.1331 124.708 15.7459C124.442 15.3546 124.05 15.1589 123.532 15.1589ZM130.783 19.8301C131.134 19.8301 131.486 19.7751 131.837 19.6651V20.7473C131.678 20.8166 131.471 20.8736 131.218 20.9185C130.969 20.9674 130.71 20.9919 130.44 20.9919C129.077 20.9919 128.395 20.2745 128.395 18.8397V15.1956H127.47V14.5598L128.462 14.034L128.952 12.6033H129.84V14.1073H131.77V15.1956H129.84V18.8152C129.84 19.1617 129.926 19.4185 130.097 19.5856C130.273 19.7486 130.502 19.8301 130.783 19.8301ZM134.636 20.8696H133.196V14.1073H134.636V20.8696ZM133.111 12.3159C133.111 12.0591 133.18 11.8614 133.319 11.7228C133.462 11.5842 133.664 11.5149 133.925 11.5149C134.179 11.5149 134.374 11.5842 134.513 11.7228C134.656 11.8614 134.728 12.0591 134.728 12.3159C134.728 12.5604 134.656 12.7541 134.513 12.8967C134.374 13.0353 134.179 13.1046 133.925 13.1046C133.664 13.1046 133.462 13.0353 133.319 12.8967C133.18 12.7541 133.111 12.5604 133.111 12.3159ZM142.708 17.4762C142.708 18.5808 142.424 19.4429 141.857 20.0625C141.289 20.682 140.499 20.9919 139.486 20.9919C138.854 20.9919 138.294 20.8492 137.808 20.5639C137.322 20.2785 136.949 19.8689 136.688 19.3349C136.426 18.8009 136.296 18.1814 136.296 17.4762C136.296 16.3797 136.577 15.5238 137.141 14.9083C137.704 14.2928 138.498 13.985 139.523 13.985C140.503 13.985 141.279 14.3009 141.851 14.9327C142.422 15.5604 142.708 16.4083 142.708 17.4762ZM137.778 17.4762C137.778 19.0373 138.355 19.8179 139.511 19.8179C140.654 19.8179 141.226 19.0373 141.226 17.4762C141.226 15.9314 140.65 15.1589 139.499 15.1589C138.895 15.1589 138.455 15.3587 138.182 15.7581C137.912 16.1576 137.778 16.7303 137.778 17.4762ZM150.327 20.8696H148.882V16.712C148.882 16.1902 148.776 15.8009 148.563 15.5442C148.355 15.2874 148.022 15.1589 147.565 15.1589C146.956 15.1589 146.511 15.3383 146.23 15.697C145.948 16.0557 145.807 16.6569 145.807 17.5007V20.8696H144.368V14.1073H145.495L145.697 14.9939H145.77C145.975 14.6719 146.264 14.4232 146.64 14.248C147.016 14.0727 147.432 13.985 147.889 13.985C149.515 13.985 150.327 14.8105 150.327 16.4613V20.8696ZM156.881 18.9436C156.881 19.6039 156.639 20.1114 156.158 20.466C155.676 20.8166 154.986 20.9919 154.088 20.9919C153.185 20.9919 152.46 20.8553 151.913 20.5822V19.341C152.71 19.7079 153.451 19.8913 154.137 19.8913C155.023 19.8913 155.466 19.6243 155.466 19.0904C155.466 18.9192 155.417 18.7765 155.319 18.6624C155.221 18.5482 155.059 18.43 154.835 18.3077C154.61 18.1855 154.298 18.0469 153.898 17.892C153.118 17.5904 152.589 17.2887 152.312 16.9871C152.038 16.6855 151.901 16.2941 151.901 15.8132C151.901 15.2344 152.134 14.786 152.599 14.4681C153.069 14.146 153.706 13.985 154.51 13.985C155.306 13.985 156.06 14.146 156.77 14.4681L156.305 15.5503C155.574 15.2486 154.959 15.0978 154.461 15.0978C153.702 15.0978 153.322 15.3138 153.322 15.7459C153.322 15.9579 153.42 16.1372 153.616 16.284C153.816 16.4307 154.249 16.6325 154.914 16.8892C155.474 17.1053 155.88 17.303 156.133 17.4823C156.387 17.6617 156.574 17.8696 156.697 18.106C156.819 18.3383 156.881 18.6175 156.881 18.9436ZM165.657 20.8696H164.187V16.8403H160.059V20.8696H158.596V11.9307H160.059V15.5869H164.187V11.9307H165.657V20.8696ZM175.965 16.3879C175.965 17.4721 175.757 18.3852 175.34 19.127C174.928 19.8689 174.326 20.3906 173.534 20.6922L175.677 22.9973H173.705L172.014 20.9919H171.776C170.424 20.9919 169.385 20.5924 168.658 19.7935C167.935 18.9905 167.574 17.8512 167.574 16.3757C167.574 14.9001 167.937 13.767 168.664 12.9762C169.395 12.1855 170.436 11.7901 171.788 11.7901C173.119 11.7901 174.148 12.1916 174.875 12.9946C175.601 13.7976 175.965 14.9287 175.965 16.3879ZM169.13 16.3879C169.13 17.4884 169.352 18.324 169.797 18.8947C170.242 19.4613 170.902 19.7445 171.776 19.7445C172.645 19.7445 173.301 19.4633 173.742 18.9008C174.187 18.3383 174.409 17.5007 174.409 16.3879C174.409 15.2914 174.189 14.4599 173.748 13.8933C173.311 13.3268 172.658 13.0435 171.788 13.0435C170.91 13.0435 170.247 13.3268 169.797 13.8933C169.352 14.4599 169.13 15.2914 169.13 16.3879Z" fill="#314252"/>
</g>
<defs>
<clipPath id="clip0">
<rect width="177" height="32" fill="white"/>
</clipPath>
</defs>
</svg>
