<svg width="174" height="166" viewBox="0 0 174 166" fill="none" xmlns="http://www.w3.org/2000/svg">
<g filter="url(#filter0_d)">
<path d="M1 7.99999V161.16L7.23853 156.645L15.0367 161.16L22.8349 156.645L30.633 161.16L38.4312 156.645L46.2294 161.16L54.0275 156.645L61.8257 161.16L69.6239 156.645L77.422 161.16L85.2202 156.645L93.0183 161.16L100.817 156.645L108.615 161.16L116.413 156.645L124.211 161.16L132.009 156.645L139.807 161.16L147.605 156.645L155.404 161.16L163.202 156.645L171 161.16V8C171 3.58172 167.418 0 163 0H9C4.58172 0 1 3.58171 1 7.99999Z" fill="white"/>
<path d="M7.48907 156.212L7.20825 156.049L6.94538 156.24L1.5 160.181V7.99999C1.5 3.85786 4.85786 0.5 9 0.5H163C167.142 0.5 170.5 3.85786 170.5 8V160.293L163.452 156.212L163.202 156.067L162.951 156.212L155.404 160.582L147.856 156.212L147.605 156.067L147.355 156.212L139.807 160.582L132.26 156.212L132.009 156.067L131.759 156.212L124.211 160.582L116.663 156.212L116.413 156.067L116.162 156.212L108.615 160.582L101.067 156.212L100.817 156.067L100.566 156.212L93.0183 160.582L85.4707 156.212L85.2202 156.067L84.9697 156.212L77.422 160.582L69.8744 156.212L69.6239 156.067L69.3733 156.212L61.8257 160.582L54.2781 156.212L54.0275 156.067L53.777 156.212L46.2294 160.582L38.6817 156.212L38.4312 156.067L38.1807 156.212L30.633 160.582L23.0854 156.212L22.8349 156.067L22.5843 156.212L15.0367 160.582L7.48907 156.212Z" stroke="black" stroke-opacity="0.1"/>
</g>
<path d="M116.71 92C115.68 92 114.695 92.4916 114.079 93.3163L108.435 100.84L102.383 101.597L102.853 100.968C103.302 100.371 103.548 99.6303 103.548 98.8843V98.7649C103.548 96.8487 101.99 95.2903 100.074 95.2903C99.2127 95.2903 98.3869 95.6074 97.7496 96.182L89.6379 103.482C88.0238 104.935 87.0968 107.015 87.0968 109.189V115.032H84.9032V109.189C84.9032 107.016 83.9762 104.935 82.3621 103.483L74.2514 96.1841C73.6131 95.6074 72.7873 95.2903 71.9262 95.2903C70.01 95.2903 68.4516 96.8487 68.4516 98.7649V98.8843C68.4516 99.6314 68.6985 100.371 69.1467 100.968L69.6175 101.597L63.5654 100.84L57.9214 93.3163C57.305 92.4916 56.3202 92 55.2903 92C53.4765 92 52 93.4765 52 95.2903V95.7236C52 96.3748 52.1907 97.0067 52.5527 97.5487L59.0053 107.226C60.432 109.367 62.821 110.645 65.3926 110.645H69.1928C71.5566 110.645 73.6479 112.152 74.395 114.395L74.6076 115.032H72.8387V126H99.1613V115.032H97.3924L97.605 114.395C98.3532 112.152 100.443 110.645 102.807 110.645H106.607C109.179 110.645 111.567 109.367 112.995 107.226L119.447 97.5487C119.809 97.0067 120 96.3748 120 95.7236V95.2903C120 93.4765 118.524 92 116.71 92ZM76.4745 113.701C75.4291 110.562 72.5019 108.452 69.1928 108.452H65.3926C63.5558 108.452 61.8501 107.539 60.8299 106.009L54.3778 96.3314C54.2573 96.1504 54.1935 95.9405 54.1935 95.7236V95.2903C54.1935 94.6852 54.6852 94.1935 55.2903 94.1935C55.6336 94.1935 55.9613 94.3569 56.1675 94.6311L62.3701 102.901L71.4469 104.036L71.9615 104.723L73.7159 103.407L70.9017 99.6544C70.7362 99.4327 70.6452 99.1596 70.6452 98.8843V98.7649C70.6452 98.0585 71.2198 97.4839 71.9262 97.4839C72.2432 97.4839 72.5468 97.6001 72.783 97.8127L80.8948 105.113C82.0472 106.15 82.7097 107.637 82.7097 109.189V115.032H76.9189L76.4745 113.701ZM75.0323 123.806V121.613H80.5161V119.419H75.0323V117.226H84.9032V119.419H82.7097V121.613H84.9032V123.806H75.0323ZM87.0968 123.806V121.613H89.2903V119.419H87.0968V117.226H96.9677V119.419H91.4839V121.613H96.9677V123.806H87.0968ZM117.806 95.7236C117.806 95.9405 117.743 96.1515 117.622 96.3325L111.17 106.01C110.151 107.539 108.444 108.452 106.607 108.452H102.807C99.4971 108.452 96.5698 110.562 95.5245 113.701L95.0811 115.032H89.2903V109.189C89.2903 107.637 89.9528 106.15 91.1052 105.113L99.217 97.8116C99.4532 97.6001 99.7568 97.4839 100.074 97.4839C100.78 97.4839 101.355 98.0585 101.355 98.7649V98.8843C101.355 99.1596 101.264 99.4327 101.099 99.6533L98.2841 103.406L100.038 104.722L100.553 104.035L109.63 102.9L115.832 94.63C116.039 94.3569 116.366 94.1935 116.71 94.1935C117.315 94.1935 117.806 94.6852 117.806 95.2903V95.7236Z" fill="#314252" fill-opacity="0.5"/>
<path d="M73.9352 90.9032H116.709V87.3628C116.709 85.0905 115.279 83.026 113.151 82.2265L107.935 80.2723V79.3432C108.765 78.5983 109.405 77.6487 109.772 76.5707C111.839 76.2162 113.419 74.4243 113.419 72.2581V67.871C113.419 62.4278 108.991 58 103.548 58C99.7817 58 96.5037 60.1223 94.8409 63.2316C93.2691 60.133 90.0612 58 86.3553 58C84.4697 58 82.6435 58.5527 81.0776 59.598L80.0232 60.3012C78.6961 60.7816 77.6336 61.7123 76.9513 62.8771C75.2339 59.9643 72.0715 58 68.4513 58C63.0082 58 58.5804 62.4278 58.5804 67.871V72.2581C58.5804 74.4243 60.1607 76.2162 62.2274 76.5707C62.5947 77.6477 63.2342 78.5972 64.0642 79.3432V80.2723L58.8481 82.2276C56.7205 83.026 55.29 85.0905 55.29 87.3628V90.9032H73.9352ZM96.9675 88.7097H92.5804V86.5161H90.3868V88.7097H81.6126V86.5161H79.4191V88.7097H75.032V87.3628C75.032 85.9983 75.8899 84.7601 77.1672 84.2808L82.3254 82.3486L85.9997 87.2477L89.674 82.3486L94.8323 84.2819C96.1095 84.7601 96.9675 85.9983 96.9675 87.3628V88.7097ZM64.0642 74.4516V69.9869C65.9616 69.8123 67.7899 69.2168 69.4067 68.1837L69.4153 68.1923C70.3444 69.1214 71.5531 69.7357 72.8384 69.9628V74.4516C72.8384 76.8712 70.8709 78.8387 68.4513 78.8387C66.0318 78.8387 64.0642 76.8712 64.0642 74.4516ZM99.161 80.2723L94.7739 81.9175L90.3868 80.2723V79.3432C91.2169 78.5983 91.8563 77.6487 92.2237 76.5707C93.2385 76.3961 94.1248 75.8729 94.7739 75.1296C95.423 75.8729 96.3093 76.3961 97.3241 76.5707C97.6915 77.6477 98.3309 78.5972 99.161 79.3432V80.2723ZM83.8062 80.6483C84.4938 80.893 85.2296 81.0323 85.9997 81.0323C86.7698 81.0323 87.5056 80.8919 88.1933 80.6483V80.667L85.9997 83.591L83.8062 80.667V80.6483ZM96.9675 74.1469C96.3146 73.7661 95.8707 73.0662 95.8707 72.2581C95.8707 71.4499 96.3146 70.75 96.9675 70.3692V74.1469ZM92.5804 74.1469V70.3703C93.2332 70.7511 93.6771 71.451 93.6771 72.2591C93.6771 73.0673 93.2332 73.7661 92.5804 74.1469ZM90.3868 74.4516C90.3868 76.8712 88.4193 78.8387 85.9997 78.8387C83.5802 78.8387 81.6126 76.8712 81.6126 74.4516V70.0645H90.3868V74.4516ZM79.4191 74.1469C78.7663 73.7661 78.3223 73.0662 78.3223 72.2581C78.3223 71.4499 78.7663 70.75 79.4191 70.3692V74.1469ZM75.032 70.3692C75.6848 70.75 76.1287 71.4499 76.1287 72.2581C76.1287 73.0662 75.6848 73.7661 75.032 74.1469V70.3692ZM72.8384 79.3432C73.6685 78.5983 74.3079 77.6487 74.6753 76.5707C75.6901 76.3961 76.5765 75.8729 77.2255 75.1296C77.8746 75.8729 78.7609 76.3961 79.7757 76.5707C80.1431 77.6477 80.7825 78.5972 81.6126 79.3432V80.2723L77.2255 81.9175L72.8384 80.2723V79.3432ZM114.516 87.3628V88.7097H110.129V86.5161H107.935V88.7097H99.161V87.3628C99.161 85.7867 98.4632 84.3226 97.3327 83.2992L99.4363 82.5109C100.046 84.2021 101.65 85.4193 103.548 85.4193C105.446 85.4193 107.05 84.2021 107.66 82.5119L112.379 84.2819C113.658 84.7601 114.516 85.9983 114.516 87.3628ZM105.742 81.0323C105.742 82.242 104.758 83.2258 103.548 83.2258C102.338 83.2258 101.355 82.242 101.355 81.0323V80.6483C102.042 80.893 102.778 81.0323 103.548 81.0323C104.318 81.0323 105.054 80.8919 105.742 80.6483V81.0323ZM103.548 78.8387C101.129 78.8387 99.161 76.8712 99.161 74.4516V69.9869C101.058 69.8123 102.887 69.2168 104.503 68.1837L104.512 68.1923C105.441 69.1214 106.65 69.7357 107.935 69.9628V74.4516C107.935 76.8712 105.968 78.8387 103.548 78.8387ZM110.129 74.1469V70.3703C110.782 70.7511 111.226 71.451 111.226 72.2591C111.226 73.0673 110.782 73.7661 110.129 74.1469ZM103.548 60.1935C107.78 60.1935 111.226 63.6386 111.226 67.871V68.4809C110.578 68.1034 109.835 67.871 109.032 67.871C107.927 67.871 106.845 67.4233 106.063 66.6414L104.784 65.3625L103.483 66.2301C101.873 67.3028 99.9991 67.871 98.0642 67.871C97.2615 67.871 96.5187 68.1034 95.8707 68.4809V67.871C95.8707 63.6386 99.3158 60.1935 103.548 60.1935ZM78.3223 65.8552C78.3223 64.254 79.3436 62.838 80.8623 62.3303L82.2938 61.4231C83.5004 60.6193 84.904 60.1935 86.3553 60.1935C90.3922 60.1935 93.6771 63.4785 93.6771 67.5154V68.4809C93.0291 68.1034 92.2864 67.871 91.4836 67.871H80.5158C79.7131 67.871 78.9703 68.1034 78.3223 68.4809V65.8552ZM68.4513 60.1935C72.6837 60.1935 76.1287 63.6386 76.1287 67.871V68.4809C75.4808 68.1034 74.738 67.871 73.9352 67.871C72.8299 67.871 71.7481 67.4233 70.9662 66.6414L69.6873 65.3625L68.3865 66.2301C66.7767 67.3028 64.9023 67.871 62.9675 67.871C62.1647 67.871 61.4219 68.1034 60.7739 68.4809V67.871C60.7739 63.6386 64.219 60.1935 68.4513 60.1935ZM60.7739 72.2581C60.7739 71.4499 61.2179 70.75 61.8707 70.3692V74.1458C61.2179 73.7661 60.7739 73.0662 60.7739 72.2581ZM68.4513 81.0323C69.2214 81.0323 69.9573 80.8919 70.6449 80.6483V81.0323C70.6449 82.242 69.6611 83.2258 68.4513 83.2258C67.2416 83.2258 66.2578 82.242 66.2578 81.0323V80.6483C66.9454 80.8919 67.6812 81.0323 68.4513 81.0323ZM64.0642 88.7097V86.5161H61.8707V88.7097H57.4836V87.3628C57.4836 85.9983 58.3415 84.7601 59.6188 84.2808L64.3384 82.5109C64.9495 84.2021 66.5539 85.4193 68.4513 85.4193C70.3487 85.4193 71.9532 84.2021 72.5632 82.5119L74.6657 83.3002C73.5362 84.3236 72.8384 85.7878 72.8384 87.3628V88.7097H64.0642Z" fill="#314252" fill-opacity="0.5"/>
<g opacity="0.5">
<line x1="14.5996" y1="13.0996" x2="157.4" y2="13.0996" stroke="black" stroke-opacity="0.1"/>
<line x1="14.5996" y1="26.6992" x2="157.4" y2="26.6992" stroke="black" stroke-opacity="0.1"/>
<line x1="14.5996" y1="40.2998" x2="157.4" y2="40.2998" stroke="black" stroke-opacity="0.1"/>
<line x1="14.5996" y1="53.8994" x2="157.4" y2="53.8994" stroke="black" stroke-opacity="0.1"/>
<line x1="14.5996" y1="67.5" x2="157.4" y2="67.5" stroke="black" stroke-opacity="0.1"/>
<line x1="14.5996" y1="81.0996" x2="157.4" y2="81.0996" stroke="black" stroke-opacity="0.1"/>
<line x1="14.5996" y1="94.6992" x2="157.4" y2="94.6992" stroke="black" stroke-opacity="0.1"/>
<line x1="14.5996" y1="108.3" x2="157.4" y2="108.3" stroke="black" stroke-opacity="0.1"/>
<line x1="14.5996" y1="121.899" x2="157.4" y2="121.899" stroke="black" stroke-opacity="0.1"/>
<line x1="14.5996" y1="135.5" x2="157.4" y2="135.5" stroke="black" stroke-opacity="0.1"/>
</g>
<path d="M16.1505 28.3486C15.7039 28.3486 15.3302 28.2917 15.0294 28.1777V26.8037C15.4122 26.8994 15.7449 26.9473 16.0274 26.9473C16.9206 26.9473 17.3673 26.3822 17.3673 25.252V15.5654H19.0079V25.1973C19.0079 26.2181 18.7641 26.9974 18.2764 27.5352C17.7934 28.0775 17.0847 28.3486 16.1505 28.3486ZM26.7598 25.5596L26.5343 24.5684H26.4522C26.2289 24.9193 25.9099 25.195 25.4952 25.3955C25.085 25.596 24.6156 25.6963 24.087 25.6963C23.171 25.6963 22.4874 25.4684 22.0362 25.0127C21.585 24.557 21.3595 23.8665 21.3595 22.9414V17.999H22.9796V22.6611C22.9796 23.2399 23.0981 23.6751 23.335 23.9668C23.572 24.2539 23.9434 24.3975 24.4493 24.3975C25.1238 24.3975 25.6182 24.1969 25.9327 23.7959C26.2517 23.3903 26.4112 22.7135 26.4112 21.7656V17.999H28.0245V25.5596H26.7598ZM35.3936 23.4062C35.3936 24.1445 35.1248 24.7119 34.587 25.1084C34.0492 25.5003 33.279 25.6963 32.2764 25.6963C31.2693 25.6963 30.4604 25.5436 29.8497 25.2383V23.8506C30.7384 24.2607 31.5655 24.4658 32.3311 24.4658C33.3201 24.4658 33.8145 24.1673 33.8145 23.5703C33.8145 23.3789 33.7598 23.2194 33.6505 23.0918C33.5411 22.9642 33.3611 22.832 33.1104 22.6953C32.8598 22.5586 32.5111 22.4036 32.0645 22.2305C31.1941 21.8932 30.6039 21.556 30.294 21.2188C29.9887 20.8815 29.836 20.444 29.836 19.9062C29.836 19.2591 30.0958 18.7578 30.6153 18.4023C31.1394 18.0423 31.8503 17.8623 32.7481 17.8623C33.6368 17.8623 34.4776 18.0423 35.2706 18.4023L34.7511 19.6123C33.9353 19.2751 33.2494 19.1064 32.6934 19.1064C31.8458 19.1064 31.422 19.348 31.422 19.8311C31.422 20.068 31.5313 20.2686 31.7501 20.4326C31.9734 20.5967 32.4565 20.8223 33.1993 21.1094C33.8236 21.3509 34.2771 21.5719 34.5596 21.7725C34.8422 21.973 35.0518 22.2054 35.1886 22.4697C35.3253 22.7295 35.3936 23.0417 35.3936 23.4062ZM39.9532 24.3975C40.3451 24.3975 40.7371 24.3359 41.129 24.2129V25.4229C40.9512 25.5003 40.7211 25.5641 40.4386 25.6143C40.1606 25.6689 39.8712 25.6963 39.5704 25.6963C38.0483 25.6963 37.2872 24.8942 37.2872 23.29V19.2158H36.255V18.5049L37.3624 17.917L37.9093 16.3174H38.9005V17.999H41.0538V19.2158H38.9005V23.2627C38.9005 23.6501 38.9962 23.9372 39.1876 24.124C39.3835 24.3063 39.6387 24.3975 39.9532 24.3975ZM44.253 25.5596H42.6466V17.999H44.253V25.5596ZM42.5509 15.9961C42.5509 15.709 42.6283 15.488 42.7833 15.333C42.9428 15.1781 43.1684 15.1006 43.46 15.1006C43.7426 15.1006 43.9613 15.1781 44.1163 15.333C44.2758 15.488 44.3555 15.709 44.3555 15.9961C44.3555 16.2695 44.2758 16.486 44.1163 16.6455C43.9613 16.8005 43.7426 16.8779 43.46 16.8779C43.1684 16.8779 42.9428 16.8005 42.7833 16.6455C42.6283 16.486 42.5509 16.2695 42.5509 15.9961ZM49.6055 25.6963C48.4617 25.6963 47.5912 25.3636 46.9942 24.6982C46.4018 24.0283 46.1055 23.069 46.1055 21.8203C46.1055 20.5488 46.4154 19.5713 47.0352 18.8877C47.6596 18.2041 48.5596 17.8623 49.7354 17.8623C50.533 17.8623 51.2507 18.0104 51.8887 18.3066L51.4034 19.5986C50.7244 19.3343 50.1638 19.2021 49.7218 19.2021C48.4138 19.2021 47.7598 20.0703 47.7598 21.8066C47.7598 22.6543 47.9216 23.2923 48.2452 23.7207C48.5733 24.1445 49.0518 24.3564 49.6807 24.3564C50.3962 24.3564 51.073 24.1787 51.711 23.8232V25.2246C51.4239 25.3932 51.1163 25.514 50.7882 25.5869C50.4646 25.6598 50.0704 25.6963 49.6055 25.6963ZM56.7901 25.6963C55.6143 25.6963 54.6938 25.3545 54.0284 24.6709C53.3676 23.9827 53.0372 23.0371 53.0372 21.834C53.0372 20.599 53.3448 19.6283 53.96 18.9219C54.5753 18.2155 55.4206 17.8623 56.4962 17.8623C57.4942 17.8623 58.2826 18.1654 58.8614 18.7715C59.4402 19.3776 59.7296 20.2116 59.7296 21.2734V22.1416H54.6915C54.7143 22.8753 54.9125 23.4404 55.2862 23.8369C55.6599 24.2288 56.1863 24.4248 56.8653 24.4248C57.3119 24.4248 57.7266 24.3838 58.1095 24.3018C58.4968 24.2152 58.9115 24.0739 59.3536 23.8779V25.1836C58.9617 25.3704 58.5652 25.5026 58.1641 25.5801C57.7631 25.6576 57.3051 25.6963 56.7901 25.6963ZM56.4962 19.0791C55.9858 19.0791 55.5756 19.2409 55.2657 19.5645C54.9604 19.888 54.7781 20.3597 54.7188 20.9795H58.1505C58.1414 20.3551 57.991 19.8835 57.6993 19.5645C57.4076 19.2409 57.0066 19.0791 56.4962 19.0791ZM68.9854 19.2158H67.1397V25.5596H65.5264V19.2158H64.2823V18.4639L65.5264 17.9717V17.4795C65.5264 16.5863 65.7361 15.9255 66.1553 15.4971C66.5746 15.0641 67.2149 14.8477 68.0762 14.8477C68.6414 14.8477 69.1973 14.9411 69.7442 15.1279L69.3204 16.3447C68.9239 16.2171 68.5456 16.1533 68.1856 16.1533C67.821 16.1533 67.5544 16.2673 67.3858 16.4951C67.2218 16.7184 67.1397 17.0557 67.1397 17.5068V17.999H68.9854V19.2158ZM76.9835 21.7656C76.9835 23.0007 76.6667 23.9645 76.0333 24.6572C75.3998 25.3499 74.518 25.6963 73.3878 25.6963C72.6814 25.6963 72.057 25.5368 71.5147 25.2178C70.9724 24.8988 70.5554 24.4408 70.2637 23.8438C69.9721 23.2467 69.8262 22.554 69.8262 21.7656C69.8262 20.5397 70.1407 19.5827 70.7696 18.8945C71.3985 18.2064 72.2849 17.8623 73.4288 17.8623C74.5225 17.8623 75.3884 18.2155 76.0264 18.9219C76.6645 19.6237 76.9835 20.5716 76.9835 21.7656ZM71.4805 21.7656C71.4805 23.5111 72.1254 24.3838 73.4151 24.3838C74.6912 24.3838 75.3292 23.5111 75.3292 21.7656C75.3292 20.0384 74.6866 19.1748 73.4014 19.1748C72.727 19.1748 72.2371 19.3981 71.9317 19.8447C71.6309 20.2913 71.4805 20.9316 71.4805 21.7656ZM82.671 17.8623C82.9945 17.8623 83.2611 17.8851 83.4708 17.9307L83.3136 19.4277C83.0857 19.373 82.8487 19.3457 82.6026 19.3457C81.96 19.3457 81.4382 19.5553 81.0372 19.9746C80.6407 20.3939 80.4425 20.9385 80.4425 21.6084V25.5596H78.836V17.999H80.0938L80.3057 19.332H80.3878C80.6384 18.8809 80.9643 18.5231 81.3653 18.2588C81.7709 17.9945 82.2061 17.8623 82.671 17.8623ZM93.0069 25.5596L90.1085 17.2129H90.0538C90.1313 18.4525 90.17 19.6146 90.17 20.6992V25.5596H88.6866V15.5654H90.9903L93.7657 23.5156H93.8067L96.6641 15.5654H98.9747V25.5596H97.4024V20.6172C97.4024 20.1204 97.4138 19.4733 97.4366 18.6758C97.4639 17.8783 97.4867 17.3952 97.505 17.2266H97.4503L94.4493 25.5596H93.0069ZM103.042 25.5596H101.436V17.999H103.042V25.5596ZM101.34 15.9961C101.34 15.709 101.417 15.488 101.572 15.333C101.732 15.1781 101.957 15.1006 102.249 15.1006C102.532 15.1006 102.75 15.1781 102.905 15.333C103.065 15.488 103.145 15.709 103.145 15.9961C103.145 16.2695 103.065 16.486 102.905 16.6455C102.75 16.8005 102.532 16.8779 102.249 16.8779C101.957 16.8779 101.732 16.8005 101.572 16.6455C101.417 16.486 101.34 16.2695 101.34 15.9961ZM111.997 25.5596H110.384V20.9111C110.384 20.3278 110.265 19.8926 110.028 19.6055C109.796 19.3184 109.425 19.1748 108.914 19.1748C108.235 19.1748 107.738 19.3753 107.424 19.7764C107.109 20.1774 106.952 20.8496 106.952 21.793V25.5596H105.346V17.999H106.604L106.829 18.9902H106.911C107.139 18.6302 107.463 18.3522 107.882 18.1562C108.301 17.9603 108.766 17.8623 109.276 17.8623C111.09 17.8623 111.997 18.7852 111.997 20.6309V25.5596ZM120.939 21.7656C120.939 23.0007 120.622 23.9645 119.988 24.6572C119.355 25.3499 118.473 25.6963 117.343 25.6963C116.636 25.6963 116.012 25.5368 115.47 25.2178C114.927 24.8988 114.51 24.4408 114.219 23.8438C113.927 23.2467 113.781 22.554 113.781 21.7656C113.781 20.5397 114.096 19.5827 114.725 18.8945C115.354 18.2064 116.24 17.8623 117.384 17.8623C118.478 17.8623 119.344 18.2155 119.982 18.9219C120.62 19.6237 120.939 20.5716 120.939 21.7656ZM115.436 21.7656C115.436 23.5111 116.08 24.3838 117.37 24.3838C118.646 24.3838 119.284 23.5111 119.284 21.7656C119.284 20.0384 118.642 19.1748 117.357 19.1748C116.682 19.1748 116.192 19.3981 115.887 19.8447C115.586 20.2913 115.436 20.9316 115.436 21.7656ZM126.626 17.8623C126.95 17.8623 127.216 17.8851 127.426 17.9307L127.269 19.4277C127.041 19.373 126.804 19.3457 126.558 19.3457C125.915 19.3457 125.393 19.5553 124.992 19.9746C124.596 20.3939 124.398 20.9385 124.398 21.6084V25.5596H122.791V17.999H124.049L124.261 19.332H124.343C124.594 18.8809 124.919 18.5231 125.32 18.2588C125.726 17.9945 126.161 17.8623 126.626 17.8623ZM130.441 25.5596H128.834V17.999H130.441V25.5596ZM128.738 15.9961C128.738 15.709 128.816 15.488 128.971 15.333C129.13 15.1781 129.356 15.1006 129.648 15.1006C129.93 15.1006 130.149 15.1781 130.304 15.333C130.463 15.488 130.543 15.709 130.543 15.9961C130.543 16.2695 130.463 16.486 130.304 16.6455C130.149 16.8005 129.93 16.8779 129.648 16.8779C129.356 16.8779 129.13 16.8005 128.971 16.6455C128.816 16.486 128.738 16.2695 128.738 15.9961ZM135.561 24.3975C135.953 24.3975 136.344 24.3359 136.736 24.2129V25.4229C136.559 25.5003 136.329 25.5641 136.046 25.6143C135.768 25.6689 135.479 25.6963 135.178 25.6963C133.656 25.6963 132.895 24.8942 132.895 23.29V19.2158H131.862V18.5049L132.97 17.917L133.517 16.3174H134.508V17.999H136.661V19.2158H134.508V23.2627C134.508 23.6501 134.604 23.9372 134.795 24.124C134.991 24.3063 135.246 24.3975 135.561 24.3975ZM139.86 25.5596H138.254V17.999H139.86V25.5596ZM138.158 15.9961C138.158 15.709 138.236 15.488 138.391 15.333C138.55 15.1781 138.776 15.1006 139.067 15.1006C139.35 15.1006 139.569 15.1781 139.724 15.333C139.883 15.488 139.963 15.709 139.963 15.9961C139.963 16.2695 139.883 16.486 139.724 16.6455C139.569 16.8005 139.35 16.8779 139.067 16.8779C138.776 16.8779 138.55 16.8005 138.391 16.6455C138.236 16.486 138.158 16.2695 138.158 15.9961ZM145.466 25.6963C144.29 25.6963 143.37 25.3545 142.704 24.6709C142.043 23.9827 141.713 23.0371 141.713 21.834C141.713 20.599 142.021 19.6283 142.636 18.9219C143.251 18.2155 144.096 17.8623 145.172 17.8623C146.17 17.8623 146.958 18.1654 147.537 18.7715C148.116 19.3776 148.405 20.2116 148.405 21.2734V22.1416H143.367C143.39 22.8753 143.588 23.4404 143.962 23.8369C144.336 24.2288 144.862 24.4248 145.541 24.4248C145.988 24.4248 146.402 24.3838 146.785 24.3018C147.173 24.2152 147.587 24.0739 148.029 23.8779V25.1836C147.637 25.3704 147.241 25.5026 146.84 25.5801C146.439 25.6576 145.981 25.6963 145.466 25.6963ZM145.172 19.0791C144.662 19.0791 144.251 19.2409 143.941 19.5645C143.636 19.888 143.454 20.3597 143.395 20.9795H146.826C146.817 20.3551 146.667 19.8835 146.375 19.5645C146.083 19.2409 145.682 19.0791 145.172 19.0791ZM155.31 23.4062C155.31 24.1445 155.041 24.7119 154.503 25.1084C153.965 25.5003 153.195 25.6963 152.192 25.6963C151.185 25.6963 150.376 25.5436 149.766 25.2383V23.8506C150.654 24.2607 151.482 24.4658 152.247 24.4658C153.236 24.4658 153.731 24.1673 153.731 23.5703C153.731 23.3789 153.676 23.2194 153.566 23.0918C153.457 22.9642 153.277 22.832 153.026 22.6953C152.776 22.5586 152.427 22.4036 151.981 22.2305C151.11 21.8932 150.52 21.556 150.21 21.2188C149.905 20.8815 149.752 20.444 149.752 19.9062C149.752 19.2591 150.012 18.7578 150.531 18.4023C151.055 18.0423 151.766 17.8623 152.664 17.8623C153.553 17.8623 154.394 18.0423 155.187 18.4023L154.667 19.6123C153.851 19.2751 153.165 19.1064 152.609 19.1064C151.762 19.1064 151.338 19.348 151.338 19.8311C151.338 20.068 151.447 20.2686 151.666 20.4326C151.889 20.5967 152.372 20.8223 153.115 21.1094C153.74 21.3509 154.193 21.5719 154.476 21.7725C154.758 21.973 154.968 22.2054 155.105 22.4697C155.241 22.7295 155.31 23.0417 155.31 23.4062Z" fill="#314252"/>
<defs>
<filter id="filter0_d" x="0" y="0" width="174" height="165.16" filterUnits="userSpaceOnUse" color-interpolation-filters="sRGB">
<feFlood flood-opacity="0" result="BackgroundImageFix"/>
<feColorMatrix in="SourceAlpha" type="matrix" values="0 0 0 0 0 0 0 0 0 0 0 0 0 0 0 0 0 0 127 0"/>
<feOffset dx="1" dy="2"/>
<feGaussianBlur stdDeviation="1"/>
<feColorMatrix type="matrix" values="0 0 0 0 0 0 0 0 0 0 0 0 0 0 0 0 0 0 0.1 0"/>
<feBlend mode="normal" in2="BackgroundImageFix" result="effect1_dropShadow"/>
<feBlend mode="normal" in="SourceGraphic" in2="effect1_dropShadow" result="shape"/>
</filter>
</defs>
</svg>
