<svg width="386" height="497" viewBox="0 0 386 497" fill="none" xmlns="http://www.w3.org/2000/svg">
<path d="M1 5C1 2.79086 2.79086 1 5 1H199C217.225 1 232 15.7746 232 34V223.34C232.96 226.286 235.162 228.037 237.375 229H332.75V219.952C332.75 216.873 336.083 214.949 338.75 216.488L383 242.036C385.667 243.576 385.667 247.425 383 248.964L338.75 274.512C336.083 276.051 332.75 274.127 332.75 271.048V262H242.5C239.167 262.167 232.5 264.4 232.5 272L232 270.778V463C232 481.225 217.225 496 199 496H5C2.79086 496 1 494.209 1 492V461C1 458.791 2.79086 457 5 457H189C192.333 456.833 199 454.6 199 447V353C199 347.963 196.071 345.283 193.125 344H5C2.79086 344 1 342.209 1 340V309C1 306.791 2.79086 305 5 305H189C192.333 304.833 199 302.6 199 295V202C199 194.4 192.333 192.167 189 192H5C2.79086 192 1 190.209 1 188V157C1 154.791 2.79086 153 5 153H189C192.333 152.833 199 150.6 199 143V50C199 42.4 192.333 40.1667 189 40H5C2.79086 40 1 38.2091 1 36V5Z" fill="#2F5597" fill-opacity="0.08" stroke="#2F5597" stroke-width="2" stroke-linecap="round" stroke-linejoin="round" stroke-dasharray="3 5"/>
</svg>
