<svg width="235" height="503" viewBox="0 0 235 503" fill="none" xmlns="http://www.w3.org/2000/svg">
<path fill-rule="evenodd" clip-rule="evenodd" d="M1 5C1 2.79086 2.79086 1 5 1H99C117.225 1 132 15.7746 132 34V190V229.34C132.96 232.286 135.162 234.037 137.375 235H182.75V225.952C182.75 222.873 186.083 220.949 188.75 222.488L233 248.036C235.667 249.576 235.667 253.425 233 254.964L188.75 280.512C186.083 282.051 182.75 280.127 182.75 277.048V268H142.5C139.167 268.167 132.5 270.4 132.5 278L132 276.778V346.968L132 347L132 469C132 487.225 117.225 502 99 502H5C2.79086 502 1 500.209 1 498V473C1 470.791 2.79086 469 5 469H89C92.3333 468.833 99 466.6 99 459V356C99 350.963 96.0712 348.283 93.1254 347H5C2.79086 347 1 345.209 1 343V318C1 315.791 2.79086 314 5 314H89C92.3333 313.833 99 311.6 99 304V200C99 192.4 92.3333 190.167 89 190H5C2.79086 190 1 188.209 1 186V161C1 158.791 2.79086 157 5 157H89C92.3333 156.833 99 154.6 99 147V44C99 36.4 92.3333 34.1667 89 34H5C2.79086 34 1 32.2091 1 30V5Z" fill="#20ABBE" fill-opacity="0.03"/>
<path d="M132 229.34H131.5C131.5 229.393 131.508 229.445 131.525 229.495L132 229.34ZM137.375 235L137.175 235.459C137.238 235.486 137.306 235.5 137.375 235.5V235ZM182.75 235V235.5C183.026 235.5 183.25 235.276 183.25 235H182.75ZM188.75 222.488L188.5 222.921L188.75 222.488ZM233 248.036L233.25 247.603L233 248.036ZM233 254.964L233.25 255.397L233 254.964ZM188.75 280.512L188.5 280.079L188.75 280.512ZM182.75 268H183.25C183.25 267.724 183.026 267.5 182.75 267.5V268ZM142.5 268V267.5C142.492 267.5 142.483 267.5 142.475 267.501L142.5 268ZM132.5 278L132.037 278.189C132.128 278.411 132.362 278.537 132.596 278.491C132.831 278.445 133 278.239 133 278H132.5ZM132 276.778L132.463 276.589C132.372 276.367 132.138 276.241 131.904 276.287C131.669 276.333 131.5 276.539 131.5 276.778H132ZM132 346.968H131.5V346.968L132 346.968ZM132 347H132.5V347L132 347ZM132 469H131.5H132ZM89 469V469.5C89.0083 469.5 89.0167 469.5 89.025 469.499L89 469ZM93.1254 347L93.3251 346.542C93.2621 346.514 93.1941 346.5 93.1254 346.5V347ZM89 314V314.5C89.0083 314.5 89.0167 314.5 89.025 314.499L89 314ZM89 190L89.025 189.501C89.0167 189.5 89.0083 189.5 89 189.5V190ZM89 157V157.5C89.0083 157.5 89.0167 157.5 89.025 157.499L89 157ZM89 34L89.025 33.5006C89.0167 33.5002 89.0083 33.5 89 33.5V34ZM3.27732 0.841659C3.02224 0.947437 2.90121 1.23997 3.00699 1.49505C3.11276 1.75013 3.4053 1.87116 3.66038 1.76539L3.27732 0.841659ZM1.76539 3.66038C1.87116 3.4053 1.75013 3.11276 1.49505 3.00699C1.23997 2.90121 0.947436 3.02224 0.841659 3.27732L1.76539 3.66038ZM0.5 6.5625C0.5 6.83864 0.723858 7.0625 1 7.0625C1.27614 7.0625 1.5 6.83864 1.5 6.5625H0.5ZM1.5 9.6875C1.5 9.41136 1.27614 9.1875 1 9.1875C0.723858 9.1875 0.5 9.41136 0.5 9.6875H1.5ZM0.5 12.8125C0.5 13.0886 0.723858 13.3125 1 13.3125C1.27614 13.3125 1.5 13.0886 1.5 12.8125H0.5ZM1.5 15.9375C1.5 15.6614 1.27614 15.4375 1 15.4375C0.723858 15.4375 0.5 15.6614 0.5 15.9375H1.5ZM0.5 19.0625C0.5 19.3386 0.723858 19.5625 1 19.5625C1.27614 19.5625 1.5 19.3386 1.5 19.0625H0.5ZM1.5 22.1875C1.5 21.9114 1.27614 21.6875 1 21.6875C0.723858 21.6875 0.5 21.9114 0.5 22.1875H1.5ZM0.5 25.3125C0.5 25.5886 0.723858 25.8125 1 25.8125C1.27614 25.8125 1.5 25.5886 1.5 25.3125H0.5ZM1.5 28.4375C1.5 28.1614 1.27614 27.9375 1 27.9375C0.723858 27.9375 0.5 28.1614 0.5 28.4375H1.5ZM0.841658 31.7227C0.947436 31.9778 1.23997 32.0988 1.49505 31.993C1.75013 31.8872 1.87116 31.5947 1.76538 31.3396L0.841658 31.7227ZM3.66037 33.2346C3.40529 33.1288 3.11276 33.2499 3.00698 33.505C2.90121 33.76 3.02224 34.0526 3.27732 34.1583L3.66037 33.2346ZM6.5 34.5C6.77614 34.5 7 34.2761 7 34C7 33.7239 6.77614 33.5 6.5 33.5V34.5ZM9.5 33.5C9.22386 33.5 9 33.7239 9 34C9 34.2761 9.22386 34.5 9.5 34.5V33.5ZM12.5 34.5C12.7761 34.5 13 34.2761 13 34C13 33.7239 12.7761 33.5 12.5 33.5V34.5ZM15.5 33.5C15.2239 33.5 15 33.7239 15 34C15 34.2761 15.2239 34.5 15.5 34.5V33.5ZM18.5 34.5C18.7761 34.5 19 34.2761 19 34C19 33.7239 18.7761 33.5 18.5 33.5V34.5ZM21.5 33.5C21.2239 33.5 21 33.7239 21 34C21 34.2761 21.2239 34.5 21.5 34.5V33.5ZM24.5 34.5C24.7761 34.5 25 34.2761 25 34C25 33.7239 24.7761 33.5 24.5 33.5V34.5ZM27.5 33.5C27.2239 33.5 27 33.7239 27 34C27 34.2761 27.2239 34.5 27.5 34.5V33.5ZM30.5 34.5C30.7761 34.5 31 34.2761 31 34C31 33.7239 30.7761 33.5 30.5 33.5V34.5ZM33.5 33.5C33.2239 33.5 33 33.7239 33 34C33 34.2761 33.2239 34.5 33.5 34.5V33.5ZM36.5 34.5C36.7761 34.5 37 34.2761 37 34C37 33.7239 36.7761 33.5 36.5 33.5V34.5ZM39.5 33.5C39.2239 33.5 39 33.7239 39 34C39 34.2761 39.2239 34.5 39.5 34.5V33.5ZM42.5 34.5C42.7761 34.5 43 34.2761 43 34C43 33.7239 42.7761 33.5 42.5 33.5V34.5ZM45.5 33.5C45.2239 33.5 45 33.7239 45 34C45 34.2761 45.2239 34.5 45.5 34.5V33.5ZM48.5 34.5C48.7761 34.5 49 34.2761 49 34C49 33.7239 48.7761 33.5 48.5 33.5V34.5ZM51.5 33.5C51.2239 33.5 51 33.7239 51 34C51 34.2761 51.2239 34.5 51.5 34.5V33.5ZM54.5 34.5C54.7761 34.5 55 34.2761 55 34C55 33.7239 54.7761 33.5 54.5 33.5V34.5ZM57.5 33.5C57.2239 33.5 57 33.7239 57 34C57 34.2761 57.2239 34.5 57.5 34.5V33.5ZM60.5 34.5C60.7761 34.5 61 34.2761 61 34C61 33.7239 60.7761 33.5 60.5 33.5V34.5ZM63.5 33.5C63.2239 33.5 63 33.7239 63 34C63 34.2761 63.2239 34.5 63.5 34.5V33.5ZM66.5 34.5C66.7761 34.5 67 34.2761 67 34C67 33.7239 66.7761 33.5 66.5 33.5V34.5ZM69.5 33.5C69.2239 33.5 69 33.7239 69 34C69 34.2761 69.2239 34.5 69.5 34.5V33.5ZM72.5 34.5C72.7761 34.5 73 34.2761 73 34C73 33.7239 72.7761 33.5 72.5 33.5V34.5ZM75.5 33.5C75.2239 33.5 75 33.7239 75 34C75 34.2761 75.2239 34.5 75.5 34.5V33.5ZM78.5 34.5C78.7761 34.5 79 34.2761 79 34C79 33.7239 78.7761 33.5 78.5 33.5V34.5ZM81.5 33.5C81.2239 33.5 81 33.7239 81 34C81 34.2761 81.2239 34.5 81.5 34.5V33.5ZM84.5 34.5C84.7761 34.5 85 34.2761 85 34C85 33.7239 84.7761 33.5 84.5 33.5V34.5ZM87.5 33.5C87.2239 33.5 87 33.7239 87 34C87 34.2761 87.2239 34.5 87.5 34.5V33.5ZM90.2118 34.6424C90.4838 34.6902 90.743 34.5084 90.7908 34.2364C90.8385 33.9644 90.6567 33.7052 90.3847 33.6575L90.2118 34.6424ZM92.999 34.405C92.7429 34.3019 92.4516 34.4259 92.3485 34.6821C92.2453 34.9382 92.3694 35.2295 92.6255 35.3326L92.999 34.405ZM94.8208 36.5194C95.0462 36.679 95.3582 36.6257 95.5178 36.4003C95.6774 36.1749 95.624 35.8629 95.3987 35.7033L94.8208 36.5194ZM97.4053 37.5833C97.2329 37.3676 96.9183 37.3326 96.7026 37.505C96.4869 37.6774 96.4518 37.9921 96.6243 38.2078L97.4053 37.5833ZM97.853 40.3365C97.9539 40.5936 98.244 40.7202 98.5011 40.6193C98.7581 40.5185 98.8848 40.2283 98.7839 39.9712L97.853 40.3365ZM99.4275 42.6379C99.3975 42.3634 99.1506 42.1652 98.8761 42.1952C98.6016 42.2252 98.4034 42.4721 98.4334 42.7466L99.4275 42.6379ZM98.5 45.5147C98.5 45.7908 98.7239 46.0147 99 46.0147C99.2761 46.0147 99.5 45.7908 99.5 45.5147H98.5ZM99.5 48.5441C99.5 48.268 99.2761 48.0441 99 48.0441C98.7239 48.0441 98.5 48.268 98.5 48.5441H99.5ZM98.5 51.5735C98.5 51.8497 98.7239 52.0735 99 52.0735C99.2761 52.0735 99.5 51.8497 99.5 51.5735H98.5ZM99.5 54.6029C99.5 54.3268 99.2761 54.1029 99 54.1029C98.7239 54.1029 98.5 54.3268 98.5 54.6029H99.5ZM98.5 57.6324C98.5 57.9085 98.7239 58.1324 99 58.1324C99.2761 58.1324 99.5 57.9085 99.5 57.6324H98.5ZM99.5 60.6618C99.5 60.3856 99.2761 60.1618 99 60.1618C98.7239 60.1618 98.5 60.3856 98.5 60.6618H99.5ZM98.5 63.6912C98.5 63.9673 98.7239 64.1912 99 64.1912C99.2761 64.1912 99.5 63.9673 99.5 63.6912H98.5ZM99.5 66.7206C99.5 66.4444 99.2761 66.2206 99 66.2206C98.7239 66.2206 98.5 66.4444 98.5 66.7206H99.5ZM98.5 69.75C98.5 70.0261 98.7239 70.25 99 70.25C99.2761 70.25 99.5 70.0261 99.5 69.75H98.5ZM99.5 72.7794C99.5 72.5033 99.2761 72.2794 99 72.2794C98.7239 72.2794 98.5 72.5033 98.5 72.7794H99.5ZM98.5 75.8088C98.5 76.085 98.7239 76.3088 99 76.3088C99.2761 76.3088 99.5 76.085 99.5 75.8088H98.5ZM99.5 78.8382C99.5 78.5621 99.2761 78.3382 99 78.3382C98.7239 78.3382 98.5 78.5621 98.5 78.8382H99.5ZM98.5 81.8676C98.5 82.1438 98.7239 82.3676 99 82.3676C99.2761 82.3676 99.5 82.1438 99.5 81.8676H98.5ZM99.5 84.8971C99.5 84.6209 99.2761 84.3971 99 84.3971C98.7239 84.3971 98.5 84.6209 98.5 84.8971H99.5ZM98.5 87.9265C98.5 88.2026 98.7239 88.4265 99 88.4265C99.2761 88.4265 99.5 88.2026 99.5 87.9265H98.5ZM99.5 90.9559C99.5 90.6797 99.2761 90.4559 99 90.4559C98.7239 90.4559 98.5 90.6797 98.5 90.9559H99.5ZM98.5 93.9853C98.5 94.2614 98.7239 94.4853 99 94.4853C99.2761 94.4853 99.5 94.2614 99.5 93.9853H98.5ZM99.5 97.0147C99.5 96.7386 99.2761 96.5147 99 96.5147C98.7239 96.5147 98.5 96.7386 98.5 97.0147H99.5ZM98.5 100.044C98.5 100.32 98.7239 100.544 99 100.544C99.2761 100.544 99.5 100.32 99.5 100.044H98.5ZM99.5 103.074C99.5 102.797 99.2761 102.574 99 102.574C98.7239 102.574 98.5 102.797 98.5 103.074H99.5ZM98.5 106.103C98.5 106.379 98.7239 106.603 99 106.603C99.2761 106.603 99.5 106.379 99.5 106.103H98.5ZM99.5 109.132C99.5 108.856 99.2761 108.632 99 108.632C98.7239 108.632 98.5 108.856 98.5 109.132H99.5ZM98.5 112.162C98.5 112.438 98.7239 112.662 99 112.662C99.2761 112.662 99.5 112.438 99.5 112.162H98.5ZM99.5 115.191C99.5 114.915 99.2761 114.691 99 114.691C98.7239 114.691 98.5 114.915 98.5 115.191H99.5ZM98.5 118.221C98.5 118.497 98.7239 118.721 99 118.721C99.2761 118.721 99.5 118.497 99.5 118.221H98.5ZM99.5 121.25C99.5 120.974 99.2761 120.75 99 120.75C98.7239 120.75 98.5 120.974 98.5 121.25H99.5ZM98.5 124.279C98.5 124.556 98.7239 124.779 99 124.779C99.2761 124.779 99.5 124.556 99.5 124.279H98.5ZM99.5 127.309C99.5 127.033 99.2761 126.809 99 126.809C98.7239 126.809 98.5 127.033 98.5 127.309H99.5ZM98.5 130.338C98.5 130.614 98.7239 130.838 99 130.838C99.2761 130.838 99.5 130.614 99.5 130.338H98.5ZM99.5 133.368C99.5 133.091 99.2761 132.868 99 132.868C98.7239 132.868 98.5 133.091 98.5 133.368H99.5ZM98.5 136.397C98.5 136.673 98.7239 136.897 99 136.897C99.2761 136.897 99.5 136.673 99.5 136.397H98.5ZM99.5 139.426C99.5 139.15 99.2761 138.926 99 138.926C98.7239 138.926 98.5 139.15 98.5 139.426H99.5ZM98.5 142.456C98.5 142.732 98.7239 142.956 99 142.956C99.2761 142.956 99.5 142.732 99.5 142.456H98.5ZM99.5 145.485C99.5 145.209 99.2761 144.985 99 144.985C98.7239 144.985 98.5 145.209 98.5 145.485H99.5ZM98.4334 148.253C98.4034 148.528 98.6016 148.775 98.8761 148.805C99.1506 148.835 99.3975 148.637 99.4275 148.362L98.4334 148.253ZM98.7839 151.029C98.8848 150.772 98.7581 150.482 98.5011 150.381C98.244 150.28 97.9539 150.406 97.853 150.663L98.7839 151.029ZM96.6243 152.792C96.4518 153.008 96.4869 153.323 96.7026 153.495C96.9183 153.667 97.2329 153.632 97.4053 153.417L96.6243 152.792ZM95.3987 155.297C95.624 155.137 95.6774 154.825 95.5178 154.6C95.3582 154.374 95.0462 154.321 94.8208 154.481L95.3987 155.297ZM92.6255 155.667C92.3694 155.771 92.2453 156.062 92.3485 156.318C92.4516 156.574 92.7429 156.698 92.999 156.595L92.6255 155.667ZM90.3847 157.343C90.6567 157.295 90.8385 157.036 90.7908 156.764C90.743 156.492 90.4838 156.31 90.2118 156.358L90.3847 157.343ZM87.5 156.5C87.2239 156.5 87 156.724 87 157C87 157.276 87.2239 157.5 87.5 157.5V156.5ZM84.5 157.5C84.7761 157.5 85 157.276 85 157C85 156.724 84.7761 156.5 84.5 156.5V157.5ZM81.5 156.5C81.2239 156.5 81 156.724 81 157C81 157.276 81.2239 157.5 81.5 157.5V156.5ZM78.5 157.5C78.7761 157.5 79 157.276 79 157C79 156.724 78.7761 156.5 78.5 156.5V157.5ZM75.5 156.5C75.2239 156.5 75 156.724 75 157C75 157.276 75.2239 157.5 75.5 157.5V156.5ZM72.5 157.5C72.7761 157.5 73 157.276 73 157C73 156.724 72.7761 156.5 72.5 156.5V157.5ZM69.5 156.5C69.2239 156.5 69 156.724 69 157C69 157.276 69.2239 157.5 69.5 157.5V156.5ZM66.5 157.5C66.7761 157.5 67 157.276 67 157C67 156.724 66.7761 156.5 66.5 156.5V157.5ZM63.5 156.5C63.2239 156.5 63 156.724 63 157C63 157.276 63.2239 157.5 63.5 157.5V156.5ZM60.5 157.5C60.7761 157.5 61 157.276 61 157C61 156.724 60.7761 156.5 60.5 156.5V157.5ZM57.5 156.5C57.2239 156.5 57 156.724 57 157C57 157.276 57.2239 157.5 57.5 157.5V156.5ZM54.5 157.5C54.7761 157.5 55 157.276 55 157C55 156.724 54.7761 156.5 54.5 156.5V157.5ZM51.5 156.5C51.2239 156.5 51 156.724 51 157C51 157.276 51.2239 157.5 51.5 157.5V156.5ZM48.5 157.5C48.7761 157.5 49 157.276 49 157C49 156.724 48.7761 156.5 48.5 156.5V157.5ZM45.5 156.5C45.2239 156.5 45 156.724 45 157C45 157.276 45.2239 157.5 45.5 157.5V156.5ZM42.5 157.5C42.7761 157.5 43 157.276 43 157C43 156.724 42.7761 156.5 42.5 156.5V157.5ZM39.5 156.5C39.2239 156.5 39 156.724 39 157C39 157.276 39.2239 157.5 39.5 157.5V156.5ZM36.5 157.5C36.7761 157.5 37 157.276 37 157C37 156.724 36.7761 156.5 36.5 156.5V157.5ZM33.5 156.5C33.2239 156.5 33 156.724 33 157C33 157.276 33.2239 157.5 33.5 157.5V156.5ZM30.5 157.5C30.7761 157.5 31 157.276 31 157C31 156.724 30.7761 156.5 30.5 156.5V157.5ZM27.5 156.5C27.2239 156.5 27 156.724 27 157C27 157.276 27.2239 157.5 27.5 157.5V156.5ZM24.5 157.5C24.7761 157.5 25 157.276 25 157C25 156.724 24.7761 156.5 24.5 156.5V157.5ZM21.5 156.5C21.2239 156.5 21 156.724 21 157C21 157.276 21.2239 157.5 21.5 157.5V156.5ZM18.5 157.5C18.7761 157.5 19 157.276 19 157C19 156.724 18.7761 156.5 18.5 156.5V157.5ZM15.5 156.5C15.2239 156.5 15 156.724 15 157C15 157.276 15.2239 157.5 15.5 157.5V156.5ZM12.5 157.5C12.7761 157.5 13 157.276 13 157C13 156.724 12.7761 156.5 12.5 156.5V157.5ZM9.5 156.5C9.22386 156.5 9 156.724 9 157C9 157.276 9.22386 157.5 9.5 157.5V156.5ZM6.5 157.5C6.77614 157.5 7 157.276 7 157C7 156.724 6.77614 156.5 6.5 156.5V157.5ZM3.27732 156.842C3.02224 156.947 2.90121 157.24 3.00699 157.495C3.11276 157.75 3.4053 157.871 3.66038 157.765L3.27732 156.842ZM1.76539 159.66C1.87116 159.405 1.75013 159.113 1.49505 159.007C1.23997 158.901 0.947437 159.022 0.84166 159.277L1.76539 159.66ZM0.5 162.562C0.5 162.839 0.723858 163.062 1 163.062C1.27614 163.062 1.5 162.839 1.5 162.562H0.5ZM1.5 165.688C1.5 165.411 1.27614 165.188 1 165.188C0.723858 165.188 0.5 165.411 0.5 165.688H1.5ZM0.5 168.812C0.5 169.089 0.723858 169.312 1 169.312C1.27614 169.312 1.5 169.089 1.5 168.812H0.5ZM1.5 171.938C1.5 171.661 1.27614 171.438 1 171.438C0.723858 171.438 0.5 171.661 0.5 171.938H1.5ZM0.5 175.062C0.5 175.339 0.723858 175.562 1 175.562C1.27614 175.562 1.5 175.339 1.5 175.062H0.5ZM1.5 178.188C1.5 177.911 1.27614 177.688 1 177.688C0.723858 177.688 0.5 177.911 0.5 178.188H1.5ZM0.5 181.312C0.5 181.589 0.723858 181.812 1 181.812C1.27614 181.812 1.5 181.589 1.5 181.312H0.5ZM1.5 184.438C1.5 184.161 1.27614 183.938 1 183.938C0.723858 183.938 0.5 184.161 0.5 184.438H1.5ZM0.841659 187.723C0.947436 187.978 1.23997 188.099 1.49505 187.993C1.75013 187.887 1.87116 187.595 1.76538 187.34L0.841659 187.723ZM3.66037 189.235C3.40529 189.129 3.11276 189.25 3.00698 189.505C2.90121 189.76 3.02224 190.053 3.27732 190.158L3.66037 189.235ZM6.5 190.5C6.77614 190.5 7 190.276 7 190C7 189.724 6.77614 189.5 6.5 189.5V190.5ZM9.5 189.5C9.22386 189.5 9 189.724 9 190C9 190.276 9.22386 190.5 9.5 190.5V189.5ZM12.5 190.5C12.7761 190.5 13 190.276 13 190C13 189.724 12.7761 189.5 12.5 189.5V190.5ZM15.5 189.5C15.2239 189.5 15 189.724 15 190C15 190.276 15.2239 190.5 15.5 190.5V189.5ZM18.5 190.5C18.7761 190.5 19 190.276 19 190C19 189.724 18.7761 189.5 18.5 189.5V190.5ZM21.5 189.5C21.2239 189.5 21 189.724 21 190C21 190.276 21.2239 190.5 21.5 190.5V189.5ZM24.5 190.5C24.7761 190.5 25 190.276 25 190C25 189.724 24.7761 189.5 24.5 189.5V190.5ZM27.5 189.5C27.2239 189.5 27 189.724 27 190C27 190.276 27.2239 190.5 27.5 190.5V189.5ZM30.5 190.5C30.7761 190.5 31 190.276 31 190C31 189.724 30.7761 189.5 30.5 189.5V190.5ZM33.5 189.5C33.2239 189.5 33 189.724 33 190C33 190.276 33.2239 190.5 33.5 190.5V189.5ZM36.5 190.5C36.7761 190.5 37 190.276 37 190C37 189.724 36.7761 189.5 36.5 189.5V190.5ZM39.5 189.5C39.2239 189.5 39 189.724 39 190C39 190.276 39.2239 190.5 39.5 190.5V189.5ZM42.5 190.5C42.7761 190.5 43 190.276 43 190C43 189.724 42.7761 189.5 42.5 189.5V190.5ZM45.5 189.5C45.2239 189.5 45 189.724 45 190C45 190.276 45.2239 190.5 45.5 190.5V189.5ZM48.5 190.5C48.7761 190.5 49 190.276 49 190C49 189.724 48.7761 189.5 48.5 189.5V190.5ZM51.5 189.5C51.2239 189.5 51 189.724 51 190C51 190.276 51.2239 190.5 51.5 190.5V189.5ZM54.5 190.5C54.7761 190.5 55 190.276 55 190C55 189.724 54.7761 189.5 54.5 189.5V190.5ZM57.5 189.5C57.2239 189.5 57 189.724 57 190C57 190.276 57.2239 190.5 57.5 190.5V189.5ZM60.5 190.5C60.7761 190.5 61 190.276 61 190C61 189.724 60.7761 189.5 60.5 189.5V190.5ZM63.5 189.5C63.2239 189.5 63 189.724 63 190C63 190.276 63.2239 190.5 63.5 190.5V189.5ZM66.5 190.5C66.7761 190.5 67 190.276 67 190C67 189.724 66.7761 189.5 66.5 189.5V190.5ZM69.5 189.5C69.2239 189.5 69 189.724 69 190C69 190.276 69.2239 190.5 69.5 190.5V189.5ZM72.5 190.5C72.7761 190.5 73 190.276 73 190C73 189.724 72.7761 189.5 72.5 189.5V190.5ZM75.5 189.5C75.2239 189.5 75 189.724 75 190C75 190.276 75.2239 190.5 75.5 190.5V189.5ZM78.5 190.5C78.7761 190.5 79 190.276 79 190C79 189.724 78.7761 189.5 78.5 189.5V190.5ZM81.5 189.5C81.2239 189.5 81 189.724 81 190C81 190.276 81.2239 190.5 81.5 190.5V189.5ZM84.5 190.5C84.7761 190.5 85 190.276 85 190C85 189.724 84.7761 189.5 84.5 189.5V190.5ZM87.5 189.5C87.2239 189.5 87 189.724 87 190C87 190.276 87.2239 190.5 87.5 190.5V189.5ZM90.2118 190.642C90.4838 190.69 90.743 190.508 90.7908 190.236C90.8385 189.964 90.6567 189.705 90.3847 189.657L90.2118 190.642ZM92.999 190.405C92.7429 190.302 92.4516 190.426 92.3485 190.682C92.2453 190.938 92.3694 191.229 92.6255 191.333L92.999 190.405ZM94.8208 192.519C95.0462 192.679 95.3582 192.626 95.5178 192.4C95.6774 192.175 95.624 191.863 95.3987 191.703L94.8208 192.519ZM97.4053 193.583C97.2329 193.368 96.9183 193.333 96.7026 193.505C96.4869 193.677 96.4518 193.992 96.6243 194.208L97.4053 193.583ZM97.853 196.337C97.9539 196.594 98.244 196.72 98.5011 196.619C98.7581 196.518 98.8848 196.228 98.7839 195.971L97.853 196.337ZM99.4275 198.638C99.3975 198.363 99.1506 198.165 98.8761 198.195C98.6016 198.225 98.4034 198.472 98.4334 198.747L99.4275 198.638ZM98.5 201.529C98.5 201.806 98.7239 202.029 99 202.029C99.2761 202.029 99.5 201.806 99.5 201.529H98.5ZM99.5 204.588C99.5 204.312 99.2761 204.088 99 204.088C98.7239 204.088 98.5 204.312 98.5 204.588H99.5ZM98.5 207.647C98.5 207.923 98.7239 208.147 99 208.147C99.2761 208.147 99.5 207.923 99.5 207.647H98.5ZM99.5 210.706C99.5 210.43 99.2761 210.206 99 210.206C98.7239 210.206 98.5 210.43 98.5 210.706H99.5ZM98.5 213.765C98.5 214.041 98.7239 214.265 99 214.265C99.2761 214.265 99.5 214.041 99.5 213.765H98.5ZM99.5 216.824C99.5 216.547 99.2761 216.324 99 216.324C98.7239 216.324 98.5 216.547 98.5 216.824H99.5ZM98.5 219.882C98.5 220.158 98.7239 220.382 99 220.382C99.2761 220.382 99.5 220.158 99.5 219.882H98.5ZM99.5 222.941C99.5 222.665 99.2761 222.441 99 222.441C98.7239 222.441 98.5 222.665 98.5 222.941H99.5ZM98.5 226C98.5 226.276 98.7239 226.5 99 226.5C99.2761 226.5 99.5 226.276 99.5 226H98.5ZM99.5 229.059C99.5 228.783 99.2761 228.559 99 228.559C98.7239 228.559 98.5 228.783 98.5 229.059H99.5ZM98.5 232.118C98.5 232.394 98.7239 232.618 99 232.618C99.2761 232.618 99.5 232.394 99.5 232.118H98.5ZM99.5 235.176C99.5 234.9 99.2761 234.676 99 234.676C98.7239 234.676 98.5 234.9 98.5 235.176H99.5ZM98.5 238.235C98.5 238.511 98.7239 238.735 99 238.735C99.2761 238.735 99.5 238.511 99.5 238.235H98.5ZM99.5 241.294C99.5 241.018 99.2761 240.794 99 240.794C98.7239 240.794 98.5 241.018 98.5 241.294H99.5ZM98.5 244.353C98.5 244.629 98.7239 244.853 99 244.853C99.2761 244.853 99.5 244.629 99.5 244.353H98.5ZM99.5 247.412C99.5 247.136 99.2761 246.912 99 246.912C98.7239 246.912 98.5 247.136 98.5 247.412H99.5ZM98.5 250.471C98.5 250.747 98.7239 250.971 99 250.971C99.2761 250.971 99.5 250.747 99.5 250.471H98.5ZM99.5 253.529C99.5 253.253 99.2761 253.029 99 253.029C98.7239 253.029 98.5 253.253 98.5 253.529H99.5ZM98.5 256.588C98.5 256.864 98.7239 257.088 99 257.088C99.2761 257.088 99.5 256.864 99.5 256.588H98.5ZM99.5 259.647C99.5 259.371 99.2761 259.147 99 259.147C98.7239 259.147 98.5 259.371 98.5 259.647H99.5ZM98.5 262.706C98.5 262.982 98.7239 263.206 99 263.206C99.2761 263.206 99.5 262.982 99.5 262.706H98.5ZM99.5 265.765C99.5 265.489 99.2761 265.265 99 265.265C98.7239 265.265 98.5 265.489 98.5 265.765H99.5ZM98.5 268.824C98.5 269.1 98.7239 269.324 99 269.324C99.2761 269.324 99.5 269.1 99.5 268.824H98.5ZM99.5 271.882C99.5 271.606 99.2761 271.382 99 271.382C98.7239 271.382 98.5 271.606 98.5 271.882H99.5ZM98.5 274.941C98.5 275.217 98.7239 275.441 99 275.441C99.2761 275.441 99.5 275.217 99.5 274.941H98.5ZM99.5 278C99.5 277.724 99.2761 277.5 99 277.5C98.7239 277.5 98.5 277.724 98.5 278H99.5ZM98.5 281.059C98.5 281.335 98.7239 281.559 99 281.559C99.2761 281.559 99.5 281.335 99.5 281.059H98.5ZM99.5 284.118C99.5 283.841 99.2761 283.618 99 283.618C98.7239 283.618 98.5 283.841 98.5 284.118H99.5ZM98.5 287.176C98.5 287.453 98.7239 287.676 99 287.676C99.2761 287.676 99.5 287.453 99.5 287.176H98.5ZM99.5 290.235C99.5 289.959 99.2761 289.735 99 289.735C98.7239 289.735 98.5 289.959 98.5 290.235H99.5ZM98.5 293.294C98.5 293.57 98.7239 293.794 99 293.794C99.2761 293.794 99.5 293.57 99.5 293.294H98.5ZM99.5 296.353C99.5 296.077 99.2761 295.853 99 295.853C98.7239 295.853 98.5 296.077 98.5 296.353H99.5ZM98.5 299.412C98.5 299.688 98.7239 299.912 99 299.912C99.2761 299.912 99.5 299.688 99.5 299.412H98.5ZM99.5 302.471C99.5 302.194 99.2761 301.971 99 301.971C98.7239 301.971 98.5 302.194 98.5 302.471H99.5ZM98.4334 305.253C98.4034 305.528 98.6016 305.775 98.8761 305.805C99.1506 305.835 99.3975 305.637 99.4275 305.362L98.4334 305.253ZM98.7839 308.029C98.8848 307.772 98.7581 307.482 98.5011 307.381C98.244 307.28 97.9539 307.406 97.853 307.663L98.7839 308.029ZM96.6243 309.792C96.4518 310.008 96.4869 310.323 96.7026 310.495C96.9183 310.667 97.2329 310.632 97.4053 310.417L96.6243 309.792ZM95.3987 312.297C95.624 312.137 95.6774 311.825 95.5178 311.6C95.3582 311.374 95.0462 311.321 94.8208 311.481L95.3987 312.297ZM92.6255 312.667C92.3694 312.771 92.2453 313.062 92.3485 313.318C92.4516 313.574 92.7429 313.698 92.999 313.595L92.6255 312.667ZM90.3847 314.343C90.6567 314.295 90.8385 314.036 90.7908 313.764C90.743 313.492 90.4838 313.31 90.2118 313.358L90.3847 314.343ZM87.5 313.5C87.2239 313.5 87 313.724 87 314C87 314.276 87.2239 314.5 87.5 314.5V313.5ZM84.5 314.5C84.7761 314.5 85 314.276 85 314C85 313.724 84.7761 313.5 84.5 313.5V314.5ZM81.5 313.5C81.2239 313.5 81 313.724 81 314C81 314.276 81.2239 314.5 81.5 314.5V313.5ZM78.5 314.5C78.7761 314.5 79 314.276 79 314C79 313.724 78.7761 313.5 78.5 313.5V314.5ZM75.5 313.5C75.2239 313.5 75 313.724 75 314C75 314.276 75.2239 314.5 75.5 314.5V313.5ZM72.5 314.5C72.7761 314.5 73 314.276 73 314C73 313.724 72.7761 313.5 72.5 313.5V314.5ZM69.5 313.5C69.2239 313.5 69 313.724 69 314C69 314.276 69.2239 314.5 69.5 314.5V313.5ZM66.5 314.5C66.7761 314.5 67 314.276 67 314C67 313.724 66.7761 313.5 66.5 313.5V314.5ZM63.5 313.5C63.2239 313.5 63 313.724 63 314C63 314.276 63.2239 314.5 63.5 314.5V313.5ZM60.5 314.5C60.7761 314.5 61 314.276 61 314C61 313.724 60.7761 313.5 60.5 313.5V314.5ZM57.5 313.5C57.2239 313.5 57 313.724 57 314C57 314.276 57.2239 314.5 57.5 314.5V313.5ZM54.5 314.5C54.7761 314.5 55 314.276 55 314C55 313.724 54.7761 313.5 54.5 313.5V314.5ZM51.5 313.5C51.2239 313.5 51 313.724 51 314C51 314.276 51.2239 314.5 51.5 314.5V313.5ZM48.5 314.5C48.7761 314.5 49 314.276 49 314C49 313.724 48.7761 313.5 48.5 313.5V314.5ZM45.5 313.5C45.2239 313.5 45 313.724 45 314C45 314.276 45.2239 314.5 45.5 314.5V313.5ZM42.5 314.5C42.7761 314.5 43 314.276 43 314C43 313.724 42.7761 313.5 42.5 313.5V314.5ZM39.5 313.5C39.2239 313.5 39 313.724 39 314C39 314.276 39.2239 314.5 39.5 314.5V313.5ZM36.5 314.5C36.7761 314.5 37 314.276 37 314C37 313.724 36.7761 313.5 36.5 313.5V314.5ZM33.5 313.5C33.2239 313.5 33 313.724 33 314C33 314.276 33.2239 314.5 33.5 314.5V313.5ZM30.5 314.5C30.7761 314.5 31 314.276 31 314C31 313.724 30.7761 313.5 30.5 313.5V314.5ZM27.5 313.5C27.2239 313.5 27 313.724 27 314C27 314.276 27.2239 314.5 27.5 314.5V313.5ZM24.5 314.5C24.7761 314.5 25 314.276 25 314C25 313.724 24.7761 313.5 24.5 313.5V314.5ZM21.5 313.5C21.2239 313.5 21 313.724 21 314C21 314.276 21.2239 314.5 21.5 314.5V313.5ZM18.5 314.5C18.7761 314.5 19 314.276 19 314C19 313.724 18.7761 313.5 18.5 313.5V314.5ZM15.5 313.5C15.2239 313.5 15 313.724 15 314C15 314.276 15.2239 314.5 15.5 314.5V313.5ZM12.5 314.5C12.7761 314.5 13 314.276 13 314C13 313.724 12.7761 313.5 12.5 313.5V314.5ZM9.5 313.5C9.22386 313.5 9 313.724 9 314C9 314.276 9.22386 314.5 9.5 314.5V313.5ZM6.5 314.5C6.77614 314.5 7 314.276 7 314C7 313.724 6.77614 313.5 6.5 313.5V314.5ZM3.27732 313.842C3.02224 313.947 2.90121 314.24 3.00699 314.495C3.11276 314.75 3.4053 314.871 3.66038 314.765L3.27732 313.842ZM1.76539 316.66C1.87116 316.405 1.75013 316.113 1.49505 316.007C1.23997 315.901 0.947437 316.022 0.84166 316.277L1.76539 316.66ZM0.5 319.562C0.5 319.839 0.723858 320.062 1 320.062C1.27614 320.062 1.5 319.839 1.5 319.562H0.5ZM1.5 322.688C1.5 322.411 1.27614 322.188 1 322.188C0.723858 322.188 0.5 322.411 0.5 322.688H1.5ZM0.5 325.812C0.5 326.089 0.723858 326.312 1 326.312C1.27614 326.312 1.5 326.089 1.5 325.812H0.5ZM1.5 328.938C1.5 328.661 1.27614 328.438 1 328.438C0.723858 328.438 0.5 328.661 0.5 328.938H1.5ZM0.5 332.062C0.5 332.339 0.723858 332.562 1 332.562C1.27614 332.562 1.5 332.339 1.5 332.062H0.5ZM1.5 335.188C1.5 334.911 1.27614 334.688 1 334.688C0.723858 334.688 0.5 334.911 0.5 335.188H1.5ZM0.5 338.312C0.5 338.589 0.723858 338.812 1 338.812C1.27614 338.812 1.5 338.589 1.5 338.312H0.5ZM1.5 341.438C1.5 341.161 1.27614 340.938 1 340.938C0.723858 340.938 0.5 341.161 0.5 341.438H1.5ZM0.841659 344.723C0.947436 344.978 1.23997 345.099 1.49505 344.993C1.75013 344.887 1.87116 344.595 1.76538 344.34L0.841659 344.723ZM3.66037 346.235C3.40529 346.129 3.11276 346.25 3.00698 346.505C2.90121 346.76 3.02224 347.053 3.27732 347.158L3.66037 346.235ZM6.46875 347.5C6.7449 347.5 6.96875 347.276 6.96875 347C6.96875 346.724 6.7449 346.5 6.46875 346.5V347.5ZM9.40627 346.5C9.13013 346.5 8.90627 346.724 8.90627 347C8.90627 347.276 9.13013 347.5 9.40627 347.5V346.5ZM12.3438 347.5C12.6199 347.5 12.8438 347.276 12.8438 347C12.8438 346.724 12.6199 346.5 12.3438 346.5V347.5ZM15.2813 346.5C15.0052 346.5 14.7813 346.724 14.7813 347C14.7813 347.276 15.0052 347.5 15.2813 347.5V346.5ZM18.2188 347.5C18.495 347.5 18.7188 347.276 18.7188 347C18.7188 346.724 18.495 346.5 18.2188 346.5V347.5ZM21.1563 346.5C20.8802 346.5 20.6563 346.724 20.6563 347C20.6563 347.276 20.8802 347.5 21.1563 347.5V346.5ZM24.0938 347.5C24.37 347.5 24.5938 347.276 24.5938 347C24.5938 346.724 24.37 346.5 24.0938 346.5V347.5ZM27.0314 346.5C26.7552 346.5 26.5314 346.724 26.5314 347C26.5314 347.276 26.7552 347.5 27.0314 347.5V346.5ZM29.9689 347.5C30.245 347.5 30.4689 347.276 30.4689 347C30.4689 346.724 30.245 346.5 29.9689 346.5V347.5ZM32.9064 346.5C32.6302 346.5 32.4064 346.724 32.4064 347C32.4064 347.276 32.6302 347.5 32.9064 347.5V346.5ZM35.8439 347.5C36.12 347.5 36.3439 347.276 36.3439 347C36.3439 346.724 36.12 346.5 35.8439 346.5V347.5ZM38.7814 346.5C38.5053 346.5 38.2814 346.724 38.2814 347C38.2814 347.276 38.5053 347.5 38.7814 347.5V346.5ZM41.7189 347.5C41.9951 347.5 42.2189 347.276 42.2189 347C42.2189 346.724 41.9951 346.5 41.7189 346.5V347.5ZM44.6564 346.5C44.3803 346.5 44.1564 346.724 44.1564 347C44.1564 347.276 44.3803 347.5 44.6564 347.5V346.5ZM47.594 347.5C47.8701 347.5 48.094 347.276 48.094 347C48.094 346.724 47.8701 346.5 47.594 346.5V347.5ZM50.5315 346.5C50.2553 346.5 50.0315 346.724 50.0315 347C50.0315 347.276 50.2553 347.5 50.5315 347.5V346.5ZM53.469 347.5C53.7451 347.5 53.969 347.276 53.969 347C53.969 346.724 53.7451 346.5 53.469 346.5V347.5ZM56.4065 346.5C56.1304 346.5 55.9065 346.724 55.9065 347C55.9065 347.276 56.1304 347.5 56.4065 347.5V346.5ZM59.344 347.5C59.6202 347.5 59.844 347.276 59.844 347C59.844 346.724 59.6202 346.5 59.344 346.5V347.5ZM62.2815 346.5C62.0054 346.5 61.7815 346.724 61.7815 347C61.7815 347.276 62.0054 347.5 62.2815 347.5V346.5ZM65.2191 347.5C65.4952 347.5 65.7191 347.276 65.7191 347C65.7191 346.724 65.4952 346.5 65.2191 346.5V347.5ZM68.1566 346.5C67.8804 346.5 67.6566 346.724 67.6566 347C67.6566 347.276 67.8804 347.5 68.1566 347.5V346.5ZM71.0941 347.5C71.3702 347.5 71.5941 347.276 71.5941 347C71.5941 346.724 71.3702 346.5 71.0941 346.5V347.5ZM74.0316 346.5C73.7555 346.5 73.5316 346.724 73.5316 347C73.5316 347.276 73.7555 347.5 74.0316 347.5V346.5ZM76.9691 347.5C77.2453 347.5 77.4691 347.276 77.4691 347C77.4691 346.724 77.2453 346.5 76.9691 346.5V347.5ZM79.9066 346.5C79.6305 346.5 79.4066 346.724 79.4066 347C79.4066 347.276 79.6305 347.5 79.9066 347.5V346.5ZM82.8441 347.5C83.1203 347.5 83.3441 347.276 83.3441 347C83.3441 346.724 83.1203 346.5 82.8441 346.5V347.5ZM85.7817 346.5C85.5055 346.5 85.2817 346.724 85.2817 347C85.2817 347.276 85.5055 347.5 85.7817 347.5V346.5ZM88.7192 347.5C88.9953 347.5 89.2192 347.276 89.2192 347C89.2192 346.724 88.9953 346.5 88.7192 346.5V347.5ZM91.6567 346.5C91.3805 346.5 91.1567 346.724 91.1567 347C91.1567 347.276 91.3805 347.5 91.6567 347.5V346.5ZM94.1431 348.08C94.3806 348.221 94.6874 348.143 94.8283 347.905C94.9692 347.668 94.8909 347.361 94.6535 347.22L94.1431 348.08ZM96.9886 349.097C96.8018 348.894 96.4855 348.88 96.2821 349.067C96.0788 349.254 96.0653 349.57 96.2521 349.774L96.9886 349.097ZM97.7214 352.02C97.8326 352.273 98.1277 352.388 98.3804 352.276C98.6332 352.165 98.7479 351.87 98.6366 351.617L97.7214 352.02ZM99.4131 354.512C99.3801 354.238 99.1311 354.043 98.8569 354.076C98.5827 354.109 98.3873 354.358 98.4203 354.632L99.4131 354.512ZM98.5 357.515C98.5 357.791 98.7239 358.015 99 358.015C99.2761 358.015 99.5 357.791 99.5 357.515H98.5ZM99.5 360.544C99.5 360.268 99.2761 360.044 99 360.044C98.7239 360.044 98.5 360.268 98.5 360.544H99.5ZM98.5 363.574C98.5 363.85 98.7239 364.074 99 364.074C99.2761 364.074 99.5 363.85 99.5 363.574H98.5ZM99.5 366.603C99.5 366.327 99.2761 366.103 99 366.103C98.7239 366.103 98.5 366.327 98.5 366.603H99.5ZM98.5 369.632C98.5 369.909 98.7239 370.132 99 370.132C99.2761 370.132 99.5 369.909 99.5 369.632H98.5ZM99.5 372.662C99.5 372.386 99.2761 372.162 99 372.162C98.7239 372.162 98.5 372.386 98.5 372.662H99.5ZM98.5 375.691C98.5 375.967 98.7239 376.191 99 376.191C99.2761 376.191 99.5 375.967 99.5 375.691H98.5ZM99.5 378.721C99.5 378.444 99.2761 378.221 99 378.221C98.7239 378.221 98.5 378.444 98.5 378.721H99.5ZM98.5 381.75C98.5 382.026 98.7239 382.25 99 382.25C99.2761 382.25 99.5 382.026 99.5 381.75H98.5ZM99.5 384.779C99.5 384.503 99.2761 384.279 99 384.279C98.7239 384.279 98.5 384.503 98.5 384.779H99.5ZM98.5 387.809C98.5 388.085 98.7239 388.309 99 388.309C99.2761 388.309 99.5 388.085 99.5 387.809H98.5ZM99.5 390.838C99.5 390.562 99.2761 390.338 99 390.338C98.7239 390.338 98.5 390.562 98.5 390.838H99.5ZM98.5 393.868C98.5 394.144 98.7239 394.368 99 394.368C99.2761 394.368 99.5 394.144 99.5 393.868H98.5ZM99.5 396.897C99.5 396.621 99.2761 396.397 99 396.397C98.7239 396.397 98.5 396.621 98.5 396.897H99.5ZM98.5 399.926C98.5 400.203 98.7239 400.426 99 400.426C99.2761 400.426 99.5 400.203 99.5 399.926H98.5ZM99.5 402.956C99.5 402.68 99.2761 402.456 99 402.456C98.7239 402.456 98.5 402.68 98.5 402.956H99.5ZM98.5 405.985C98.5 406.261 98.7239 406.485 99 406.485C99.2761 406.485 99.5 406.261 99.5 405.985H98.5ZM99.5 409.015C99.5 408.739 99.2761 408.515 99 408.515C98.7239 408.515 98.5 408.739 98.5 409.015H99.5ZM98.5 412.044C98.5 412.32 98.7239 412.544 99 412.544C99.2761 412.544 99.5 412.32 99.5 412.044H98.5ZM99.5 415.074C99.5 414.797 99.2761 414.574 99 414.574C98.7239 414.574 98.5 414.797 98.5 415.074H99.5ZM98.5 418.103C98.5 418.379 98.7239 418.603 99 418.603C99.2761 418.603 99.5 418.379 99.5 418.103H98.5ZM99.5 421.132C99.5 420.856 99.2761 420.632 99 420.632C98.7239 420.632 98.5 420.856 98.5 421.132H99.5ZM98.5 424.162C98.5 424.438 98.7239 424.662 99 424.662C99.2761 424.662 99.5 424.438 99.5 424.162H98.5ZM99.5 427.191C99.5 426.915 99.2761 426.691 99 426.691C98.7239 426.691 98.5 426.915 98.5 427.191H99.5ZM98.5 430.221C98.5 430.497 98.7239 430.721 99 430.721C99.2761 430.721 99.5 430.497 99.5 430.221H98.5ZM99.5 433.25C99.5 432.974 99.2761 432.75 99 432.75C98.7239 432.75 98.5 432.974 98.5 433.25H99.5ZM98.5 436.279C98.5 436.556 98.7239 436.779 99 436.779C99.2761 436.779 99.5 436.556 99.5 436.279H98.5ZM99.5 439.309C99.5 439.033 99.2761 438.809 99 438.809C98.7239 438.809 98.5 439.033 98.5 439.309H99.5ZM98.5 442.338C98.5 442.614 98.7239 442.838 99 442.838C99.2761 442.838 99.5 442.614 99.5 442.338H98.5ZM99.5 445.368C99.5 445.091 99.2761 444.868 99 444.868C98.7239 444.868 98.5 445.091 98.5 445.368H99.5ZM98.5 448.397C98.5 448.673 98.7239 448.897 99 448.897C99.2761 448.897 99.5 448.673 99.5 448.397H98.5ZM99.5 451.426C99.5 451.15 99.2761 450.926 99 450.926C98.7239 450.926 98.5 451.15 98.5 451.426H99.5ZM98.5 454.456C98.5 454.732 98.7239 454.956 99 454.956C99.2761 454.956 99.5 454.732 99.5 454.456H98.5ZM99.5 457.485C99.5 457.209 99.2761 456.985 99 456.985C98.7239 456.985 98.5 457.209 98.5 457.485H99.5ZM98.4334 460.253C98.4034 460.528 98.6016 460.775 98.8761 460.805C99.1506 460.835 99.3975 460.637 99.4275 460.362L98.4334 460.253ZM98.7839 463.029C98.8848 462.772 98.7581 462.482 98.5011 462.381C98.244 462.28 97.9539 462.406 97.853 462.663L98.7839 463.029ZM96.6243 464.792C96.4518 465.008 96.4869 465.323 96.7026 465.495C96.9183 465.667 97.2329 465.632 97.4053 465.417L96.6243 464.792ZM95.3987 467.297C95.624 467.137 95.6774 466.825 95.5178 466.6C95.3582 466.374 95.0462 466.321 94.8208 466.481L95.3987 467.297ZM92.6255 467.667C92.3694 467.771 92.2453 468.062 92.3485 468.318C92.4516 468.574 92.7429 468.698 92.999 468.595L92.6255 467.667ZM90.3847 469.343C90.6567 469.295 90.8385 469.036 90.7908 468.764C90.743 468.492 90.4838 468.31 90.2118 468.358L90.3847 469.343ZM87.5 468.5C87.2239 468.5 87 468.724 87 469C87 469.276 87.2239 469.5 87.5 469.5V468.5ZM84.5 469.5C84.7761 469.5 85 469.276 85 469C85 468.724 84.7761 468.5 84.5 468.5V469.5ZM81.5 468.5C81.2239 468.5 81 468.724 81 469C81 469.276 81.2239 469.5 81.5 469.5V468.5ZM78.5 469.5C78.7761 469.5 79 469.276 79 469C79 468.724 78.7761 468.5 78.5 468.5V469.5ZM75.5 468.5C75.2239 468.5 75 468.724 75 469C75 469.276 75.2239 469.5 75.5 469.5V468.5ZM72.5 469.5C72.7761 469.5 73 469.276 73 469C73 468.724 72.7761 468.5 72.5 468.5V469.5ZM69.5 468.5C69.2239 468.5 69 468.724 69 469C69 469.276 69.2239 469.5 69.5 469.5V468.5ZM66.5 469.5C66.7761 469.5 67 469.276 67 469C67 468.724 66.7761 468.5 66.5 468.5V469.5ZM63.5 468.5C63.2239 468.5 63 468.724 63 469C63 469.276 63.2239 469.5 63.5 469.5V468.5ZM60.5 469.5C60.7761 469.5 61 469.276 61 469C61 468.724 60.7761 468.5 60.5 468.5V469.5ZM57.5 468.5C57.2239 468.5 57 468.724 57 469C57 469.276 57.2239 469.5 57.5 469.5V468.5ZM54.5 469.5C54.7761 469.5 55 469.276 55 469C55 468.724 54.7761 468.5 54.5 468.5V469.5ZM51.5 468.5C51.2239 468.5 51 468.724 51 469C51 469.276 51.2239 469.5 51.5 469.5V468.5ZM48.5 469.5C48.7761 469.5 49 469.276 49 469C49 468.724 48.7761 468.5 48.5 468.5V469.5ZM45.5 468.5C45.2239 468.5 45 468.724 45 469C45 469.276 45.2239 469.5 45.5 469.5V468.5ZM42.5 469.5C42.7761 469.5 43 469.276 43 469C43 468.724 42.7761 468.5 42.5 468.5V469.5ZM39.5 468.5C39.2239 468.5 39 468.724 39 469C39 469.276 39.2239 469.5 39.5 469.5V468.5ZM36.5 469.5C36.7761 469.5 37 469.276 37 469C37 468.724 36.7761 468.5 36.5 468.5V469.5ZM33.5 468.5C33.2239 468.5 33 468.724 33 469C33 469.276 33.2239 469.5 33.5 469.5V468.5ZM30.5 469.5C30.7761 469.5 31 469.276 31 469C31 468.724 30.7761 468.5 30.5 468.5V469.5ZM27.5 468.5C27.2239 468.5 27 468.724 27 469C27 469.276 27.2239 469.5 27.5 469.5V468.5ZM24.5 469.5C24.7761 469.5 25 469.276 25 469C25 468.724 24.7761 468.5 24.5 468.5V469.5ZM21.5 468.5C21.2239 468.5 21 468.724 21 469C21 469.276 21.2239 469.5 21.5 469.5V468.5ZM18.5 469.5C18.7761 469.5 19 469.276 19 469C19 468.724 18.7761 468.5 18.5 468.5V469.5ZM15.5 468.5C15.2239 468.5 15 468.724 15 469C15 469.276 15.2239 469.5 15.5 469.5V468.5ZM12.5 469.5C12.7761 469.5 13 469.276 13 469C13 468.724 12.7761 468.5 12.5 468.5V469.5ZM9.5 468.5C9.22385 468.5 8.99999 468.724 8.99999 469C8.99999 469.276 9.22385 469.5 9.5 469.5V468.5ZM6.5 469.5C6.77614 469.5 7 469.276 7 469C7 468.724 6.77614 468.5 6.5 468.5V469.5ZM3.27732 468.842C3.02224 468.947 2.90121 469.24 3.00698 469.495C3.11276 469.75 3.40529 469.871 3.66037 469.765L3.27732 468.842ZM1.76538 471.66C1.87116 471.405 1.75013 471.113 1.49505 471.007C1.23997 470.901 0.947436 471.022 0.841659 471.277L1.76538 471.66ZM0.5 474.562C0.5 474.839 0.723858 475.062 1 475.062C1.27614 475.062 1.5 474.839 1.5 474.562H0.5ZM1.5 477.688C1.5 477.411 1.27614 477.188 1 477.188C0.723858 477.188 0.5 477.411 0.5 477.688H1.5ZM0.5 480.812C0.5 481.089 0.723858 481.312 1 481.312C1.27614 481.312 1.5 481.089 1.5 480.812H0.5ZM1.5 483.938C1.5 483.661 1.27614 483.438 1 483.438C0.723858 483.438 0.5 483.661 0.5 483.938H1.5ZM0.5 487.062C0.5 487.339 0.723858 487.562 1 487.562C1.27614 487.562 1.5 487.339 1.5 487.062H0.5ZM1.5 490.188C1.5 489.911 1.27614 489.688 1 489.688C0.723858 489.688 0.5 489.911 0.5 490.188H1.5ZM0.5 493.312C0.5 493.589 0.723858 493.812 1 493.812C1.27614 493.812 1.5 493.589 1.5 493.312H0.5ZM1.5 496.438C1.5 496.161 1.27614 495.938 1 495.938C0.723858 495.938 0.5 496.161 0.5 496.438H1.5ZM0.84166 499.723C0.947437 499.978 1.23997 500.099 1.49505 499.993C1.75013 499.887 1.87116 499.595 1.76539 499.34L0.84166 499.723ZM3.66038 501.235C3.4053 501.129 3.11276 501.25 3.00699 501.505C2.90121 501.76 3.02224 502.053 3.27732 502.158L3.66038 501.235ZM6.46875 502.5C6.74489 502.5 6.96875 502.276 6.96875 502C6.96875 501.724 6.74489 501.5 6.46875 501.5V502.5ZM9.40625 501.5C9.13011 501.5 8.90625 501.724 8.90625 502C8.90625 502.276 9.13011 502.5 9.40625 502.5V501.5ZM12.3438 502.5C12.6199 502.5 12.8438 502.276 12.8438 502C12.8438 501.724 12.6199 501.5 12.3438 501.5V502.5ZM15.2812 501.5C15.0051 501.5 14.7812 501.724 14.7812 502C14.7812 502.276 15.0051 502.5 15.2812 502.5V501.5ZM18.2188 502.5C18.4949 502.5 18.7188 502.276 18.7188 502C18.7188 501.724 18.4949 501.5 18.2188 501.5V502.5ZM21.1562 501.5C20.8801 501.5 20.6562 501.724 20.6562 502C20.6562 502.276 20.8801 502.5 21.1562 502.5V501.5ZM24.0938 502.5C24.3699 502.5 24.5938 502.276 24.5938 502C24.5938 501.724 24.3699 501.5 24.0938 501.5V502.5ZM27.0312 501.5C26.7551 501.5 26.5312 501.724 26.5312 502C26.5312 502.276 26.7551 502.5 27.0312 502.5V501.5ZM29.9688 502.5C30.2449 502.5 30.4688 502.276 30.4688 502C30.4688 501.724 30.2449 501.5 29.9688 501.5V502.5ZM32.9062 501.5C32.6301 501.5 32.4062 501.724 32.4062 502C32.4062 502.276 32.6301 502.5 32.9062 502.5V501.5ZM35.8438 502.5C36.1199 502.5 36.3438 502.276 36.3438 502C36.3438 501.724 36.1199 501.5 35.8438 501.5V502.5ZM38.7812 501.5C38.5051 501.5 38.2812 501.724 38.2812 502C38.2812 502.276 38.5051 502.5 38.7812 502.5V501.5ZM41.7188 502.5C41.9949 502.5 42.2188 502.276 42.2188 502C42.2188 501.724 41.9949 501.5 41.7188 501.5V502.5ZM44.6562 501.5C44.3801 501.5 44.1562 501.724 44.1562 502C44.1562 502.276 44.3801 502.5 44.6562 502.5V501.5ZM47.5938 502.5C47.8699 502.5 48.0938 502.276 48.0938 502C48.0938 501.724 47.8699 501.5 47.5938 501.5V502.5ZM50.5312 501.5C50.2551 501.5 50.0312 501.724 50.0312 502C50.0312 502.276 50.2551 502.5 50.5312 502.5V501.5ZM53.4688 502.5C53.7449 502.5 53.9688 502.276 53.9688 502C53.9688 501.724 53.7449 501.5 53.4688 501.5V502.5ZM56.4062 501.5C56.1301 501.5 55.9062 501.724 55.9062 502C55.9062 502.276 56.1301 502.5 56.4062 502.5V501.5ZM59.3438 502.5C59.6199 502.5 59.8438 502.276 59.8438 502C59.8438 501.724 59.6199 501.5 59.3438 501.5V502.5ZM62.2812 501.5C62.0051 501.5 61.7812 501.724 61.7812 502C61.7812 502.276 62.0051 502.5 62.2812 502.5V501.5ZM65.2188 502.5C65.4949 502.5 65.7188 502.276 65.7188 502C65.7188 501.724 65.4949 501.5 65.2188 501.5V502.5ZM68.1562 501.5C67.8801 501.5 67.6562 501.724 67.6562 502C67.6562 502.276 67.8801 502.5 68.1562 502.5V501.5ZM71.0938 502.5C71.3699 502.5 71.5938 502.276 71.5938 502C71.5938 501.724 71.3699 501.5 71.0938 501.5V502.5ZM74.0312 501.5C73.7551 501.5 73.5312 501.724 73.5312 502C73.5312 502.276 73.7551 502.5 74.0312 502.5V501.5ZM76.9688 502.5C77.2449 502.5 77.4688 502.276 77.4688 502C77.4688 501.724 77.2449 501.5 76.9688 501.5V502.5ZM79.9062 501.5C79.6301 501.5 79.4062 501.724 79.4062 502C79.4062 502.276 79.6301 502.5 79.9062 502.5V501.5ZM82.8438 502.5C83.1199 502.5 83.3438 502.276 83.3438 502C83.3438 501.724 83.1199 501.5 82.8438 501.5V502.5ZM85.7812 501.5C85.5051 501.5 85.2812 501.724 85.2812 502C85.2812 502.276 85.5051 502.5 85.7812 502.5V501.5ZM88.7188 502.5C88.9949 502.5 89.2188 502.276 89.2188 502C89.2188 501.724 88.9949 501.5 88.7188 501.5V502.5ZM91.6562 501.5C91.3801 501.5 91.1562 501.724 91.1562 502C91.1562 502.276 91.3801 502.5 91.6562 502.5V501.5ZM94.5938 502.5C94.8699 502.5 95.0938 502.276 95.0938 502C95.0938 501.724 94.8699 501.5 94.5938 501.5V502.5ZM97.5312 501.5C97.2551 501.5 97.0312 501.724 97.0312 502C97.0312 502.276 97.2551 502.5 97.5312 502.5V501.5ZM100.462 502.469C100.738 502.457 100.952 502.224 100.94 501.948C100.929 501.672 100.695 501.458 100.419 501.47L100.462 502.469ZM103.245 501.225C102.972 501.261 102.779 501.512 102.814 501.786C102.85 502.06 103.101 502.253 103.375 502.217L103.245 501.225ZM106.253 501.713C106.523 501.653 106.693 501.386 106.634 501.117C106.574 500.847 106.307 500.677 106.038 500.736L106.253 501.713ZM108.776 500.004C108.513 500.087 108.366 500.368 108.449 500.631C108.532 500.895 108.813 501.041 109.077 500.958L108.776 500.004ZM111.824 499.958C112.079 499.852 112.2 499.56 112.094 499.304C111.988 499.049 111.696 498.928 111.44 499.034L111.824 499.958ZM114.01 497.834C113.765 497.962 113.67 498.264 113.798 498.509C113.925 498.753 114.227 498.848 114.472 498.721L114.01 497.834ZM117.002 497.257C117.235 497.108 117.303 496.799 117.154 496.566C117.006 496.334 116.697 496.266 116.464 496.414L117.002 497.257ZM118.785 494.786C118.566 494.954 118.525 495.268 118.693 495.487C118.862 495.706 119.176 495.747 119.395 495.579L118.785 494.786ZM121.632 493.699C121.836 493.512 121.85 493.196 121.663 492.993C121.476 492.789 121.16 492.775 120.957 492.962L121.632 493.699ZM122.962 490.957C122.775 491.16 122.789 491.476 122.993 491.663C123.196 491.85 123.512 491.836 123.699 491.632L122.962 490.957ZM125.579 489.395C125.747 489.176 125.706 488.862 125.487 488.693C125.268 488.525 124.954 488.566 124.786 488.785L125.579 489.395ZM126.414 486.464C126.265 486.697 126.334 487.006 126.566 487.154C126.799 487.303 127.108 487.235 127.257 487.002L126.414 486.464ZM128.721 484.472C128.848 484.227 128.753 483.925 128.509 483.798C128.264 483.67 127.962 483.765 127.834 484.01L128.721 484.472ZM129.034 481.44C128.928 481.696 129.049 481.988 129.304 482.094C129.559 482.2 129.852 482.079 129.958 481.824L129.034 481.44ZM130.958 479.077C131.041 478.813 130.895 478.532 130.631 478.449C130.368 478.366 130.087 478.513 130.004 478.776L130.958 479.077ZM130.736 476.038C130.677 476.307 130.847 476.574 131.117 476.634C131.386 476.693 131.653 476.523 131.713 476.253L130.736 476.038ZM132.217 473.375C132.253 473.101 132.06 472.85 131.786 472.814C131.512 472.779 131.261 472.972 131.225 473.245L132.217 473.375ZM131.47 470.419C131.458 470.695 131.672 470.929 131.948 470.94C132.224 470.952 132.457 470.738 132.469 470.462L131.47 470.419ZM132.5 467.475C132.5 467.199 132.276 466.975 132 466.975C131.724 466.975 131.5 467.199 131.5 467.475H132.5ZM131.5 464.425C131.5 464.701 131.724 464.925 132 464.925C132.276 464.925 132.5 464.701 132.5 464.425H131.5ZM132.5 461.375C132.5 461.099 132.276 460.875 132 460.875C131.724 460.875 131.5 461.099 131.5 461.375H132.5ZM131.5 458.325C131.5 458.601 131.724 458.825 132 458.825C132.276 458.825 132.5 458.601 132.5 458.325H131.5ZM132.5 455.275C132.5 454.999 132.276 454.775 132 454.775C131.724 454.775 131.5 454.999 131.5 455.275H132.5ZM131.5 452.225C131.5 452.501 131.724 452.725 132 452.725C132.276 452.725 132.5 452.501 132.5 452.225H131.5ZM132.5 449.175C132.5 448.899 132.276 448.675 132 448.675C131.724 448.675 131.5 448.899 131.5 449.175H132.5ZM131.5 446.125C131.5 446.401 131.724 446.625 132 446.625C132.276 446.625 132.5 446.401 132.5 446.125H131.5ZM132.5 443.075C132.5 442.799 132.276 442.575 132 442.575C131.724 442.575 131.5 442.799 131.5 443.075H132.5ZM131.5 440.025C131.5 440.301 131.724 440.525 132 440.525C132.276 440.525 132.5 440.301 132.5 440.025H131.5ZM132.5 436.975C132.5 436.699 132.276 436.475 132 436.475C131.724 436.475 131.5 436.699 131.5 436.975H132.5ZM131.5 433.925C131.5 434.201 131.724 434.425 132 434.425C132.276 434.425 132.5 434.201 132.5 433.925H131.5ZM132.5 430.875C132.5 430.599 132.276 430.375 132 430.375C131.724 430.375 131.5 430.599 131.5 430.875H132.5ZM131.5 427.825C131.5 428.101 131.724 428.325 132 428.325C132.276 428.325 132.5 428.101 132.5 427.825H131.5ZM132.5 424.775C132.5 424.499 132.276 424.275 132 424.275C131.724 424.275 131.5 424.499 131.5 424.775H132.5ZM131.5 421.725C131.5 422.001 131.724 422.225 132 422.225C132.276 422.225 132.5 422.001 132.5 421.725H131.5ZM132.5 418.675C132.5 418.399 132.276 418.175 132 418.175C131.724 418.175 131.5 418.399 131.5 418.675H132.5ZM131.5 415.625C131.5 415.901 131.724 416.125 132 416.125C132.276 416.125 132.5 415.901 132.5 415.625H131.5ZM132.5 412.575C132.5 412.299 132.276 412.075 132 412.075C131.724 412.075 131.5 412.299 131.5 412.575H132.5ZM131.5 409.525C131.5 409.801 131.724 410.025 132 410.025C132.276 410.025 132.5 409.801 132.5 409.525H131.5ZM132.5 406.475C132.5 406.199 132.276 405.975 132 405.975C131.724 405.975 131.5 406.199 131.5 406.475H132.5ZM131.5 403.425C131.5 403.701 131.724 403.925 132 403.925C132.276 403.925 132.5 403.701 132.5 403.425H131.5ZM132.5 400.375C132.5 400.099 132.276 399.875 132 399.875C131.724 399.875 131.5 400.099 131.5 400.375H132.5ZM131.5 397.325C131.5 397.601 131.724 397.825 132 397.825C132.276 397.825 132.5 397.601 132.5 397.325H131.5ZM132.5 394.275C132.5 393.999 132.276 393.775 132 393.775C131.724 393.775 131.5 393.999 131.5 394.275H132.5ZM131.5 391.225C131.5 391.501 131.724 391.725 132 391.725C132.276 391.725 132.5 391.501 132.5 391.225H131.5ZM132.5 388.175C132.5 387.899 132.276 387.675 132 387.675C131.724 387.675 131.5 387.899 131.5 388.175H132.5ZM131.5 385.125C131.5 385.401 131.724 385.625 132 385.625C132.276 385.625 132.5 385.401 132.5 385.125H131.5ZM132.5 382.075C132.5 381.799 132.276 381.575 132 381.575C131.724 381.575 131.5 381.799 131.5 382.075H132.5ZM131.5 379.025C131.5 379.301 131.724 379.525 132 379.525C132.276 379.525 132.5 379.301 132.5 379.025H131.5ZM132.5 375.975C132.5 375.699 132.276 375.475 132 375.475C131.724 375.475 131.5 375.699 131.5 375.975H132.5ZM131.5 372.925C131.5 373.201 131.724 373.425 132 373.425C132.276 373.425 132.5 373.201 132.5 372.925H131.5ZM132.5 369.875C132.5 369.599 132.276 369.375 132 369.375C131.724 369.375 131.5 369.599 131.5 369.875H132.5ZM131.5 366.825C131.5 367.101 131.724 367.325 132 367.325C132.276 367.325 132.5 367.101 132.5 366.825H131.5ZM132.5 363.775C132.5 363.499 132.276 363.275 132 363.275C131.724 363.275 131.5 363.499 131.5 363.775H132.5ZM131.5 360.725C131.5 361.001 131.724 361.225 132 361.225C132.276 361.225 132.5 361.001 132.5 360.725H131.5ZM132.5 357.675C132.5 357.399 132.276 357.175 132 357.175C131.724 357.175 131.5 357.399 131.5 357.675H132.5ZM131.5 354.625C131.5 354.901 131.724 355.125 132 355.125C132.276 355.125 132.5 354.901 132.5 354.625H131.5ZM132.5 351.575C132.5 351.299 132.276 351.075 132 351.075C131.724 351.075 131.5 351.299 131.5 351.575H132.5ZM131.5 348.525C131.5 348.801 131.724 349.025 132 349.025C132.276 349.025 132.5 348.801 132.5 348.525H131.5ZM132.5 346.992C132.5 346.716 132.276 346.492 132 346.492C131.724 346.492 131.5 346.716 131.5 346.992L132.5 346.992ZM131.5 346.976C131.5 347.252 131.724 347.476 132 347.476C132.276 347.476 132.5 347.252 132.5 346.976L131.5 346.976ZM132.5 345.506C132.5 345.229 132.276 345.006 132 345.006C131.724 345.006 131.5 345.229 131.5 345.506H132.5ZM131.5 342.581C131.5 342.857 131.724 343.081 132 343.081C132.276 343.081 132.5 342.857 132.5 342.581H131.5ZM132.5 339.656C132.5 339.38 132.276 339.156 132 339.156C131.724 339.156 131.5 339.38 131.5 339.656H132.5ZM131.5 336.732C131.5 337.008 131.724 337.232 132 337.232C132.276 337.232 132.5 337.008 132.5 336.732H131.5ZM132.5 333.807C132.5 333.531 132.276 333.307 132 333.307C131.724 333.307 131.5 333.531 131.5 333.807H132.5ZM131.5 330.883C131.5 331.159 131.724 331.383 132 331.383C132.276 331.383 132.5 331.159 132.5 330.883H131.5ZM132.5 327.958C132.5 327.682 132.276 327.458 132 327.458C131.724 327.458 131.5 327.682 131.5 327.958H132.5ZM131.5 325.034C131.5 325.31 131.724 325.534 132 325.534C132.276 325.534 132.5 325.31 132.5 325.034H131.5ZM132.5 322.109C132.5 321.833 132.276 321.609 132 321.609C131.724 321.609 131.5 321.833 131.5 322.109H132.5ZM131.5 319.184C131.5 319.461 131.724 319.684 132 319.684C132.276 319.684 132.5 319.461 132.5 319.184H131.5ZM132.5 316.26C132.5 315.984 132.276 315.76 132 315.76C131.724 315.76 131.5 315.984 131.5 316.26H132.5ZM131.5 313.335C131.5 313.611 131.724 313.835 132 313.835C132.276 313.835 132.5 313.611 132.5 313.335H131.5ZM132.5 310.411C132.5 310.134 132.276 309.911 132 309.911C131.724 309.911 131.5 310.134 131.5 310.411H132.5ZM131.5 307.486C131.5 307.762 131.724 307.986 132 307.986C132.276 307.986 132.5 307.762 132.5 307.486H131.5ZM132.5 304.561C132.5 304.285 132.276 304.061 132 304.061C131.724 304.061 131.5 304.285 131.5 304.561H132.5ZM131.5 301.637C131.5 301.913 131.724 302.137 132 302.137C132.276 302.137 132.5 301.913 132.5 301.637H131.5ZM132.5 298.712C132.5 298.436 132.276 298.212 132 298.212C131.724 298.212 131.5 298.436 131.5 298.712H132.5ZM131.5 295.788C131.5 296.064 131.724 296.288 132 296.288C132.276 296.288 132.5 296.064 132.5 295.788H131.5ZM132.5 292.863C132.5 292.587 132.276 292.363 132 292.363C131.724 292.363 131.5 292.587 131.5 292.863H132.5ZM131.5 289.939C131.5 290.215 131.724 290.439 132 290.439C132.276 290.439 132.5 290.215 132.5 289.939H131.5ZM132.5 287.014C132.5 286.738 132.276 286.514 132 286.514C131.724 286.514 131.5 286.738 131.5 287.014H132.5ZM131.5 284.089C131.5 284.366 131.724 284.589 132 284.589C132.276 284.589 132.5 284.366 132.5 284.089H131.5ZM132.5 281.165C132.5 280.889 132.276 280.665 132 280.665C131.724 280.665 131.5 280.889 131.5 281.165H132.5ZM131.5 278.24C131.5 278.516 131.724 278.74 132 278.74C132.276 278.74 132.5 278.516 132.5 278.24H131.5ZM131.662 277.273C131.767 277.528 132.059 277.651 132.314 277.546C132.57 277.442 132.692 277.15 132.588 276.894L131.662 277.273ZM132.838 277.505C132.733 277.25 132.441 277.127 132.186 277.232C131.93 277.336 131.808 277.628 131.912 277.884L132.838 277.505ZM133.067 276.747C133.097 276.472 132.898 276.225 132.624 276.195C132.349 276.165 132.103 276.363 132.072 276.638L133.067 276.747ZM132.716 273.971C132.615 274.228 132.742 274.519 132.999 274.619C133.256 274.72 133.546 274.594 133.647 274.337L132.716 273.971ZM134.876 272.208C135.048 271.992 135.013 271.678 134.797 271.505C134.582 271.333 134.267 271.368 134.095 271.583L134.876 272.208ZM136.101 269.703C135.876 269.863 135.823 270.175 135.982 270.4C136.142 270.626 136.454 270.679 136.679 270.52L136.101 269.703ZM138.874 269.333C139.131 269.23 139.255 268.938 139.152 268.682C139.048 268.426 138.757 268.302 138.501 268.405L138.874 269.333ZM141.115 267.658C140.843 267.705 140.661 267.965 140.709 268.237C140.757 268.509 141.016 268.69 141.288 268.643L141.115 267.658ZM143.938 268.5C144.214 268.5 144.438 268.276 144.438 268C144.438 267.724 144.214 267.5 143.938 267.5V268.5ZM146.812 267.5C146.536 267.5 146.312 267.724 146.312 268C146.312 268.276 146.536 268.5 146.812 268.5V267.5ZM149.688 268.5C149.964 268.5 150.188 268.276 150.188 268C150.188 267.724 149.964 267.5 149.688 267.5V268.5ZM152.562 267.5C152.286 267.5 152.062 267.724 152.062 268C152.062 268.276 152.286 268.5 152.562 268.5V267.5ZM155.438 268.5C155.714 268.5 155.938 268.276 155.938 268C155.938 267.724 155.714 267.5 155.438 267.5V268.5ZM158.312 267.5C158.036 267.5 157.812 267.724 157.812 268C157.812 268.276 158.036 268.5 158.312 268.5V267.5ZM161.188 268.5C161.464 268.5 161.688 268.276 161.688 268C161.688 267.724 161.464 267.5 161.188 267.5V268.5ZM164.062 267.5C163.786 267.5 163.562 267.724 163.562 268C163.562 268.276 163.786 268.5 164.062 268.5V267.5ZM166.938 268.5C167.214 268.5 167.438 268.276 167.438 268C167.438 267.724 167.214 267.5 166.938 267.5V268.5ZM169.812 267.5C169.536 267.5 169.312 267.724 169.312 268C169.312 268.276 169.536 268.5 169.812 268.5V267.5ZM172.688 268.5C172.964 268.5 173.188 268.276 173.188 268C173.188 267.724 172.964 267.5 172.688 267.5V268.5ZM175.562 267.5C175.286 267.5 175.062 267.724 175.062 268C175.062 268.276 175.286 268.5 175.562 268.5V267.5ZM178.438 268.5C178.714 268.5 178.938 268.276 178.938 268C178.938 267.724 178.714 267.5 178.438 267.5V268.5ZM181.312 267.5C181.036 267.5 180.812 267.724 180.812 268C180.812 268.276 181.036 268.5 181.312 268.5V267.5ZM182.25 269.131C182.25 269.407 182.474 269.631 182.75 269.631C183.026 269.631 183.25 269.407 183.25 269.131H182.25ZM183.25 271.393C183.25 271.117 183.026 270.893 182.75 270.893C182.474 270.893 182.25 271.117 182.25 271.393H183.25ZM182.25 273.655C182.25 273.931 182.474 274.155 182.75 274.155C183.026 274.155 183.25 273.931 183.25 273.655H182.25ZM183.25 275.917C183.25 275.641 183.026 275.417 182.75 275.417C182.474 275.417 182.25 275.641 182.25 275.917H183.25ZM182.848 279.301C182.986 279.54 183.292 279.622 183.531 279.483C183.77 279.345 183.852 279.039 183.713 278.8L182.848 279.301ZM186.751 280.554C186.475 280.553 186.251 280.777 186.25 281.053C186.25 281.329 186.473 281.553 186.749 281.554L186.751 280.554ZM190.229 280.235C190.468 280.097 190.55 279.791 190.412 279.552C190.274 279.313 189.968 279.231 189.729 279.369L190.229 280.235ZM192.188 277.95C191.948 278.088 191.866 278.394 192.004 278.633C192.143 278.872 192.448 278.954 192.688 278.816L192.188 277.95ZM195.146 277.397C195.385 277.258 195.467 276.953 195.329 276.714C195.191 276.474 194.885 276.392 194.646 276.531L195.146 277.397ZM197.104 275.111C196.865 275.249 196.783 275.555 196.921 275.794C197.059 276.033 197.365 276.115 197.604 275.977L197.104 275.111ZM200.062 274.558C200.302 274.42 200.384 274.114 200.246 273.875C200.107 273.636 199.802 273.554 199.562 273.692L200.062 274.558ZM202.021 272.273C201.782 272.411 201.7 272.716 201.838 272.956C201.976 273.195 202.282 273.277 202.521 273.139L202.021 272.273ZM204.979 271.719C205.218 271.581 205.3 271.275 205.162 271.036C205.024 270.797 204.718 270.715 204.479 270.853L204.979 271.719ZM206.938 269.434C206.698 269.572 206.616 269.878 206.754 270.117C206.893 270.356 207.198 270.438 207.438 270.3L206.938 269.434ZM209.896 268.881C210.135 268.743 210.217 268.437 210.079 268.198C209.941 267.958 209.635 267.877 209.396 268.015L209.896 268.881ZM211.854 266.595C211.615 266.733 211.533 267.039 211.671 267.278C211.809 267.517 212.115 267.599 212.354 267.461L211.854 266.595ZM214.812 266.042C215.052 265.904 215.134 265.598 214.996 265.359C214.857 265.12 214.552 265.038 214.312 265.176L214.812 266.042ZM216.771 263.757C216.532 263.895 216.45 264.201 216.588 264.44C216.726 264.679 217.032 264.761 217.271 264.623L216.771 263.757ZM219.729 263.203C219.968 263.065 220.05 262.76 219.912 262.52C219.774 262.281 219.468 262.199 219.229 262.337L219.729 263.203ZM221.688 260.918C221.448 261.056 221.366 261.362 221.504 261.601C221.643 261.84 221.948 261.922 222.188 261.784L221.688 260.918ZM224.646 260.365C224.885 260.227 224.967 259.921 224.829 259.682C224.691 259.443 224.385 259.361 224.146 259.499L224.646 260.365ZM226.604 258.079C226.365 258.217 226.283 258.523 226.421 258.762C226.559 259.002 226.865 259.083 227.104 258.945L226.604 258.079ZM229.562 257.526C229.802 257.388 229.884 257.082 229.746 256.843C229.607 256.604 229.302 256.522 229.062 256.66L229.562 257.526ZM231.521 255.241C231.282 255.379 231.2 255.685 231.338 255.924C231.476 256.163 231.782 256.245 232.021 256.107L231.521 255.241ZM234.903 253.752C235.04 253.513 234.958 253.207 234.719 253.07C234.479 252.932 234.174 253.014 234.036 253.254L234.903 253.752ZM234.036 249.746C234.174 249.986 234.479 250.068 234.719 249.93C234.958 249.793 235.04 249.487 234.903 249.248L234.036 249.746ZM232.021 246.893C231.782 246.755 231.476 246.837 231.338 247.076C231.2 247.315 231.282 247.621 231.521 247.759L232.021 246.893ZM229.062 246.34C229.302 246.478 229.607 246.396 229.746 246.157C229.884 245.918 229.802 245.612 229.562 245.474L229.062 246.34ZM227.104 244.055C226.865 243.917 226.559 243.998 226.421 244.238C226.283 244.477 226.365 244.783 226.604 244.921L227.104 244.055ZM224.146 243.501C224.385 243.639 224.691 243.557 224.829 243.318C224.967 243.079 224.885 242.773 224.646 242.635L224.146 243.501ZM222.188 241.216C221.948 241.078 221.643 241.16 221.504 241.399C221.366 241.638 221.448 241.944 221.688 242.082L222.188 241.216ZM219.229 240.663C219.468 240.801 219.774 240.719 219.912 240.48C220.05 240.241 219.968 239.935 219.729 239.797L219.229 240.663ZM217.271 238.377C217.032 238.239 216.726 238.321 216.588 238.56C216.45 238.799 216.532 239.105 216.771 239.243L217.271 238.377ZM214.312 237.824C214.552 237.962 214.857 237.88 214.996 237.641C215.134 237.402 215.052 237.096 214.812 236.958L214.312 237.824ZM212.354 235.539C212.115 235.401 211.809 235.483 211.671 235.722C211.533 235.961 211.615 236.267 211.854 236.405L212.354 235.539ZM209.396 234.985C209.635 235.123 209.941 235.042 210.079 234.802C210.217 234.563 210.135 234.257 209.896 234.119L209.396 234.985ZM207.438 232.7C207.198 232.562 206.893 232.644 206.754 232.883C206.616 233.122 206.698 233.428 206.938 233.566L207.438 232.7ZM204.479 232.147C204.718 232.285 205.024 232.203 205.162 231.964C205.3 231.725 205.218 231.419 204.979 231.281L204.479 232.147ZM202.521 229.861C202.282 229.723 201.976 229.805 201.838 230.044C201.7 230.284 201.782 230.589 202.021 230.727L202.521 229.861ZM199.562 229.308C199.802 229.446 200.107 229.364 200.246 229.125C200.384 228.886 200.302 228.58 200.062 228.442L199.562 229.308ZM197.604 227.023C197.365 226.885 197.059 226.967 196.921 227.206C196.783 227.445 196.865 227.751 197.104 227.889L197.604 227.023ZM194.646 226.469C194.885 226.608 195.191 226.526 195.329 226.286C195.467 226.047 195.385 225.742 195.146 225.603L194.646 226.469ZM192.688 224.184C192.448 224.046 192.143 224.128 192.004 224.367C191.866 224.606 191.948 224.912 192.188 225.05L192.688 224.184ZM189.729 223.631C189.968 223.769 190.274 223.687 190.412 223.448C190.55 223.209 190.468 222.903 190.229 222.765L189.729 223.631ZM186.749 221.446C186.473 221.447 186.25 221.671 186.25 221.947C186.251 222.223 186.475 222.447 186.751 222.446L186.749 221.446ZM183.713 224.2C183.852 223.961 183.77 223.655 183.531 223.517C183.292 223.378 182.986 223.46 182.848 223.699L183.713 224.2ZM182.25 227.083C182.25 227.359 182.474 227.583 182.75 227.583C183.026 227.583 183.25 227.359 183.25 227.083H182.25ZM183.25 229.345C183.25 229.069 183.026 228.845 182.75 228.845C182.474 228.845 182.25 229.069 182.25 229.345H183.25ZM182.25 231.607C182.25 231.883 182.474 232.107 182.75 232.107C183.026 232.107 183.25 231.883 183.25 231.607H182.25ZM183.25 233.869C183.25 233.593 183.026 233.369 182.75 233.369C182.474 233.369 182.25 233.593 182.25 233.869H183.25ZM181.332 234.5C181.056 234.5 180.832 234.724 180.832 235C180.832 235.276 181.056 235.5 181.332 235.5V234.5ZM178.496 235.5C178.772 235.5 178.996 235.276 178.996 235C178.996 234.724 178.772 234.5 178.496 234.5V235.5ZM175.66 234.5C175.384 234.5 175.16 234.724 175.16 235C175.16 235.276 175.384 235.5 175.66 235.5V234.5ZM172.824 235.5C173.1 235.5 173.324 235.276 173.324 235C173.324 234.724 173.1 234.5 172.824 234.5V235.5ZM169.988 234.5C169.712 234.5 169.488 234.724 169.488 235C169.488 235.276 169.712 235.5 169.988 235.5V234.5ZM167.152 235.5C167.428 235.5 167.652 235.276 167.652 235C167.652 234.724 167.428 234.5 167.152 234.5V235.5ZM164.316 234.5C164.04 234.5 163.816 234.724 163.816 235C163.816 235.276 164.04 235.5 164.316 235.5V234.5ZM161.48 235.5C161.756 235.5 161.98 235.276 161.98 235C161.98 234.724 161.756 234.5 161.48 234.5V235.5ZM158.644 234.5C158.368 234.5 158.144 234.724 158.144 235C158.144 235.276 158.368 235.5 158.644 235.5V234.5ZM155.808 235.5C156.084 235.5 156.308 235.276 156.308 235C156.308 234.724 156.084 234.5 155.808 234.5V235.5ZM152.972 234.5C152.696 234.5 152.472 234.724 152.472 235C152.472 235.276 152.696 235.5 152.972 235.5V234.5ZM150.136 235.5C150.413 235.5 150.636 235.276 150.636 235C150.636 234.724 150.413 234.5 150.136 234.5V235.5ZM147.3 234.5C147.024 234.5 146.8 234.724 146.8 235C146.8 235.276 147.024 235.5 147.3 235.5V234.5ZM144.464 235.5C144.741 235.5 144.964 235.276 144.964 235C144.964 234.724 144.741 234.5 144.464 234.5V235.5ZM141.629 234.5C141.352 234.5 141.129 234.724 141.129 235C141.129 235.276 141.352 235.5 141.629 235.5V234.5ZM138.793 235.5C139.069 235.5 139.293 235.276 139.293 235C139.293 234.724 139.069 234.5 138.793 234.5V235.5ZM135.887 233.624C135.658 233.47 135.347 233.532 135.193 233.761C135.04 233.99 135.101 234.301 135.33 234.455L135.887 233.624ZM132.404 231.426C132.547 231.663 132.854 231.739 133.091 231.596C133.327 231.454 133.403 231.147 133.261 230.91L132.404 231.426ZM132.5 227.935C132.5 227.659 132.276 227.435 132 227.435C131.724 227.435 131.5 227.659 131.5 227.935H132.5ZM131.5 225.125C131.5 225.401 131.724 225.625 132 225.625C132.276 225.625 132.5 225.401 132.5 225.125H131.5ZM132.5 222.315C132.5 222.039 132.276 221.815 132 221.815C131.724 221.815 131.5 222.039 131.5 222.315H132.5ZM131.5 219.505C131.5 219.781 131.724 220.005 132 220.005C132.276 220.005 132.5 219.781 132.5 219.505H131.5ZM132.5 216.695C132.5 216.419 132.276 216.195 132 216.195C131.724 216.195 131.5 216.419 131.5 216.695H132.5ZM131.5 213.885C131.5 214.161 131.724 214.385 132 214.385C132.276 214.385 132.5 214.161 132.5 213.885H131.5ZM132.5 211.075C132.5 210.799 132.276 210.575 132 210.575C131.724 210.575 131.5 210.799 131.5 211.075H132.5ZM131.5 208.265C131.5 208.541 131.724 208.765 132 208.765C132.276 208.765 132.5 208.541 132.5 208.265H131.5ZM132.5 205.455C132.5 205.179 132.276 204.955 132 204.955C131.724 204.955 131.5 205.179 131.5 205.455H132.5ZM131.5 202.645C131.5 202.921 131.724 203.145 132 203.145C132.276 203.145 132.5 202.921 132.5 202.645H131.5ZM132.5 199.835C132.5 199.559 132.276 199.335 132 199.335C131.724 199.335 131.5 199.559 131.5 199.835H132.5ZM131.5 197.025C131.5 197.301 131.724 197.525 132 197.525C132.276 197.525 132.5 197.301 132.5 197.025H131.5ZM132.5 194.215C132.5 193.939 132.276 193.715 132 193.715C131.724 193.715 131.5 193.939 131.5 194.215H132.5ZM131.5 191.405C131.5 191.681 131.724 191.905 132 191.905C132.276 191.905 132.5 191.681 132.5 191.405H131.5ZM132.5 188.5C132.5 188.224 132.276 188 132 188C131.724 188 131.5 188.224 131.5 188.5H132.5ZM131.5 185.5C131.5 185.776 131.724 186 132 186C132.276 186 132.5 185.776 132.5 185.5H131.5ZM132.5 182.5C132.5 182.224 132.276 182 132 182C131.724 182 131.5 182.224 131.5 182.5H132.5ZM131.5 179.5C131.5 179.776 131.724 180 132 180C132.276 180 132.5 179.776 132.5 179.5H131.5ZM132.5 176.5C132.5 176.224 132.276 176 132 176C131.724 176 131.5 176.224 131.5 176.5H132.5ZM131.5 173.5C131.5 173.776 131.724 174 132 174C132.276 174 132.5 173.776 132.5 173.5H131.5ZM132.5 170.5C132.5 170.224 132.276 170 132 170C131.724 170 131.5 170.224 131.5 170.5H132.5ZM131.5 167.5C131.5 167.776 131.724 168 132 168C132.276 168 132.5 167.776 132.5 167.5H131.5ZM132.5 164.5C132.5 164.224 132.276 164 132 164C131.724 164 131.5 164.224 131.5 164.5H132.5ZM131.5 161.5C131.5 161.776 131.724 162 132 162C132.276 162 132.5 161.776 132.5 161.5H131.5ZM132.5 158.5C132.5 158.224 132.276 158 132 158C131.724 158 131.5 158.224 131.5 158.5H132.5ZM131.5 155.5C131.5 155.776 131.724 156 132 156C132.276 156 132.5 155.776 132.5 155.5H131.5ZM132.5 152.5C132.5 152.224 132.276 152 132 152C131.724 152 131.5 152.224 131.5 152.5H132.5ZM131.5 149.5C131.5 149.776 131.724 150 132 150C132.276 150 132.5 149.776 132.5 149.5H131.5ZM132.5 146.5C132.5 146.224 132.276 146 132 146C131.724 146 131.5 146.224 131.5 146.5H132.5ZM131.5 143.5C131.5 143.776 131.724 144 132 144C132.276 144 132.5 143.776 132.5 143.5H131.5ZM132.5 140.5C132.5 140.224 132.276 140 132 140C131.724 140 131.5 140.224 131.5 140.5H132.5ZM131.5 137.5C131.5 137.776 131.724 138 132 138C132.276 138 132.5 137.776 132.5 137.5H131.5ZM132.5 134.5C132.5 134.224 132.276 134 132 134C131.724 134 131.5 134.224 131.5 134.5H132.5ZM131.5 131.5C131.5 131.776 131.724 132 132 132C132.276 132 132.5 131.776 132.5 131.5H131.5ZM132.5 128.5C132.5 128.224 132.276 128 132 128C131.724 128 131.5 128.224 131.5 128.5H132.5ZM131.5 125.5C131.5 125.776 131.724 126 132 126C132.276 126 132.5 125.776 132.5 125.5H131.5ZM132.5 122.5C132.5 122.224 132.276 122 132 122C131.724 122 131.5 122.224 131.5 122.5H132.5ZM131.5 119.5C131.5 119.776 131.724 120 132 120C132.276 120 132.5 119.776 132.5 119.5H131.5ZM132.5 116.5C132.5 116.224 132.276 116 132 116C131.724 116 131.5 116.224 131.5 116.5H132.5ZM131.5 113.5C131.5 113.776 131.724 114 132 114C132.276 114 132.5 113.776 132.5 113.5H131.5ZM132.5 110.5C132.5 110.224 132.276 110 132 110C131.724 110 131.5 110.224 131.5 110.5H132.5ZM131.5 107.5C131.5 107.776 131.724 108 132 108C132.276 108 132.5 107.776 132.5 107.5H131.5ZM132.5 104.5C132.5 104.224 132.276 104 132 104C131.724 104 131.5 104.224 131.5 104.5H132.5ZM131.5 101.5C131.5 101.776 131.724 102 132 102C132.276 102 132.5 101.776 132.5 101.5H131.5ZM132.5 98.5C132.5 98.2239 132.276 98 132 98C131.724 98 131.5 98.2239 131.5 98.5H132.5ZM131.5 95.5C131.5 95.7761 131.724 96 132 96C132.276 96 132.5 95.7761 132.5 95.5H131.5ZM132.5 92.5C132.5 92.2239 132.276 92 132 92C131.724 92 131.5 92.2239 131.5 92.5H132.5ZM131.5 89.5C131.5 89.7761 131.724 90 132 90C132.276 90 132.5 89.7761 132.5 89.5H131.5ZM132.5 86.5C132.5 86.2239 132.276 86 132 86C131.724 86 131.5 86.2239 131.5 86.5H132.5ZM131.5 83.5C131.5 83.7761 131.724 84 132 84C132.276 84 132.5 83.7761 132.5 83.5H131.5ZM132.5 80.5C132.5 80.2239 132.276 80 132 80C131.724 80 131.5 80.2239 131.5 80.5H132.5ZM131.5 77.5C131.5 77.7761 131.724 78 132 78C132.276 78 132.5 77.7761 132.5 77.5H131.5ZM132.5 74.5C132.5 74.2239 132.276 74 132 74C131.724 74 131.5 74.2239 131.5 74.5H132.5ZM131.5 71.5C131.5 71.7761 131.724 72 132 72C132.276 72 132.5 71.7761 132.5 71.5H131.5ZM132.5 68.5C132.5 68.2239 132.276 68 132 68C131.724 68 131.5 68.2239 131.5 68.5H132.5ZM131.5 65.5C131.5 65.7761 131.724 66 132 66C132.276 66 132.5 65.7761 132.5 65.5H131.5ZM132.5 62.5C132.5 62.2239 132.276 62 132 62C131.724 62 131.5 62.2239 131.5 62.5H132.5ZM131.5 59.5C131.5 59.7761 131.724 60 132 60C132.276 60 132.5 59.7761 132.5 59.5H131.5ZM132.5 56.5C132.5 56.2239 132.276 56 132 56C131.724 56 131.5 56.2239 131.5 56.5H132.5ZM131.5 53.5C131.5 53.7761 131.724 54 132 54C132.276 54 132.5 53.7761 132.5 53.5H131.5ZM132.5 50.5C132.5 50.2239 132.276 50 132 50C131.724 50 131.5 50.2239 131.5 50.5H132.5ZM131.5 47.5C131.5 47.7761 131.724 48 132 48C132.276 48 132.5 47.7761 132.5 47.5H131.5ZM132.5 44.5C132.5 44.2239 132.276 44 132 44C131.724 44 131.5 44.2239 131.5 44.5H132.5ZM131.5 41.5C131.5 41.7761 131.724 42 132 42C132.276 42 132.5 41.7761 132.5 41.5H131.5ZM132.5 38.5C132.5 38.2239 132.276 38 132 38C131.724 38 131.5 38.2239 131.5 38.5H132.5ZM131.5 35.5C131.5 35.7761 131.724 36 132 36C132.276 36 132.5 35.7761 132.5 35.5H131.5ZM132.469 32.5377C132.457 32.2618 132.224 32.0477 131.948 32.0596C131.672 32.0714 131.458 32.3047 131.47 32.5806L132.469 32.5377ZM131.225 29.7546C131.261 30.0284 131.512 30.2214 131.786 30.1857C132.06 30.15 132.253 29.899 132.217 29.6252L131.225 29.7546ZM131.713 26.7466C131.653 26.477 131.386 26.3066 131.117 26.3661C130.847 26.4257 130.677 26.6925 130.736 26.9622L131.713 26.7466ZM130.004 24.2239C130.087 24.4873 130.368 24.6336 130.631 24.5506C130.895 24.4676 131.041 24.1868 130.958 23.9235L130.004 24.2239ZM129.958 21.1765C129.852 20.9214 129.559 20.8004 129.304 20.9061C129.049 21.0119 128.928 21.3044 129.034 21.5595L129.958 21.1765ZM127.834 18.9904C127.962 19.2352 128.264 19.3302 128.509 19.2025C128.753 19.0748 128.848 18.7728 128.721 18.5279L127.834 18.9904ZM127.257 15.9981C127.108 15.7653 126.799 15.6971 126.566 15.8457C126.334 15.9942 126.266 16.3034 126.414 16.5361L127.257 15.9981ZM124.786 14.2148C124.954 14.4337 125.268 14.4748 125.487 14.3066C125.706 14.1383 125.747 13.8244 125.579 13.6055L124.786 14.2148ZM123.699 11.3676C123.512 11.1641 123.196 11.1504 122.993 11.337C122.789 11.5236 122.775 11.8399 122.962 12.0434L123.699 11.3676ZM120.957 10.0381C121.16 10.2247 121.476 10.211 121.663 10.0075C121.85 9.80393 121.836 9.48765 121.632 9.30104L120.957 10.0381ZM119.395 7.42136C119.176 7.2531 118.862 7.2942 118.693 7.51315C118.525 7.73211 118.566 8.04602 118.785 8.21428L119.395 7.42136ZM116.464 6.58591C116.697 6.7345 117.006 6.66627 117.154 6.43351C117.303 6.20075 117.235 5.89161 117.002 5.74302L116.464 6.58591ZM114.472 4.27932C114.227 4.1516 113.925 4.24655 113.798 4.49138C113.67 4.73622 113.765 5.03823 114.01 5.16594L114.472 4.27932ZM111.44 3.96592C111.696 4.0717 111.988 3.95067 112.094 3.69559C112.2 3.44051 112.079 3.14797 111.824 3.0422L111.44 3.96592ZM109.077 2.04213C108.813 1.95916 108.532 2.10542 108.449 2.3688C108.366 2.63218 108.513 2.91296 108.776 2.99592L109.077 2.04213ZM106.038 2.26395C106.307 2.32348 106.574 2.15314 106.634 1.88349C106.693 1.61384 106.523 1.34699 106.253 1.28746L106.038 2.26395ZM103.375 0.783127C103.101 0.747409 102.85 0.940431 102.814 1.21425C102.779 1.48808 102.972 1.73901 103.245 1.77473L103.375 0.783127ZM100.419 1.53043C100.695 1.54228 100.929 1.32824 100.94 1.05235C100.952 0.776466 100.738 0.543206 100.462 0.531353L100.419 1.53043ZM97.5312 0.5C97.2551 0.5 97.0312 0.723858 97.0312 1C97.0312 1.27614 97.2551 1.5 97.5312 1.5V0.5ZM94.5938 1.5C94.8699 1.5 95.0938 1.27614 95.0938 1C95.0938 0.723858 94.8699 0.5 94.5938 0.5V1.5ZM91.6562 0.5C91.3801 0.5 91.1562 0.723858 91.1562 1C91.1562 1.27614 91.3801 1.5 91.6562 1.5V0.5ZM88.7188 1.5C88.9949 1.5 89.2188 1.27614 89.2188 1C89.2188 0.723858 88.9949 0.5 88.7188 0.5V1.5ZM85.7812 0.5C85.5051 0.5 85.2812 0.723858 85.2812 1C85.2812 1.27614 85.5051 1.5 85.7812 1.5V0.5ZM82.8438 1.5C83.1199 1.5 83.3438 1.27614 83.3438 1C83.3438 0.723858 83.1199 0.5 82.8438 0.5V1.5ZM79.9062 0.5C79.6301 0.5 79.4062 0.723858 79.4062 1C79.4062 1.27614 79.6301 1.5 79.9062 1.5V0.5ZM76.9688 1.5C77.2449 1.5 77.4688 1.27614 77.4688 1C77.4688 0.723858 77.2449 0.5 76.9688 0.5V1.5ZM74.0312 0.5C73.7551 0.5 73.5312 0.723858 73.5312 1C73.5312 1.27614 73.7551 1.5 74.0312 1.5V0.5ZM71.0938 1.5C71.3699 1.5 71.5938 1.27614 71.5938 1C71.5938 0.723858 71.3699 0.5 71.0938 0.5V1.5ZM68.1562 0.5C67.8801 0.5 67.6562 0.723858 67.6562 1C67.6562 1.27614 67.8801 1.5 68.1562 1.5V0.5ZM65.2188 1.5C65.4949 1.5 65.7188 1.27614 65.7188 1C65.7188 0.723858 65.4949 0.5 65.2188 0.5V1.5ZM62.2812 0.5C62.0051 0.5 61.7812 0.723858 61.7812 1C61.7812 1.27614 62.0051 1.5 62.2812 1.5V0.5ZM59.3438 1.5C59.6199 1.5 59.8438 1.27614 59.8438 1C59.8438 0.723858 59.6199 0.5 59.3438 0.5V1.5ZM56.4062 0.5C56.1301 0.5 55.9062 0.723858 55.9062 1C55.9062 1.27614 56.1301 1.5 56.4062 1.5V0.5ZM53.4688 1.5C53.7449 1.5 53.9688 1.27614 53.9688 1C53.9688 0.723858 53.7449 0.5 53.4688 0.5V1.5ZM50.5312 0.5C50.2551 0.5 50.0312 0.723858 50.0312 1C50.0312 1.27614 50.2551 1.5 50.5312 1.5V0.5ZM47.5938 1.5C47.8699 1.5 48.0938 1.27614 48.0938 1C48.0938 0.723858 47.8699 0.5 47.5938 0.5V1.5ZM44.6562 0.5C44.3801 0.5 44.1562 0.723858 44.1562 1C44.1562 1.27614 44.3801 1.5 44.6562 1.5V0.5ZM41.7188 1.5C41.9949 1.5 42.2188 1.27614 42.2188 1C42.2188 0.723858 41.9949 0.5 41.7188 0.5V1.5ZM38.7812 0.5C38.5051 0.5 38.2812 0.723858 38.2812 1C38.2812 1.27614 38.5051 1.5 38.7812 1.5V0.5ZM35.8438 1.5C36.1199 1.5 36.3438 1.27614 36.3438 1C36.3438 0.723858 36.1199 0.5 35.8438 0.5V1.5ZM32.9062 0.5C32.6301 0.5 32.4062 0.723858 32.4062 1C32.4062 1.27614 32.6301 1.5 32.9062 1.5V0.5ZM29.9688 1.5C30.2449 1.5 30.4688 1.27614 30.4688 1C30.4688 0.723858 30.2449 0.5 29.9688 0.5V1.5ZM27.0312 0.5C26.7551 0.5 26.5312 0.723858 26.5312 1C26.5312 1.27614 26.7551 1.5 27.0312 1.5V0.5ZM24.0938 1.5C24.3699 1.5 24.5938 1.27614 24.5938 1C24.5938 0.723858 24.3699 0.5 24.0938 0.5V1.5ZM21.1562 0.5C20.8801 0.5 20.6562 0.723858 20.6562 1C20.6562 1.27614 20.8801 1.5 21.1562 1.5V0.5ZM18.2188 1.5C18.4949 1.5 18.7188 1.27614 18.7188 1C18.7188 0.723858 18.4949 0.5 18.2188 0.5V1.5ZM15.2812 0.5C15.0051 0.5 14.7812 0.723858 14.7812 1C14.7812 1.27614 15.0051 1.5 15.2812 1.5V0.5ZM12.3438 1.5C12.6199 1.5 12.8438 1.27614 12.8438 1C12.8438 0.723858 12.6199 0.5 12.3438 0.5V1.5ZM9.40625 0.5C9.13011 0.5 8.90625 0.723858 8.90625 1C8.90625 1.27614 9.13011 1.5 9.40625 1.5V0.5ZM6.46875 1.5C6.74489 1.5 6.96875 1.27614 6.96875 1C6.96875 0.723858 6.74489 0.5 6.46875 0.5V1.5ZM5 0.5C4.39076 0.5 3.8086 0.621347 3.27732 0.841659L3.66038 1.76539C4.07236 1.59454 4.52451 1.5 5 1.5V0.5ZM0.841659 3.27732C0.621347 3.8086 0.5 4.39076 0.5 5H1.5C1.5 4.52451 1.59454 4.07236 1.76539 3.66038L0.841659 3.27732ZM0.5 5V6.5625H1.5V5H0.5ZM0.5 9.6875V12.8125H1.5V9.6875H0.5ZM0.5 15.9375V19.0625H1.5V15.9375H0.5ZM0.5 22.1875V25.3125H1.5V22.1875H0.5ZM0.5 28.4375V30H1.5V28.4375H0.5ZM0.5 30C0.5 30.6092 0.621347 31.1914 0.841658 31.7227L1.76538 31.3396C1.59454 30.9276 1.5 30.4755 1.5 30H0.5ZM3.27732 34.1583C3.8086 34.3787 4.39076 34.5 5 34.5V33.5C4.52451 33.5 4.07236 33.4055 3.66037 33.2346L3.27732 34.1583ZM5 34.5H6.5V33.5H5V34.5ZM9.5 34.5H12.5V33.5H9.5V34.5ZM15.5 34.5H18.5V33.5H15.5V34.5ZM21.5 34.5H24.5V33.5H21.5V34.5ZM27.5 34.5H30.5V33.5H27.5V34.5ZM33.5 34.5H36.5V33.5H33.5V34.5ZM39.5 34.5H42.5V33.5H39.5V34.5ZM45.5 34.5H48.5V33.5H45.5V34.5ZM51.5 34.5H54.5V33.5H51.5V34.5ZM57.5 34.5H60.5V33.5H57.5V34.5ZM63.5 34.5H66.5V33.5H63.5V34.5ZM69.5 34.5H72.5V33.5H69.5V34.5ZM75.5 34.5H78.5V33.5H75.5V34.5ZM81.5 34.5H84.5V33.5H81.5V34.5ZM87.5 34.5H89V33.5H87.5V34.5ZM88.975 34.4994C89.3453 34.5179 89.763 34.5636 90.2118 34.6424L90.3847 33.6575C89.8975 33.572 89.4388 33.5213 89.025 33.5006L88.975 34.4994ZM92.6255 35.3326C93.372 35.6332 94.1206 36.0236 94.8208 36.5194L95.3987 35.7033C94.6268 35.1568 93.808 34.7307 92.999 34.405L92.6255 35.3326ZM96.6243 38.2078C97.1146 38.8211 97.5352 39.5266 97.853 40.3365L98.7839 39.9712C98.428 39.0644 97.9559 38.2721 97.4053 37.5833L96.6243 38.2078ZM98.4334 42.7466C98.477 43.1451 98.5 43.5626 98.5 44H99.5C99.5 43.5276 99.4752 43.0737 99.4275 42.6379L98.4334 42.7466ZM98.5 44V45.5147H99.5V44H98.5ZM98.5 48.5441V51.5735H99.5V48.5441H98.5ZM98.5 54.6029V57.6324H99.5V54.6029H98.5ZM98.5 60.6618V63.6912H99.5V60.6618H98.5ZM98.5 66.7206V69.75H99.5V66.7206H98.5ZM98.5 72.7794V75.8088H99.5V72.7794H98.5ZM98.5 78.8382V81.8676H99.5V78.8382H98.5ZM98.5 84.8971V87.9265H99.5V84.8971H98.5ZM98.5 90.9559V93.9853H99.5V90.9559H98.5ZM98.5 97.0147V100.044H99.5V97.0147H98.5ZM98.5 103.074V106.103H99.5V103.074H98.5ZM98.5 109.132V112.162H99.5V109.132H98.5ZM98.5 115.191V118.221H99.5V115.191H98.5ZM98.5 121.25V124.279H99.5V121.25H98.5ZM98.5 127.309V130.338H99.5V127.309H98.5ZM98.5 133.368V136.397H99.5V133.368H98.5ZM98.5 139.426V142.456H99.5V139.426H98.5ZM98.5 145.485V147H99.5V145.485H98.5ZM98.5 147C98.5 147.437 98.477 147.855 98.4334 148.253L99.4275 148.362C99.4752 147.926 99.5 147.472 99.5 147H98.5ZM97.853 150.663C97.5352 151.473 97.1146 152.179 96.6243 152.792L97.4053 153.417C97.9559 152.728 98.428 151.936 98.7839 151.029L97.853 150.663ZM94.8208 154.481C94.1206 154.976 93.372 155.367 92.6255 155.667L92.999 156.595C93.808 156.269 94.6268 155.843 95.3987 155.297L94.8208 154.481ZM90.2118 156.358C89.763 156.436 89.3453 156.482 88.975 156.501L89.025 157.499C89.4388 157.479 89.8975 157.428 90.3847 157.343L90.2118 156.358ZM89 156.5H87.5V157.5H89V156.5ZM84.5 156.5H81.5V157.5H84.5V156.5ZM78.5 156.5H75.5V157.5H78.5V156.5ZM72.5 156.5H69.5V157.5H72.5V156.5ZM66.5 156.5H63.5V157.5H66.5V156.5ZM60.5 156.5H57.5V157.5H60.5V156.5ZM54.5 156.5H51.5V157.5H54.5V156.5ZM48.5 156.5H45.5V157.5H48.5V156.5ZM42.5 156.5H39.5V157.5H42.5V156.5ZM36.5 156.5H33.5V157.5H36.5V156.5ZM30.5 156.5H27.5V157.5H30.5V156.5ZM24.5 156.5H21.5V157.5H24.5V156.5ZM18.5 156.5H15.5V157.5H18.5V156.5ZM12.5 156.5H9.5V157.5H12.5V156.5ZM6.5 156.5H5V157.5H6.5V156.5ZM5 156.5C4.39076 156.5 3.8086 156.621 3.27732 156.842L3.66038 157.765C4.07236 157.595 4.52451 157.5 5 157.5V156.5ZM0.84166 159.277C0.621347 159.809 0.5 160.391 0.5 161H1.5C1.5 160.525 1.59454 160.072 1.76539 159.66L0.84166 159.277ZM0.5 161V162.562H1.5V161H0.5ZM0.5 165.688V168.812H1.5V165.688H0.5ZM0.5 171.938V175.062H1.5V171.938H0.5ZM0.5 178.188V181.312H1.5V178.188H0.5ZM0.5 184.438V186H1.5V184.438H0.5ZM0.5 186C0.5 186.609 0.621347 187.191 0.841659 187.723L1.76538 187.34C1.59454 186.928 1.5 186.475 1.5 186H0.5ZM3.27732 190.158C3.8086 190.379 4.39076 190.5 5 190.5V189.5C4.52451 189.5 4.07236 189.405 3.66037 189.235L3.27732 190.158ZM5 190.5H6.5V189.5H5V190.5ZM9.5 190.5H12.5V189.5H9.5V190.5ZM15.5 190.5H18.5V189.5H15.5V190.5ZM21.5 190.5H24.5V189.5H21.5V190.5ZM27.5 190.5H30.5V189.5H27.5V190.5ZM33.5 190.5H36.5V189.5H33.5V190.5ZM39.5 190.5H42.5V189.5H39.5V190.5ZM45.5 190.5H48.5V189.5H45.5V190.5ZM51.5 190.5H54.5V189.5H51.5V190.5ZM57.5 190.5H60.5V189.5H57.5V190.5ZM63.5 190.5H66.5V189.5H63.5V190.5ZM69.5 190.5H72.5V189.5H69.5V190.5ZM75.5 190.5H78.5V189.5H75.5V190.5ZM81.5 190.5H84.5V189.5H81.5V190.5ZM87.5 190.5H89V189.5H87.5V190.5ZM88.975 190.499C89.3453 190.518 89.763 190.564 90.2118 190.642L90.3847 189.657C89.8975 189.572 89.4388 189.521 89.025 189.501L88.975 190.499ZM92.6255 191.333C93.372 191.633 94.1206 192.024 94.8208 192.519L95.3987 191.703C94.6268 191.157 93.808 190.731 92.999 190.405L92.6255 191.333ZM96.6243 194.208C97.1146 194.821 97.5352 195.527 97.853 196.337L98.7839 195.971C98.428 195.064 97.9559 194.272 97.4053 193.583L96.6243 194.208ZM98.4334 198.747C98.477 199.145 98.5 199.563 98.5 200H99.5C99.5 199.528 99.4752 199.074 99.4275 198.638L98.4334 198.747ZM98.5 200V201.529H99.5V200H98.5ZM98.5 204.588V207.647H99.5V204.588H98.5ZM98.5 210.706V213.765H99.5V210.706H98.5ZM98.5 216.824V219.882H99.5V216.824H98.5ZM98.5 222.941V226H99.5V222.941H98.5ZM98.5 229.059V232.118H99.5V229.059H98.5ZM98.5 235.176V238.235H99.5V235.176H98.5ZM98.5 241.294V244.353H99.5V241.294H98.5ZM98.5 247.412V250.471H99.5V247.412H98.5ZM98.5 253.529V256.588H99.5V253.529H98.5ZM98.5 259.647V262.706H99.5V259.647H98.5ZM98.5 265.765V268.824H99.5V265.765H98.5ZM98.5 271.882V274.941H99.5V271.882H98.5ZM98.5 278V281.059H99.5V278H98.5ZM98.5 284.118V287.176H99.5V284.118H98.5ZM98.5 290.235V293.294H99.5V290.235H98.5ZM98.5 296.353V299.412H99.5V296.353H98.5ZM98.5 302.471V304H99.5V302.471H98.5ZM98.5 304C98.5 304.437 98.477 304.855 98.4334 305.253L99.4275 305.362C99.4752 304.926 99.5 304.472 99.5 304H98.5ZM97.853 307.663C97.5352 308.473 97.1146 309.179 96.6243 309.792L97.4053 310.417C97.9559 309.728 98.428 308.936 98.7839 308.029L97.853 307.663ZM94.8208 311.481C94.1206 311.976 93.372 312.367 92.6255 312.667L92.999 313.595C93.808 313.269 94.6268 312.843 95.3987 312.297L94.8208 311.481ZM90.2118 313.358C89.763 313.436 89.3453 313.482 88.975 313.501L89.025 314.499C89.4388 314.479 89.8975 314.428 90.3847 314.343L90.2118 313.358ZM89 313.5H87.5V314.5H89V313.5ZM84.5 313.5H81.5V314.5H84.5V313.5ZM78.5 313.5H75.5V314.5H78.5V313.5ZM72.5 313.5H69.5V314.5H72.5V313.5ZM66.5 313.5H63.5V314.5H66.5V313.5ZM60.5 313.5H57.5V314.5H60.5V313.5ZM54.5 313.5H51.5V314.5H54.5V313.5ZM48.5 313.5H45.5V314.5H48.5V313.5ZM42.5 313.5H39.5V314.5H42.5V313.5ZM36.5 313.5H33.5V314.5H36.5V313.5ZM30.5 313.5H27.5V314.5H30.5V313.5ZM24.5 313.5H21.5V314.5H24.5V313.5ZM18.5 313.5H15.5V314.5H18.5V313.5ZM12.5 313.5H9.5V314.5H12.5V313.5ZM6.5 313.5H5V314.5H6.5V313.5ZM5 313.5C4.39076 313.5 3.8086 313.621 3.27732 313.842L3.66038 314.765C4.07236 314.595 4.52451 314.5 5 314.5V313.5ZM0.84166 316.277C0.621347 316.809 0.5 317.391 0.5 318H1.5C1.5 317.525 1.59454 317.072 1.76539 316.66L0.84166 316.277ZM0.5 318V319.562H1.5V318H0.5ZM0.5 322.688V325.812H1.5V322.688H0.5ZM0.5 328.938V332.062H1.5V328.938H0.5ZM0.5 335.188V338.312H1.5V335.188H0.5ZM0.5 341.438V343H1.5V341.438H0.5ZM0.5 343C0.5 343.609 0.621347 344.191 0.841659 344.723L1.76538 344.34C1.59454 343.928 1.5 343.475 1.5 343H0.5ZM3.27732 347.158C3.8086 347.379 4.39076 347.5 5 347.5V346.5C4.52451 346.5 4.07236 346.405 3.66037 346.235L3.27732 347.158ZM5 347.5H6.46875V346.5H5V347.5ZM9.40627 347.5H12.3438V346.5H9.40627V347.5ZM15.2813 347.5H18.2188V346.5H15.2813V347.5ZM21.1563 347.5H24.0938V346.5H21.1563V347.5ZM27.0314 347.5H29.9689V346.5H27.0314V347.5ZM32.9064 347.5H35.8439V346.5H32.9064V347.5ZM38.7814 347.5H41.7189V346.5H38.7814V347.5ZM44.6564 347.5H47.594V346.5H44.6564V347.5ZM50.5315 347.5H53.469V346.5H50.5315V347.5ZM56.4065 347.5H59.344V346.5H56.4065V347.5ZM62.2815 347.5H65.2191V346.5H62.2815V347.5ZM68.1566 347.5H71.0941V346.5H68.1566V347.5ZM74.0316 347.5H76.9691V346.5H74.0316V347.5ZM79.9066 347.5H82.8441V346.5H79.9066V347.5ZM85.7817 347.5H88.7192V346.5H85.7817V347.5ZM91.6567 347.5H93.1254V346.5H91.6567V347.5ZM92.9258 347.458C93.3357 347.637 93.7443 347.843 94.1431 348.08L94.6535 347.22C94.2163 346.961 93.7704 346.736 93.3251 346.542L92.9258 347.458ZM96.2521 349.774C96.834 350.407 97.3386 351.151 97.7214 352.02L98.6366 351.617C98.2071 350.642 97.6403 349.807 96.9886 349.097L96.2521 349.774ZM98.4203 354.632C98.4724 355.065 98.5 355.52 98.5 356H99.5C99.5 355.482 99.4702 354.986 99.4131 354.512L98.4203 354.632ZM98.5 356V357.515H99.5V356H98.5ZM98.5 360.544V363.574H99.5V360.544H98.5ZM98.5 366.603V369.632H99.5V366.603H98.5ZM98.5 372.662V375.691H99.5V372.662H98.5ZM98.5 378.721V381.75H99.5V378.721H98.5ZM98.5 384.779V387.809H99.5V384.779H98.5ZM98.5 390.838V393.868H99.5V390.838H98.5ZM98.5 396.897V399.926H99.5V396.897H98.5ZM98.5 402.956V405.985H99.5V402.956H98.5ZM98.5 409.015V412.044H99.5V409.015H98.5ZM98.5 415.074V418.103H99.5V415.074H98.5ZM98.5 421.132V424.162H99.5V421.132H98.5ZM98.5 427.191V430.221H99.5V427.191H98.5ZM98.5 433.25V436.279H99.5V433.25H98.5ZM98.5 439.309V442.338H99.5V439.309H98.5ZM98.5 445.368V448.397H99.5V445.368H98.5ZM98.5 451.426V454.456H99.5V451.426H98.5ZM98.5 457.485V459H99.5V457.485H98.5ZM98.5 459C98.5 459.437 98.477 459.855 98.4334 460.253L99.4275 460.362C99.4752 459.926 99.5 459.472 99.5 459H98.5ZM97.853 462.663C97.5352 463.473 97.1146 464.179 96.6243 464.792L97.4053 465.417C97.9559 464.728 98.428 463.936 98.7839 463.029L97.853 462.663ZM94.8208 466.481C94.1206 466.976 93.372 467.367 92.6255 467.667L92.999 468.595C93.808 468.269 94.6268 467.843 95.3987 467.297L94.8208 466.481ZM90.2118 468.358C89.763 468.436 89.3453 468.482 88.975 468.501L89.025 469.499C89.4388 469.479 89.8975 469.428 90.3847 469.343L90.2118 468.358ZM89 468.5H87.5V469.5H89V468.5ZM84.5 468.5H81.5V469.5H84.5V468.5ZM78.5 468.5H75.5V469.5H78.5V468.5ZM72.5 468.5H69.5V469.5H72.5V468.5ZM66.5 468.5H63.5V469.5H66.5V468.5ZM60.5 468.5H57.5V469.5H60.5V468.5ZM54.5 468.5H51.5V469.5H54.5V468.5ZM48.5 468.5H45.5V469.5H48.5V468.5ZM42.5 468.5H39.5V469.5H42.5V468.5ZM36.5 468.5H33.5V469.5H36.5V468.5ZM30.5 468.5H27.5V469.5H30.5V468.5ZM24.5 468.5H21.5V469.5H24.5V468.5ZM18.5 468.5H15.5V469.5H18.5V468.5ZM12.5 468.5H9.5V469.5H12.5V468.5ZM6.5 468.5H5V469.5H6.5V468.5ZM5 468.5C4.39076 468.5 3.8086 468.621 3.27732 468.842L3.66037 469.765C4.07236 469.595 4.52451 469.5 5 469.5V468.5ZM0.841659 471.277C0.621347 471.809 0.5 472.391 0.5 473H1.5C1.5 472.525 1.59454 472.072 1.76538 471.66L0.841659 471.277ZM0.5 473V474.562H1.5V473H0.5ZM0.5 477.688V480.812H1.5V477.688H0.5ZM0.5 483.938V487.062H1.5V483.938H0.5ZM0.5 490.188V493.312H1.5V490.188H0.5ZM0.5 496.438V498H1.5V496.438H0.5ZM0.5 498C0.5 498.609 0.621347 499.191 0.84166 499.723L1.76539 499.34C1.59454 498.928 1.5 498.475 1.5 498H0.5ZM3.27732 502.158C3.8086 502.379 4.39076 502.5 5 502.5V501.5C4.52451 501.5 4.07236 501.405 3.66038 501.235L3.27732 502.158ZM5 502.5H6.46875V501.5H5V502.5ZM9.40625 502.5H12.3438V501.5H9.40625V502.5ZM15.2812 502.5H18.2188V501.5H15.2812V502.5ZM21.1562 502.5H24.0938V501.5H21.1562V502.5ZM27.0312 502.5H29.9688V501.5H27.0312V502.5ZM32.9062 502.5H35.8438V501.5H32.9062V502.5ZM38.7812 502.5H41.7188V501.5H38.7812V502.5ZM44.6562 502.5H47.5938V501.5H44.6562V502.5ZM50.5312 502.5H53.4688V501.5H50.5312V502.5ZM56.4062 502.5H59.3438V501.5H56.4062V502.5ZM62.2812 502.5H65.2188V501.5H62.2812V502.5ZM68.1562 502.5H71.0938V501.5H68.1562V502.5ZM74.0312 502.5H76.9688V501.5H74.0312V502.5ZM79.9062 502.5H82.8438V501.5H79.9062V502.5ZM85.7812 502.5H88.7188V501.5H85.7812V502.5ZM91.6562 502.5H94.5938V501.5H91.6562V502.5ZM97.5312 502.5H99V501.5H97.5312V502.5ZM99 502.5C99.4899 502.5 99.9775 502.489 100.462 502.469L100.419 501.47C99.9488 501.49 99.4756 501.5 99 501.5V502.5ZM103.375 502.217C104.348 502.09 105.308 501.921 106.253 501.713L106.038 500.736C105.121 500.938 104.19 501.102 103.245 501.225L103.375 502.217ZM109.077 500.958C110.011 500.664 110.927 500.33 111.824 499.958L111.44 499.034C110.571 499.395 109.682 499.719 108.776 500.004L109.077 500.958ZM114.472 498.721C115.338 498.269 116.182 497.78 117.002 497.257L116.464 496.414C115.669 496.922 114.85 497.396 114.01 497.834L114.472 498.721ZM119.395 495.579C120.168 494.984 120.915 494.357 121.632 493.699L120.957 492.962C120.26 493.6 119.536 494.209 118.785 494.786L119.395 495.579ZM123.699 491.632C124.357 490.915 124.984 490.168 125.579 489.395L124.786 488.785C124.209 489.536 123.6 490.26 122.962 490.957L123.699 491.632ZM127.257 487.002C127.78 486.182 128.269 485.338 128.721 484.472L127.834 484.01C127.396 484.85 126.922 485.669 126.414 486.464L127.257 487.002ZM129.958 481.824C130.33 480.927 130.664 480.011 130.958 479.077L130.004 478.776C129.719 479.682 129.395 480.571 129.034 481.44L129.958 481.824ZM131.713 476.253C131.921 475.308 132.09 474.348 132.217 473.375L131.225 473.245C131.102 474.19 130.938 475.121 130.736 476.038L131.713 476.253ZM132.469 470.462C132.489 469.977 132.5 469.49 132.5 469H131.5C131.5 469.476 131.49 469.949 131.47 470.419L132.469 470.462ZM132.5 469V467.475H131.5V469H132.5ZM132.5 464.425V461.375H131.5V464.425H132.5ZM132.5 458.325V455.275H131.5V458.325H132.5ZM132.5 452.225V449.175H131.5V452.225H132.5ZM132.5 446.125V443.075H131.5V446.125H132.5ZM132.5 440.025V436.975H131.5V440.025H132.5ZM132.5 433.925V430.875H131.5V433.925H132.5ZM132.5 427.825V424.775H131.5V427.825H132.5ZM132.5 421.725V418.675H131.5V421.725H132.5ZM132.5 415.625V412.575H131.5V415.625H132.5ZM132.5 409.525L132.5 406.475H131.5L131.5 409.525H132.5ZM132.5 403.425V400.375H131.5V403.425H132.5ZM132.5 397.325V394.275H131.5V397.325H132.5ZM132.5 391.225V388.175H131.5V391.225H132.5ZM132.5 385.125V382.075H131.5V385.125H132.5ZM132.5 379.025V375.975H131.5V379.025H132.5ZM132.5 372.925V369.875H131.5V372.925H132.5ZM132.5 366.825V363.775H131.5V366.825H132.5ZM132.5 360.725V357.675H131.5V360.725H132.5ZM132.5 354.625V351.575H131.5V354.625H132.5ZM132.5 348.525V347H131.5V348.525H132.5ZM132.5 347V346.992L131.5 346.992V347L132.5 347ZM132.5 346.976V346.968L131.5 346.968V346.976L132.5 346.976ZM132.5 346.968V345.506H131.5V346.968H132.5ZM132.5 342.581V339.656H131.5V342.581H132.5ZM132.5 336.732V333.807H131.5V336.732H132.5ZM132.5 330.883V327.958H131.5V330.883H132.5ZM132.5 325.034V322.109H131.5V325.034H132.5ZM132.5 319.184V316.26H131.5V319.184H132.5ZM132.5 313.335V310.411H131.5V313.335H132.5ZM132.5 307.486V304.561H131.5V307.486H132.5ZM132.5 301.637V298.712H131.5V301.637H132.5ZM132.5 295.788V292.863H131.5V295.788H132.5ZM132.5 289.939V287.014H131.5V289.939H132.5ZM132.5 284.089V281.165H131.5V284.089H132.5ZM132.5 278.24V276.778H131.5V278.24H132.5ZM131.537 276.967L131.662 277.273L132.588 276.894L132.463 276.589L131.537 276.967ZM131.912 277.884L132.037 278.189L132.963 277.811L132.838 277.505L131.912 277.884ZM133 278C133 277.563 133.023 277.145 133.067 276.747L132.072 276.638C132.025 277.074 132 277.528 132 278H133ZM133.647 274.337C133.965 273.527 134.385 272.821 134.876 272.208L134.095 271.583C133.544 272.272 133.072 273.065 132.716 273.971L133.647 274.337ZM136.679 270.52C137.379 270.024 138.128 269.633 138.874 269.333L138.501 268.405C137.692 268.731 136.873 269.157 136.101 269.703L136.679 270.52ZM141.288 268.643C141.737 268.564 142.155 268.518 142.525 268.5L142.475 267.501C142.061 267.521 141.602 267.572 141.115 267.658L141.288 268.643ZM142.5 268.5H143.938V267.5H142.5V268.5ZM146.812 268.5H149.688V267.5H146.812V268.5ZM152.562 268.5H155.438V267.5H152.562V268.5ZM158.312 268.5H161.188V267.5H158.312V268.5ZM164.062 268.5H166.938V267.5H164.062V268.5ZM169.812 268.5H172.688V267.5H169.812V268.5ZM175.562 268.5H178.438V267.5H175.562V268.5ZM181.312 268.5H182.75V267.5H181.312V268.5ZM182.25 268V269.131H183.25V268H182.25ZM182.25 271.393V273.655H183.25V271.393H182.25ZM182.25 275.917V277.048H183.25V275.917H182.25ZM182.25 277.048C182.25 277.884 182.47 278.649 182.848 279.301L183.713 278.8C183.422 278.297 183.25 277.705 183.25 277.048H182.25ZM186.749 281.554C187.504 281.555 188.276 281.363 189 280.945L188.5 280.079C187.931 280.407 187.332 280.555 186.751 280.554L186.749 281.554ZM189 280.945L190.229 280.235L189.729 279.369L188.5 280.079L189 280.945ZM192.688 278.816L195.146 277.397L194.646 276.531L192.188 277.95L192.688 278.816ZM197.604 275.977L200.062 274.558L199.562 273.692L197.104 275.111L197.604 275.977ZM202.521 273.139L204.979 271.719L204.479 270.853L202.021 272.273L202.521 273.139ZM207.438 270.3L209.896 268.881L209.396 268.015L206.938 269.434L207.438 270.3ZM212.354 267.461L214.812 266.042L214.312 265.176L211.854 266.595L212.354 267.461ZM217.271 264.623L219.729 263.203L219.229 262.337L216.771 263.757L217.271 264.623ZM222.188 261.784L224.646 260.365L224.146 259.499L221.688 260.918L222.188 261.784ZM227.104 258.945L229.562 257.526L229.062 256.66L226.604 258.079L227.104 258.945ZM232.021 256.107L233.25 255.397L232.75 254.531L231.521 255.241L232.021 256.107ZM233.25 255.397C233.974 254.979 234.526 254.406 234.903 253.752L234.036 253.254C233.746 253.758 233.319 254.203 232.75 254.531L233.25 255.397ZM234.903 249.248C234.526 248.594 233.974 248.021 233.25 247.603L232.75 248.469C233.319 248.797 233.746 249.242 234.036 249.746L234.903 249.248ZM233.25 247.603L232.021 246.893L231.521 247.759L232.75 248.469L233.25 247.603ZM229.562 245.474L227.104 244.055L226.604 244.921L229.062 246.34L229.562 245.474ZM224.646 242.635L222.188 241.216L221.688 242.082L224.146 243.501L224.646 242.635ZM219.729 239.797L217.271 238.377L216.771 239.243L219.229 240.663L219.729 239.797ZM214.812 236.958L212.354 235.539L211.854 236.405L214.312 237.824L214.812 236.958ZM209.896 234.119L207.438 232.7L206.938 233.566L209.396 234.985L209.896 234.119ZM204.979 231.281L202.521 229.861L202.021 230.727L204.479 232.147L204.979 231.281ZM200.062 228.442L197.604 227.023L197.104 227.889L199.562 229.308L200.062 228.442ZM195.146 225.603L192.688 224.184L192.188 225.05L194.646 226.469L195.146 225.603ZM190.229 222.765L189 222.055L188.5 222.921L189.729 223.631L190.229 222.765ZM189 222.055C188.276 221.637 187.504 221.445 186.749 221.446L186.751 222.446C187.332 222.445 187.931 222.593 188.5 222.921L189 222.055ZM182.848 223.699C182.47 224.351 182.25 225.116 182.25 225.952H183.25C183.25 225.295 183.422 224.703 183.713 224.2L182.848 223.699ZM182.25 225.952V227.083H183.25V225.952H182.25ZM182.25 229.345V231.607H183.25V229.345H182.25ZM182.25 233.869V235H183.25V233.869H182.25ZM182.75 234.5H181.332V235.5H182.75V234.5ZM178.496 234.5H175.66V235.5H178.496V234.5ZM172.824 234.5H169.988V235.5H172.824V234.5ZM167.152 234.5H164.316V235.5H167.152V234.5ZM161.48 234.5H158.644V235.5H161.48V234.5ZM155.808 234.5H152.972V235.5H155.808V234.5ZM150.136 234.5H147.3V235.5H150.136V234.5ZM144.464 234.5H141.629V235.5H144.464V234.5ZM138.793 234.5H137.375V235.5H138.793V234.5ZM137.574 234.542C137.001 234.292 136.432 233.989 135.887 233.624L135.33 234.455C135.93 234.856 136.553 235.188 137.175 235.459L137.574 234.542ZM133.261 230.91C132.948 230.391 132.682 229.818 132.475 229.185L131.525 229.495C131.755 230.201 132.053 230.843 132.404 231.426L133.261 230.91ZM132.5 229.34V227.935H131.5V229.34H132.5ZM132.5 225.125V222.315H131.5V225.125H132.5ZM132.5 219.505V216.695H131.5V219.505H132.5ZM132.5 213.885V211.075H131.5V213.885H132.5ZM132.5 208.265V205.455H131.5V208.265H132.5ZM132.5 202.645V199.835H131.5V202.645H132.5ZM132.5 197.025V194.215H131.5V197.025H132.5ZM132.5 191.405V190H131.5V191.405H132.5ZM132.5 190V188.5H131.5V190H132.5ZM132.5 185.5V182.5H131.5V185.5H132.5ZM132.5 179.5V176.5H131.5V179.5H132.5ZM132.5 173.5V170.5H131.5V173.5H132.5ZM132.5 167.5V164.5H131.5V167.5H132.5ZM132.5 161.5V158.5H131.5V161.5H132.5ZM132.5 155.5V152.5H131.5V155.5H132.5ZM132.5 149.5V146.5H131.5V149.5H132.5ZM132.5 143.5V140.5H131.5V143.5H132.5ZM132.5 137.5V134.5H131.5V137.5H132.5ZM132.5 131.5V128.5H131.5V131.5H132.5ZM132.5 125.5V122.5H131.5V125.5H132.5ZM132.5 119.5V116.5H131.5V119.5H132.5ZM132.5 113.5V110.5H131.5V113.5H132.5ZM132.5 107.5V104.5H131.5V107.5H132.5ZM132.5 101.5V98.5H131.5V101.5H132.5ZM132.5 95.5V92.5H131.5V95.5H132.5ZM132.5 89.5V86.5H131.5V89.5H132.5ZM132.5 83.5V80.5H131.5V83.5H132.5ZM132.5 77.5V74.5H131.5V77.5H132.5ZM132.5 71.5V68.5H131.5V71.5H132.5ZM132.5 65.5V62.5H131.5V65.5H132.5ZM132.5 59.5V56.5H131.5V59.5H132.5ZM132.5 53.5V50.5H131.5V53.5H132.5ZM132.5 47.5V44.5H131.5V47.5H132.5ZM132.5 41.5V38.5H131.5V41.5H132.5ZM132.5 35.5V34H131.5V35.5H132.5ZM132.5 34C132.5 33.5101 132.489 33.0225 132.469 32.5377L131.47 32.5806C131.49 33.0512 131.5 33.5244 131.5 34H132.5ZM132.217 29.6252C132.09 28.652 131.921 27.6918 131.713 26.7466L130.736 26.9622C130.938 27.879 131.102 28.8104 131.225 29.7546L132.217 29.6252ZM130.958 23.9235C130.664 22.9895 130.33 22.0731 129.958 21.1765L129.034 21.5595C129.395 22.4293 129.719 23.318 130.004 24.2239L130.958 23.9235ZM128.721 18.5279C128.269 17.6617 127.78 16.8177 127.257 15.9981L126.414 16.5361C126.922 17.3314 127.396 18.1501 127.834 18.9904L128.721 18.5279ZM125.579 13.6055C124.984 12.8321 124.357 12.0855 123.699 11.3676L122.962 12.0434C123.6 12.74 124.209 13.4644 124.786 14.2148L125.579 13.6055ZM121.632 9.30104C120.915 8.6429 120.168 8.01563 119.395 7.42136L118.785 8.21428C119.536 8.79089 120.26 9.39952 120.957 10.0381L121.632 9.30104ZM117.002 5.74302C116.182 5.21976 115.338 4.73117 114.472 4.27932L114.01 5.16594C114.85 5.60426 115.669 6.07825 116.464 6.58591L117.002 5.74302ZM111.824 3.0422C110.927 2.67036 110.011 2.33634 109.077 2.04213L108.776 2.99592C109.682 3.28129 110.571 3.60526 111.44 3.96592L111.824 3.0422ZM106.253 1.28746C105.308 1.07881 104.348 0.910078 103.375 0.783127L103.245 1.77473C104.19 1.89789 105.121 2.06157 106.038 2.26395L106.253 1.28746ZM100.462 0.531353C99.9775 0.510521 99.49 0.5 99 0.5V1.5C99.4756 1.5 99.9488 1.51021 100.419 1.53043L100.462 0.531353ZM99 0.5H97.5312V1.5H99V0.5ZM94.5938 0.5H91.6562V1.5H94.5938V0.5ZM88.7188 0.5H85.7812V1.5H88.7188V0.5ZM82.8438 0.5H79.9062V1.5H82.8438V0.5ZM76.9688 0.5H74.0312V1.5H76.9688V0.5ZM71.0938 0.5H68.1562V1.5H71.0938V0.5ZM65.2188 0.5H62.2812V1.5H65.2188V0.5ZM59.3438 0.5H56.4062V1.5H59.3438V0.5ZM53.4688 0.5H50.5312V1.5H53.4688V0.5ZM47.5938 0.5H44.6562V1.5H47.5938V0.5ZM41.7188 0.5H38.7812V1.5H41.7188V0.5ZM35.8438 0.5H32.9062V1.5H35.8438V0.5ZM29.9688 0.5H27.0312V1.5H29.9688V0.5ZM24.0938 0.5H21.1562V1.5H24.0938V0.5ZM18.2188 0.5H15.2812V1.5H18.2188V0.5ZM12.3438 0.5H9.40625V1.5H12.3438V0.5ZM6.46875 0.5H5V1.5H6.46875V0.5Z" fill="#20ABBE"/>
</svg>
