<svg width="174" height="166" viewBox="0 0 174 166" fill="none" xmlns="http://www.w3.org/2000/svg">
<g filter="url(#filter0_d)">
<path d="M1 7.99999V161.16L7.23853 156.645L15.0367 161.16L22.8349 156.645L30.633 161.16L38.4312 156.645L46.2294 161.16L54.0275 156.645L61.8257 161.16L69.6239 156.645L77.422 161.16L85.2202 156.645L93.0183 161.16L100.817 156.645L108.615 161.16L116.413 156.645L124.211 161.16L132.009 156.645L139.807 161.16L147.605 156.645L155.404 161.16L163.202 156.645L171 161.16V8C171 3.58172 167.418 0 163 0H9C4.58172 0 1 3.58171 1 7.99999Z" fill="white"/>
<path d="M7.48907 156.212L7.20825 156.049L6.94538 156.24L1.5 160.181V7.99999C1.5 3.85786 4.85786 0.5 9 0.5H163C167.142 0.5 170.5 3.85786 170.5 8V160.293L163.452 156.212L163.202 156.067L162.951 156.212L155.404 160.582L147.856 156.212L147.605 156.067L147.355 156.212L139.807 160.582L132.26 156.212L132.009 156.067L131.759 156.212L124.211 160.582L116.663 156.212L116.413 156.067L116.162 156.212L108.615 160.582L101.067 156.212L100.817 156.067L100.566 156.212L93.0183 160.582L85.4707 156.212L85.2202 156.067L84.9697 156.212L77.422 160.582L69.8744 156.212L69.6239 156.067L69.3733 156.212L61.8257 160.582L54.2781 156.212L54.0275 156.067L53.777 156.212L46.2294 160.582L38.6817 156.212L38.4312 156.067L38.1807 156.212L30.633 160.582L23.0854 156.212L22.8349 156.067L22.5843 156.212L15.0367 160.582L7.48907 156.212Z" stroke="black" stroke-opacity="0.1"/>
</g>
<g opacity="0.5">
<line x1="14.5996" y1="13.0996" x2="157.4" y2="13.0996" stroke="black" stroke-opacity="0.1"/>
<line x1="14.5996" y1="26.6992" x2="157.4" y2="26.6992" stroke="black" stroke-opacity="0.1"/>
<line x1="14.5996" y1="40.2998" x2="157.4" y2="40.2998" stroke="black" stroke-opacity="0.1"/>
<line x1="14.5996" y1="53.8994" x2="157.4" y2="53.8994" stroke="black" stroke-opacity="0.1"/>
<line x1="14.5996" y1="67.5" x2="157.4" y2="67.5" stroke="black" stroke-opacity="0.1"/>
<line x1="14.5996" y1="81.0996" x2="157.4" y2="81.0996" stroke="black" stroke-opacity="0.1"/>
<line x1="14.5996" y1="94.6992" x2="157.4" y2="94.6992" stroke="black" stroke-opacity="0.1"/>
<line x1="14.5996" y1="108.3" x2="157.4" y2="108.3" stroke="black" stroke-opacity="0.1"/>
<line x1="14.5996" y1="121.899" x2="157.4" y2="121.899" stroke="black" stroke-opacity="0.1"/>
<line x1="14.5996" y1="135.5" x2="157.4" y2="135.5" stroke="black" stroke-opacity="0.1"/>
</g>
<g clip-path="url(#clip0)">
<path d="M74.667 58.4805C65.2782 58.4805 57.667 66.0917 57.667 75.4805V87.9471C57.672 92.3265 61.221 95.8755 65.6003 95.8805H66.7337V93.6138H65.6003C62.4723 93.6101 59.9373 91.0751 59.9337 87.9471V75.4805C59.9337 67.3434 66.5299 60.7471 74.667 60.7471C82.804 60.7471 89.4003 67.3434 89.4003 75.4805V87.9471C89.3966 91.0751 86.8617 93.6101 83.7337 93.6138H82.6003V95.8805H83.7337C88.113 95.8755 91.662 92.3265 91.667 87.9471V75.4805C91.667 66.0917 84.0558 58.4805 74.667 58.4805Z" fill="#314252" fill-opacity="0.5"/>
<path d="M61.3407 111.893L62.1692 110.589L60.255 109.374L59.4265 110.68C56.9209 114.628 57.1069 119.712 59.8946 123.467V126.481H62.1613V123.081C62.1614 122.823 62.0738 122.573 61.9131 122.372C59.5036 119.36 59.2737 115.15 61.3407 111.893Z" fill="#314252" fill-opacity="0.5"/>
<path d="M114.334 58.4805H99.6003C96.4723 58.4842 93.9373 61.0191 93.9336 64.1471V75.4805C93.9373 78.6085 96.4723 81.1434 99.6003 81.1471H101.867V85.6805C101.867 86.1388 102.143 86.5521 102.566 86.7277C102.704 86.785 102.851 86.8142 103 86.8138C103.301 86.8138 103.589 86.6942 103.802 86.4817L109.136 81.1471H114.334C117.462 81.1434 119.997 78.6085 120 75.4805V64.1471C119.997 61.0191 117.462 58.4842 114.334 58.4805ZM117.734 75.4805C117.734 77.3583 116.211 78.8805 114.334 78.8805H108.667C108.366 78.8805 108.078 79 107.866 79.2125L104.134 82.9446V80.0138C104.134 79.3879 103.626 78.8805 103 78.8805H99.6003C97.7225 78.8805 96.2003 77.3583 96.2003 75.4805V64.1471C96.2003 62.2693 97.7225 60.7471 99.6003 60.7471H114.334C116.211 60.7471 117.734 62.2693 117.734 64.1471V75.4805Z" fill="#314252" fill-opacity="0.5"/>
<path d="M107.533 64.1475H99.5996V66.4141H107.533V64.1475Z" fill="#314252" fill-opacity="0.5"/>
<path d="M114.333 64.1475H109.8V66.4141H114.333V64.1475Z" fill="#314252" fill-opacity="0.5"/>
<path d="M114.333 68.6807H99.5996V70.9473H114.333V68.6807Z" fill="#314252" fill-opacity="0.5"/>
<path d="M107.533 73.2139H99.5996V75.4805H107.533V73.2139Z" fill="#314252" fill-opacity="0.5"/>
<path d="M89.9077 110.68L89.0792 109.374L87.165 110.589L87.9935 111.895C90.0607 115.151 89.8308 119.361 87.4212 122.372C87.2604 122.573 87.1728 122.823 87.173 123.081V126.481H89.4396V123.467C92.2274 119.712 92.4134 114.628 89.9077 110.68Z" fill="#314252" fill-opacity="0.5"/>
<path d="M118.867 97.0134H108.667C104.414 97.0183 100.922 100.375 100.749 104.624L97.3333 110.773V106.08C97.3284 101.701 93.7793 98.1517 89.4 98.1467H85.2577L85.2271 98.1229L85.2067 98.1467H82.6C81.3481 98.1467 80.3333 97.1319 80.3333 95.88V93.2133C83.8352 91.1914 85.9946 87.457 86 83.4134V74.3467C85.9983 72.4689 85.5311 70.6209 84.64 68.9679C84.3545 68.4421 83.7094 68.2286 83.1667 68.4806L63.9839 77.5065C63.5866 77.6935 63.3332 78.0931 63.3333 78.5321V83.4134C63.3387 87.457 65.4981 91.1914 69 93.2133V95.88C69 97.1319 67.9852 98.1467 66.7333 98.1467H59.9333C55.554 98.1517 52.005 101.701 52 106.08V126.48H54.2667V106.08C54.2703 102.952 56.8053 100.417 59.9333 100.413H63.5396L73.7453 114.673C73.9549 114.966 74.2915 115.142 74.6519 115.147H74.6667C75.0234 115.147 75.3593 114.979 75.5733 114.693L86.34 100.413H89.4C92.528 100.417 95.063 102.952 95.0667 106.08V115.147C95.0672 115.773 95.5751 116.28 96.201 116.279C96.6121 116.279 96.9908 116.056 97.1905 115.696L102.533 106.08H109.03L97.9805 126.48H100.559L111.613 106.08H112.067C116.446 106.075 119.995 102.526 120 98.1467C120 97.5208 119.493 97.0134 118.867 97.0134ZM65.6 83.4134V79.2518L83.0998 71.017C83.5184 72.0772 83.7333 73.2069 83.7333 74.3467V83.4134C83.7333 88.4207 79.674 92.48 74.6667 92.48C69.6593 92.48 65.6 88.4207 65.6 83.4134ZM74.6905 112.1L71.193 107.213H78.3738L74.6905 112.1ZM80.0885 104.947H69.5667L66.3219 100.413H66.7333C69.237 100.413 71.2667 98.3837 71.2667 95.88V94.2242C73.4798 94.9208 75.8535 94.9208 78.0667 94.2242V95.88C78.0667 98.3837 80.0963 100.413 82.6 100.413H83.5067L80.0885 104.947ZM112.067 103.813H103.113C103.655 101.177 105.975 99.283 108.667 99.28H117.62C117.078 101.917 114.759 103.81 112.067 103.813Z" fill="#314252" fill-opacity="0.5"/>
</g>
<path d="M24.3468 28.3486C23.9001 28.3486 23.5264 28.2917 23.2257 28.1777V26.8037C23.6085 26.8994 23.9412 26.9473 24.2237 26.9473C25.1169 26.9473 25.5636 26.3822 25.5636 25.252V15.5654H27.2042V25.1973C27.2042 26.2181 26.9604 26.9974 26.4727 27.5352C25.9897 28.0775 25.281 28.3486 24.3468 28.3486ZM34.9561 25.5596L34.7305 24.5684H34.6485C34.4252 24.9193 34.1062 25.195 33.6915 25.3955C33.2813 25.596 32.8119 25.6963 32.2833 25.6963C31.3673 25.6963 30.6837 25.4684 30.2325 25.0127C29.7813 24.557 29.5557 23.8665 29.5557 22.9414V17.999H31.1759V22.6611C31.1759 23.2399 31.2943 23.6751 31.5313 23.9668C31.7683 24.2539 32.1397 24.3975 32.6456 24.3975C33.3201 24.3975 33.8145 24.1969 34.129 23.7959C34.448 23.3903 34.6075 22.7135 34.6075 21.7656V17.999H36.2208V25.5596H34.9561ZM43.5899 23.4062C43.5899 24.1445 43.321 24.7119 42.7833 25.1084C42.2455 25.5003 41.4753 25.6963 40.4727 25.6963C39.4656 25.6963 38.6567 25.5436 38.046 25.2383V23.8506C38.9346 24.2607 39.7618 24.4658 40.5274 24.4658C41.5164 24.4658 42.0108 24.1673 42.0108 23.5703C42.0108 23.3789 41.9561 23.2194 41.8468 23.0918C41.7374 22.9642 41.5574 22.832 41.3067 22.6953C41.0561 22.5586 40.7074 22.4036 40.2608 22.2305C39.3904 21.8932 38.8002 21.556 38.4903 21.2188C38.185 20.8815 38.0323 20.444 38.0323 19.9062C38.0323 19.2591 38.2921 18.7578 38.8116 18.4023C39.3357 18.0423 40.0466 17.8623 40.9444 17.8623C41.8331 17.8623 42.6739 18.0423 43.4669 18.4023L42.9473 19.6123C42.1316 19.2751 41.4457 19.1064 40.8897 19.1064C40.0421 19.1064 39.6182 19.348 39.6182 19.8311C39.6182 20.068 39.7276 20.2686 39.9464 20.4326C40.1697 20.5967 40.6527 20.8223 41.3956 21.1094C42.0199 21.3509 42.4734 21.5719 42.7559 21.7725C43.0385 21.973 43.2481 22.2054 43.3848 22.4697C43.5216 22.7295 43.5899 23.0417 43.5899 23.4062ZM48.1495 24.3975C48.5414 24.3975 48.9333 24.3359 49.3253 24.2129V25.4229C49.1475 25.5003 48.9174 25.5641 48.6348 25.6143C48.3568 25.6689 48.0675 25.6963 47.7667 25.6963C46.2445 25.6963 45.4835 24.8942 45.4835 23.29V19.2158H44.4512V18.5049L45.5587 17.917L46.1055 16.3174H47.0968V17.999H49.2501V19.2158H47.0968V23.2627C47.0968 23.6501 47.1925 23.9372 47.3839 24.124C47.5798 24.3063 47.835 24.3975 48.1495 24.3975ZM52.4493 25.5596H50.8428V17.999H52.4493V25.5596ZM50.7471 15.9961C50.7471 15.709 50.8246 15.488 50.9796 15.333C51.1391 15.1781 51.3647 15.1006 51.6563 15.1006C51.9389 15.1006 52.1576 15.1781 52.3126 15.333C52.4721 15.488 52.5518 15.709 52.5518 15.9961C52.5518 16.2695 52.4721 16.486 52.3126 16.6455C52.1576 16.8005 51.9389 16.8779 51.6563 16.8779C51.3647 16.8779 51.1391 16.8005 50.9796 16.6455C50.8246 16.486 50.7471 16.2695 50.7471 15.9961ZM57.8018 25.6963C56.658 25.6963 55.7875 25.3636 55.1905 24.6982C54.5981 24.0283 54.3018 23.069 54.3018 21.8203C54.3018 20.5488 54.6117 19.5713 55.2315 18.8877C55.8559 18.2041 56.7559 17.8623 57.9317 17.8623C58.7292 17.8623 59.447 18.0104 60.085 18.3066L59.5997 19.5986C58.9206 19.3343 58.3601 19.2021 57.918 19.2021C56.6101 19.2021 55.9561 20.0703 55.9561 21.8066C55.9561 22.6543 56.1179 23.2923 56.4415 23.7207C56.7696 24.1445 57.2481 24.3564 57.877 24.3564C58.5925 24.3564 59.2693 24.1787 59.9073 23.8232V25.2246C59.6202 25.3932 59.3126 25.514 58.9845 25.5869C58.6609 25.6598 58.2667 25.6963 57.8018 25.6963ZM64.9864 25.6963C63.8106 25.6963 62.8901 25.3545 62.2247 24.6709C61.5639 23.9827 61.2335 23.0371 61.2335 21.834C61.2335 20.599 61.5411 19.6283 62.1563 18.9219C62.7716 18.2155 63.6169 17.8623 64.6925 17.8623C65.6905 17.8623 66.4789 18.1654 67.0577 18.7715C67.6365 19.3776 67.9259 20.2116 67.9259 21.2734V22.1416H62.8878C62.9106 22.8753 63.1088 23.4404 63.4825 23.8369C63.8562 24.2288 64.3826 24.4248 65.0616 24.4248C65.5082 24.4248 65.9229 24.3838 66.3057 24.3018C66.6931 24.2152 67.1078 24.0739 67.5499 23.8779V25.1836C67.158 25.3704 66.7615 25.5026 66.3604 25.5801C65.9594 25.6576 65.5014 25.6963 64.9864 25.6963ZM64.6925 19.0791C64.182 19.0791 63.7719 19.2409 63.462 19.5645C63.1567 19.888 62.9744 20.3597 62.9151 20.9795H66.3468C66.3376 20.3551 66.1873 19.8835 65.8956 19.5645C65.6039 19.2409 65.2029 19.0791 64.6925 19.0791ZM77.1817 19.2158H75.336V25.5596H73.7227V19.2158H72.4786V18.4639L73.7227 17.9717V17.4795C73.7227 16.5863 73.9324 15.9255 74.3516 15.4971C74.7709 15.0641 75.4112 14.8477 76.2725 14.8477C76.8376 14.8477 77.3936 14.9411 77.9405 15.1279L77.5167 16.3447C77.1202 16.2171 76.7419 16.1533 76.3819 16.1533C76.0173 16.1533 75.7507 16.2673 75.5821 16.4951C75.418 16.7184 75.336 17.0557 75.336 17.5068V17.999H77.1817V19.2158ZM85.1798 21.7656C85.1798 23.0007 84.863 23.9645 84.2296 24.6572C83.5961 25.3499 82.7143 25.6963 81.5841 25.6963C80.8777 25.6963 80.2533 25.5368 79.711 25.2178C79.1687 24.8988 78.7517 24.4408 78.46 23.8438C78.1684 23.2467 78.0225 22.554 78.0225 21.7656C78.0225 20.5397 78.337 19.5827 78.9659 18.8945C79.5948 18.2064 80.4812 17.8623 81.6251 17.8623C82.7188 17.8623 83.5847 18.2155 84.2227 18.9219C84.8608 19.6237 85.1798 20.5716 85.1798 21.7656ZM79.6768 21.7656C79.6768 23.5111 80.3217 24.3838 81.6114 24.3838C82.8874 24.3838 83.5255 23.5111 83.5255 21.7656C83.5255 20.0384 82.8829 19.1748 81.5977 19.1748C80.9233 19.1748 80.4333 19.3981 80.128 19.8447C79.8272 20.2913 79.6768 20.9316 79.6768 21.7656ZM90.8673 17.8623C91.1908 17.8623 91.4574 17.8851 91.6671 17.9307L91.5098 19.4277C91.282 19.373 91.045 19.3457 90.7989 19.3457C90.1563 19.3457 89.6345 19.5553 89.2335 19.9746C88.837 20.3939 88.6387 20.9385 88.6387 21.6084V25.5596H87.0323V17.999H88.2901L88.502 19.332H88.5841C88.8347 18.8809 89.1606 18.5231 89.5616 18.2588C89.9672 17.9945 90.4024 17.8623 90.8673 17.8623ZM106.105 25.5596H104.327L102.632 19.5986C102.559 19.3389 102.468 18.9652 102.358 18.4775C102.249 17.9854 102.183 17.6436 102.16 17.4521C102.115 17.7438 102.039 18.1221 101.935 18.5869C101.834 19.0518 101.75 19.3981 101.682 19.626L100.027 25.5596H98.2501L96.9581 20.5557L95.6456 15.5654H97.3136L98.7423 21.3896C98.9656 22.3239 99.1251 23.1488 99.2208 23.8643C99.2709 23.4769 99.3461 23.0439 99.4464 22.5654C99.5466 22.0869 99.6378 21.6995 99.7198 21.4033L101.347 15.5654H102.967L104.635 21.4307C104.794 21.973 104.963 22.7842 105.141 23.8643C105.209 23.2126 105.373 22.3831 105.633 21.376L107.055 15.5654H108.709L106.105 25.5596ZM116.666 21.7656C116.666 23.0007 116.349 23.9645 115.716 24.6572C115.082 25.3499 114.201 25.6963 113.07 25.6963C112.364 25.6963 111.74 25.5368 111.197 25.2178C110.655 24.8988 110.238 24.4408 109.946 23.8438C109.655 23.2467 109.509 22.554 109.509 21.7656C109.509 20.5397 109.823 19.5827 110.452 18.8945C111.081 18.2064 111.968 17.8623 113.111 17.8623C114.205 17.8623 115.071 18.2155 115.709 18.9219C116.347 19.6237 116.666 20.5716 116.666 21.7656ZM111.163 21.7656C111.163 23.5111 111.808 24.3838 113.098 24.3838C114.374 24.3838 115.012 23.5111 115.012 21.7656C115.012 20.0384 114.369 19.1748 113.084 19.1748C112.41 19.1748 111.92 19.3981 111.614 19.8447C111.314 20.2913 111.163 20.9316 111.163 21.7656ZM124.89 25.5596H123.276V20.8975C123.276 20.3187 123.167 19.888 122.948 19.6055C122.73 19.3184 122.388 19.1748 121.923 19.1748C121.303 19.1748 120.847 19.3776 120.556 19.7832C120.269 20.1842 120.125 20.8542 120.125 21.793V25.5596H118.519V17.999H119.776L120.002 18.9902H120.084C120.294 18.6302 120.597 18.3522 120.993 18.1562C121.394 17.9603 121.834 17.8623 122.313 17.8623C123.475 17.8623 124.245 18.2588 124.623 19.0518H124.732C124.956 18.6781 125.27 18.3864 125.676 18.1768C126.081 17.9671 126.546 17.8623 127.07 17.8623C127.973 17.8623 128.629 18.0902 129.039 18.5459C129.454 19.0016 129.661 19.6966 129.661 20.6309V25.5596H128.055V20.8975C128.055 20.3187 127.943 19.888 127.72 19.6055C127.501 19.3184 127.159 19.1748 126.694 19.1748C126.07 19.1748 125.612 19.3708 125.32 19.7627C125.033 20.1501 124.89 20.7471 124.89 21.5537V25.5596ZM135.205 25.6963C134.029 25.6963 133.109 25.3545 132.443 24.6709C131.783 23.9827 131.452 23.0371 131.452 21.834C131.452 20.599 131.76 19.6283 132.375 18.9219C132.99 18.2155 133.836 17.8623 134.911 17.8623C135.909 17.8623 136.698 18.1654 137.276 18.7715C137.855 19.3776 138.145 20.2116 138.145 21.2734V22.1416H133.107C133.129 22.8753 133.328 23.4404 133.701 23.8369C134.075 24.2288 134.601 24.4248 135.28 24.4248C135.727 24.4248 136.142 24.3838 136.524 24.3018C136.912 24.2152 137.327 24.0739 137.769 23.8779V25.1836C137.377 25.3704 136.98 25.5026 136.579 25.5801C136.178 25.6576 135.72 25.6963 135.205 25.6963ZM134.911 19.0791C134.401 19.0791 133.991 19.2409 133.681 19.5645C133.375 19.888 133.193 20.3597 133.134 20.9795H136.566C136.556 20.3551 136.406 19.8835 136.114 19.5645C135.823 19.2409 135.422 19.0791 134.911 19.0791ZM146.621 25.5596H145.008V20.9111C145.008 20.3278 144.889 19.8926 144.652 19.6055C144.42 19.3184 144.049 19.1748 143.538 19.1748C142.859 19.1748 142.362 19.3753 142.048 19.7764C141.733 20.1774 141.576 20.8496 141.576 21.793V25.5596H139.97V17.999H141.228L141.453 18.9902H141.535C141.763 18.6302 142.087 18.3522 142.506 18.1562C142.925 17.9603 143.39 17.8623 143.9 17.8623C145.714 17.8623 146.621 18.7852 146.621 20.6309V25.5596Z" fill="#314252"/>
<defs>
<filter id="filter0_d" x="0" y="0" width="174" height="165.16" filterUnits="userSpaceOnUse" color-interpolation-filters="sRGB">
<feFlood flood-opacity="0" result="BackgroundImageFix"/>
<feColorMatrix in="SourceAlpha" type="matrix" values="0 0 0 0 0 0 0 0 0 0 0 0 0 0 0 0 0 0 127 0"/>
<feOffset dx="1" dy="2"/>
<feGaussianBlur stdDeviation="1"/>
<feColorMatrix type="matrix" values="0 0 0 0 0 0 0 0 0 0 0 0 0 0 0 0 0 0 0.1 0"/>
<feBlend mode="normal" in2="BackgroundImageFix" result="effect1_dropShadow"/>
<feBlend mode="normal" in="SourceGraphic" in2="effect1_dropShadow" result="shape"/>
</filter>
<clipPath id="clip0">
<rect width="68" height="68" fill="white" transform="translate(52 58.4805)"/>
</clipPath>
</defs>
</svg>
