<svg width="7" height="13" viewBox="0 0 7 13" fill="none" xmlns="http://www.w3.org/2000/svg">
<path d="M4.14998 6.36557L0.314976 2.53057C0.113204 2.32759 -4.95911e-05 2.05302 -4.95911e-05 1.76682C-4.95911e-05 1.48061 0.113204 1.20604 0.314976 1.00307C0.415686 0.901526 0.535503 0.820932 0.667518 0.765933C0.799531 0.710933 0.94113 0.682617 1.08414 0.682617C1.22716 0.682617 1.36875 0.710933 1.50077 0.765933C1.63278 0.820932 1.7526 0.901526 1.85331 1.00307L6.44664 5.5964C6.54818 5.69711 6.62877 5.81693 6.68377 5.94894C6.73877 6.08095 6.76709 6.22255 6.76709 6.36557C6.76709 6.50858 6.73877 6.65018 6.68377 6.78219C6.62877 6.9142 6.54818 7.03402 6.44664 7.13473L1.85331 11.7822C1.75208 11.8826 1.63203 11.9621 1.50004 12.016C1.36805 12.0699 1.22672 12.0972 1.08414 12.0964C0.941568 12.0972 0.800234 12.0699 0.668244 12.016C0.536253 11.9621 0.416203 11.8826 0.314976 11.7822C0.113204 11.5793 -4.95911e-05 11.3047 -4.95911e-05 11.0185C-4.95911e-05 10.7323 0.113204 10.4577 0.314976 10.2547L4.14998 6.36557Z" fill="#20ABBE"/>
</svg>
