<svg width="20" height="20" viewBox="0 0 20 20" fill="none" xmlns="http://www.w3.org/2000/svg">
<path d="M4.09091 6.36364H4.54545V6.81818C4.54545 7.05929 4.64123 7.29052 4.81172 7.46101C4.98221 7.63149 5.21344 7.72727 5.45455 7.72727C5.69565 7.72727 5.92688 7.63149 6.09737 7.46101C6.26786 7.29052 6.36364 7.05929 6.36364 6.81818V6.36364H6.81818C7.05929 6.36364 7.29052 6.26786 7.46101 6.09737C7.63149 5.92688 7.72727 5.69565 7.72727 5.45455C7.72727 5.21344 7.63149 4.98221 7.46101 4.81172C7.29052 4.64123 7.05929 4.54545 6.81818 4.54545H6.36364V4.09091C6.36364 3.8498 6.26786 3.61857 6.09737 3.44809C5.92688 3.2776 5.69565 3.18182 5.45455 3.18182C5.21344 3.18182 4.98221 3.2776 4.81172 3.44809C4.64123 3.61857 4.54545 3.8498 4.54545 4.09091V4.54545H4.09091C3.8498 4.54545 3.61857 4.64123 3.44809 4.81172C3.2776 4.98221 3.18182 5.21344 3.18182 5.45455C3.18182 5.69565 3.2776 5.92688 3.44809 6.09737C3.61857 6.26786 3.8498 6.36364 4.09091 6.36364ZM3.52727 16.4727C3.6976 16.642 3.92801 16.7371 4.16818 16.7371C4.40835 16.7371 4.63876 16.642 4.80909 16.4727L5.45455 15.8273L6.1 16.4727C6.27033 16.642 6.50074 16.7371 6.74091 16.7371C6.98108 16.7371 7.21149 16.642 7.38182 16.4727C7.55114 16.3024 7.64617 16.072 7.64617 15.8318C7.64617 15.5917 7.55114 15.3612 7.38182 15.1909L6.73636 14.5455L7.38182 13.9C7.53075 13.7261 7.60858 13.5024 7.59974 13.2736C7.5909 13.0448 7.49605 12.8278 7.33415 12.6659C7.17224 12.5039 6.95521 12.4091 6.72641 12.4003C6.49762 12.3914 6.27391 12.4692 6.1 12.6182L5.45455 13.2636L4.80909 12.6182C4.63518 12.4692 4.41148 12.3914 4.18268 12.4003C3.95388 12.4091 3.73685 12.5039 3.57494 12.6659C3.41304 12.8278 3.31819 13.0448 3.30935 13.2736C3.30052 13.5024 3.37834 13.7261 3.52727 13.9L4.17273 14.5455L3.52727 15.1909C3.35795 15.3612 3.26292 15.5917 3.26292 15.8318C3.26292 16.072 3.35795 16.3024 3.52727 16.4727ZM17.2727 0H2.72727C2.00396 0 1.31026 0.287337 0.7988 0.7988C0.287337 1.31026 0 2.00396 0 2.72727V17.2727C0 17.996 0.287337 18.6897 0.7988 19.2012C1.31026 19.7127 2.00396 20 2.72727 20H17.2727C17.996 20 18.6897 19.7127 19.2012 19.2012C19.7127 18.6897 20 17.996 20 17.2727V2.72727C20 2.00396 19.7127 1.31026 19.2012 0.7988C18.6897 0.287337 17.996 0 17.2727 0ZM9.09091 18.1818H2.72727C2.48617 18.1818 2.25494 18.086 2.08445 17.9156C1.91396 17.7451 1.81818 17.5138 1.81818 17.2727V10.9091H9.09091V18.1818ZM9.09091 9.09091H1.81818V2.72727C1.81818 2.48617 1.91396 2.25494 2.08445 2.08445C2.25494 1.91396 2.48617 1.81818 2.72727 1.81818H9.09091V9.09091ZM18.1818 17.2727C18.1818 17.5138 18.086 17.7451 17.9156 17.9156C17.7451 18.086 17.5138 18.1818 17.2727 18.1818H10.9091V10.9091H18.1818V17.2727ZM18.1818 9.09091H10.9091V1.81818H17.2727C17.5138 1.81818 17.7451 1.91396 17.9156 2.08445C18.086 2.25494 18.1818 2.48617 18.1818 2.72727V9.09091ZM13.1818 14.0909H15.9091C16.1502 14.0909 16.3814 13.9951 16.5519 13.8246C16.7224 13.6542 16.8182 13.4229 16.8182 13.1818C16.8182 12.9407 16.7224 12.7095 16.5519 12.539C16.3814 12.3685 16.1502 12.2727 15.9091 12.2727H13.1818C12.9407 12.2727 12.7095 12.3685 12.539 12.539C12.3685 12.7095 12.2727 12.9407 12.2727 13.1818C12.2727 13.4229 12.3685 13.6542 12.539 13.8246C12.7095 13.9951 12.9407 14.0909 13.1818 14.0909ZM15.9091 4.54545H13.1818C12.9407 4.54545 12.7095 4.64123 12.539 4.81172C12.3685 4.98221 12.2727 5.21344 12.2727 5.45455C12.2727 5.69565 12.3685 5.92688 12.539 6.09737C12.7095 6.26786 12.9407 6.36364 13.1818 6.36364H15.9091C16.1502 6.36364 16.3814 6.26786 16.5519 6.09737C16.7224 5.92688 16.8182 5.69565 16.8182 5.45455C16.8182 5.21344 16.7224 4.98221 16.5519 4.81172C16.3814 4.64123 16.1502 4.54545 15.9091 4.54545ZM13.1818 16.8182H15.9091C16.1502 16.8182 16.3814 16.7224 16.5519 16.5519C16.7224 16.3814 16.8182 16.1502 16.8182 15.9091C16.8182 15.668 16.7224 15.4368 16.5519 15.2663C16.3814 15.0958 16.1502 15 15.9091 15H13.1818C12.9407 15 12.7095 15.0958 12.539 15.2663C12.3685 15.4368 12.2727 15.668 12.2727 15.9091C12.2727 16.1502 12.3685 16.3814 12.539 16.5519C12.7095 16.7224 12.9407 16.8182 13.1818 16.8182Z" fill="#20ABBE"/>
</svg>
