<svg width="40" height="40" viewBox="0 0 40 40" fill="none" xmlns="http://www.w3.org/2000/svg">
<path d="M6.6665 12H7.99984V13.3333H6.6665V12Z" fill="#314252" fill-opacity="0.5"/>
<path d="M39.3333 30H33.56C32.5203 29.1808 31.2997 28.6218 30 28.3697C30.4365 27.318 30.663 26.1913 30.6667 25.0525C30.638 21.3425 29.0885 17.806 26.38 15.2698L26.2787 15.1725C26.5297 14.8333 26.6657 14.422 26.6667 14V8.64267C27.8775 8.46767 28.7477 7.38667 28.6602 6.1665C28.5727 4.94567 27.557 4.00017 26.3333 4H24L25.2817 0.923167C25.3677 0.7175 25.345 0.482333 25.2213 0.296833C25.098 0.1115 24.8897 0 24.6667 0H15.3333C15.1103 0 14.902 0.1115 14.7787 0.296833C14.655 0.482333 14.6323 0.7175 14.7183 0.923167L14.9387 1.452L12.3907 4H0.666667C0.298333 4 0 4.29833 0 4.66667V15.3333C0 15.7017 0.298333 16 0.666667 16H12.9333C10.6418 18.4603 9.35733 21.6907 9.33333 25.0525C9.33833 26.846 9.88583 28.596 10.9047 30.0718C9.68633 29.787 8.4425 30.4347 7.97667 31.596C7.50817 32.7582 7.95667 34.0883 9.03333 34.7293L16.7067 39.3333C17.4317 39.7687 18.2608 39.9997 19.1067 40H39.3333C39.7017 40 40 39.7017 40 39.3333V30.6667C40 30.2983 39.7017 30 39.3333 30ZM23.6667 1.33333L22.5552 4H17.4448L16.3333 1.33333H23.6667ZM1.33333 5.33333H9.33333V14.6667H1.33333V5.33333ZM10.6667 5.33333H12.6667C12.8435 5.33333 13.013 5.263 13.138 5.138L15.4935 2.7825L16.385 4.92317C16.4883 5.17167 16.7308 5.33333 17 5.33333H26.3333C26.8857 5.33333 27.3333 5.781 27.3333 6.33333C27.3333 6.88567 26.8857 7.33333 26.3333 7.33333H26C25.6317 7.33333 25.3333 7.63167 25.3333 8V14C25.3333 14.3683 25.035 14.6667 24.6667 14.6667H10.6667V5.33333ZM14.5453 16.2308L14.7837 16H25.2163L25.4547 16.2308C27.9017 18.5157 29.3037 21.7047 29.3333 25.0525C29.3313 26.148 29.0873 27.2292 28.6177 28.2187C27.1608 28.1877 25.7213 28.5407 24.4433 29.2413L24.2748 29.3333H19.3333C18.5025 29.3333 17.7192 29.72 17.2148 30.38C16.71 31.0397 16.5417 31.897 16.7593 32.6983L14.1663 31.5107C12.0125 30.0608 10.7052 27.6483 10.6667 25.0525C10.6963 21.7047 12.0983 18.5157 14.5453 16.2308ZM17.3927 38.192L9.71917 33.5873C9.20517 33.281 8.99083 32.6458 9.21467 32.0908C9.33583 31.7863 9.577 31.5447 9.88167 31.423C10.1863 31.301 10.5273 31.3097 10.8252 31.4467L17.7218 34.6063C17.8093 34.6458 17.904 34.6667 18 34.6667H24.6667C25.035 34.6667 25.3333 34.3683 25.3333 34C25.3333 33.6317 25.035 33.3333 24.6667 33.3333H19.3333C18.5968 33.3333 18 32.7365 18 32C18 31.2635 18.5968 30.6667 19.3333 30.6667H24.4448C24.5563 30.6667 24.6663 30.6385 24.7642 30.5853L25.082 30.412C27.5002 29.0817 30.4767 29.3075 32.6667 30.9873V38.6667H19.1082C18.504 38.6665 17.9113 38.5023 17.3927 38.192ZM38.6667 38.6667H34V31.3333H38.6667V38.6667Z" fill="#314252" fill-opacity="0.5"/>
<path d="M35.3335 36H36.6668V37.3333H35.3335V36Z" fill="#314252" fill-opacity="0.5"/>
<path d="M35.4431 14.6573C35.764 14.6031 35.9985 14.3251 35.9985 14C35.9985 13.6748 35.764 13.3968 35.4431 13.3426C34.3565 13.1615 33.505 12.31 33.3238 11.2233C33.2696 10.9025 32.9916 10.668 32.6665 10.668C32.3413 10.668 32.0633 10.9025 32.0091 11.2233C31.828 12.31 30.9765 13.1615 29.8898 13.3426C29.569 13.3968 29.3345 13.6748 29.3345 14C29.3345 14.3251 29.569 14.6031 29.8898 14.6573C30.9765 14.8385 31.828 15.69 32.0091 16.7766C32.0633 17.0975 32.3413 17.332 32.6665 17.332C32.9916 17.332 33.2696 17.0975 33.3238 16.7766C33.505 15.69 34.3565 14.8385 35.4431 14.6573ZM32.6665 14.952C32.4063 14.582 32.0845 14.2601 31.7145 14C32.0845 13.7398 32.4063 13.418 32.6665 13.048C32.9266 13.418 33.2485 13.7398 33.6185 14C33.2485 14.2601 32.9266 14.582 32.6665 14.952Z" fill="#314252" fill-opacity="0.5"/>
<path d="M33.595 27.5437C34.0708 26.1174 34.1293 24.585 33.7643 23.1264L33.6088 22.5049L32.3154 22.8279L32.4709 23.4497C32.7741 24.6624 32.7253 25.9367 32.3294 27.1224L33.595 27.5437Z" fill="#314252" fill-opacity="0.5"/>
<path d="M10.6668 2.66666C10.6668 1.93016 11.2637 1.33333 12.0002 1.33333V0C10.5275 0 9.3335 1.194 9.3335 2.66666H10.6668Z" fill="#314252" fill-opacity="0.5"/>
<path d="M19.3335 23.3333H20.6668C21.0352 23.3333 21.3335 23.6317 21.3335 24C21.3335 24.3683 21.0352 24.6667 20.6668 24.6667H18.0002V26H19.3335V27.3333H20.6668V26C21.7712 26 22.6668 25.1043 22.6668 24C22.6668 22.8957 21.7712 22 20.6668 22H19.3335C18.9652 22 18.6668 21.7017 18.6668 21.3333C18.6668 20.965 18.9652 20.6667 19.3335 20.6667H22.0002V19.3333H20.6668V18H19.3335V19.3333C18.2292 19.3333 17.3335 20.229 17.3335 21.3333C17.3335 22.4377 18.2292 23.3333 19.3335 23.3333Z" fill="#314252" fill-opacity="0.5"/>
</svg>
