<svg width="20" height="20" viewBox="0 0 20 20" fill="none" xmlns="http://www.w3.org/2000/svg">
<path d="M17.9083 3.94224L14.1667 1.80891C14.04 1.73577 13.8963 1.69727 13.75 1.69727C13.6037 1.69727 13.46 1.73577 13.3333 1.80891L9.99999 3.70891L6.66666 1.80891C6.53997 1.73577 6.39627 1.69727 6.24999 1.69727C6.10371 1.69727 5.96001 1.73577 5.83332 1.80891L2.09166 3.94224C1.96293 4.0146 1.85575 4.11986 1.78107 4.24725C1.7064 4.37464 1.66691 4.51958 1.66666 4.66724V8.93391C1.66691 9.08158 1.7064 9.22652 1.78107 9.35391C1.85575 9.4813 1.96293 9.58656 2.09166 9.65891L5.42499 11.5506V15.3339C5.42524 15.4816 5.46473 15.6265 5.53941 15.7539C5.61408 15.8813 5.72127 15.9866 5.84999 16.0589L9.59999 18.1922C9.72667 18.2654 9.87038 18.3039 10.0167 18.3039C10.1629 18.3039 10.3066 18.2654 10.4333 18.1922L14.1667 16.0589C14.2954 15.9866 14.4026 15.8813 14.4772 15.7539C14.5519 15.6265 14.5914 15.4816 14.5917 15.3339V11.5506L17.925 9.65891C18.0537 9.58656 18.1609 9.4813 18.2356 9.35391C18.3103 9.22652 18.3497 9.08158 18.35 8.93391V4.66724C18.3481 4.51791 18.3061 4.37183 18.2284 4.24429C18.1507 4.11674 18.0402 4.01243 17.9083 3.94224ZM3.33332 8.45058V5.11724L6.24999 3.45058L9.16666 5.11724V8.45058L6.24999 10.1172L3.33332 8.45058ZM12.9167 14.8506L9.99999 16.5172L7.08332 14.8506V11.5172L9.99999 9.85058L12.9167 11.5172V14.8506ZM16.6667 8.45058L13.75 10.1172L10.8333 8.45058V5.11724L13.75 3.45058L16.6667 5.11724V8.45058Z" fill="#20ABBE"/>
</svg>
