<svg width="40" height="40" viewBox="0 0 40 40" fill="none" xmlns="http://www.w3.org/2000/svg">
<g clip-path="url(#clip0)">
<path d="M16.0003 6H13.3336C12.9655 6 12.667 6.2985 12.667 6.66666V9.33329C12.667 9.70145 12.9655 9.99994 13.3336 9.99994H16.0003C16.3684 9.99994 16.6669 9.70145 16.6669 9.33329V6.66666C16.6669 6.29841 16.3684 6 16.0003 6ZM15.3336 8.66663H14.0003V7.33331H15.3336V8.66663Z" fill="#314252" fill-opacity="0.5"/>
<path d="M21.3338 6H18.6671C18.299 6 18.0005 6.2985 18.0005 6.66666V9.33329C18.0005 9.70145 18.299 9.99994 18.6671 9.99994H21.3338C21.7019 9.99994 22.0004 9.70145 22.0004 9.33329V6.66666C22.0004 6.29841 21.7019 6 21.3338 6ZM20.6671 8.66663H19.3338V7.33331H20.6671V8.66663Z" fill="#314252" fill-opacity="0.5"/>
<path d="M26.6668 6H24.0002C23.632 6 23.3335 6.2985 23.3335 6.66666V9.33329C23.3335 9.70145 23.632 9.99994 24.0002 9.99994H26.6668C27.0349 9.99994 27.3334 9.70145 27.3334 9.33329V6.66666C27.3334 6.29841 27.0349 6 26.6668 6ZM26.0001 8.66663H24.6668V7.33331H26.0001V8.66663Z" fill="#314252" fill-opacity="0.5"/>
<path d="M16.0003 11.334H13.3336C12.9655 11.334 12.667 11.6325 12.667 12.0006V14.6673C12.667 15.0354 12.9655 15.3339 13.3336 15.3339H16.0003C16.3684 15.3339 16.6669 15.0354 16.6669 14.6673V12.0006C16.6669 11.6324 16.3684 11.334 16.0003 11.334ZM15.3336 14.0006H14.0003V12.6673H15.3336V14.0006Z" fill="#314252" fill-opacity="0.5"/>
<path d="M21.3338 11.334H18.6671C18.299 11.334 18.0005 11.6325 18.0005 12.0006V14.6673C18.0005 15.0354 18.299 15.3339 18.6671 15.3339H21.3338C21.7019 15.3339 22.0004 15.0354 22.0004 14.6673V12.0006C22.0004 11.6324 21.7019 11.334 21.3338 11.334ZM20.6671 14.0006H19.3338V12.6673H20.6671V14.0006Z" fill="#314252" fill-opacity="0.5"/>
<path d="M26.6668 11.334H24.0002C23.632 11.334 23.3335 11.6325 23.3335 12.0006V14.6673C23.3335 15.0354 23.632 15.3339 24.0002 15.3339H26.6668C27.0349 15.3339 27.3334 15.0354 27.3334 14.6673V12.0006C27.3334 11.6324 27.0349 11.334 26.6668 11.334ZM26.0001 14.0006H24.6668V12.6673H26.0001V14.0006Z" fill="#314252" fill-opacity="0.5"/>
<path d="M16.0003 16.667H13.3336C12.9655 16.667 12.667 16.9655 12.667 17.3336V20.0003C12.667 20.3684 12.9655 20.6669 13.3336 20.6669H16.0003C16.3684 20.6669 16.6669 20.3684 16.6669 20.0003V17.3336C16.6669 16.9654 16.3684 16.667 16.0003 16.667ZM15.3336 19.3336H14.0003V18.0003H15.3336V19.3336Z" fill="#314252" fill-opacity="0.5"/>
<path d="M21.3338 16.667H18.6671C18.299 16.667 18.0005 16.9655 18.0005 17.3336V20.0003C18.0005 20.3684 18.299 20.6669 18.6671 20.6669H21.3338C21.7019 20.6669 22.0004 20.3684 22.0004 20.0003V17.3336C22.0004 16.9654 21.7019 16.667 21.3338 16.667ZM20.6671 19.3336H19.3338V18.0003H20.6671V19.3336Z" fill="#314252" fill-opacity="0.5"/>
<path d="M26.6668 16.667H24.0002C23.632 16.667 23.3335 16.9655 23.3335 17.3336V20.0003C23.3335 20.3684 23.632 20.6669 24.0002 20.6669H26.6668C27.0349 20.6669 27.3334 20.3684 27.3334 20.0003V17.3336C27.3334 16.9654 27.0349 16.667 26.6668 16.667ZM26.0001 19.3336H24.6668V18.0003H26.0001V19.3336Z" fill="#314252" fill-opacity="0.5"/>
<path d="M16.0003 22H13.3336C12.9655 22 12.667 22.2985 12.667 22.6667V25.3333C12.667 25.7014 12.9655 25.9999 13.3336 25.9999H16.0003C16.3684 25.9999 16.6669 25.7014 16.6669 25.3333V22.6667C16.6669 22.2984 16.3684 22 16.0003 22ZM15.3336 24.6666H14.0003V23.3333H15.3336V24.6666Z" fill="#314252" fill-opacity="0.5"/>
<path d="M21.3338 22H18.6671C18.299 22 18.0005 22.2985 18.0005 22.6667V25.3333C18.0005 25.7014 18.299 25.9999 18.6671 25.9999H21.3338C21.7019 25.9999 22.0004 25.7014 22.0004 25.3333V22.6667C22.0004 22.2984 21.7019 22 21.3338 22ZM20.6671 24.6666H19.3338V23.3333H20.6671V24.6666Z" fill="#314252" fill-opacity="0.5"/>
<path d="M26.6668 22H24.0002C23.632 22 23.3335 22.2985 23.3335 22.6667V25.3333C23.3335 25.7014 23.632 25.9999 24.0002 25.9999H26.6668C27.0349 25.9999 27.3334 25.7014 27.3334 25.3333V22.6667C27.3334 22.2984 27.0349 22 26.6668 22ZM26.0001 24.6666H24.6668V23.3333H26.0001V24.6666Z" fill="#314252" fill-opacity="0.5"/>
<path d="M16.0003 27.333H13.3336C12.9655 27.333 12.667 27.6315 12.667 27.9997V30.6663C12.667 31.0345 12.9655 31.3329 13.3336 31.3329H16.0003C16.3684 31.3329 16.6669 31.0345 16.6669 30.6663V27.9997C16.6669 27.6314 16.3684 27.333 16.0003 27.333ZM15.3336 29.9996H14.0003V28.6663H15.3336V29.9996Z" fill="#314252" fill-opacity="0.5"/>
<path d="M21.3338 27.333H18.6671C18.299 27.333 18.0005 27.6315 18.0005 27.9997V30.6663C18.0005 31.0345 18.299 31.3329 18.6671 31.3329H21.3338C21.7019 31.3329 22.0004 31.0345 22.0004 30.6663V27.9997C22.0004 27.6314 21.7019 27.333 21.3338 27.333ZM20.6671 29.9996H19.3338V28.6663H20.6671V29.9996Z" fill="#314252" fill-opacity="0.5"/>
<path d="M26.6668 27.333H24.0002C23.632 27.333 23.3335 27.6315 23.3335 27.9997V30.6663C23.3335 31.0345 23.632 31.3329 24.0002 31.3329H26.6668C27.0349 31.3329 27.3334 31.0345 27.3334 30.6663V27.9997C27.3334 27.6314 27.0349 27.333 26.6668 27.333ZM26.0001 29.9996H24.6668V28.6663H26.0001V29.9996Z" fill="#314252" fill-opacity="0.5"/>
<path d="M36.6676 38.6662V37.2749C37.3479 37.1613 37.9869 36.873 38.5223 36.4382C40.008 35.2312 40.4303 33.1408 39.5296 31.4516C39.0886 30.7306 38.9571 29.8622 39.1649 29.043C39.3651 28.4363 39.3883 27.7851 39.2316 27.1657C38.9304 25.9716 37.9903 25.0441 36.7923 24.7591C35.004 24.3219 33.2 25.4172 32.7629 27.2054C32.6286 27.7546 32.6363 28.3289 32.785 28.8742C33.0364 29.6937 32.9474 30.5799 32.5377 31.3329C31.4325 33.2456 32.0871 35.6922 33.9999 36.7974C34.3567 37.0035 34.7432 37.1533 35.1457 37.2415C35.2084 37.2548 35.2717 37.2608 35.3344 37.2708V38.6661H30.0011V3.33328C30.0011 2.96512 29.7027 2.66663 29.3345 2.66663H27.3345V0.666657C27.3345 0.298496 27.036 0 26.6679 0H13.3347C12.9666 0 12.6681 0.298496 12.6681 0.666657V2.66663H10.6681C10.2999 2.66663 10.0014 2.96512 10.0014 3.33328V38.6661H4.66818V37.2748C6.84448 36.9088 8.31213 34.8478 7.94605 32.6715C7.8743 32.245 7.73388 31.833 7.53014 31.4515C7.08914 30.7306 6.95765 29.8622 7.16548 29.0429C7.36564 28.4362 7.38881 27.785 7.23214 27.1656C6.93098 25.9715 5.99083 25.0441 4.79284 24.759C3.00454 24.3218 1.20048 25.4171 0.763401 27.2054C0.629153 27.7545 0.636819 28.3288 0.785567 28.8742C1.03698 29.6937 0.947898 30.5798 0.538237 31.3328C-0.566997 33.2455 0.0876603 35.6921 2.00038 36.7973C2.35713 37.0035 2.74362 37.1532 3.1462 37.2414C3.20887 37.2547 3.2722 37.2607 3.33486 37.2707V38.666H0.00157825V39.9993H40.001V38.666H36.6676V38.6662ZM3.33478 35.9136C1.91172 35.5504 1.05248 34.1023 1.41572 32.6793C1.47614 32.4424 1.56897 32.2151 1.69147 32.0036C2.28155 30.9408 2.41738 29.6847 2.06813 28.5203C2.0228 28.3505 2.00038 28.1754 2.00147 27.9997C2.00005 27.3886 2.27955 26.8107 2.75946 26.4324C3.11037 26.151 3.54703 25.9984 3.99677 25.9997C4.1631 25.9999 4.32885 26.0191 4.49076 26.057C5.55992 26.3239 6.21032 27.407 5.94341 28.4762C5.93124 28.525 5.91724 28.5733 5.90141 28.621C5.57133 29.7874 5.73525 31.0383 6.35474 32.0803C6.56199 32.4652 6.66965 32.8958 6.66807 33.3329C6.6704 34.5492 5.84658 35.6116 4.6681 35.9122V27.9997H3.33478V35.9136ZM14.0013 1.3334H26.0011V2.66671H14.0013V1.3334ZM19.3346 38.6662H16.6679V34.6662H19.3346V38.6662ZM23.3345 38.6662H20.6679V34.6662H23.3345V38.6662ZM28.6677 38.6662H24.6678V33.9996C24.6678 33.6314 24.3693 33.3329 24.0012 33.3329H16.0013C15.6331 33.3329 15.3346 33.6314 15.3346 33.9996V38.6662H11.3347V4.00003H28.6677V38.6662ZM35.3343 35.9136C33.9113 35.5504 33.052 34.1023 33.4153 32.6793C33.4757 32.4424 33.5685 32.2151 33.691 32.0036C34.282 30.9411 34.4188 29.6851 34.0703 28.5203C34.0241 28.3507 34.0008 28.1755 34.001 27.9997C33.9996 27.3886 34.2791 26.8107 34.759 26.4324C35.1099 26.151 35.5466 25.9984 35.9963 25.9997C36.1626 25.9999 36.3284 26.0191 36.4903 26.057C37.5595 26.3239 38.2099 27.407 37.943 28.4762C37.9308 28.525 37.9168 28.5733 37.901 28.621C37.5709 29.7874 37.7348 31.0383 38.3543 32.0803C38.5615 32.4652 38.6692 32.8958 38.6676 33.3329C38.6699 34.5492 37.8461 35.6116 36.6676 35.9122V27.9997H35.3343V35.9136Z" fill="#314252" fill-opacity="0.5"/>
</g>
<defs>
<clipPath id="clip0">
<rect width="40" height="40" fill="white"/>
</clipPath>
</defs>
</svg>
