<svg width="87" height="25" viewBox="0 0 87 25" fill="none" xmlns="http://www.w3.org/2000/svg">
<path d="M5 18.9999H9.24C9.37161 19.0007 9.50207 18.9755 9.62391 18.9257C9.74574 18.8759 9.85656 18.8026 9.95 18.7099L16.87 11.7799L19.71 8.99994C19.8037 8.90698 19.8781 8.79637 19.9289 8.67452C19.9797 8.55266 20.0058 8.42195 20.0058 8.28994C20.0058 8.15793 19.9797 8.02722 19.9289 7.90536C19.8781 7.7835 19.8037 7.6729 19.71 7.57994L15.47 3.28994C15.377 3.19621 15.2664 3.12182 15.1446 3.07105C15.0227 3.02028 14.892 2.99414 14.76 2.99414C14.628 2.99414 14.4973 3.02028 14.3754 3.07105C14.2536 3.12182 14.143 3.19621 14.05 3.28994L11.23 6.11994L4.29 13.0499C4.19732 13.1434 4.12399 13.2542 4.07423 13.376C4.02446 13.4979 3.99924 13.6283 4 13.7599V17.9999C4 18.2652 4.10536 18.5195 4.29289 18.707C4.48043 18.8946 4.73478 18.9999 5 18.9999ZM14.76 5.40994L17.59 8.23994L16.17 9.65994L13.34 6.82994L14.76 5.40994ZM6 14.1699L11.93 8.23994L14.76 11.0699L8.83 16.9999H6V14.1699ZM21 20.9999H3C2.73478 20.9999 2.48043 21.1053 2.29289 21.2928C2.10536 21.4804 2 21.7347 2 21.9999C2 22.2652 2.10536 22.5195 2.29289 22.707C2.48043 22.8946 2.73478 22.9999 3 22.9999H21C21.2652 22.9999 21.5196 22.8946 21.7071 22.707C21.8946 22.5195 22 22.2652 22 21.9999C22 21.7347 21.8946 21.4804 21.7071 21.2928C21.5196 21.1053 21.2652 20.9999 21 20.9999Z" fill="#20ABBE"/>
<path d="M41.0703 9.03125C41.0703 10.224 40.6797 11.138 39.8984 11.7734C39.1172 12.4089 38.0052 12.7266 36.5625 12.7266H35.375V17H33.5078V5.57812H36.7969C38.224 5.57812 39.2917 5.86979 40 6.45312C40.7135 7.03646 41.0703 7.89583 41.0703 9.03125ZM35.375 11.1562H36.3672C37.3255 11.1562 38.0286 10.9896 38.4766 10.6562C38.9245 10.3229 39.1484 9.80208 39.1484 9.09375C39.1484 8.4375 38.9479 7.94792 38.5469 7.625C38.1458 7.30208 37.5208 7.14062 36.6719 7.14062H35.375V11.1562ZM44.9922 17H43.1562V8.35938H44.9922V17ZM43.0469 6.07031C43.0469 5.74219 43.1354 5.48958 43.3125 5.3125C43.4948 5.13542 43.7526 5.04688 44.0859 5.04688C44.4089 5.04688 44.6589 5.13542 44.8359 5.3125C45.0182 5.48958 45.1094 5.74219 45.1094 6.07031C45.1094 6.38281 45.0182 6.63021 44.8359 6.8125C44.6589 6.98958 44.4089 7.07812 44.0859 7.07812C43.7526 7.07812 43.4948 6.98958 43.3125 6.8125C43.1354 6.63021 43.0469 6.38281 43.0469 6.07031ZM51.1094 17.1562C49.8021 17.1562 48.8073 16.776 48.125 16.0156C47.4479 15.25 47.1094 14.1536 47.1094 12.7266C47.1094 11.2734 47.4635 10.1562 48.1719 9.375C48.8854 8.59375 49.9141 8.20312 51.2578 8.20312C52.1693 8.20312 52.9896 8.3724 53.7188 8.71094L53.1641 10.1875C52.388 9.88542 51.7474 9.73438 51.2422 9.73438C49.7474 9.73438 49 10.7266 49 12.7109C49 13.6797 49.1849 14.4089 49.5547 14.8984C49.9297 15.3828 50.4766 15.625 51.1953 15.625C52.013 15.625 52.7865 15.4219 53.5156 15.0156V16.6172C53.1875 16.8099 52.8359 16.9479 52.4609 17.0312C52.0911 17.1146 51.6406 17.1562 51.1094 17.1562ZM58.7656 15.6719C59.2135 15.6719 59.6615 15.6016 60.1094 15.4609V16.8438C59.9062 16.9323 59.6432 17.0052 59.3203 17.0625C59.0026 17.125 58.6719 17.1562 58.3281 17.1562C56.5885 17.1562 55.7188 16.2396 55.7188 14.4062V9.75H54.5391V8.9375L55.8047 8.26562L56.4297 6.4375H57.5625V8.35938H60.0234V9.75H57.5625V14.375C57.5625 14.8177 57.6719 15.1458 57.8906 15.3594C58.1146 15.5677 58.4062 15.6719 58.7656 15.6719ZM67.9375 17L67.6797 15.8672H67.5859C67.3307 16.2682 66.9661 16.5833 66.4922 16.8125C66.0234 17.0417 65.487 17.1562 64.8828 17.1562C63.8359 17.1562 63.0547 16.8958 62.5391 16.375C62.0234 15.8542 61.7656 15.0651 61.7656 14.0078V8.35938H63.6172V13.6875C63.6172 14.349 63.7526 14.8464 64.0234 15.1797C64.2943 15.5078 64.7188 15.6719 65.2969 15.6719C66.0677 15.6719 66.6328 15.4427 66.9922 14.9844C67.3568 14.5208 67.5391 13.7474 67.5391 12.6641V8.35938H69.3828V17H67.9375ZM76.3828 8.20312C76.7526 8.20312 77.0573 8.22917 77.2969 8.28125L77.1172 9.99219C76.8568 9.92969 76.5859 9.89844 76.3047 9.89844C75.5703 9.89844 74.974 10.138 74.5156 10.6172C74.0625 11.0964 73.8359 11.7188 73.8359 12.4844V17H72V8.35938H73.4375L73.6797 9.88281H73.7734C74.0599 9.36719 74.4323 8.95833 74.8906 8.65625C75.3542 8.35417 75.8516 8.20312 76.3828 8.20312ZM82.6797 17.1562C81.3359 17.1562 80.2839 16.7656 79.5234 15.9844C78.7682 15.1979 78.3906 14.1172 78.3906 12.7422C78.3906 11.3307 78.7422 10.2214 79.4453 9.41406C80.1484 8.60677 81.1146 8.20312 82.3438 8.20312C83.4844 8.20312 84.3854 8.54948 85.0469 9.24219C85.7083 9.9349 86.0391 10.888 86.0391 12.1016V13.0938H80.2812C80.3073 13.9323 80.5339 14.5781 80.9609 15.0312C81.388 15.4792 81.9896 15.7031 82.7656 15.7031C83.276 15.7031 83.75 15.6562 84.1875 15.5625C84.6302 15.4635 85.1042 15.3021 85.6094 15.0781V16.5703C85.1615 16.7839 84.7083 16.9349 84.25 17.0234C83.7917 17.112 83.2682 17.1562 82.6797 17.1562ZM82.3438 9.59375C81.7604 9.59375 81.2917 9.77865 80.9375 10.1484C80.5885 10.5182 80.3802 11.0573 80.3125 11.7656H84.2344C84.224 11.0521 84.0521 10.513 83.7188 10.1484C83.3854 9.77865 82.9271 9.59375 82.3438 9.59375Z" fill="#314252"/>
</svg>
