<svg width="22" height="16" viewBox="0 0 22 16" fill="none" xmlns="http://www.w3.org/2000/svg">
<path d="M19.6666 9.2677V9.08354C19.6677 7.92439 19.4362 6.77681 18.9859 5.70872C18.5356 4.64062 17.8756 3.67371 17.0449 2.8652C16.0752 1.9216 14.8941 1.22333 13.5999 0.828537H13.5458C12.6384 0.542681 11.6912 0.403705 10.7399 0.416871C8.47402 0.541242 6.34135 1.52703 4.77852 3.17244C3.21569 4.81784 2.3409 6.9984 2.33326 9.2677C1.60923 9.5224 0.998708 10.0251 0.609819 10.6868C0.220931 11.3485 0.078775 12.1265 0.20853 12.883C0.338285 13.6394 0.731577 14.3256 1.31875 14.8199C1.90592 15.3142 2.64907 15.5847 3.41659 15.5835H18.5833C19.3508 15.5847 20.0939 15.3142 20.6811 14.8199C21.2683 14.3256 21.6616 13.6394 21.7913 12.883C21.9211 12.1265 21.7789 11.3485 21.39 10.6868C21.0011 10.0251 20.3906 9.5224 19.6666 9.2677ZM18.5833 13.4169H3.41659C3.12927 13.4169 2.85372 13.3027 2.65056 13.0996C2.4474 12.8964 2.33326 12.6209 2.33326 12.3335C2.33326 12.0462 2.4474 11.7707 2.65056 11.5675C2.85372 11.3643 3.12927 11.2502 3.41659 11.2502H5.58326C5.87058 11.2502 6.14613 11.1361 6.34929 10.9329C6.55245 10.7297 6.66659 10.4542 6.66659 10.1669C6.66659 9.87955 6.55245 9.604 6.34929 9.40084C6.14613 9.19767 5.87058 9.08354 5.58326 9.08354H4.49993C4.54933 7.95991 4.87093 6.8651 5.43705 5.89325C6.00318 4.92141 6.79689 4.10161 7.74993 3.50437V6.91687C7.74993 7.20419 7.86406 7.47974 8.06723 7.6829C8.27039 7.88607 8.54594 8.0002 8.83326 8.0002C9.12058 8.0002 9.39613 7.88607 9.59929 7.6829C9.80245 7.47974 9.91659 7.20419 9.91659 6.91687V2.68104C10.2106 2.63191 10.5072 2.59936 10.8049 2.58354H10.9999C11.3636 2.58687 11.7262 2.62313 12.0833 2.69187V6.91687C12.0833 7.20419 12.1974 7.47974 12.4006 7.6829C12.6037 7.88607 12.8793 8.0002 13.1666 8.0002C13.4539 8.0002 13.7295 7.88607 13.9326 7.6829C14.1358 7.47974 14.2499 7.20419 14.2499 6.91687V3.47187C14.7095 3.73796 15.1382 4.05405 15.5283 4.41437C16.1529 5.02093 16.6492 5.74678 16.9879 6.54886C17.3266 7.35094 17.5007 8.21288 17.4999 9.08354H16.4166C16.1293 9.08354 15.8537 9.19767 15.6506 9.40084C15.4474 9.604 15.3333 9.87955 15.3333 10.1669C15.3333 10.4542 15.4474 10.7297 15.6506 10.9329C15.8537 11.1361 16.1293 11.2502 16.4166 11.2502H18.5833C18.8706 11.2502 19.1461 11.3643 19.3493 11.5675C19.5525 11.7707 19.6666 12.0462 19.6666 12.3335C19.6666 12.6209 19.5525 12.8964 19.3493 13.0996C19.1461 13.3027 18.8706 13.4169 18.5833 13.4169Z" fill="#20ABBE"/>
</svg>
