<svg width="20" height="21" viewBox="0 0 20 21" fill="none" xmlns="http://www.w3.org/2000/svg">
<path d="M7.50001 9.50007H10C10.2652 9.50007 10.5196 9.39471 10.7071 9.20718C10.8947 9.01964 11 8.76528 11 8.50007C11 8.23485 10.8947 7.9805 10.7071 7.79296C10.5196 7.60543 10.2652 7.50007 10 7.50007H9.00001V7.00007C9.00001 6.73485 8.89465 6.4805 8.70711 6.29296C8.51958 6.10543 8.26522 6.00007 8.00001 6.00007C7.73479 6.00007 7.48044 6.10543 7.2929 6.29296C7.10537 6.4805 7.00001 6.73485 7.00001 7.00007V7.55007C6.39243 7.67344 5.85237 8.01817 5.48466 8.51733C5.11696 9.01649 4.94785 9.63448 5.01015 10.2513C5.07246 10.8682 5.36174 11.4398 5.82184 11.8554C6.28194 12.2709 6.88003 12.5007 7.50001 12.5001H8.50001C8.63262 12.5001 8.75979 12.5527 8.85356 12.6465C8.94733 12.7403 9.00001 12.8675 9.00001 13.0001C9.00001 13.1327 8.94733 13.2599 8.85356 13.3536C8.75979 13.4474 8.63262 13.5001 8.50001 13.5001H6.00001C5.73479 13.5001 5.48044 13.6054 5.2929 13.793C5.10537 13.9805 5.00001 14.2349 5.00001 14.5001C5.00001 14.7653 5.10537 15.0196 5.2929 15.2072C5.48044 15.3947 5.73479 15.5001 6.00001 15.5001H7.00001V16.0001C7.00001 16.2653 7.10537 16.5196 7.2929 16.7072C7.48044 16.8947 7.73479 17.0001 8.00001 17.0001C8.26522 17.0001 8.51958 16.8947 8.70711 16.7072C8.89465 16.5196 9.00001 16.2653 9.00001 16.0001V15.4501C9.60758 15.3267 10.1476 14.982 10.5154 14.4828C10.8831 13.9836 11.0522 13.3657 10.9899 12.7488C10.9276 12.132 10.6383 11.5603 10.1782 11.1448C9.71807 10.7292 9.11998 10.4994 8.50001 10.5001H7.50001C7.3674 10.5001 7.24022 10.4474 7.14645 10.3536C7.05269 10.2599 7.00001 10.1327 7.00001 10.0001C7.00001 9.86746 7.05269 9.74028 7.14645 9.64651C7.24022 9.55275 7.3674 9.50007 7.50001 9.50007ZM19 11.0001H16V2.00007C16.0007 1.82386 15.9548 1.65059 15.867 1.49781C15.7792 1.34504 15.6526 1.21817 15.5 1.13007C15.348 1.0423 15.1755 0.996094 15 0.996094C14.8245 0.996094 14.652 1.0423 14.5 1.13007L11.5 2.85007L8.50001 1.13007C8.34799 1.0423 8.17554 0.996094 8.00001 0.996094C7.82447 0.996094 7.65203 1.0423 7.50001 1.13007L4.50001 2.85007L1.50001 1.13007C1.34799 1.0423 1.17554 0.996094 1.00001 0.996094C0.824471 0.996094 0.652027 1.0423 0.500008 1.13007C0.347404 1.21817 0.220789 1.34504 0.132986 1.49781C0.0451828 1.65059 -0.000691685 1.82386 7.88288e-06 2.00007V18.0001C7.88288e-06 18.7957 0.316078 19.5588 0.878688 20.1214C1.4413 20.684 2.20436 21.0001 3.00001 21.0001H17C17.7957 21.0001 18.5587 20.684 19.1213 20.1214C19.6839 19.5588 20 18.7957 20 18.0001V12.0001C20 11.7349 19.8947 11.4805 19.7071 11.293C19.5196 11.1054 19.2652 11.0001 19 11.0001ZM3.00001 19.0001C2.73479 19.0001 2.48044 18.8947 2.2929 18.7072C2.10536 18.5196 2.00001 18.2653 2.00001 18.0001V3.73007L4.00001 4.87007C4.15435 4.95068 4.32589 4.99278 4.50001 4.99278C4.67413 4.99278 4.84567 4.95068 5.00001 4.87007L8.00001 3.15007L11 4.87007C11.1543 4.95068 11.3259 4.99278 11.5 4.99278C11.6741 4.99278 11.8457 4.95068 12 4.87007L14 3.73007V18.0001C14.0027 18.3412 14.0636 18.6794 14.18 19.0001H3.00001ZM18 18.0001C18 18.2653 17.8947 18.5196 17.7071 18.7072C17.5196 18.8947 17.2652 19.0001 17 19.0001C16.7348 19.0001 16.4804 18.8947 16.2929 18.7072C16.1054 18.5196 16 18.2653 16 18.0001V13.0001H18V18.0001Z" fill="#20ABBE"/>
</svg>
