<svg width="14" height="14" viewBox="0 0 14 14" fill="none" xmlns="http://www.w3.org/2000/svg">
<path d="M13.3273 2.15341L10.334 0.446738C10.2326 0.388226 10.1177 0.357422 10.0007 0.357422C9.88363 0.357422 9.76867 0.388226 9.66732 0.446738L7.00065 1.96674L4.33398 0.446738C4.23264 0.388226 4.11768 0.357422 4.00065 0.357422C3.88363 0.357422 3.76866 0.388226 3.66732 0.446738L0.673984 2.15341C0.571007 2.21129 0.485259 2.2955 0.425518 2.39741C0.365777 2.49932 0.334188 2.61527 0.333984 2.73341V6.14674C0.334188 6.26487 0.365777 6.38082 0.425518 6.48274C0.485259 6.58465 0.571007 6.66885 0.673984 6.72674L3.34065 8.24007V11.2667C3.34086 11.3849 3.37244 11.5008 3.43219 11.6027C3.49193 11.7046 3.57767 11.7889 3.68065 11.8467L6.68065 13.5534C6.782 13.6119 6.89696 13.6427 7.01399 13.6427C7.13101 13.6427 7.24597 13.6119 7.34732 13.5534L10.334 11.8467C10.437 11.7889 10.5227 11.7046 10.5825 11.6027C10.6422 11.5008 10.6738 11.3849 10.674 11.2667V8.24007L13.3407 6.72674C13.4436 6.66885 13.5294 6.58465 13.5891 6.48274C13.6489 6.38082 13.6804 6.26487 13.6807 6.14674V2.73341C13.6791 2.61394 13.6455 2.49707 13.5834 2.39504C13.5212 2.293 13.4328 2.20955 13.3273 2.15341ZM1.66732 5.76007V3.0934L4.00065 1.76007L6.33399 3.0934V5.76007L4.00065 7.09341L1.66732 5.76007ZM9.33399 10.8801L7.00065 12.2134L4.66732 10.8801V8.21341L7.00065 6.88007L9.33399 8.21341V10.8801ZM12.334 5.76007L10.0007 7.09341L7.66732 5.76007V3.0934L10.0007 1.76007L12.334 3.0934V5.76007Z" fill="#2F5597"/>
</svg>
