<svg width="40" height="40" viewBox="0 0 40 40" fill="none" xmlns="http://www.w3.org/2000/svg">
<g clip-path="url(#clip0)">
<path d="M35.3333 20.6675H33.3333V17.3215C35.0097 16.0666 35.9976 14.0953 35.9999 12.0009C37.4368 12.0019 38.6148 10.8616 38.6607 9.4254C38.7066 7.98921 37.6038 6.776 36.1698 6.68518L36.4166 4.71253C36.5891 3.30531 35.7812 1.96157 34.4573 1.45441C33.898 0.547514 32.9078 -0.00293953 31.8424 0.000966697H24C22.7943 -0.00293953 21.7366 0.804999 21.4238 1.96938C21.111 3.13376 21.6211 4.36292 22.6667 4.96383V6.6676C21.1937 6.6676 20 7.8616 20 9.33425C20 10.8072 21.1937 12.0009 22.6667 12.0009C22.6686 14.0953 23.6566 16.0666 25.3333 17.3215V20.6675H23.3333C22.803 20.6675 22.277 20.7577 21.7773 20.9345L22.2226 22.191C22.5791 22.065 22.9547 22.0005 23.3333 22.0009H26.9212L27.9798 24.119L26.6718 34.5854C26.6465 34.7895 26.7164 34.994 26.8619 35.1395L28.8619 37.1395C29.122 37.3999 29.5442 37.3999 29.8046 37.1395L31.8046 35.1395C31.9498 34.994 32.0201 34.7895 31.9944 34.5854L30.6865 24.119L31.7451 22.0009H35.3333C37.1731 22.0031 38.6643 23.4943 38.6666 25.3342V40.0008H39.9999V25.3342C39.997 22.7583 37.9091 20.6705 35.3333 20.6675ZM35.9999 8.04227L36.0051 8.00093C36.7415 8.00255 37.3372 8.60053 37.3359 9.33718C37.3342 10.0735 36.7362 10.6692 35.9999 10.6676V8.04227ZM22.6667 10.6676C21.93 10.6676 21.3333 10.0709 21.3333 9.33425C21.3333 8.59793 21.93 8.00093 22.6667 8.00093V10.6676ZM22.6667 2.66762C22.6667 1.9313 23.2633 1.33429 24 1.33429H31.8424C32.5042 1.33169 33.1096 1.70604 33.4033 2.29913C33.4824 2.45668 33.6207 2.57647 33.7877 2.63246L33.913 2.67511C34.7011 2.9391 35.1946 3.72133 35.093 4.54652L34.9924 5.35315L34.6191 4.41989C34.5178 4.16664 34.2724 4.00095 33.9999 4.00095H24C23.2633 4.00095 22.6667 3.40427 22.6667 2.66762ZM29.3333 35.7251L28.0351 34.4269L29.2552 24.6675H29.4111L30.6311 34.4269L29.3333 35.7251ZM28.4117 22.0009H30.2545L29.5878 23.3342H29.0784L28.4117 22.0009ZM31.9999 20.6675H26.6666V18.107C28.3658 18.8544 30.3007 18.8544 31.9999 18.107V20.6675ZM29.3333 17.3342C26.389 17.331 24.0032 14.9452 24 12.0009V5.33427H33.5484L34.6666 8.12983V12.0009C34.663 14.9452 32.2773 17.331 29.3333 17.3342Z" fill="#314252" fill-opacity="0.5"/>
<path d="M0.667351 39.9998H20.6673C21.0354 39.9998 21.3339 39.7013 21.3339 39.3331V28.5734C22.2447 28.8443 23.2236 28.4621 23.7092 27.6451C24.1952 26.8283 24.064 25.7857 23.3912 25.1148L18.1077 19.8313C20.5263 16.4732 20.6253 11.9723 18.357 8.51103C16.0888 5.04979 11.9222 3.34407 7.87793 4.22102C3.83368 5.09797 0.747754 8.3766 0.117223 12.4664C-0.513633 16.5562 1.44111 20.6119 5.03321 22.6666H2.00068C1.63252 22.6666 1.33401 22.9651 1.33401 23.3332V25.3332H0.667351C0.299189 25.3332 0.000687431 25.6317 0.000687431 25.9999V39.3331C0.000687431 39.7013 0.299189 39.9998 0.667351 39.9998ZM20.0006 23.6093L22.4485 26.0575C22.6624 26.271 22.7265 26.5926 22.6106 26.8719C22.495 27.1516 22.2223 27.3335 21.9198 27.3332C21.7213 27.3342 21.5309 27.2554 21.3912 27.1148L20.0006 25.7242V23.6093ZM19.0579 22.6666H16.943L16.1477 21.8713C16.541 21.5631 16.9108 21.2261 17.2545 20.8635L19.0579 22.6666ZM1.33401 13.9999C1.33401 9.21351 5.2142 5.33332 10.0006 5.33332C14.7871 5.33332 18.6673 9.21351 18.6673 13.9999C18.6673 18.7864 14.7871 22.6666 10.0006 22.6666C5.21648 22.661 1.33955 18.7841 1.33401 13.9999ZM15.0579 22.6666H14.9677C14.9873 22.6561 15.0052 22.6441 15.0237 22.6327L15.0579 22.6666ZM2.66734 23.9999H18.6673V27.3332H17.3339V25.3332H16.0006V27.3332H14.6673V25.3332H13.334V27.3332H12.0006V25.3332H10.6673V27.3332H9.33397V25.3332H8.00065V27.3332H7.69043L6.5573 25.6301C6.43327 25.4439 6.22396 25.3326 6.00066 25.3332H2.66734V23.9999ZM1.33401 26.6665H5.64389L6.77735 28.37C6.90137 28.5559 7.11035 28.6675 7.33398 28.6665H20.0006V38.6665H1.33401V26.6665Z" fill="#314252" fill-opacity="0.5"/>
<path d="M27.334 9.00006C27.334 9.55247 26.8861 10.0001 26.334 10.0001C25.7816 10.0001 25.334 9.55247 25.334 9.00006C25.334 8.44798 25.7816 8.00006 26.334 8.00006C26.8861 8.00006 27.334 8.44798 27.334 9.00006Z" fill="#314252" fill-opacity="0.5"/>
<path d="M33.334 9.00006C33.334 9.55247 32.8861 10.0001 32.334 10.0001C31.7816 10.0001 31.334 9.55247 31.334 9.00006C31.334 8.44798 31.7816 8.00006 32.334 8.00006C32.8861 8.00006 33.334 8.44798 33.334 9.00006Z" fill="#314252" fill-opacity="0.5"/>
<path d="M17.3346 14C17.3346 9.95019 14.0511 6.66666 10.0013 6.66666C5.95117 6.66666 2.66797 9.95019 2.66797 14C2.66797 18.0501 5.95117 21.3333 10.0013 21.3333C14.0492 21.3288 17.3298 18.0482 17.3346 14ZM4.0013 14C4.0013 10.6865 6.6875 7.99999 10.0013 7.99999C13.3148 7.99999 16.0013 10.6865 16.0013 14C16.0013 17.3138 13.3148 20 10.0013 20C6.68913 19.9964 4.00488 17.3122 4.0013 14Z" fill="#314252" fill-opacity="0.5"/>
<path d="M10.0007 9.33334C7.42448 9.33627 5.33691 11.4242 5.33398 14H6.66732C6.66927 12.1602 8.16048 10.669 10.0007 10.6667V9.33334Z" fill="#314252" fill-opacity="0.5"/>
<path d="M2.66797 28H4.66797V29.3333H2.66797V28Z" fill="#314252" fill-opacity="0.5"/>
<path d="M32.666 29.3332H37.3327V30.6666H32.666V29.3332Z" fill="#314252" fill-opacity="0.5"/>
</g>
<defs>
<clipPath id="clip0">
<rect width="40" height="40" fill="white"/>
</clipPath>
</defs>
</svg>
