<svg width="40" height="40" viewBox="0 0 40 40" fill="none" xmlns="http://www.w3.org/2000/svg">
<g clip-path="url(#clip0)">
<path d="M0.133347 33.7633C0.25935 33.9314 0.45671 34.0303 0.66677 34.0303H39.3331C39.5441 34.0303 39.7423 33.9305 39.8678 33.7613C39.9942 33.5925 40.0323 33.3741 39.9719 33.1722L37.9718 26.5058C37.8877 26.2233 37.6277 26.0303 37.3332 26.0303H34.496L32.6385 19.8388C32.5541 19.5566 32.2945 19.3637 32 19.3637H29.1626L27.305 13.1724C27.2209 12.8901 26.9609 12.6968 26.6664 12.6968H13.3332C13.0389 12.6968 12.7792 12.8901 12.6945 13.1724L10.8374 19.3637H7.99999C7.70554 19.3637 7.44568 19.5566 7.36146 19.8388L5.50417 26.0303H2.66644C2.37232 26.0303 2.11246 26.2233 2.0279 26.5058L0.0278992 33.1722C-0.0325954 33.3746 0.00650886 33.5943 0.133347 33.7633ZM12.2294 32.6971L13.8292 27.3635H19.5038L21.1041 32.6971H12.2294ZM11.3332 31.0435L10.2293 27.3635H12.4373L11.3332 31.0435ZM24.8374 20.6968L26.4373 26.0303H17.5628L19.1626 20.6968H24.8374ZM23.1041 27.3635L21.9998 31.0435L20.8961 27.3635H23.1041ZM16.6664 24.3769L15.5628 20.6968H17.7709L16.6664 24.3769ZM22.8959 32.6971L24.496 27.3635H30.1706L31.7709 32.6971H22.8959ZM38.4373 32.6971H33.1626L31.5628 27.3635H36.8376L38.4373 32.6971ZM33.1039 26.0303H27.8292L26.2294 20.6968H31.5042L33.1039 26.0303ZM27.7709 19.3637H22.4958L20.8961 14.0303H26.1708L27.7709 19.3637ZM13.8292 14.0303H19.5038L21.1041 19.3637H12.2294L13.8292 14.0303ZM8.49582 20.6968H14.1706L15.7705 26.0303H6.89605L8.49582 20.6968ZM3.16276 27.3635H8.83756L10.4373 32.6971H1.56283L3.16276 27.3635Z" fill="#314252" fill-opacity="0.5"/>
<path d="M8.67592 12.1395C8.7304 12.4602 9.00814 12.6952 9.33334 12.6952C9.65887 12.6952 9.93645 12.4602 9.99093 12.1395C10.1721 11.0536 11.0232 10.2022 12.1094 10.0209C12.4301 9.96654 12.6652 9.68897 12.6652 9.3636C12.6652 9.03823 12.4301 8.76049 12.1094 8.70601C11.0232 8.5247 10.1721 7.67359 9.99093 6.58769C9.93645 6.26667 9.65887 6.03204 9.33334 6.03204C9.00814 6.03204 8.7304 6.26667 8.67592 6.58769C8.4946 7.67359 7.6435 8.5247 6.5576 8.70601C6.23658 8.76049 6.00195 9.03823 6.00195 9.3636C6.00195 9.68897 6.23658 9.96654 6.5576 10.0209C7.6435 10.2022 8.4946 11.0536 8.67592 12.1395ZM9.33334 8.41156C9.59353 8.78188 9.91539 9.10357 10.2855 9.3636C9.91539 9.62363 9.59353 9.94566 9.33334 10.3156C9.07348 9.94566 8.75129 9.62363 8.38163 9.3636C8.75129 9.10357 9.07348 8.78188 9.33334 8.41156Z" fill="#314252" fill-opacity="0.5"/>
</g>
<defs>
<clipPath id="clip0">
<rect width="40" height="40" fill="white"/>
</clipPath>
</defs>
</svg>
