<svg width="40" height="40" viewBox="0 0 40 40" fill="none" xmlns="http://www.w3.org/2000/svg">
<path d="M40 24.6667C40 24.2983 39.7017 24 39.3333 24H36.6667V10.6667C36.6647 10.6537 36.662 10.6407 36.6585 10.628C36.6558 10.5648 36.6433 10.5025 36.6213 10.4433C36.6125 10.419 36.6025 10.3957 36.5908 10.3727C36.5663 10.3247 36.5358 10.28 36.5 10.2393C36.4853 10.2192 36.469 10.2008 36.451 10.1833C36.4433 10.176 36.4387 10.1663 36.4308 10.1592L28 3.024V0.666667C28 0.298333 27.7017 0 27.3333 0H23.3333C22.965 0 22.6667 0.298333 22.6667 0.666667V2.66667H12.6667C12.5935 2.66683 12.5208 2.67967 12.452 2.70417C12.4325 2.71067 12.4163 2.72333 12.3968 2.7315C12.3492 2.7525 12.3047 2.779 12.2633 2.81033C12.2558 2.81667 12.2468 2.81867 12.2393 2.82467L3.57267 10.158C3.42183 10.2837 3.33433 10.47 3.33333 10.6667V24H0.666667C0.298333 24 0 24.2983 0 24.6667C0.004 27.3108 1.73583 29.6418 4.26667 30.4085C3.673 30.9453 3.3335 31.7083 3.33333 32.5087V32.6533C3.32917 33.733 3.93917 34.7203 4.906 35.2L12.6793 39.0858C13.8833 39.6858 15.21 39.9987 16.5552 40H39.3333C39.7017 40 40 39.7017 40 39.3333V30C40 29.6317 39.7017 29.3333 39.3333 29.3333H37.7627C39.1768 28.1968 39.9998 26.4808 40 24.6667ZM22 11.3333H35.3333V24H22V11.3333ZM24 1.33333H26.6667V5.33333H24V1.33333ZM22.6667 4V6C22.6667 6.36833 22.965 6.66667 23.3333 6.66667H27.3333C27.7017 6.66667 28 6.36833 28 6V4.77067L34.18 10H21.5802L14.4867 4H22.6667ZM4.66667 10.976L12.6667 4.20667L20.6667 10.976V24H16V15.3333C16 14.965 15.7017 14.6667 15.3333 14.6667H10C9.63167 14.6667 9.33333 14.965 9.33333 15.3333V24H4.66667V10.976ZM14.6667 24H10.6667V16H14.6667V24ZM13.426 32.6983L8.98983 30.6667H13.7042C13.3385 31.2782 13.238 32.0117 13.426 32.6983ZM13.276 37.8918L5.5025 34.0058C4.98917 33.7513 4.66433 33.2268 4.66667 32.6533V32.5087C4.665 31.9933 4.92683 31.5127 5.36033 31.2342C5.794 30.9553 6.33983 30.9177 6.808 31.1333L14.3885 34.6053C14.476 34.6457 14.5707 34.6665 14.6667 34.6667H21.3333C21.7017 34.6667 22 34.3683 22 34C22 33.6317 21.7017 33.3333 21.3333 33.3333H16C15.2635 33.3333 14.6667 32.7365 14.6667 32C14.6667 31.2635 15.2635 30.6667 16 30.6667H21.1115C21.2227 30.6667 21.3323 30.6385 21.43 30.5853L21.6003 30.4925C24.2082 29.0573 27.3603 29.021 30 30.396V38.6667H16.5552C15.4168 38.6657 14.2947 38.4003 13.276 37.8918ZM38.6667 30.6667V38.6667H31.3333V30.6667H38.6667ZM30.8313 29.3333C27.7625 27.6367 24.0377 27.6323 20.9647 29.3213L16 29.3333H6C3.68133 29.3303 1.715 27.628 1.38033 25.3333H38.6197C38.285 27.628 36.3187 29.3303 34 29.3333H30.8313Z" fill="#314252" fill-opacity="0.5"/>
<path d="M32.666 36H33.9993V37.3333H32.666V36Z" fill="#314252" fill-opacity="0.5"/>
<path d="M31.9993 14.6667H25.3327C24.9643 14.6667 24.666 14.965 24.666 15.3334V19.3334C24.666 19.7017 24.9643 20 25.3327 20H31.9993C32.3677 20 32.666 19.7017 32.666 19.3334V15.3334C32.666 14.965 32.3677 14.6667 31.9993 14.6667ZM31.3327 18.6667H25.9993V16H31.3327V18.6667Z" fill="#314252" fill-opacity="0.5"/>
</svg>
