<svg width="40" height="40" viewBox="0 0 40 40" fill="none" xmlns="http://www.w3.org/2000/svg">
<path d="M6.66602 2.66669H7.99935V4.00002H6.66602V2.66669Z" fill="#314252" fill-opacity="0.5"/>
<path d="M9.33398 2.66669H10.6673V4.00002H9.33398V2.66669Z" fill="#314252" fill-opacity="0.5"/>
<path d="M12 2.66669H13.3333V4.00002H12V2.66669Z" fill="#314252" fill-opacity="0.5"/>
<path d="M21.059 14.8665L22.3312 14.4668C21.616 12.1715 19.8162 10.376 17.519 9.66667L18.6199 6.91471C18.7023 6.70931 18.6772 6.47624 18.5528 6.29297C18.4288 6.1097 18.2218 5.99968 18.0004 6H12.6671C12.4457 6 12.239 6.1097 12.115 6.29264C11.991 6.47591 11.9656 6.70866 12.0476 6.91406L13.1485 9.66667C10.0887 10.6263 8.00467 13.46 8.00044 16.6667V23.0573L7.33377 23.724C6.95259 24.1055 6.83866 24.6787 7.04471 25.1768C7.25109 25.6751 7.73709 26 8.27648 26H14.6671V24.6667H8.27648L9.13846 23.8047C9.26346 23.6797 9.33377 23.5101 9.33377 23.3333V16.6667C9.33117 13.7025 11.4936 11.1807 14.4233 10.7308C17.3533 10.2809 20.1726 12.0381 21.059 14.8665ZM16.1925 9.38867C15.6215 9.31543 15.0434 9.31543 14.4724 9.38867L13.6518 7.33333H17.0157L16.1925 9.38867Z" fill="#314252" fill-opacity="0.5"/>
<path d="M22.6673 7.33331H24.0006V5.99998H25.334V4.66665H24.0006V3.33331H22.6673V4.66665H21.334V5.99998H22.6673V7.33331Z" fill="#314252" fill-opacity="0.5"/>
<path d="M14.4162 16H17.3335V14.6666H16.0001V13.3333H14.6668V14.6666H14.4162C13.505 14.6653 12.7453 15.3636 12.6701 16.2718C12.5952 17.18 13.2296 17.9938 14.1287 18.1419L16.3195 18.5065C16.3738 18.5156 16.4259 18.5355 16.4721 18.5654L17.1801 17.4319C16.9845 17.3092 16.7661 17.2265 16.5382 17.1888L14.3481 16.8239C14.1339 16.7894 13.9826 16.596 13.9998 16.3799C14.0174 16.1637 14.1981 15.997 14.4148 15.9974L14.4162 16Z" fill="#314252" fill-opacity="0.5"/>
<path d="M16.0006 22V20.6666H16.2513V19.3333H13.334V20.6666H14.6673V22H16.0006Z" fill="#314252" fill-opacity="0.5"/>
<path d="M22.3053 35.8086L21.028 36.1914L21.7705 38.6667H12.8962L14.4961 33.3333H17.3333V32H2.66667C1.93034 32 1.33333 31.403 1.33333 30.6667V29.3333H15.3333V28H1.33333V8C1.33333 7.26367 1.93034 6.66667 2.66667 6.66667H4V26.6667H5.33333V2.66667C5.33333 1.93034 5.93034 1.33333 6.66667 1.33333H28C28.7363 1.33333 29.3333 1.93034 29.3333 2.66667V14.6667H30.6667V6.66667H32C32.7363 6.66667 33.3333 7.26367 33.3333 8V17.3333H34.6667V8C34.6667 6.52734 33.4727 5.33333 32 5.33333H30.6667V2.66667C30.6667 1.19401 29.4727 0 28 0H6.66667C5.19401 0 4 1.19401 4 2.66667V5.33333H2.66667C1.19401 5.33333 0 6.52734 0 8V30.6667C0 32.1393 1.19401 33.3333 2.66667 33.3333H13.1038L11.5039 38.6667H10V40H24.6667V38.6667H23.1628L22.3053 35.8086Z" fill="#314252" fill-opacity="0.5"/>
<path d="M34.1064 31.1647C37.1087 26.9987 36.4808 21.2379 32.6507 17.817C28.821 14.3961 23.0264 14.4199 19.2243 17.8717C15.4225 21.3235 14.8408 27.0888 17.877 31.2304C20.9134 35.3721 26.5866 36.5521 31.0225 33.9645L36.4469 39.3893C37.042 39.9844 37.9365 40.1624 38.7139 39.8408C39.4915 39.5189 39.9987 38.7607 39.999 37.9193C39.9974 37.3678 39.7786 36.8392 39.3896 36.4479L34.1064 31.1647ZM31.137 32.1953L30.7731 32.5592C27.0472 35.0211 22.0612 34.2519 19.2503 30.7819C16.4395 27.3118 16.7223 22.2747 19.904 19.1413C23.0856 16.0078 28.1263 15.8017 31.5534 18.665C34.9801 21.5283 35.6732 26.5254 33.1549 30.2132L33.137 30.1953L32.1943 31.138L32.3102 31.2539C31.9681 31.6188 31.5947 31.9531 31.195 32.2539L31.137 32.1953ZM37.9183 38.6666C37.72 38.6673 37.5296 38.5885 37.3896 38.4479L32.1465 33.2047C32.5394 32.8965 32.9095 32.5596 33.2529 32.1966L38.4469 37.3906C38.6608 37.6045 38.7249 37.9261 38.6094 38.2054C38.4935 38.4847 38.2207 38.667 37.9183 38.6666Z" fill="#314252" fill-opacity="0.5"/>
<path d="M25.9993 18C21.9492 18 18.666 21.2832 18.666 25.3333C18.666 29.3835 21.9492 32.6667 25.9993 32.6667C30.0495 32.6667 33.3327 29.3835 33.3327 25.3333C33.3278 21.2852 30.0475 18.0049 25.9993 18ZM25.9993 31.3333C22.6855 31.3333 19.9993 28.6471 19.9993 25.3333C19.9993 22.0195 22.6855 19.3333 25.9993 19.3333C29.3132 19.3333 31.9993 22.0195 31.9993 25.3333C31.9958 28.6455 29.3115 31.3298 25.9993 31.3333Z" fill="#314252" fill-opacity="0.5"/>
<path d="M21.334 25.3334H22.6673C22.6696 23.4932 24.1605 22.0023 26.0007 22V20.6667C23.4245 20.6696 21.3369 22.7572 21.334 25.3334Z" fill="#314252" fill-opacity="0.5"/>
<path d="M24.9993 13.3334C26.2881 13.3334 27.3327 12.2888 27.3327 11C27.3327 9.71128 26.2881 8.66669 24.9993 8.66669C23.7106 8.66669 22.666 9.71128 22.666 11C22.666 12.2888 23.7106 13.3334 24.9993 13.3334ZM24.9993 10C25.5518 10 25.9994 10.4476 25.9994 11C25.9994 11.5524 25.5518 12 24.9993 12C24.4469 12 23.9993 11.5524 23.9993 11C23.9993 10.4476 24.4469 10 24.9993 10Z" fill="#314252" fill-opacity="0.5"/>
</svg>
