<svg width="40" height="40" viewBox="0 0 40 40" fill="none" xmlns="http://www.w3.org/2000/svg">
<g clip-path="url(#clip0)">
<path d="M2.66667 37.3333H8V36H2.66667C1.93034 36 1.33333 35.403 1.33333 34.6667V6.66667C1.33333 5.93034 1.93034 5.33333 2.66667 5.33333H6.04948C5.89062 5.61035 5.78288 5.91374 5.73079 6.22852L5.65723 6.66667H3.33333C2.96517 6.66667 2.66667 6.96517 2.66667 7.33333V34C2.66667 34.3682 2.96517 34.6667 3.33333 34.6667H8V33.3333H4V8H5.43522L5.34277 8.55729C5.31055 8.75065 5.36491 8.94824 5.49154 9.09766C5.61816 9.24707 5.80404 9.33333 6 9.33333H20.6667C20.8626 9.33333 21.0485 9.24707 21.1751 9.09766C21.3018 8.94824 21.3561 8.75065 21.3239 8.55729L21.2314 8H22.6667V14H24V7.33333C24 6.96517 23.7015 6.66667 23.3333 6.66667H21.0094L20.9359 6.22852C20.8838 5.91374 20.776 5.61035 20.6172 5.33333H24C24.7363 5.33333 25.3333 5.93034 25.3333 6.66667V14H26.6667V6.66667C26.6667 5.19401 25.4727 4 24 4H16.6667V3.33333C16.6667 1.49251 15.1742 0 13.3333 0C11.4925 0 10 1.49251 10 3.33333V4H2.66667C1.19401 4 0 5.19401 0 6.66667V34.6667C0 36.1393 1.19401 37.3333 2.66667 37.3333ZM7.04525 6.44727C7.15267 5.80404 7.70931 5.33301 8.36133 5.33333H10.6667C11.0348 5.33333 11.3333 5.03483 11.3333 4.66667V3.33333C11.3333 2.22884 12.2288 1.33333 13.3333 1.33333C14.4378 1.33333 15.3333 2.22884 15.3333 3.33333V4.66667C15.3333 5.03483 15.6318 5.33333 16 5.33333H18.3053C18.9574 5.33301 19.514 5.80404 19.6214 6.44727L19.8799 8H6.78678L7.04525 6.44727Z" fill="#314252" fill-opacity="0.5"/>
<path d="M12.666 2.66669H13.9993V4.00002H12.666V2.66669Z" fill="#314252" fill-opacity="0.5"/>
<path d="M9.52929 11.5286L8.19075 12.8665C7.92382 12.7363 7.63086 12.6679 7.33398 12.6666C6.22949 12.6666 5.33398 13.5622 5.33398 14.6666C5.33398 15.7711 6.22949 16.6666 7.33398 16.6666C8.43847 16.6666 9.33398 15.7711 9.33398 14.6666C9.33268 14.3698 9.26432 14.0768 9.13411 13.8099L10.4726 12.4713L9.52929 11.5286ZM7.33398 15.3333C7.06445 15.3333 6.82129 15.1709 6.7181 14.9219C6.61491 14.6728 6.6722 14.386 6.86263 14.1953L7.80534 15.138C7.68034 15.263 7.51074 15.3333 7.33398 15.3333Z" fill="#314252" fill-opacity="0.5"/>
<path d="M10.666 12.6667H13.3327V14H10.666V12.6667Z" fill="#314252" fill-opacity="0.5"/>
<path d="M14.666 12.6667H19.3327V14H14.666V12.6667Z" fill="#314252" fill-opacity="0.5"/>
<path d="M10.666 15.3333H19.9993V16.6666H10.666V15.3333Z" fill="#314252" fill-opacity="0.5"/>
<path d="M7.33398 19.3333C6.22949 19.3333 5.33398 20.2288 5.33398 21.3333C5.33398 22.4378 6.22949 23.3333 7.33398 23.3333C8.43848 23.3333 9.33398 22.4378 9.33398 21.3333C9.33398 20.2288 8.43848 19.3333 7.33398 19.3333ZM7.33398 22C6.96582 22 6.66732 21.7015 6.66732 21.3333C6.66732 20.9651 6.96582 20.6666 7.33398 20.6666C7.70215 20.6666 8.00065 20.9651 8.00065 21.3333C8.00065 21.7015 7.70215 22 7.33398 22Z" fill="#314252" fill-opacity="0.5"/>
<path d="M10.666 19.3333H11.9993V20.6666H10.666V19.3333Z" fill="#314252" fill-opacity="0.5"/>
<path d="M13.334 19.3333H14.6673V20.6666H13.334V19.3333Z" fill="#314252" fill-opacity="0.5"/>
<path d="M10.666 22H12.666V23.3333H10.666V22Z" fill="#314252" fill-opacity="0.5"/>
<path d="M7.33398 26C6.22949 26 5.33398 26.8955 5.33398 28C5.33398 29.1045 6.22949 30 7.33398 30C8.43848 30 9.33398 29.1045 9.33398 28C9.33398 26.8955 8.43848 26 7.33398 26ZM7.33398 28.6667C6.96582 28.6667 6.66732 28.3682 6.66732 28C6.66732 27.6318 6.96582 27.3333 7.33398 27.3333C7.70215 27.3333 8.00065 27.6318 8.00065 28C8.00065 28.3682 7.70215 28.6667 7.33398 28.6667Z" fill="#314252" fill-opacity="0.5"/>
<path d="M10.666 26H11.9993V27.3333H10.666V26Z" fill="#314252" fill-opacity="0.5"/>
<path d="M37.5324 33.3334H37.3325V30C37.3579 24.2256 33.4503 19.1748 27.8546 17.7494C27.4533 16.3203 26.1502 15.3327 24.6658 15.3327C23.1815 15.3327 21.8784 16.3203 21.477 17.7494C16.3615 19.0528 12.6053 23.4141 12.075 28.6667H10.6658V30H11.9992V33.3334H11.7993C10.5236 33.3493 9.47052 34.3353 9.37091 35.6071C9.2713 36.8789 10.1577 38.0169 11.4152 38.2315L20.5864 39.68C23.2892 40.1068 26.0425 40.1068 28.7453 39.68L37.9191 38.2315C39.1772 38.0166 40.0636 36.8779 39.963 35.6058C39.8628 34.3337 38.8084 33.348 37.5324 33.3334ZM22.6658 18.6667C22.6658 17.5622 23.5613 16.6667 24.6658 16.6667C25.7703 16.6667 26.6658 17.5622 26.6658 18.6667V29.3334H22.6658V18.6667ZM13.3325 30C13.3152 26.0817 15.3351 22.4362 18.6658 20.3727V29.3334H19.9992V19.6719C20.4328 19.4766 20.8781 19.3086 21.3325 19.1693V30C21.3325 30.3682 21.631 30.6667 21.9992 30.6667H27.3325C27.7007 30.6667 27.9992 30.3682 27.9992 30V19.1693C28.4536 19.3086 28.8989 19.4766 29.3325 19.6719V29.3334H30.6658V20.3727C33.9966 22.4362 36.0164 26.0817 35.9992 30V33.3334H13.3325V30ZM37.7111 36.9147L28.5379 38.3633C25.9721 38.7653 23.3595 38.7653 20.7938 38.3633L11.6206 36.9147C11.0483 36.8102 10.6479 36.2897 10.6942 35.71C10.7401 35.1302 11.2176 34.6794 11.7993 34.6667H37.5324C38.1134 34.6807 38.59 35.1319 38.6352 35.7113C38.6808 36.2907 38.2804 36.8106 37.7085 36.9147H37.7111Z" fill="#314252" fill-opacity="0.5"/>
</g>
<defs>
<clipPath id="clip0">
<rect width="40" height="40" fill="white"/>
</clipPath>
</defs>
</svg>
