<svg width="40" height="40" viewBox="0 0 40 40" fill="none" xmlns="http://www.w3.org/2000/svg">
<g clip-path="url(#clip0)">
<path d="M0.666656 39.9999H11.3332C11.7013 39.9999 11.9998 39.7014 11.9998 39.3333V35.3334C11.9998 34.9652 11.7013 34.6667 11.3332 34.6667H0.666656C0.298498 34.6667 0 34.9652 0 35.3334V39.3333C0 39.7014 0.298498 39.9999 0.666656 39.9999ZM1.33331 36H10.6665V38.6666H1.33331V36Z" fill="#314252" fill-opacity="0.5"/>
<path d="M0.666656 22.0003H1.33331V24.5097C1.33331 25.2011 1.80857 25.8017 2.48141 25.9605C3.15425 26.1194 3.84825 25.7945 4.15716 25.1764L4.41204 24.6669H8.66653C10.5067 24.6646 11.9975 23.1738 11.9998 21.3336V20.0003H17.3331V24.6669C17.3331 25.0351 17.6316 25.3336 17.9997 25.3336H21.1758C21.8665 25.3329 22.4664 24.8577 22.6253 24.1855C22.7838 23.5133 22.4599 22.8199 21.8424 22.5104L21.333 22.2549V19.3337C21.3307 17.4935 19.8399 16.0027 17.9997 16.0004H15.9998V10.6671H17.9997C19.8399 10.6649 21.3307 9.174 21.333 7.33386V2.00061C21.333 1.63245 21.0345 1.33395 20.6663 1.33395H17.9997C17.6316 1.33395 17.3331 1.63245 17.3331 2.00061V6.6672H14.6492C15.0903 6.09364 15.3305 5.39086 15.3331 4.66723V3.33392C15.3331 1.49313 13.8406 0.000640869 11.9998 0.000640869C10.159 0.000640869 8.66653 1.49313 8.66653 3.33392V4.66723C8.66914 5.39086 8.90937 6.09364 9.35044 6.6672H5.99991C4.15977 6.66948 2.6689 8.16034 2.66663 10.0005V14.6671H0.666656C0.298498 14.6671 0 14.9656 0 15.3337V21.3336C0 21.7018 0.298498 22.0003 0.666656 22.0003ZM17.9997 17.3337C19.1042 17.3337 19.9997 18.2292 19.9997 19.3337V22.667C19.9984 22.9209 20.1413 23.1536 20.3685 23.2669L21.2464 23.7057C21.3115 23.7382 21.3457 23.8115 21.3291 23.8824C21.3122 23.9537 21.2487 24.0035 21.1758 24.0035H18.6664V19.3337C18.6664 18.9655 18.3679 18.667 17.9997 18.667H11.3332C10.965 18.667 10.6665 18.9655 10.6665 19.3337V21.3336C10.6665 22.4381 9.77101 23.3336 8.66653 23.3336H3.99994C3.74734 23.3336 3.51622 23.4762 3.40327 23.7024L2.96447 24.5797C2.92736 24.6363 2.85868 24.6637 2.7926 24.649C2.72652 24.6344 2.67639 24.58 2.66663 24.513V22.0003H8.66653C9.03469 22.0003 9.33319 21.7018 9.33319 21.3336V17.3337H17.9997ZM7.99988 14.6671H6.66656V10.6671H7.99988V14.6671ZM18.6664 2.66727H19.9997V4.00058H18.6664V2.66727ZM9.99984 3.33392C9.99984 2.22945 10.8953 1.33395 11.9998 1.33395C13.1043 1.33395 13.9998 2.22945 13.9998 3.33392V4.66723C13.9998 5.77171 13.1043 6.6672 11.9998 6.6672C10.8953 6.6672 9.99984 5.77171 9.99984 4.66723V3.33392ZM3.99994 10.0005C3.99994 8.89601 4.89543 8.00052 5.99991 8.00052H11.3332V14.6671H12.6665V8.00052H17.9997C18.3679 8.00052 18.6664 7.70202 18.6664 7.33386V5.33389H19.9997V7.33386C19.9997 8.43833 19.1042 9.33383 17.9997 9.33383H15.3331C14.9649 9.33383 14.6664 9.63233 14.6664 10.0005V16.0004H9.33319V10.0005C9.33319 9.63233 9.03469 9.33383 8.66653 9.33383H5.99991C5.63175 9.33383 5.33325 9.63233 5.33325 10.0005V12.0005H3.99994V10.0005ZM3.99994 13.3338H5.33325V14.6671H3.99994V13.3338ZM1.33331 16.0004H7.99988V17.4356L4.66659 17.9909L1.33331 17.4356V16.0004ZM1.33331 18.7871L4.55657 19.3242C4.62949 19.3369 4.7037 19.3369 4.77662 19.3242L7.99988 18.7871V20.667H1.33331V18.7871Z" fill="#314252" fill-opacity="0.5"/>
<path d="M39.631 3.93387C39.8576 3.82125 40.0005 3.59013 40.0005 3.3372C40.0005 3.0846 39.8576 2.85349 39.631 2.74053L34.2978 0.0739114C34.0917 -0.0289514 33.8469 -0.0182094 33.6506 0.102557C33.4543 0.223323 33.3342 0.436861 33.3333 0.667326V18.667H28.6667C28.2985 18.667 28 18.9655 28 19.3337V39.3334C28 39.7015 28.2985 40 28.6667 40H39.3332C39.7013 40 39.9998 39.7015 39.9998 39.3334V19.3337C39.9998 18.9655 39.7013 18.667 39.3332 18.667H34.6666V6.41268L39.631 3.93387ZM34.6666 1.74608L37.8426 3.33395L34.6666 4.92181V1.74608ZM38.6665 38.6667H29.3333V36.0001H38.6665V38.6667ZM38.6665 34.6668H29.3333V32.0002H38.6665V34.6668ZM38.6665 30.6668H29.3333V28.0002H38.6665V30.6668ZM38.6665 26.6669H29.3333V24.0003H38.6665V26.6669ZM38.6665 20.0003V22.667H29.3333V20.0003H38.6665Z" fill="#314252" fill-opacity="0.5"/>
<path d="M14.6667 26.6669C14.2985 26.6669 14 26.9654 14 27.3335V39.3333C14 39.7015 14.2985 40 14.6667 40H25.3331C25.7013 40 25.9998 39.7015 25.9998 39.3333V27.3335C25.9998 26.9654 25.7013 26.6669 25.3331 26.6669H14.6667ZM24.6665 38.6667H15.3333V36H24.6665V38.6667ZM24.6665 34.6667H15.3333V32.0001H24.6665V34.6667ZM24.6665 30.6668H15.3333V28.0002H24.6665V30.6668Z" fill="#314252" fill-opacity="0.5"/>
</g>
<defs>
<clipPath id="clip0">
<rect width="40" height="40" fill="white"/>
</clipPath>
</defs>
</svg>
