<svg width="508" height="92" viewBox="0 0 508 92" fill="none" xmlns="http://www.w3.org/2000/svg">
<path d="M207.85 26.708C207.651 26.49 207.388 26.3396 207.099 26.2776C194.568 23.8353 181.635 30.952 170.655 36.4372C164.714 39.4292 158.262 41.2732 151.637 41.8724C151.205 41.9112 150.771 41.8299 150.382 41.6373C149.993 41.4448 149.665 41.1486 149.435 40.7814C144.06 32.1131 134.671 28.86 131.307 27.9292C130.937 27.8327 130.591 27.6564 130.296 27.4126C130 27.1688 129.761 26.8635 129.596 26.5178C125.262 17.6094 110.658 15.4373 107.995 15.107C107.879 15.0912 107.772 15.0357 107.692 14.95C107.611 14.8644 107.563 14.7536 107.555 14.6365L107.395 11.4735C107.376 11.0768 107.455 10.6815 107.625 10.3224C112.92 -0.978282 105.353 0.0226685 103.671 0.0226685C103.046 0.0202188 102.429 0.164195 101.87 0.443068C97.2852 2.73524 100.869 8.97116 102.15 10.923C102.412 11.3229 102.539 11.7968 102.51 12.2743L102.39 14.2762C102.376 14.4654 102.295 14.6433 102.161 14.7774C102.026 14.9116 101.849 14.993 101.659 15.0069C85.6441 16.0078 79.8386 23.4349 78.5274 26.3777C78.1575 27.2372 77.596 28.0007 76.8858 28.6098L76.7657 28.7099C73.8429 31.2623 69.4888 31.1722 65.485 30.2514C60.2354 28.9015 55.4595 26.1308 51.6819 22.2438C20.7825 -7.98493 2.27496 11.0331 0.513292 20.352C-0.487658 25.8772 -1.48861 42.6131 13.9561 43.9344C29.4007 45.2556 35.7768 47.9382 42.383 51.4315C48.9893 54.9248 51.7519 59.359 48.7791 65.645C46.3969 70.6797 38.7396 70.0892 35.0361 69.0882C34.894 69.0512 34.7436 69.0632 34.6092 69.1225C34.4749 69.1817 34.3646 69.2846 34.2961 69.4145C34.2277 69.5444 34.2052 69.6936 34.2323 69.8379C34.2595 69.9822 34.3346 70.1131 34.4455 70.2093C48.8091 82.0806 58.0479 70.3594 60.8506 65.8552C60.9542 65.686 61.0982 65.5452 61.2696 65.4452C61.441 65.3452 61.6344 65.2893 61.8327 65.2824C62.031 65.2754 62.2279 65.3177 62.4058 65.4054C62.5838 65.4932 62.7372 65.6236 62.8525 65.7851C68.2576 72.6816 81.4101 78.4771 86.3348 80.479C86.5697 80.5736 86.7766 80.7264 86.9361 80.923C87.0956 81.1197 87.2024 81.3537 87.2465 81.603C87.2905 81.8524 87.2704 82.1088 87.1879 82.3482C87.1055 82.5876 86.9634 82.8021 86.7752 82.9714C85.9136 83.7036 85.0004 84.3726 84.0426 84.9733C83.0804 85.6234 81.9806 86.0414 80.8295 86.1945C76.1222 86.911 71.556 88.3599 67.2967 90.4886C67.1388 90.5704 67.0127 90.7025 66.9382 90.8639C66.8637 91.0254 66.8451 91.207 66.8852 91.3803C66.9254 91.5535 67.022 91.7084 67.16 91.8206C67.2979 91.9328 67.4693 91.9959 67.647 92H142.808C143.01 92.0008 143.205 91.9326 143.362 91.8068C143.519 91.681 143.629 91.5052 143.672 91.3086C143.715 91.112 143.69 90.9066 143.6 90.7264C143.51 90.5462 143.362 90.4022 143.179 90.3184C139.175 88.3966 134.32 87.7259 129.015 86.4948C125.182 85.5939 123.42 83.582 122.619 82.0505C122.504 81.8327 122.438 81.592 122.428 81.3457C122.417 81.0995 122.461 80.8539 122.557 80.6269C122.652 80.3998 122.798 80.1968 122.982 80.0328C123.166 79.8687 123.384 79.7476 123.62 79.6783C149.575 72.6716 186.68 44.4749 193.797 37.7885C197.661 34.1398 202.173 31.2442 207.099 29.2504C207.341 29.1616 207.559 29.0174 207.735 28.8295C207.911 28.6415 208.041 28.4149 208.114 28.1679C208.187 27.9208 208.201 27.6602 208.155 27.4067C208.109 27.1532 208.005 26.9139 207.85 26.708ZM55.5555 48.7289C54.8949 46.9072 47.9483 42.1126 31.9131 40.9615C15.8779 39.8104 12.5747 34.055 11.9141 33.054C11.2535 32.0531 9.10145 22.9444 13.7358 18.31C18.3702 13.6756 30.1014 15.8277 46.2968 25.9173C62.4921 36.0068 55.5555 48.7289 55.5555 48.7289Z" fill="#E3B550"/>
<path d="M0 24.4271C0 24.4271 0 23.3761 0.160152 22.245C0.465388 19.2135 1.64808 16.3368 3.56338 13.9672C7.35699 9.0325 14.9042 4.27798 25.5242 6.33994C36.4146 8.44194 46.1538 16.91 51.9093 22.4853C53.8445 24.4538 56.0484 26.1387 58.4555 27.49C54.0513 24.9476 33.672 13.6569 21.1201 13.6269C17.5294 13.6766 13.9876 14.4657 10.7155 15.9451C7.44336 17.4244 4.51122 19.5622 2.102 22.225C1.48872 23.0378 0.783354 23.7767 0 24.4271H0Z" fill="#FEEAB3"/>
<path d="M124.777 84.5821C126.02 85.5248 127.461 86.1718 128.991 86.4739C133.873 87.0189 138.643 88.3083 143.135 90.2976C143.318 90.3814 143.466 90.5254 143.556 90.7056C143.646 90.8857 143.671 91.0912 143.628 91.2878C143.585 91.4843 143.475 91.6602 143.318 91.7859C143.161 91.9117 142.966 91.9799 142.764 91.9791H67.6231C67.4453 91.9751 67.2739 91.912 67.136 91.7998C66.9981 91.6876 66.9014 91.5326 66.8613 91.3594C66.8211 91.1862 66.8398 91.0045 66.9143 90.8431C66.9888 90.6816 67.1149 90.5496 67.2727 90.4677C71.532 88.3391 76.0982 86.8902 80.8056 86.1736C81.9566 86.0205 83.0565 85.6025 84.0186 84.9525C84.0186 84.9525 92.0863 82.34 124.777 84.5821Z" fill="#F0CF63"/>
<path d="M77.5945 30.8706C75.963 44.9439 84.7714 58.1565 98.094 62.981C120.766 71.1788 135.76 68.0859 142.476 66.084C163.226 59.798 182.134 48.7375 193.795 37.7971C197.659 34.1448 202.17 31.2458 207.097 29.249C207.29 29.1726 207.467 29.0605 207.618 28.9187C208.839 27.8277 208.329 26.4964 206.717 26.2061C194.305 23.984 181.523 31.0007 170.683 36.4358C164.745 39.4346 158.291 41.2789 151.665 41.871C151.237 41.9082 150.807 41.827 150.422 41.6364C150.037 41.4457 149.712 41.1529 149.483 40.79C144.178 32.2218 134.939 28.9287 131.466 27.9678C131.057 27.8498 130.677 27.6483 130.349 27.3761C130.022 27.104 129.755 26.7669 129.564 26.3863C125.28 17.8482 111.547 15.566 108.304 15.1456C108.11 15.118 107.933 15.0239 107.801 14.8797C107.67 14.7354 107.593 14.5498 107.583 14.3549L107.433 11.5622C107.413 11.1106 107.503 10.6609 107.693 10.251C112.808 -0.759472 105.551 0.0212687 103.689 0.0412877C103.016 0.0441791 102.353 0.198108 101.747 0.491715C97.3133 2.7939 100.747 8.86967 102.058 10.8816C102.346 11.3345 102.483 11.8673 102.448 12.403L102.358 14.0045C102.33 14.2604 102.216 14.499 102.034 14.681C101.852 14.8629 101.613 14.9774 101.357 15.0055C87.3438 16.0064 81.248 21.852 79.136 25.2052C78.5645 26.0712 78.1668 27.0401 77.9649 28.0579C77.8248 29.0488 77.7347 29.6294 77.5945 30.8706Z" fill="#F2CC65"/>
<path d="M79.3557 28.3081H120.184C100.676 26.9267 90.9267 17.2275 90.9267 17.2275C84.2604 18.719 81.2575 21.892 79.1455 25.2351C78.7108 25.8469 78.3731 26.5222 78.1446 27.237C78.1256 27.4072 78.1507 27.5794 78.2173 27.7371C78.2838 27.8948 78.3898 28.0328 78.5249 28.1379C78.7884 28.2474 79.0704 28.3052 79.3557 28.3081Z" fill="#E3B550"/>
<path d="M150.273 41.551C150.273 41.551 150.463 41.8613 151.404 41.8213C154.804 41.6651 158.169 41.0662 161.414 40.0396C166.776 38.2645 171.971 36.0204 176.939 33.3332C194.205 24.4448 203.674 25.3256 207.378 26.3266C207.378 26.3266 191.563 26.9872 174.707 38.8885C157.85 50.7898 152.966 48.7979 152.555 48.3875C152.145 47.9771 152.505 45.1945 150.273 41.551Z" fill="#FEEAB3"/>
<path d="M119.184 60.5801C134.635 60.5801 147.161 54.2613 147.161 46.4667C147.161 38.6721 134.635 32.3533 119.184 32.3533C103.733 32.3533 91.2074 38.6721 91.2074 46.4667C91.2074 54.2613 103.733 60.5801 119.184 60.5801Z" fill="#FEEAB3"/>
<path d="M114.299 32.8753C113.679 32.6351 113.969 31.2638 114.639 31.1737C120.795 30.2829 134.929 29.4621 141.665 35.1775C148.802 41.1832 150.053 50.3719 141.135 56.9982C139.823 57.9992 139.133 56.5878 138.362 55.2266C135.229 49.5211 130.705 39.3114 114.299 32.8753Z" fill="white"/>
<path d="M238.211 53.0215C238.211 55.3066 237.385 57.0996 235.732 58.4004C234.08 59.7012 231.801 60.3516 228.895 60.3516C225.988 60.3516 223.609 59.9004 221.758 58.998V55.0254C222.93 55.5762 224.172 56.0098 225.484 56.3262C226.809 56.6426 228.039 56.8008 229.176 56.8008C230.84 56.8008 232.064 56.4844 232.85 55.8516C233.646 55.2188 234.045 54.3691 234.045 53.3027C234.045 52.3418 233.682 51.5273 232.955 50.8594C232.229 50.1914 230.729 49.4004 228.455 48.4863C226.111 47.5371 224.459 46.4531 223.498 45.2344C222.537 44.0156 222.057 42.5508 222.057 40.8398C222.057 38.6953 222.818 37.0078 224.342 35.7773C225.865 34.5469 227.91 33.9316 230.477 33.9316C232.938 33.9316 235.387 34.4707 237.824 35.5488L236.488 38.9766C234.203 38.0156 232.164 37.5352 230.371 37.5352C229.012 37.5352 227.98 37.834 227.277 38.4316C226.574 39.0176 226.223 39.7969 226.223 40.7695C226.223 41.4375 226.363 42.0117 226.645 42.4922C226.926 42.9609 227.389 43.4062 228.033 43.8281C228.678 44.25 229.838 44.8066 231.514 45.498C233.4 46.2832 234.783 47.0156 235.662 47.6953C236.541 48.375 237.186 49.1426 237.596 49.998C238.006 50.8535 238.211 51.8613 238.211 53.0215ZM249.988 57.0117C250.996 57.0117 252.004 56.8535 253.012 56.5371V59.6484C252.555 59.8477 251.963 60.0117 251.236 60.1406C250.521 60.2812 249.777 60.3516 249.004 60.3516C245.09 60.3516 243.133 58.2891 243.133 54.1641V43.6875H240.479V41.8594L243.326 40.3477L244.732 36.2344H247.281V40.5586H252.818V43.6875H247.281V54.0938C247.281 55.0898 247.527 55.8281 248.02 56.3086C248.523 56.7773 249.18 57.0117 249.988 57.0117ZM274.158 50.2441C274.158 53.4199 273.344 55.8984 271.715 57.6797C270.086 59.4609 267.818 60.3516 264.912 60.3516C263.096 60.3516 261.49 59.9414 260.096 59.1211C258.701 58.3008 257.629 57.123 256.879 55.5879C256.129 54.0527 255.754 52.2715 255.754 50.2441C255.754 47.0918 256.562 44.6309 258.18 42.8613C259.797 41.0918 262.076 40.207 265.018 40.207C267.83 40.207 270.057 41.1152 271.697 42.9316C273.338 44.7363 274.158 47.1738 274.158 50.2441ZM260.008 50.2441C260.008 54.7324 261.666 56.9766 264.982 56.9766C268.264 56.9766 269.904 54.7324 269.904 50.2441C269.904 45.8027 268.252 43.582 264.947 43.582C263.213 43.582 261.953 44.1562 261.168 45.3047C260.395 46.4531 260.008 48.0996 260.008 50.2441ZM286.762 60.3516C283.82 60.3516 281.582 59.4961 280.047 57.7852C278.523 56.0625 277.762 53.5957 277.762 50.3848C277.762 47.1152 278.559 44.6016 280.152 42.8438C281.758 41.0859 284.072 40.207 287.096 40.207C289.146 40.207 290.992 40.5879 292.633 41.3496L291.385 44.6719C289.639 43.9922 288.197 43.6523 287.061 43.6523C283.697 43.6523 282.016 45.8848 282.016 50.3496C282.016 52.5293 282.432 54.1699 283.264 55.2715C284.107 56.3613 285.338 56.9062 286.955 56.9062C288.795 56.9062 290.535 56.4492 292.176 55.5352V59.1387C291.438 59.5723 290.646 59.8828 289.803 60.0703C288.971 60.2578 287.957 60.3516 286.762 60.3516ZM300.736 49.7344L303.074 46.8164L308.945 40.5586H313.709L305.887 48.9082L314.201 60H309.35L303.109 51.4746L300.842 53.3379V60H296.746V32.6484H300.842V45.9902L300.631 49.7344H300.736ZM340.604 47.1152C340.604 51.2988 339.555 54.5508 337.457 56.8711C335.371 59.1914 332.412 60.3516 328.58 60.3516C324.701 60.3516 321.719 59.2031 319.633 56.9062C317.559 54.5977 316.521 51.3223 316.521 47.0801C316.521 42.8379 317.564 39.5801 319.65 37.3066C321.748 35.0332 324.736 33.8965 328.615 33.8965C332.436 33.8965 335.389 35.0508 337.475 37.3594C339.561 39.668 340.604 42.9199 340.604 47.1152ZM320.986 47.1152C320.986 50.2793 321.625 52.6816 322.902 54.3223C324.18 55.9512 326.072 56.7656 328.58 56.7656C331.076 56.7656 332.957 55.957 334.223 54.3398C335.5 52.7227 336.139 50.3145 336.139 47.1152C336.139 43.9629 335.506 41.5723 334.24 39.9434C332.986 38.3145 331.111 37.5 328.615 37.5C326.096 37.5 324.191 38.3145 322.902 39.9434C321.625 41.5723 320.986 43.9629 320.986 47.1152ZM355.545 60.3516C353.084 60.3516 351.174 59.4668 349.814 57.6973H349.568C349.732 59.3379 349.814 60.334 349.814 60.6855V68.6484H345.684V40.5586H349.023C349.117 40.9219 349.311 41.7891 349.604 43.1602H349.814C351.104 41.1914 353.037 40.207 355.615 40.207C358.041 40.207 359.928 41.0859 361.275 42.8438C362.635 44.6016 363.314 47.0684 363.314 50.2441C363.314 53.4199 362.623 55.8984 361.24 57.6797C359.869 59.4609 357.971 60.3516 355.545 60.3516ZM354.543 43.582C352.902 43.582 351.701 44.0625 350.939 45.0234C350.189 45.9844 349.814 47.5195 349.814 49.6289V50.2441C349.814 52.6113 350.189 54.3281 350.939 55.3945C351.689 56.4492 352.914 56.9766 354.613 56.9766C356.043 56.9766 357.145 56.3906 357.918 55.2188C358.691 54.0469 359.078 52.377 359.078 50.209C359.078 48.0293 358.691 46.3828 357.918 45.2695C357.156 44.1445 356.031 43.582 354.543 43.582ZM375.355 57.0117C376.363 57.0117 377.371 56.8535 378.379 56.5371V59.6484C377.922 59.8477 377.33 60.0117 376.604 60.1406C375.889 60.2812 375.145 60.3516 374.371 60.3516C370.457 60.3516 368.5 58.2891 368.5 54.1641V43.6875H365.846V41.8594L368.693 40.3477L370.1 36.2344H372.648V40.5586H378.186V43.6875H372.648V54.0938C372.648 55.0898 372.895 55.8281 373.387 56.3086C373.891 56.7773 374.547 57.0117 375.355 57.0117ZM386.412 60H382.281V40.5586H386.412V60ZM382.035 35.4082C382.035 34.6699 382.234 34.1016 382.633 33.7031C383.043 33.3047 383.623 33.1055 384.373 33.1055C385.1 33.1055 385.662 33.3047 386.061 33.7031C386.471 34.1016 386.676 34.6699 386.676 35.4082C386.676 36.1113 386.471 36.668 386.061 37.0781C385.662 37.4766 385.1 37.6758 384.373 37.6758C383.623 37.6758 383.043 37.4766 382.633 37.0781C382.234 36.668 382.035 36.1113 382.035 35.4082ZM409.58 50.2441C409.58 53.4199 408.766 55.8984 407.137 57.6797C405.508 59.4609 403.24 60.3516 400.334 60.3516C398.518 60.3516 396.912 59.9414 395.518 59.1211C394.123 58.3008 393.051 57.123 392.301 55.5879C391.551 54.0527 391.176 52.2715 391.176 50.2441C391.176 47.0918 391.984 44.6309 393.602 42.8613C395.219 41.0918 397.498 40.207 400.439 40.207C403.252 40.207 405.479 41.1152 407.119 42.9316C408.76 44.7363 409.58 47.1738 409.58 50.2441ZM395.43 50.2441C395.43 54.7324 397.088 56.9766 400.404 56.9766C403.686 56.9766 405.326 54.7324 405.326 50.2441C405.326 45.8027 403.674 43.582 400.369 43.582C398.635 43.582 397.375 44.1562 396.59 45.3047C395.816 46.4531 395.43 48.0996 395.43 50.2441ZM431.447 60H427.299V48.0469C427.299 46.5469 426.994 45.4277 426.385 44.6895C425.787 43.9512 424.832 43.582 423.52 43.582C421.773 43.582 420.496 44.0977 419.688 45.1289C418.879 46.1602 418.475 47.8887 418.475 50.3145V60H414.344V40.5586H417.578L418.158 43.1074H418.369C418.955 42.1816 419.787 41.4668 420.865 40.9629C421.943 40.459 423.139 40.207 424.451 40.207C429.115 40.207 431.447 42.5801 431.447 47.3262V60ZM450.256 54.4629C450.256 56.3613 449.564 57.8203 448.182 58.8398C446.799 59.8477 444.818 60.3516 442.24 60.3516C439.65 60.3516 437.57 59.959 436 59.1738V55.6055C438.285 56.6602 440.412 57.1875 442.381 57.1875C444.924 57.1875 446.195 56.4199 446.195 54.8848C446.195 54.3926 446.055 53.9824 445.773 53.6543C445.492 53.3262 445.029 52.9863 444.385 52.6348C443.74 52.2832 442.844 51.8848 441.695 51.4395C439.457 50.5723 437.939 49.7051 437.143 48.8379C436.357 47.9707 435.965 46.8457 435.965 45.4629C435.965 43.7988 436.633 42.5098 437.969 41.5957C439.316 40.6699 441.145 40.207 443.453 40.207C445.738 40.207 447.9 40.6699 449.939 41.5957L448.604 44.707C446.506 43.8398 444.742 43.4062 443.312 43.4062C441.133 43.4062 440.043 44.0273 440.043 45.2695C440.043 45.8789 440.324 46.3945 440.887 46.8164C441.461 47.2383 442.703 47.8184 444.613 48.5566C446.219 49.1777 447.385 49.7461 448.111 50.2617C448.838 50.7773 449.377 51.375 449.729 52.0547C450.08 52.7227 450.256 53.5254 450.256 54.4629ZM475.445 60H471.227V48.416H459.379V60H455.178V34.3008H459.379V44.8125H471.227V34.3008H475.445V60ZM505.029 47.1152C505.029 50.2324 504.432 52.8574 503.236 54.9902C502.053 57.123 500.324 58.623 498.051 59.4902L504.203 66.1172H498.543L493.691 60.3516H493.006C489.127 60.3516 486.145 59.2031 484.059 56.9062C481.984 54.5977 480.947 51.3223 480.947 47.0801C480.947 42.8379 481.99 39.5801 484.076 37.3066C486.174 35.0332 489.162 33.8965 493.041 33.8965C496.861 33.8965 499.814 35.0508 501.9 37.3594C503.986 39.668 505.029 42.9199 505.029 47.1152ZM485.412 47.1152C485.412 50.2793 486.051 52.6816 487.328 54.3223C488.605 55.9512 490.498 56.7656 493.006 56.7656C495.502 56.7656 497.383 55.957 498.648 54.3398C499.926 52.7227 500.564 50.3145 500.564 47.1152C500.564 43.9629 499.932 41.5723 498.666 39.9434C497.412 38.3145 495.537 37.5 493.041 37.5C490.521 37.5 488.617 38.3145 487.328 39.9434C486.051 41.5723 485.412 43.9629 485.412 47.1152Z" fill="#314252"/>
</svg>
