<svg width="33" height="47" viewBox="0 0 33 47" fill="none" xmlns="http://www.w3.org/2000/svg">
<g id="Group 14">
<path id="Path" fill-rule="evenodd" clip-rule="evenodd" d="M16.1562 0C7.27347 0 0 7.4432 0 16.4546C0 25.4583 16.1562 47 16.1562 47C16.1562 47 32.3125 25.4583 32.3125 16.4546C32.3125 7.4432 25.039 0 16.1562 0Z" fill="#2184DC"/>
<g id="icons8-home">
<path id="Shape" fill-rule="evenodd" clip-rule="evenodd" d="M6.86621 17.3618L16.4998 8.42041L26.1333 17.3618L25.2412 18.3257L24.3748 17.5208V25.0625H17.8123V18.5H15.1873V25.0625H8.62476V17.5208L7.7583 18.3257L6.86621 17.3618ZM23.0623 16.3057L16.4998 10.2046L9.93726 16.3057V23.75H13.8748V17.1875H19.1248V23.75H23.0623V16.3057Z" fill="white"/>
</g>
</g>
</svg>
