<svg width="22" height="14" viewBox="0 0 22 14" fill="none" xmlns="http://www.w3.org/2000/svg">
<path d="M18.9996 8.16981V7.99981C19.0006 6.92983 18.7869 5.87053 18.3712 4.88459C17.9556 3.89866 17.3463 3.00612 16.5796 2.25981C15.6845 1.38879 14.5942 0.744236 13.3996 0.379813H13.3496C12.512 0.115945 11.6377 -0.0123403 10.7596 -0.000187429C8.66799 0.114617 6.69937 1.02458 5.25676 2.54341C3.81414 4.06225 3.00665 6.07507 2.99959 8.16981C2.33126 8.40492 1.7677 8.86896 1.40873 9.47977C1.04975 10.0906 0.918531 10.8087 1.0383 11.507C1.15808 12.2053 1.52112 12.8386 2.06312 13.2949C2.60512 13.7512 3.29112 14.0009 3.99959 13.9998H17.9996C18.7081 14.0009 19.3941 13.7512 19.9361 13.2949C20.4781 12.8386 20.8411 12.2053 20.9609 11.507C21.0807 10.8087 20.9494 10.0906 20.5905 9.47977C20.2315 8.86896 19.6679 8.40492 18.9996 8.16981ZM17.9996 11.9998H3.99959C3.73438 11.9998 3.48002 11.8945 3.29249 11.7069C3.10495 11.5194 2.99959 11.265 2.99959 10.9998C2.99959 10.7346 3.10495 10.4802 3.29249 10.2927C3.48002 10.1052 3.73438 9.99981 3.99959 9.99981H5.99959C6.26481 9.99981 6.51916 9.89445 6.7067 9.70692C6.89424 9.51938 6.99959 9.26503 6.99959 8.99981C6.99959 8.7346 6.89424 8.48024 6.7067 8.29271C6.51916 8.10517 6.26481 7.99981 5.99959 7.99981H4.99959C5.0452 6.96262 5.34206 5.95202 5.86463 5.05493C6.38721 4.15784 7.11986 3.40111 7.99959 2.84981V5.99981C7.99959 6.26503 8.10495 6.51938 8.29249 6.70692C8.48002 6.89446 8.73438 6.99981 8.99959 6.99981C9.26481 6.99981 9.51916 6.89446 9.7067 6.70692C9.89424 6.51938 9.99959 6.26503 9.99959 5.99981V2.08981C10.271 2.04446 10.5448 2.01442 10.8196 1.99981H10.9996C11.3353 2.00289 11.67 2.03636 11.9996 2.09981V5.99981C11.9996 6.26503 12.1049 6.51938 12.2925 6.70692C12.48 6.89446 12.7344 6.99981 12.9996 6.99981C13.2648 6.99981 13.5192 6.89446 13.7067 6.70692C13.8942 6.51938 13.9996 6.26503 13.9996 5.99981V2.81981C14.4238 3.06544 14.8195 3.35721 15.1796 3.68981C15.7562 4.24971 16.2143 4.91973 16.527 5.66011C16.8396 6.40049 17.0003 7.19613 16.9996 7.99981H15.9996C15.7344 7.99981 15.48 8.10517 15.2925 8.29271C15.1049 8.48024 14.9996 8.7346 14.9996 8.99981C14.9996 9.26503 15.1049 9.51938 15.2925 9.70692C15.48 9.89445 15.7344 9.99981 15.9996 9.99981H17.9996C18.2648 9.99981 18.5192 10.1052 18.7067 10.2927C18.8942 10.4802 18.9996 10.7346 18.9996 10.9998C18.9996 11.265 18.8942 11.5194 18.7067 11.7069C18.5192 11.8945 18.2648 11.9998 17.9996 11.9998Z" fill="#20ABBE"/>
</svg>
