<svg width="40" height="40" viewBox="0 0 40 40" fill="none" xmlns="http://www.w3.org/2000/svg">
<path d="M32.8948 32.4096C32.5712 32.4096 32.3089 32.672 32.3089 32.9955V38.5045C32.3089 38.6828 32.1637 38.828 31.9854 38.828H28.8356V27.2891C28.8356 26.9655 28.5733 26.7032 28.2497 26.7032C27.9261 26.7032 27.6637 26.9655 27.6637 27.2891V38.828H21.3212L23.1605 36.8046C23.3614 36.5835 23.4562 36.2686 23.4139 35.9619C23.4131 35.9559 23.4122 35.95 23.4112 35.9441L21.6594 25.5951L22.1313 24.8846C22.3923 25.0699 22.5933 25.2484 22.9702 25.2484C23.3537 25.2484 23.7122 25.0338 23.8886 24.6805V24.6804L25.7362 20.9773L29.9453 22.6073C30.0976 22.6727 32.3087 23.6684 32.3087 26.2978V30.2611C32.3087 30.5846 32.571 30.847 32.8947 30.847C33.2183 30.847 33.4806 30.5847 33.4806 30.2611V26.2978C33.4806 22.8334 30.5143 21.5741 30.388 21.5222C30.3844 21.5206 30.3806 21.5191 30.3769 21.5177L23.3716 18.8048V17.1618C24.4842 16.2965 25.2557 15.0138 25.4494 13.5503C26.0041 13.5112 26.5189 13.3041 26.9393 12.9426C27.4883 12.4705 27.8033 11.7834 27.8033 11.0577C27.8033 10.4555 27.586 9.88055 27.1988 9.4325V7.26195C27.1987 3.25773 23.9411 0 19.9369 0C15.9326 0 12.675 3.25773 12.675 7.26195V9.48938C12.2837 9.93289 12.0709 10.4788 12.0709 11.0577C12.0709 11.7835 12.3857 12.4705 12.9348 12.9427C13.3549 13.3041 13.8694 13.511 14.424 13.5502C14.6192 15.041 15.4132 16.3716 16.6206 17.2485V18.8048L9.62288 21.5177C9.61921 21.5191 9.61554 21.5205 9.61187 21.522C9.48554 21.574 6.51929 22.8333 6.51929 26.2977V38.5043C6.51929 39.3289 7.19015 39.9998 8.01476 39.9998H13.5973C13.9209 39.9998 14.1833 39.7374 14.1833 39.4138C14.1833 39.0902 13.9209 38.8279 13.5973 38.8279H12.3366V27.2891C12.3366 26.9655 12.0743 26.7032 11.7507 26.7032C11.4271 26.7032 11.1648 26.9655 11.1648 27.2891V38.828H8.01483C7.83647 38.828 7.69132 38.6829 7.69132 38.5045V26.2977C7.69132 23.6595 9.91734 22.666 10.0541 22.6076L14.2598 20.9771L16.1076 24.6804C16.2844 25.0345 16.6434 25.2484 17.0261 25.2484C17.4012 25.2484 17.6002 25.0727 17.865 24.8846L18.3369 25.5951L16.5853 35.9441C16.5843 35.95 16.5834 35.9559 16.5826 35.9618C16.5402 36.2684 16.635 36.5834 16.836 36.8047L18.6753 38.8281H16.3319C16.0084 38.8281 15.746 39.0905 15.746 39.4141C15.746 39.7377 16.0084 40 16.3319 40H31.9855C32.8101 40 33.4809 39.3291 33.4809 38.5045V32.9956C33.4808 32.672 33.2184 32.4096 32.8948 32.4096ZM24.6387 20.5523L22.9161 24.0046C22.8733 23.9742 21.9604 23.3256 20.8444 22.5332C21.3287 21.9355 20.7622 22.6347 22.9722 19.9069L24.6387 20.5523ZM21.1752 24.2057L20.7285 24.8781H19.2673L18.8206 24.2057L19.998 23.3695L21.1752 24.2057ZM17.7924 18.9938V17.8973C18.5043 18.1842 19.2651 18.3173 20.008 18.3173C20.7762 18.3173 21.5296 18.1535 22.1996 17.8605V18.9986L19.998 21.7162L17.7924 18.9938ZM26.6313 11.0577C26.6312 11.4416 26.465 11.8048 26.1752 12.0541C25.9835 12.2189 25.752 12.3243 25.4985 12.3655V9.75016C26.172 9.85953 26.6313 10.4181 26.6313 11.0577ZM14.3755 12.3655C13.6944 12.255 13.2427 11.6919 13.2427 11.0577C13.2427 10.4312 13.762 9.92141 14.3755 9.77961V12.3655ZM14.407 8.58563C14.2204 8.60703 14.0065 8.65758 13.847 8.7118V7.26195C13.847 3.90391 16.5789 1.17195 19.9369 1.17195C23.295 1.17195 26.0269 3.90391 26.0269 7.26195V8.67156C25.8566 8.61977 25.6799 8.58555 25.4986 8.56945C25.4986 8.00406 25.5035 8.11312 23.6539 6.12461C23.3137 5.75914 22.7511 5.68258 22.3229 5.96234C20.2815 7.29586 17.7912 7.96578 15.4936 7.80078C14.9896 7.76305 14.5305 8.095 14.407 8.58563ZM15.5475 12.8269V9.17125V8.97867C18.0768 9.1268 20.7286 8.37539 22.8709 7.00344C23.7191 7.91422 24.1785 8.39195 24.3266 8.57367C24.3266 9.03336 24.3266 12.3006 24.3266 12.8268C24.3266 15.2055 22.3871 17.1452 20.0081 17.1452C17.3367 17.1453 15.5475 15.073 15.5475 12.8269ZM17.0799 24.0046L15.3573 20.5523L17.0209 19.908L19.1491 22.5349C18.0668 23.3034 17.1781 23.9348 17.0799 24.0046ZM17.7522 36.0705L19.4482 26.0499H20.5475L22.2435 36.0705L19.9979 38.541L17.7522 36.0705Z" fill="#314252" fill-opacity="0.5"/>
</svg>
