<svg width="20" height="20" viewBox="0 0 20 20" fill="none" xmlns="http://www.w3.org/2000/svg">
<path d="M19 5.54H14.46V1C14.46 0.734784 14.3546 0.48043 14.1671 0.292893C13.9796 0.105357 13.7252 0 13.46 0H1C0.734784 0 0.48043 0.105357 0.292893 0.292893C0.105357 0.48043 0 0.734784 0 1V13.46C0 13.7252 0.105357 13.9796 0.292893 14.1671C0.48043 14.3546 0.734784 14.46 1 14.46H5.54V19C5.54 19.2652 5.64536 19.5196 5.83289 19.7071C6.02043 19.8946 6.27478 20 6.54 20H19C19.2652 20 19.5196 19.8946 19.7071 19.7071C19.8946 19.5196 20 19.2652 20 19V6.54C20 6.27478 19.8946 6.02043 19.7071 5.83289C19.5196 5.64536 19.2652 5.54 19 5.54ZM18 18H7.54V13.46C7.54 13.1948 7.43464 12.9404 7.24711 12.7529C7.05957 12.5654 6.80522 12.46 6.54 12.46H2V2H12.46V6.54C12.46 6.80522 12.5654 7.05957 12.7529 7.24711C12.9404 7.43464 13.1948 7.54 13.46 7.54H18V18Z" fill="#20ABBE"/>
</svg>
