<svg width="40" height="40" viewBox="0 0 40 40" fill="none" xmlns="http://www.w3.org/2000/svg">
<path d="M38.0645 20C37.4587 20 36.8794 20.2892 36.5168 20.7743L33.1968 25.2L29.6368 25.6452L29.9137 25.2753C30.1774 24.9244 30.3226 24.4884 30.3226 24.0496V23.9793C30.3226 22.8522 29.4059 21.9355 28.2787 21.9355C27.7722 21.9355 27.2864 22.122 26.9115 22.46L22.1399 26.7543C21.1905 27.609 20.6452 28.8322 20.6452 30.1109V33.5484H19.3548V30.1109C19.3548 28.8329 18.8095 27.609 17.8601 26.755L13.0891 22.4613C12.7136 22.122 12.2278 21.9355 11.7213 21.9355C10.5941 21.9355 9.67742 22.8522 9.67742 23.9793V24.0496C9.67742 24.489 9.82264 24.9244 10.0863 25.2753L10.3632 25.6452L6.80317 25.2L3.48318 20.7743C3.12059 20.2892 2.54127 20 1.93548 20C0.868511 20 0 20.8685 0 21.9355V22.1903C0 22.5734 0.112147 22.9451 0.325101 23.2639L4.12078 28.9567C4.95999 30.2161 6.3653 30.9677 7.87802 30.9677H10.1134C11.5039 30.9677 12.7341 31.8542 13.1735 33.1735L13.2986 33.5484H12.2581V40H27.7419V33.5484H26.7014L26.8265 33.1735C27.2666 31.8542 28.4961 30.9677 29.8866 30.9677H32.122C33.6347 30.9677 35.0394 30.2161 35.8792 28.9567L39.6749 23.2639C39.8879 22.9451 40 22.5734 40 22.1903V21.9355C40 20.8685 39.1315 20 38.0645 20ZM14.3967 32.7652C13.7818 30.9186 12.0599 29.6774 10.1134 29.6774H7.87802C6.7975 29.6774 5.79417 29.1406 5.19405 28.2406L1.39869 22.5479C1.32781 22.4414 1.29032 22.3179 1.29032 22.1903V21.9355C1.29032 21.5795 1.57951 21.2903 1.93548 21.2903C2.13741 21.2903 2.3302 21.3864 2.45149 21.5477L6.10005 26.4122L11.4393 27.0801L11.7421 27.4839L12.7741 26.7102L11.1186 24.5026C11.0213 24.3722 10.9677 24.2115 10.9677 24.0496V23.9793C10.9677 23.5638 11.3058 23.2258 11.7213 23.2258C11.9078 23.2258 12.0864 23.2942 12.2253 23.4192L16.9969 27.7136C17.6748 28.3238 18.0645 29.198 18.0645 30.1109V33.5484H14.6582L14.3967 32.7652ZM13.5484 38.7097V37.4194H16.7742V36.129H13.5484V34.8387H19.3548V36.129H18.0645V37.4194H19.3548V38.7097H13.5484ZM20.6452 38.7097V37.4194H21.9355V36.129H20.6452V34.8387H26.4516V36.129H23.2258V37.4194H26.4516V38.7097H20.6452ZM38.7097 22.1903C38.7097 22.3179 38.6722 22.442 38.6013 22.5485L34.8059 28.2412C34.2065 29.1406 33.2025 29.6774 32.122 29.6774H29.8866C27.9395 29.6774 26.2176 30.9186 25.6026 32.7652L25.3418 33.5484H21.9355V30.1109C21.9355 29.198 22.3252 28.3238 23.0031 27.7136L27.7747 23.4186C27.9136 23.2942 28.0922 23.2258 28.2787 23.2258C28.6942 23.2258 29.0323 23.5638 29.0323 23.9793V24.0496C29.0323 24.2115 28.9787 24.3722 28.882 24.502L27.2259 26.7096L28.2579 27.4833L28.5607 27.0794L33.8999 26.4116L37.5485 21.5471C37.6698 21.3864 37.8626 21.2903 38.0645 21.2903C38.4205 21.2903 38.7097 21.5795 38.7097 21.9355V22.1903Z" fill="#314252" fill-opacity="0.5"/>
<path d="M12.9033 19.3548H38.0646V17.2722C38.0646 15.9356 37.2232 14.7212 35.9716 14.2509L32.9033 13.1014V12.5548C33.3916 12.1166 33.7677 11.5581 33.9838 10.924C35.1995 10.7154 36.1291 9.66135 36.1291 8.3871V5.80645C36.1291 2.60459 33.5245 0 30.3226 0C28.1071 0 26.1789 1.24842 25.2007 3.07743C24.2761 1.25473 22.3892 0 20.2092 0C19.1 0 18.0258 0.325101 17.1047 0.94002L16.4844 1.35364C15.7038 1.63621 15.0788 2.18372 14.6775 2.86889C13.6672 1.15549 11.807 0 9.67748 0C6.47562 0 3.87103 2.60459 3.87103 5.80645V8.3871C3.87103 9.66135 4.80066 10.7154 6.01632 10.924C6.23242 11.5575 6.60856 12.116 7.09684 12.5548V13.1014L4.02854 14.2515C2.77697 14.7212 1.93555 15.9356 1.93555 17.2722V19.3548H12.9033ZM26.4517 18.0645H23.871V16.7742H22.5807V18.0645H17.4194V16.7742H16.1291V18.0645H13.5484V17.2722C13.5484 16.4696 14.0531 15.7412 14.8044 15.4593L17.8387 14.3227L20.0001 17.2045L22.1614 14.3227L25.1957 15.4599C25.947 15.7412 26.4517 16.4696 26.4517 17.2722V18.0645ZM7.09684 9.67742V7.0511C8.21295 6.9484 9.28843 6.5981 10.2395 5.99042L10.2445 5.99546C10.7911 6.54202 11.5021 6.90335 12.2581 7.03692V9.67742C12.2581 11.1007 11.1007 12.2581 9.67748 12.2581C8.25422 12.2581 7.09684 11.1007 7.09684 9.67742ZM27.742 13.1014L25.1614 14.0691L22.5807 13.1014V12.5548C23.069 12.1166 23.4451 11.5581 23.6612 10.924C24.2582 10.8213 24.7795 10.5135 25.1614 10.0762C25.5432 10.5135 26.0645 10.8213 26.6615 10.924C26.8776 11.5575 27.2537 12.116 27.742 12.5548V13.1014ZM18.7097 13.3225C19.1142 13.4665 19.5471 13.5484 20.0001 13.5484C20.4531 13.5484 20.8859 13.4659 21.2904 13.3225V13.3335L20.0001 15.0536L18.7097 13.3335V13.3225ZM26.4517 9.49817C26.0677 9.27419 25.8065 8.86246 25.8065 8.3871C25.8065 7.91173 26.0677 7.5 26.4517 7.27602V9.49817ZM23.871 9.49817V7.27665C24.255 7.50063 24.5162 7.91236 24.5162 8.38773C24.5162 8.86309 24.255 9.27419 23.871 9.49817ZM22.5807 9.67742C22.5807 11.1007 21.4233 12.2581 20.0001 12.2581C18.5768 12.2581 17.4194 11.1007 17.4194 9.67742V7.09677H22.5807V9.67742ZM16.1291 9.49817C15.7451 9.27419 15.4839 8.86246 15.4839 8.3871C15.4839 7.91173 15.7451 7.5 16.1291 7.27602V9.49817ZM13.5484 7.27602C13.9325 7.5 14.1936 7.91173 14.1936 8.3871C14.1936 8.86246 13.9325 9.27419 13.5484 9.49817V7.27602ZM12.2581 12.5548C12.7464 12.1166 13.1225 11.5581 13.3386 10.924C13.9356 10.8213 14.457 10.5135 14.8388 10.0762C15.2206 10.5135 15.7419 10.8213 16.3389 10.924C16.555 11.5575 16.9311 12.116 17.4194 12.5548V13.1014L14.8388 14.0691L12.2581 13.1014V12.5548ZM36.7743 17.2722V18.0645H34.1936V16.7742H32.9033V18.0645H27.742V17.2722C27.742 16.3451 27.3315 15.4839 26.6665 14.8819L27.9039 14.4182C28.2627 15.413 29.2059 16.129 30.3226 16.129C31.4388 16.129 32.3826 15.413 32.7414 14.4188L35.5173 15.4599C36.2696 15.7412 36.7743 16.4696 36.7743 17.2722ZM31.613 13.5484C31.613 14.26 31.0343 14.8387 30.3226 14.8387C29.611 14.8387 29.0323 14.26 29.0323 13.5484V13.3225C29.4368 13.4665 29.8696 13.5484 30.3226 13.5484C30.7756 13.5484 31.2085 13.4659 31.613 13.3225V13.5484ZM30.3226 12.2581C28.8994 12.2581 27.742 11.1007 27.742 9.67742V7.0511C28.8581 6.9484 29.9336 6.5981 30.8846 5.99042L30.8897 5.99546C31.4362 6.54202 32.1472 6.90335 32.9033 7.03692V9.67742C32.9033 11.1007 31.7459 12.2581 30.3226 12.2581ZM34.1936 9.49817V7.27665C34.5776 7.50063 34.8388 7.91236 34.8388 8.38773C34.8388 8.86309 34.5776 9.27419 34.1936 9.49817ZM30.3226 1.29032C32.8122 1.29032 34.8388 3.31685 34.8388 5.80645V6.16526C34.4576 5.94317 34.0207 5.80645 33.5484 5.80645C32.8982 5.80645 32.2619 5.54309 31.802 5.08317L31.0497 4.3309L30.2845 4.84123C29.3376 5.47222 28.235 5.80645 27.0968 5.80645C26.6246 5.80645 26.1877 5.94317 25.8065 6.16526V5.80645C25.8065 3.31685 27.833 1.29032 30.3226 1.29032ZM15.4839 4.62072C15.4839 3.67881 16.0847 2.84589 16.9781 2.54725L17.8201 2.01361C18.5299 1.54076 19.3555 1.29032 20.2092 1.29032C22.5839 1.29032 24.5162 3.22266 24.5162 5.59728V6.16526C24.135 5.94317 23.6981 5.80645 23.2259 5.80645H16.7743C16.302 5.80645 15.8651 5.94317 15.4839 6.16526V4.62072ZM9.67748 1.29032C12.1671 1.29032 14.1936 3.31685 14.1936 5.80645V6.16526C13.8124 5.94317 13.3755 5.80645 12.9033 5.80645C12.2531 5.80645 11.6167 5.54309 11.1568 5.08317L10.4045 4.3309L9.63936 4.84123C8.69241 5.47222 7.58984 5.80645 6.45168 5.80645C5.97946 5.80645 5.54253 5.94317 5.16135 6.16526V5.80645C5.16135 3.31685 7.18788 1.29032 9.67748 1.29032ZM5.16135 8.3871C5.16135 7.91173 5.4225 7.5 5.80651 7.27602V9.49754C5.4225 9.27419 5.16135 8.86246 5.16135 8.3871ZM9.67748 13.5484C10.1305 13.5484 10.5633 13.4659 10.9678 13.3225V13.5484C10.9678 14.26 10.3891 14.8387 9.67748 14.8387C8.96585 14.8387 8.38716 14.26 8.38716 13.5484V13.3225C8.79165 13.4659 9.22448 13.5484 9.67748 13.5484ZM7.09684 18.0645V16.7742H5.80651V18.0645H3.22587V17.2722C3.22587 16.4696 3.73053 15.7412 4.48185 15.4593L7.25813 14.4182C7.61757 15.413 8.56137 16.129 9.67748 16.129C10.7936 16.129 11.7374 15.413 12.0962 14.4188L13.333 14.8825C12.6686 15.4845 12.2581 16.3458 12.2581 17.2722V18.0645H7.09684Z" fill="#314252" fill-opacity="0.5"/>
</svg>
