<svg width="40" height="40" viewBox="0 0 40 40" fill="none" xmlns="http://www.w3.org/2000/svg">
<g clip-path="url(#clip0)">
<path d="M39.3333 2.66667H37.3333V0.666667C37.3333 0.298333 37.035 0 36.6667 0H25.4153C24.055 0.001 22.7808 0.664833 22 1.77867C21.2192 0.664667 19.945 0.001 18.5847 0H7.33333C6.965 0 6.66667 0.298333 6.66667 0.666667V2.66667H4.66667C4.29833 2.66667 4 2.965 4 3.33333V14.6667H5.33333V4H6.66667V14.6667H8V1.33333H18.5847C19.8658 1.332 20.99 2.18583 21.3333 3.41983V13.3333H22.6667V3.41983C23.01 2.18583 24.1342 1.332 25.4153 1.33333H30.6667V6C30.6667 6.36833 30.965 6.66667 31.3333 6.66667H36V26H29.3333V27.3333H36.6667C37.035 27.3333 37.3333 27.035 37.3333 26.6667V4H38.6667L38.5585 28.615L29.3333 28.6667L29.3398 30L39.2293 29.9448C39.596 29.9425 39.8918 29.6447 39.8918 29.2782L40 5.752V3.33333C40 2.965 39.7017 2.66667 39.3333 2.66667ZM36 4.39067L32.9427 1.33333H36V4.39067ZM32 5.33333V2.276L35.0573 5.33333H32Z" fill="#314252" fill-opacity="0.5"/>
<path d="M9.33398 5.33337H20.0007V6.66672H9.33398V5.33337Z" fill="#314252" fill-opacity="0.5"/>
<path d="M17.334 9.33337H20.0007V10.6667H17.334V9.33337Z" fill="#314252" fill-opacity="0.5"/>
<path d="M9.33398 9.33337H16.0007V10.6667H9.33398V9.33337Z" fill="#314252" fill-opacity="0.5"/>
<path d="M32 9.33337H34.6667V10.6667H32V9.33337Z" fill="#314252" fill-opacity="0.5"/>
<path d="M24 9.33337H30.6667V10.6667H24V9.33337Z" fill="#314252" fill-opacity="0.5"/>
<path d="M32 13.3334H34.6667V14.6667H32V13.3334Z" fill="#314252" fill-opacity="0.5"/>
<path d="M24 13.3334H30.6667V14.6667H24V13.3334Z" fill="#314252" fill-opacity="0.5"/>
<path d="M32 17.3334H34.6667V18.6667H32V17.3334Z" fill="#314252" fill-opacity="0.5"/>
<path d="M26.666 17.3334H30.666V18.6667H26.666V17.3334Z" fill="#314252" fill-opacity="0.5"/>
<path d="M32 21.3333H34.6667V22.6666H32V21.3333Z" fill="#314252" fill-opacity="0.5"/>
<path d="M26.666 21.3333H30.666V22.6666H26.666V21.3333Z" fill="#314252" fill-opacity="0.5"/>
<path d="M24 5.33337H29.3333V6.66672H24V5.33337Z" fill="#314252" fill-opacity="0.5"/>
<path d="M3.33333 40H24.6667C25.035 40 25.3333 39.7017 25.3333 39.3334V34H27.3333C27.7017 34 28 33.7017 28 33.3334V26.6667C28 26.2984 27.7017 26 27.3333 26H25.3333V16.6667C25.3333 16.2984 25.035 16 24.6667 16H21.4997L21.3175 15.1874C21.2767 15.0067 21.163 14.8514 21.0037 14.758C20.8437 14.6644 20.6525 14.6417 20.4752 14.6949L17.7833 15.502L15.9073 12.3275C15.72 12.0104 15.3108 11.9052 14.9942 12.0927L8.38133 16H3.33333C1.49333 16.0024 0.00233333 17.4934 0 19.3334V36.6667C0.00233333 38.5067 1.49333 39.9977 3.33333 40ZM26.6667 32.6667H22C20.5273 32.6667 19.3333 31.4727 19.3333 30C19.3333 28.5274 20.5273 27.3334 22 27.3334H26.6667V32.6667ZM22 26C19.7913 26 18 27.7914 18 30C18 32.2087 19.7913 34 22 34H24V38.6667H3.33333C2.229 38.6667 1.33333 37.771 1.33333 36.6667V22C1.35933 22.0199 1.38933 22.0337 1.41633 22.0525C1.47 22.0909 1.52733 22.124 1.58333 22.1592C1.69683 22.2297 1.81467 22.2937 1.93517 22.3504C2.002 22.38 2.06417 22.4085 2.13033 22.4347C2.2615 22.4844 2.39483 22.5259 2.53083 22.5585C2.5935 22.574 2.65333 22.5935 2.7175 22.6054C2.92033 22.6449 3.12667 22.6654 3.33333 22.6667H24V26H22ZM24 17.3334V21.3334H22.6958L21.8 17.3334H24ZM21.3302 21.3334H3.33333C3.24633 21.3304 3.16 21.3217 3.074 21.3074L20.1725 16.1782L21.3302 21.3334ZM15.0987 13.5802L16.4667 15.8969L5.72267 19.1209L15.0987 13.5802ZM3.33333 17.3334H6.12483L1.48083 20.0782C1.38417 19.8415 1.33367 19.5887 1.33333 19.3334C1.33333 18.229 2.229 17.3334 3.33333 17.3334Z" fill="#314252" fill-opacity="0.5"/>
<path d="M23.3327 30C23.3327 30.7365 22.7358 31.3333 21.9993 31.3333C21.2628 31.3333 20.666 30.7365 20.666 30C20.666 29.2635 21.2628 28.6666 21.9993 28.6666C22.7358 28.6666 23.3327 29.2635 23.3327 30Z" fill="#314252" fill-opacity="0.5"/>
<path d="M31.9993 39.9999C33.3323 39.9935 34.5337 39.1975 35.0593 37.9726C35.1513 37.9801 35.2392 37.9999 35.3327 37.9999C37.0007 38.0009 38.4123 36.7686 38.6373 35.1162C38.8627 33.4634 37.8313 31.8989 36.224 31.4541C34.6163 31.0091 32.9275 31.8208 32.2707 33.3539C32.1802 33.3453 32.0885 33.3333 31.9993 33.3333C30.1585 33.3333 28.666 34.8257 28.666 36.6666C28.666 38.5074 30.1585 39.9999 31.9993 39.9999ZM35.3327 32.6666C36.118 32.6564 36.8368 33.1069 37.1702 33.8186C37.5033 34.5301 37.389 35.3707 36.878 35.9674C36.3668 36.5641 35.5537 36.8062 34.7993 36.5864C34.795 36.5836 34.7908 36.5812 34.786 36.5792C34.3693 36.4607 34.0025 36.2107 33.74 35.8666C33.6878 35.7966 33.6402 35.7232 33.598 35.6467C33.5813 35.6166 33.5642 35.5864 33.549 35.5551C33.5163 35.4917 33.4878 35.4267 33.463 35.3599C33.4427 35.3046 33.4253 35.2474 33.4102 35.1896C33.3947 35.1312 33.3797 35.0857 33.3702 35.0316C33.346 34.9116 33.3337 34.7892 33.3327 34.6666C33.3352 33.5629 34.229 32.6691 35.3327 32.6666ZM31.9993 34.6666C32.0013 34.8624 32.0212 35.0582 32.0587 35.2502C32.0693 35.3134 32.083 35.3747 32.098 35.4357C32.1302 35.5676 32.1702 35.6974 32.2185 35.8239C32.2533 35.9179 32.292 36.0086 32.3352 36.0979C32.3877 36.2086 32.4462 36.3169 32.5108 36.4212C32.5657 36.5081 32.6245 36.5897 32.6867 36.6712C32.7308 36.7286 32.7775 36.7832 32.8245 36.8379C33.0745 37.1262 33.372 37.3691 33.704 37.5566C33.726 37.5691 33.7462 37.5852 33.7707 37.5974C33.3143 38.4649 32.2963 38.8745 31.3663 38.5634C30.4367 38.2529 29.8692 37.3136 30.0263 36.3459C30.183 35.3781 31.019 34.6669 31.9993 34.6666Z" fill="#314252" fill-opacity="0.5"/>
</g>
<defs>
<clipPath id="clip0">
<rect width="40" height="40" fill="white"/>
</clipPath>
</defs>
</svg>
