<svg width="40" height="40" viewBox="0 0 40 40" fill="none" xmlns="http://www.w3.org/2000/svg">
<g clip-path="url(#clip0)">
<path d="M2.66667 37.3333H8V36H2.66667C1.93034 36 1.33333 35.403 1.33333 34.6667V6.66667C1.33333 5.93034 1.93034 5.33333 2.66667 5.33333H6.04948C5.89062 5.61035 5.78288 5.91374 5.73079 6.22852L5.65723 6.66667H3.33333C2.96517 6.66667 2.66667 6.96517 2.66667 7.33333V34C2.66667 34.3682 2.96517 34.6667 3.33333 34.6667H8V33.3333H4V8H5.43522L5.34277 8.55729C5.31055 8.75065 5.36491 8.94824 5.49154 9.09766C5.61816 9.24707 5.80404 9.33333 6 9.33333H20.6667C20.8626 9.33333 21.0485 9.24707 21.1751 9.09766C21.3018 8.94824 21.3561 8.75065 21.3239 8.55729L21.2314 8H22.6667V14H24V7.33333C24 6.96517 23.7015 6.66667 23.3333 6.66667H21.0094L20.9359 6.22852C20.8838 5.91374 20.776 5.61035 20.6172 5.33333H24C24.7363 5.33333 25.3333 5.93034 25.3333 6.66667V14H26.6667V6.66667C26.6667 5.19401 25.4727 4 24 4H16.6667V3.33333C16.6667 1.49251 15.1742 0 13.3333 0C11.4925 0 10 1.49251 10 3.33333V4H2.66667C1.19401 4 0 5.19401 0 6.66667V34.6667C0 36.1393 1.19401 37.3333 2.66667 37.3333ZM7.04525 6.44727C7.15267 5.80404 7.70931 5.33301 8.36133 5.33333H10.6667C11.0348 5.33333 11.3333 5.03483 11.3333 4.66667V3.33333C11.3333 2.22884 12.2288 1.33333 13.3333 1.33333C14.4378 1.33333 15.3333 2.22884 15.3333 3.33333V4.66667C15.3333 5.03483 15.6318 5.33333 16 5.33333H18.3053C18.9574 5.33301 19.514 5.80404 19.6214 6.44727L19.8799 8H6.78678L7.04525 6.44727Z" fill="#314252" fill-opacity="0.5"/>
<path d="M12.6665 2.66699H13.9998V4.00033H12.6665V2.66699Z" fill="#314252" fill-opacity="0.5"/>
<path d="M9.5288 11.5283L8.19026 12.8662C7.92334 12.736 7.63037 12.6676 7.33349 12.6663C6.229 12.6663 5.3335 13.5618 5.3335 14.6663C5.3335 15.7708 6.229 16.6663 7.33349 16.6663C8.43798 16.6663 9.33349 15.7708 9.33349 14.6663C9.33219 14.3695 9.26383 14.0765 9.13362 13.8096L10.4722 12.471L9.5288 11.5283ZM7.33349 15.333C7.06396 15.333 6.8208 15.1706 6.71761 14.9215C6.61442 14.6725 6.67171 14.3857 6.86214 14.195L7.80485 15.1377C7.67985 15.2627 7.51025 15.333 7.33349 15.333Z" fill="#314252" fill-opacity="0.5"/>
<path d="M10.6665 12.667H13.3332V14.0003H10.6665V12.667Z" fill="#314252" fill-opacity="0.5"/>
<path d="M14.6665 12.667H19.3332V14.0003H14.6665V12.667Z" fill="#314252" fill-opacity="0.5"/>
<path d="M10.6665 15.333H19.9998V16.6663H10.6665V15.333Z" fill="#314252" fill-opacity="0.5"/>
<path d="M7.3335 19.333C6.229 19.333 5.3335 20.2285 5.3335 21.333C5.3335 22.4375 6.229 23.333 7.3335 23.333C8.43799 23.333 9.3335 22.4375 9.3335 21.333C9.3335 20.2285 8.43799 19.333 7.3335 19.333ZM7.3335 21.9997C6.96533 21.9997 6.66683 21.7012 6.66683 21.333C6.66683 20.9648 6.96533 20.6663 7.3335 20.6663C7.70166 20.6663 8.00016 20.9648 8.00016 21.333C8.00016 21.7012 7.70166 21.9997 7.3335 21.9997Z" fill="#314252" fill-opacity="0.5"/>
<path d="M10.6665 19.333H11.9998V20.6663H10.6665V19.333Z" fill="#314252" fill-opacity="0.5"/>
<path d="M13.3335 19.333H14.6668V20.6663H13.3335V19.333Z" fill="#314252" fill-opacity="0.5"/>
<path d="M10.6665 22H12.6665V23.3333H10.6665V22Z" fill="#314252" fill-opacity="0.5"/>
<path d="M7.3335 26C6.229 26 5.3335 26.8955 5.3335 28C5.3335 29.1045 6.229 30 7.3335 30C8.43799 30 9.3335 29.1045 9.3335 28C9.3335 26.8955 8.43799 26 7.3335 26ZM7.3335 28.6667C6.96533 28.6667 6.66683 28.3682 6.66683 28C6.66683 27.6318 6.96533 27.3333 7.3335 27.3333C7.70166 27.3333 8.00016 27.6318 8.00016 28C8.00016 28.3682 7.70166 28.6667 7.3335 28.6667Z" fill="#314252" fill-opacity="0.5"/>
<path d="M10.6665 26H11.9998V27.3333H10.6665V26Z" fill="#314252" fill-opacity="0.5"/>
<path d="M37.5329 33.3337H37.333V30.0003C37.3584 24.2259 33.4508 19.1751 27.8551 17.7497C27.4538 16.3206 26.1507 15.333 24.6663 15.333C23.1819 15.333 21.8789 16.3206 21.4775 17.7497C16.362 19.0531 12.6058 23.4144 12.0755 28.667H10.6663V30.0003H11.9997V33.3337H11.7998C10.5241 33.3496 9.47101 34.3356 9.3714 35.6074C9.27179 36.8792 10.1582 38.0173 11.4157 38.2318L20.5869 39.6803C23.2897 40.1071 26.0429 40.1071 28.7457 39.6803L37.9196 38.2318C39.1777 38.0169 40.0641 36.8783 39.9635 35.6061C39.8633 34.334 38.8089 33.3483 37.5329 33.3337ZM22.6663 18.667C22.6663 17.5625 23.5618 16.667 24.6663 16.667C25.7708 16.667 26.6663 17.5625 26.6663 18.667V29.3337H22.6663V18.667ZM13.333 30.0003C13.3157 26.082 15.3356 22.4365 18.6663 20.373V29.3337H19.9997V19.6722C20.4332 19.4769 20.8786 19.3089 21.333 19.1696V30.0003C21.333 30.3685 21.6315 30.667 21.9997 30.667H27.333C27.7012 30.667 27.9997 30.3685 27.9997 30.0003V19.1696C28.4541 19.3089 28.8994 19.4769 29.333 19.6722V29.3337H30.6663V20.373C33.997 22.4365 36.0169 26.082 35.9997 30.0003V33.3337H13.333V30.0003ZM37.7116 36.915L28.5384 38.3636C25.9726 38.7656 23.36 38.7656 20.7942 38.3636L11.6211 36.915C11.0488 36.8105 10.6484 36.29 10.6946 35.7103C10.7405 35.1305 11.2181 34.6797 11.7998 34.667H37.5329C38.1139 34.681 38.5905 35.1322 38.6357 35.7116C38.6813 36.291 38.2809 36.8109 37.709 36.915H37.7116Z" fill="#314252" fill-opacity="0.5"/>
</g>
<defs>
<clipPath id="clip0">
<rect width="40" height="40" fill="white"/>
</clipPath>
</defs>
</svg>
