<svg width="40" height="40" viewBox="0 0 40 40" fill="none" xmlns="http://www.w3.org/2000/svg">
<g clip-path="url(#clip0)">
<path d="M39.0484 15.8817L34.3359 20.5941L35.288 21.5462L40.0005 16.8338L39.0484 15.8817Z" fill="#314252" fill-opacity="0.5"/>
<path d="M35.6239 23.6211L28.911 16.9082C29.3877 16.5899 29.8321 16.2256 30.238 15.8209L32.5943 13.4646L31.6424 12.5126L29.286 14.869C26.3865 17.7617 21.6924 17.7617 18.7929 14.869L17.783 13.8591C17.531 13.6073 17.1264 13.5955 16.86 13.8322L15.0698 15.4224C13.137 17.1376 10.2589 17.2401 8.20884 15.6668L17.2754 7.16708C17.8985 6.58068 18.7223 6.25483 19.5779 6.25618H27.5221C28.0583 6.25786 28.5728 6.04478 28.9508 5.6644L32.5957 2.01947L31.6424 1.0675L27.9974 4.71244C27.871 4.83884 27.6995 4.90986 27.5208 4.9097H19.5765C18.3787 4.9081 17.2256 5.36422 16.353 6.18482L6.7479 15.1908C6.47676 15.4453 6.46329 15.8713 6.71778 16.1424C6.72257 16.1475 6.72745 16.1526 6.73242 16.1575C9.25438 18.6745 13.3001 18.7925 15.9646 16.4268L17.2794 15.2588L17.8409 15.8196C20.4292 18.4094 24.3566 19.113 27.683 17.5828L34.672 24.5731C35.3281 25.2503 35.311 26.3312 34.6338 26.9873C33.9717 27.6288 32.9198 27.6288 32.2577 26.9873L30.5746 25.3042L29.6226 26.2562L31.3058 27.9393C31.9716 28.6063 31.9716 29.6865 31.3058 30.3535C30.6297 30.9972 29.5675 30.9972 28.8915 30.3535L27.2084 28.6704L26.2564 29.6224L27.9395 31.3055C28.6054 31.9725 28.6054 33.0527 27.9395 33.7197C27.2635 34.3634 26.2013 34.3634 25.5253 33.7197L23.8422 32.0366L22.8902 32.9886L24.5733 34.6717C25.2392 35.3387 25.2392 36.4189 24.5733 37.0859C23.8973 37.7297 22.8351 37.7297 22.1591 37.0859L20.9378 35.8647C22.0526 34.6169 21.9448 32.7017 20.6971 31.587C20.0452 31.0046 19.1736 30.7321 18.3061 30.8396C18.5123 29.1866 17.3394 27.6796 15.6865 27.4734C15.4385 27.4425 15.1878 27.4425 14.9399 27.4734C15.1461 25.8204 13.9732 24.3134 12.3202 24.1072C12.0723 24.0763 11.8216 24.0763 11.5737 24.1072C11.7786 22.4466 10.5985 20.9343 8.93796 20.7294C8.07133 20.6224 7.20074 20.8946 6.5493 21.4762L0.951964 15.8788L0 16.8308L5.5832 22.414L4.37607 23.6211C3.18368 24.8122 3.18258 26.7446 4.3738 27.937C4.94673 28.5106 5.72441 28.8326 6.53516 28.832C6.65146 28.8274 6.76743 28.8163 6.88255 28.799C6.67839 30.4597 7.85917 31.9715 9.51989 32.1756C9.64646 32.1911 9.77387 32.1987 9.90137 32.1982C10.0177 32.1936 10.1336 32.1826 10.2488 32.1652C10.0446 33.8259 11.2254 35.3377 12.8861 35.5418C13.0127 35.5574 13.1401 35.5649 13.2676 35.5644C13.3839 35.5598 13.4998 35.5488 13.615 35.5314C13.4187 37.2013 14.6133 38.7141 16.2832 38.9104C17.2092 39.0192 18.134 38.6977 18.7929 38.0379L20 36.8308L21.2071 38.0379C22.3988 39.2304 24.3315 39.2311 25.5239 38.0393C26.1792 37.3845 26.5016 36.4677 26.4005 35.5469C28.0751 35.7315 29.5822 34.5235 29.7667 32.8489C29.7912 32.6268 29.7912 32.4028 29.7667 32.1807C31.4413 32.3653 32.9484 31.1573 33.1329 29.4827C33.1574 29.2606 33.1574 29.0366 33.1329 28.8145C34.8087 28.9985 36.3164 27.7893 36.5005 26.1135C36.6016 25.1928 36.2792 24.2759 35.6239 23.6211ZM7.74228 26.9873C7.07493 27.6524 5.99539 27.6524 5.32804 26.9873C4.6622 26.3203 4.6622 25.2401 5.32804 24.5731L7.34776 22.5533C8.02496 21.8972 9.10585 21.9143 9.76201 22.5915C10.4036 23.2536 10.4036 24.3055 9.76201 24.9676L7.74228 26.9873ZM11.1085 30.3535C10.4411 31.0186 9.3616 31.0186 8.69425 30.3535C8.02841 29.6865 8.02841 28.6063 8.69425 27.9393L10.714 25.9196C11.3912 25.2634 12.4721 25.2805 13.1282 25.9576C13.7698 26.6197 13.7698 27.6716 13.1282 28.3338L11.1085 30.3535ZM12.0605 33.7197C11.3946 33.0527 11.3946 31.9725 12.0605 31.3055L14.0802 29.2858C14.7574 28.6296 15.8383 28.6467 16.4944 29.3238C17.136 29.9859 17.136 31.0378 16.4944 31.7L14.4747 33.7197C13.8074 34.3848 12.7278 34.3848 12.0605 33.7197ZM19.8606 35.0662L17.8409 37.0859C17.1637 37.7421 16.0828 37.725 15.4267 37.0478C14.7851 36.3857 14.7851 35.3338 15.4267 34.6717L17.4464 32.652C18.1236 31.9958 19.2045 32.0129 19.8606 32.69C20.5022 33.3521 20.5022 34.4041 19.8606 35.0662Z" fill="#314252" fill-opacity="0.5"/>
<path d="M12.4798 4.9097C12.3011 4.90986 12.1295 4.83884 12.0031 4.71244L8.35821 1.0675L7.40625 2.01947L11.0512 5.6644C11.4291 6.04478 11.9436 6.25786 12.4798 6.25618H14.6147V4.9097H12.4798Z" fill="#314252" fill-opacity="0.5"/>
</g>
<defs>
<clipPath id="clip0">
<rect width="40" height="40" fill="white"/>
</clipPath>
</defs>
</svg>
