<svg width="40" height="40" viewBox="0 0 40 40" fill="none" xmlns="http://www.w3.org/2000/svg">
<path d="M15.3125 4.6875C14.8812 4.6875 14.5312 5.0375 14.5312 5.46875C14.5312 5.9 14.8812 6.25 15.3125 6.25C15.7437 6.25 16.0938 5.9 16.0938 5.46875C16.0938 5.0375 15.7437 4.6875 15.3125 4.6875Z" fill="#314252" fill-opacity="0.5"/>
<path d="M20.0001 10.9375C19.5694 10.9375 19.2189 10.587 19.2189 10.1562C19.2189 9.72547 19.5694 9.375 20.0001 9.375C20.2769 9.375 20.569 9.51617 20.8451 9.78336C21.1553 10.0834 21.6498 10.0752 21.9498 9.76523C22.2498 9.45516 22.2417 8.96055 21.9317 8.66047C21.5352 8.2768 21.1385 8.05977 20.7814 7.94133V7.03125C20.7814 6.59977 20.4315 6.25 20.0001 6.25C19.5687 6.25 19.2189 6.59977 19.2189 7.03125V7.94688C18.3096 8.26938 17.6564 9.13773 17.6564 10.1562C17.6564 11.4486 18.7078 12.5 20.0001 12.5C20.4309 12.5 20.7814 12.8505 20.7814 13.2812C20.7814 13.712 20.4309 14.0625 20.0001 14.0625C19.6664 14.0625 19.3061 13.8526 18.9857 13.4715C18.7081 13.1412 18.2152 13.0986 17.885 13.3763C17.5547 13.6539 17.5121 14.1467 17.7897 14.477C18.2073 14.9737 18.6984 15.3199 19.2189 15.4945V16.4062C19.2189 16.8377 19.5687 17.1875 20.0001 17.1875C20.4315 17.1875 20.7814 16.8377 20.7814 16.4062V15.4906C21.6907 15.1681 22.3439 14.2998 22.3439 13.2812C22.3439 11.9889 21.2925 10.9375 20.0001 10.9375Z" fill="#314252" fill-opacity="0.5"/>
<path d="M36.875 11.4062C35.1519 11.4062 33.75 12.8081 33.75 14.5312V20.0992C32.7122 19.832 31.567 20.108 30.7593 20.9155L25.5198 26.155C24.7816 26.8923 24.375 27.8735 24.375 28.918V33.5156H23.5938C23.1623 33.5156 22.8125 33.8654 22.8125 34.2969V39.2188C22.8125 39.6502 23.1623 40 23.5938 40H34.5312C34.9627 40 35.3125 39.6502 35.3125 39.2188V34.2969C35.3125 33.8654 34.9627 33.5156 34.5312 33.5156H33.75V33.1469C33.75 32.9415 33.8334 32.7402 33.9791 32.5946L38.8556 27.718C39.5936 26.98 40 25.9989 40 24.9555V14.5312C40 12.8081 38.5981 11.4062 36.875 11.4062ZM33.75 38.4375H24.375V35.0781H33.75V38.4375ZM38.4375 24.9555C38.4375 25.5816 38.1936 26.1703 37.7507 26.6132L32.8741 31.4898C32.4377 31.9262 32.1875 32.5302 32.1875 33.1469V33.5156H25.9375V28.918C25.9375 28.2913 26.1812 27.7027 26.6243 27.2602L31.8641 22.0204C32.4505 21.4339 33.3926 21.4076 34.0087 21.9604C34.0131 21.9643 34.0176 21.9683 34.0221 21.9721C34.0399 21.9873 34.0566 22.0038 34.0735 22.0206C34.3687 22.3155 34.5312 22.7077 34.5312 23.125C34.5312 23.5423 34.3687 23.9345 34.0734 24.2296L30.1913 28.1116C29.8863 28.4167 29.8863 28.9114 30.1913 29.2166C30.4965 29.5216 30.991 29.5217 31.2963 29.2166L35.1781 25.3348C35.7685 24.7446 36.0938 23.9599 36.0938 23.125C36.0938 22.3562 35.8173 21.6303 35.3125 21.0594V14.5312C35.3125 13.6697 36.0134 12.9688 36.875 12.9688C37.7366 12.9688 38.4375 13.6697 38.4375 14.5312V24.9555Z" fill="#314252" fill-opacity="0.5"/>
<path d="M16.4062 33.5156H15.625V28.918C15.625 27.8735 15.2184 26.8923 14.4806 26.1554L9.24078 20.9155C8.43305 20.1078 7.28781 19.8319 6.25 20.0992V14.5312C6.25 12.8081 4.84812 11.4062 3.125 11.4062C1.40188 11.4062 0 12.8081 0 14.5312V24.9555C0 25.9989 0.406406 26.98 1.14437 27.718L6.02094 32.5945C6.16656 32.7402 6.25 32.9414 6.25 33.1469V33.5156H5.46875C5.03734 33.5156 4.6875 33.8654 4.6875 34.2969V39.2188C4.6875 39.6502 5.03734 40 5.46875 40H16.4062C16.8377 40 17.1875 39.6502 17.1875 39.2188V34.2969C17.1875 33.8654 16.8377 33.5156 16.4062 33.5156ZM2.2493 26.6133C1.80641 26.1703 1.5625 25.5816 1.5625 24.9555V14.5312C1.5625 13.6697 2.26344 12.9688 3.125 12.9688C3.98656 12.9688 4.6875 13.6697 4.6875 14.5312V21.0593C4.18266 21.6302 3.90625 22.3561 3.90625 23.125C3.90625 23.9599 4.23148 24.7446 4.8218 25.3345L8.72805 29.2407C9.0332 29.5458 9.52773 29.5458 9.83297 29.2407C10.138 28.9356 10.138 28.4409 9.83297 28.1358L5.92648 24.2293C5.63133 23.9345 5.46875 23.5423 5.46875 23.125C5.46875 22.7077 5.63133 22.3155 5.92625 22.0207C5.94328 22.0037 5.96008 21.9873 5.97781 21.9721L5.99125 21.9604C6.60727 21.4076 7.54938 21.434 8.13578 22.0204L13.376 27.2605C13.8187 27.7027 14.0624 28.2912 14.0624 28.9179V33.5156H7.81242V33.1469C7.8125 32.5302 7.56227 31.9262 7.12586 31.4898L2.2493 26.6133ZM15.625 38.4375H6.25V35.0781H15.625V38.4375Z" fill="#314252" fill-opacity="0.5"/>
<path d="M20 0C13.5383 0 8.28125 5.25703 8.28125 11.7188C8.28125 18.1805 13.5383 23.4375 20 23.4375C26.4617 23.4375 31.7188 18.1805 31.7188 11.7188C31.7188 5.25703 26.4617 0 20 0ZM20 21.875C14.3998 21.875 9.84375 17.3189 9.84375 11.7188C9.84375 6.11859 14.3998 1.5625 20 1.5625C25.6002 1.5625 30.1562 6.11859 30.1562 11.7188C30.1562 17.3189 25.6002 21.875 20 21.875Z" fill="#314252" fill-opacity="0.5"/>
<path d="M25.3948 5.02931C23.362 3.38791 20.7013 2.76884 18.0963 3.33049C17.6745 3.42142 17.4063 3.83705 17.4973 4.25884C17.5882 4.68056 18.0039 4.94853 18.4256 4.85783C20.567 4.39611 22.7495 4.90166 24.4134 6.24494C26.077 7.5883 27.0312 9.58353 27.0312 11.7192C27.0312 15.5963 23.877 18.7505 20 18.7505C16.123 18.7505 12.9688 15.5963 12.9688 11.7192C12.9688 10.5611 13.2562 9.41314 13.8002 8.39955C14.0041 8.01939 13.8613 7.5458 13.4812 7.34174C13.1009 7.13767 12.6273 7.28056 12.4234 7.66072C11.758 8.9008 11.4062 10.3042 11.4062 11.7192C11.4062 16.4578 15.2614 20.313 20 20.313C24.7386 20.313 28.5938 16.4578 28.5938 11.7192C28.5938 9.109 27.4278 6.67064 25.3948 5.02931Z" fill="#314252" fill-opacity="0.5"/>
</svg>
