<svg width="16" height="16" viewBox="0 0 16 16" fill="none" xmlns="http://www.w3.org/2000/svg">
<path d="M7.99968 1.33301C6.68114 1.33301 5.3922 1.724 4.29588 2.45654C3.19955 3.18909 2.34506 4.23028 1.84048 5.44845C1.3359 6.66663 1.20387 8.00707 1.46111 9.30028C1.71834 10.5935 2.35328 11.7814 3.28563 12.7137C4.21798 13.6461 5.40587 14.281 6.69908 14.5382C7.99228 14.7955 9.33273 14.6635 10.5509 14.1589C11.7691 13.6543 12.8103 12.7998 13.5428 11.7035C14.2753 10.6071 14.6663 9.31822 14.6663 7.99967C14.6663 7.1242 14.4939 6.25729 14.1589 5.44845C13.8238 4.63961 13.3328 3.90469 12.7137 3.28563C12.0947 2.66657 11.3597 2.17551 10.5509 1.84048C9.74206 1.50545 8.87516 1.33301 7.99968 1.33301ZM7.99968 13.333C6.94484 13.333 5.9137 13.0202 5.03664 12.4342C4.15957 11.8481 3.47599 11.0152 3.07232 10.0407C2.66865 9.06611 2.56303 7.99376 2.76882 6.95919C2.97461 5.92463 3.48256 4.97432 4.22844 4.22844C4.97432 3.48256 5.92463 2.97461 6.9592 2.76882C7.99376 2.56303 9.06612 2.66865 10.0407 3.07232C11.0152 3.47598 11.8481 4.15957 12.4342 5.03663C13.0202 5.9137 13.333 6.94484 13.333 7.99967C13.333 9.41416 12.7711 10.7707 11.7709 11.7709C10.7707 12.7711 9.41417 13.333 7.99968 13.333ZM10.6663 7.33301H5.33301C5.1562 7.33301 4.98663 7.40325 4.86161 7.52827C4.73658 7.65329 4.66634 7.82286 4.66634 7.99967C4.66634 8.17649 4.73658 8.34606 4.86161 8.47108C4.98663 8.5961 5.1562 8.66634 5.33301 8.66634H10.6663C10.8432 8.66634 11.0127 8.5961 11.1377 8.47108C11.2628 8.34606 11.333 8.17649 11.333 7.99967C11.333 7.82286 11.2628 7.65329 11.1377 7.52827C11.0127 7.40325 10.8432 7.33301 10.6663 7.33301Z" fill="#FF7373"/>
</svg>
