<svg width="40" height="40" viewBox="0 0 40 40" fill="none" xmlns="http://www.w3.org/2000/svg">
<g clip-path="url(#clip0)">
<path d="M9.79353 26.0663C9.49903 25.7728 8.99152 25.7636 8.68879 26.0663C8.38392 26.3703 8.38392 26.8665 8.68879 27.1711C9.13099 27.6133 9.37452 28.2017 9.37544 28.8282C9.37452 29.4547 9.13099 30.0431 8.68879 30.4853C8.38026 30.7938 7.99329 31.0096 7.57093 31.1094C7.15772 31.2073 6.89191 31.6352 6.98865 32.0484C7.07014 32.3954 7.39271 32.6517 7.74885 32.6517C7.80897 32.6517 7.86909 32.6447 7.92768 32.6307C9.14716 32.3383 10.1793 31.46 10.652 30.2976C10.8418 29.8282 10.9389 29.3336 10.9379 28.8282C10.9364 27.7985 10.522 26.7939 9.79353 26.0663Z" fill="#314252" fill-opacity="0.5"/>
<path d="M4.8611 30.2945C4.64686 30.2945 4.44789 30.379 4.29927 30.5328C4.00019 30.8423 4.00782 31.3376 4.31819 31.6376C4.46406 31.7792 4.65724 31.8573 4.8611 31.8573C5.07441 31.8573 5.2743 31.7722 5.42262 31.619C5.56727 31.4688 5.6454 31.2714 5.64235 31.0626C5.63838 30.8542 5.55385 30.6589 5.404 30.5142C5.25721 30.372 5.06495 30.2945 4.8611 30.2945Z" fill="#314252" fill-opacity="0.5"/>
<path d="M32.9688 21.7969C32.8497 21.7969 32.7313 21.7999 32.6135 21.8057L29.5773 16.7096C29.4376 16.4746 29.1849 16.33 28.9114 16.3281L34.5941 9.23859C34.8068 8.97308 34.8233 8.59985 34.6344 8.31665L33.0719 5.9729C32.9727 5.82428 32.8256 5.71411 32.655 5.66071C32.655 5.66071 27.6584 4.09912 27.6581 4.09912C27.5824 4.07532 27.5015 4.0625 27.4219 4.0625H21.9531C21.6824 4.0625 21.431 4.20288 21.2888 4.43298C21.1462 4.66339 21.1334 4.95087 21.2546 5.19318L22.8171 8.31818C22.9492 8.58276 23.2199 8.75 23.5156 8.75H27.2678L28.3154 9.1806L21.81 16.3281H15.137L14.7351 14.7656H15.625C16.9174 14.7656 17.9688 13.7143 17.9688 12.4219C17.9688 11.1298 16.9174 10.0781 15.625 10.0781H13.4976L11.6339 8.95996C10.2325 8.1192 8.44666 8.33893 7.29126 9.49463C6.61987 10.166 6.25 11.059 6.25 12.0084V13.9844C6.25 14.4159 6.59973 14.7656 7.03125 14.7656H9.10248L9.97955 18.0389L7.78656 21.8375C7.53815 21.8109 7.28638 21.7969 7.03125 21.7969C3.1543 21.7969 0 24.9512 0 28.8281C0 32.7054 3.1543 35.8594 7.03125 35.8594C10.9082 35.8594 14.0625 32.7054 14.0625 28.8281C14.0625 27.1957 13.5031 25.6912 12.5659 24.4965L14.1248 21.7969H26.1948L27.6608 24.2218C26.5878 25.4565 25.9375 27.0679 25.9375 28.8281C25.9375 32.7054 29.0918 35.8594 32.9688 35.8594C36.8457 35.8594 40 32.7054 40 28.8281C40 24.9512 36.8457 21.7969 32.9688 21.7969ZM26.6406 7.1875H23.9984L23.2172 5.625H26.6406V7.1875ZM7.8125 13.2031V12.0084C7.8125 11.4761 8.01971 10.9756 8.396 10.5994C9.04388 9.95178 10.0446 9.82849 10.8301 10.3L12.8793 11.5292C13.0005 11.6022 13.1396 11.6406 13.2812 11.6406H15.625C16.0556 11.6406 16.4062 11.9913 16.4062 12.4219C16.4062 12.8528 16.0556 13.2031 15.625 13.2031H7.8125ZM7.03125 34.2969C4.01581 34.2969 1.5625 31.8436 1.5625 28.8281C1.5625 25.8127 4.01581 23.3594 7.03125 23.3594C10.0467 23.3594 12.5 25.8127 12.5 28.8281C12.5 31.8436 10.0467 34.2969 7.03125 34.2969ZM27.3038 20.6116C27.1625 20.3775 26.9089 20.2344 26.6354 20.2344H13.6737C13.3945 20.2344 13.1366 20.3833 12.9971 20.625L11.427 23.3447C10.8191 22.8564 10.1291 22.4673 9.3808 22.2012L11.4944 18.54C11.5982 18.3606 11.6263 18.1473 11.5726 17.9474L10.7202 14.7656H13.1216L13.7747 17.3041C13.8635 17.6492 14.1748 17.8906 14.5312 17.8906H22.1555C22.3755 17.8906 22.5851 17.7979 22.7332 17.6352L30.2216 9.40765C30.3931 9.21936 30.4617 8.95905 30.4059 8.71033C30.35 8.46161 30.1764 8.25623 29.9408 8.15918L28.2031 7.44537V5.90637L31.925 7.0697L33.0173 8.70789L26.6745 16.6208C26.4865 16.8552 26.4496 17.1768 26.5796 17.4475C26.7099 17.7185 26.9836 17.8909 27.2839 17.8909H28.4622L30.9634 22.0889C30.1901 22.3193 29.4724 22.6794 28.8351 23.1442L27.3038 20.6116ZM32.9688 34.2969C29.9533 34.2969 27.5 31.8436 27.5 28.8281C27.5 25.8127 29.9533 23.3594 32.9688 23.3594C35.9842 23.3594 38.4375 25.8127 38.4375 28.8281C38.4375 31.8436 35.9842 34.2969 32.9688 34.2969Z" fill="#314252" fill-opacity="0.5"/>
<path d="M36.5895 27.3587C36.3927 26.8726 36.1037 26.4383 35.7316 26.0663C35.4301 25.7648 34.9272 25.7654 34.6263 26.0663C34.3242 26.3684 34.3257 26.8689 34.6263 27.171C35.0685 27.6132 35.312 28.2016 35.3129 28.8281C35.3142 29.8908 34.5399 30.8652 33.5084 31.1093C33.0949 31.2073 32.8294 31.6351 32.9262 32.0484C32.9665 32.2205 33.0662 32.3764 33.2051 32.4851C33.3418 32.5922 33.513 32.6517 33.6864 32.6517C33.7459 32.6517 33.8066 32.6447 33.8652 32.6306C35.0847 32.3444 36.1174 31.4563 36.5895 30.2976C36.7793 29.8282 36.8764 29.3335 36.8754 28.8281C36.8745 28.3258 36.7781 27.8244 36.5895 27.3587Z" fill="#314252" fill-opacity="0.5"/>
<path d="M30.797 30.2945C30.5828 30.2945 30.3838 30.379 30.2352 30.5328C30.0899 30.683 30.0118 30.8798 30.0158 31.0892C30.0188 31.2976 30.104 31.4923 30.2541 31.6376C30.4 31.7792 30.5932 31.8573 30.797 31.8573C31.0103 31.8573 31.2093 31.7722 31.3585 31.619C31.5032 31.4688 31.5813 31.2714 31.5773 31.0626C31.5743 30.8542 31.4898 30.6589 31.3399 30.5142C31.1931 30.372 31 30.2945 30.797 30.2945Z" fill="#314252" fill-opacity="0.5"/>
<path d="M7.8125 28.8281C7.8125 29.2596 7.46277 29.6094 7.03125 29.6094C6.59973 29.6094 6.25 29.2596 6.25 28.8281C6.25 28.3966 6.59973 28.0469 7.03125 28.0469C7.46277 28.0469 7.8125 28.3966 7.8125 28.8281Z" fill="#314252" fill-opacity="0.5"/>
<path d="M33.75 28.8281C33.75 29.2596 33.4003 29.6094 32.9688 29.6094C32.5372 29.6094 32.1875 29.2596 32.1875 28.8281C32.1875 28.3966 32.5372 28.0469 32.9688 28.0469C33.4003 28.0469 33.75 28.3966 33.75 28.8281Z" fill="#314252" fill-opacity="0.5"/>
</g>
<defs>
<clipPath id="clip0">
<rect width="40" height="40" fill="white"/>
</clipPath>
</defs>
</svg>
