<svg width="40" height="40" viewBox="0 0 40 40" fill="none" xmlns="http://www.w3.org/2000/svg">
<path d="M20 35.0781C19.5687 35.0781 19.2188 35.4281 19.2188 35.8594C19.2188 36.2855 19.5636 36.6406 20 36.6406C20.4366 36.6406 20.7812 36.2854 20.7812 35.8594C20.7812 35.4281 20.4312 35.0781 20 35.0781Z" fill="#314252" fill-opacity="0.5"/>
<path d="M3.60053 30.522C2.51037 29.829 1.05896 30.1518 0.365213 31.2418C-0.328068 32.332 -0.00494294 33.7837 1.0856 34.478C6.60287 37.9873 13.4967 40 19.9994 40C26.5027 40 33.3965 37.9873 38.9135 34.4777C40.0039 33.7837 40.3269 32.332 39.6335 31.2413C38.9399 30.1519 37.4887 29.829 36.3982 30.522C35.662 30.99 34.8946 31.4301 34.1041 31.8395L31.1771 23.4375H34.0619C34.4934 23.4375 34.8432 23.0877 34.8432 22.6562C34.8432 20.5023 33.0908 18.75 30.9369 18.75H30.8588V13.2812C30.8588 11.1273 29.1019 9.375 26.9424 9.375H12.708L10.794 2.81242C10.3108 1.15656 8.76881 0 7.04396 0H4.37443C4.12928 0 3.89834 0.115078 3.75076 0.310859C3.6031 0.506563 3.55592 0.760234 3.62326 0.995938L9.54967 21.7368C9.70912 22.2966 10.0619 22.7608 10.5306 23.0627L7.21935 32.4836C5.9574 31.903 4.74099 31.2459 3.60053 30.522ZM37.2365 31.8406C37.6001 31.6095 38.0841 31.7171 38.3152 32.0801C38.5464 32.4437 38.4384 32.928 38.0747 33.1595C32.8019 36.5137 26.2137 38.4375 19.9994 38.4375C13.7857 38.4375 7.19756 36.5137 1.92443 33.1597C1.56053 32.928 1.45248 32.4437 1.68349 32.0805C1.91474 31.7172 2.39881 31.6096 2.76271 31.8409C6.84889 34.4347 11.9606 36.2691 16.7964 36.774C17.2253 36.8174 17.6097 36.5073 17.6545 36.078C17.6994 35.6489 17.3877 35.2648 16.9586 35.2199C15.2017 35.0366 13.394 34.6661 11.6084 34.1356L15.3858 23.4375H26.1655L29.7856 33.6915C27.5526 34.4653 25.2558 34.9923 23.0415 35.2198C22.6123 35.2637 22.3001 35.6475 22.3442 36.0767C22.3883 36.506 22.7726 36.8181 23.2012 36.7741C27.9698 36.2842 33.0865 34.4793 37.2365 31.8406ZM25.9369 18.75H15.4424L14.0752 14.0625H25.9369V18.75ZM32.6894 32.528C32.2152 32.7448 31.735 32.9509 31.2498 33.1452L27.8226 23.4375H29.5225L32.6894 32.528ZM30.9369 20.3125C31.9555 20.3125 32.8244 20.9655 33.1469 21.875H30.8588V20.3125H30.9369ZM26.9424 10.9375C28.2404 10.9375 29.2963 11.9889 29.2963 13.2812C29.2963 14.1177 29.2963 21.0287 29.2963 21.875H27.4994C27.4994 21.0298 27.4994 14.117 27.4994 13.2812C27.4994 12.8498 27.1497 12.5 26.7182 12.5H13.6195L13.1638 10.9375H26.9424ZM5.41021 1.5625H7.04396C8.07889 1.5625 9.00412 2.25648 9.29396 3.25C9.45678 3.80812 13.8895 19.0063 14.1065 19.75C14.2037 20.0834 14.5092 20.3125 14.8565 20.3125H25.9369V21.875H11.8033C11.4525 21.875 11.1484 21.6458 11.0522 21.308L5.41021 1.5625ZM12.0551 23.4375H13.7287L10.1211 33.6551C9.62928 33.4831 9.14092 33.299 8.65724 33.1038L12.0551 23.4375Z" fill="#314252" fill-opacity="0.5"/>
</svg>
