<svg width="70" height="70" viewBox="0 0 70 70" fill="none" xmlns="http://www.w3.org/2000/svg">
<path d="M52.4727 15.9936L54.0196 14.4473L55.5659 15.9936L54.0196 17.54L52.4727 15.9936Z" fill="#BAC4D2"/>
<path d="M20.0186 48.4485L35.3284 33.1387L36.8747 34.685L21.5649 49.9949L20.0186 48.4485Z" fill="#BAC4D2"/>
<path d="M4.38379 62.3457H28.4421V64.5328H4.38379V62.3457Z" fill="#BAC4D2"/>
<path d="M4.38379 57.9707H8.75803V60.1578H4.38379V57.9707Z" fill="#BAC4D2"/>
<path d="M10.9492 57.9707H15.3235V60.1578H10.9492V57.9707Z" fill="#BAC4D2"/>
<path d="M17.5088 57.9707H28.4444V60.1578H17.5088V57.9707Z" fill="#BAC4D2"/>
<path d="M62.2117 23.2645C68.0357 17.4774 70.8379 9.31094 69.793 1.16744L69.684 0.322711L68.8398 0.213782C60.6963 -0.827983 52.5315 1.97533 46.7454 7.79982L42.7888 11.757L35.8296 10.9838L25.4056 21.4079L30.8189 26.8212L35.4574 22.1811L37.0433 23.767L32.3653 28.445H4.38498C1.96932 28.445 0.0107422 30.4036 0.0107422 32.8193V65.6261C0.0107422 68.0417 1.96932 70.0003 4.38498 70.0003H52.5016C54.9178 70.0003 56.8758 68.0417 56.8758 65.6261V36.3328L59.0272 34.1819L58.254 27.2233L62.2117 23.2645ZM67.7142 2.29571C68.1168 6.66888 67.3228 11.0693 65.4177 15.026L54.9851 4.59229C58.9423 2.68817 63.3416 1.8947 67.7142 2.29571ZM33.9111 20.6347L30.8189 23.7285L28.4983 21.4079L36.6322 13.273L40.8083 13.7375L37.0246 17.5201L33.9111 20.6347ZM38.5897 25.3128L40.8708 27.5944L37.777 30.6866L39.3233 32.233L42.4171 29.1402L44.6982 31.4219L35.5899 40.5286L37.1362 42.075L46.2446 32.9677L47.8299 34.5536L43.1903 39.1937L48.6031 44.6055L50.3145 42.893V52.5033H6.5721V35.0064H25.8039L23.5607 37.248L25.1071 38.7943L38.5897 25.3128ZM54.6887 65.6261C54.6887 66.8339 53.7099 67.8132 52.5016 67.8132H4.38498C3.17715 67.8132 2.19786 66.8339 2.19786 65.6261V32.8193C2.19786 31.6114 3.17715 30.6321 4.38498 30.6321H30.1781L27.991 32.8193H4.38498V54.6905H52.5016V40.707L54.6887 38.5199V65.6261ZM48.6031 41.5127L46.2825 39.1937L49.3763 36.0999L56.2724 29.2027L56.7359 33.3789L48.6031 41.5127ZM49.3763 33.0062L43.9635 27.5944L48.6031 22.9543L47.0568 21.4079L42.4171 26.047L37.0038 20.6347L48.2918 9.34618C49.7004 7.93865 51.2756 6.70839 52.9816 5.68158L64.33 17.0294C63.3026 18.7349 62.0724 20.3095 60.6654 21.7187L49.3763 33.0062Z" fill="#2F5597"/>
<path d="M25.4814 9.08051L34.2304 0.332031L35.7768 1.87839L27.0278 10.6269L25.4814 9.08051Z" fill="#BAC4D2"/>
<path d="M16.7324 9.08036L23.2938 2.51953L24.8401 4.06589L18.2788 10.6273L16.7324 9.08036Z" fill="#BAC4D2"/>
<path d="M59.3867 42.9809L68.1357 34.2324L69.6821 35.7788L60.9336 44.5273L59.3867 42.9809Z" fill="#BAC4D2"/>
<path d="M59.3867 51.7288L65.9476 45.168L67.4945 46.7143L60.9331 53.2757L59.3867 51.7288Z" fill="#BAC4D2"/>
<path d="M18.9209 41.8876L22.0142 38.7949L23.5605 40.3413L20.4673 43.4345L18.9209 41.8876Z" fill="#BAC4D2"/>
<path d="M30.9512 45.1689L34.0444 42.0762L35.5908 43.6225L32.4975 46.7158L30.9512 45.1689Z" fill="#BAC4D2"/>
<path d="M31.7275 65.6254H50.3181V56.877H31.7275V65.6254ZM43.7567 59.0641H48.1309V63.4383H43.7567V59.0641ZM33.9147 59.0641H41.5696V63.4383H33.9147V59.0641Z" fill="#2F5597"/>
</svg>
