<svg fill="none" height="75" viewBox="0 0 75 75" width="75" xmlns="http://www.w3.org/2000/svg"><g fill="#bac4d2"><path d="m14.0625 65.625h14.0625v2.3438h-14.0625z"/><path d="m2.34375 59.7656h2.34375v2.3438h-2.34375z"/><path d="m7.03125 59.7656h11.71875v2.3438h-11.71875z"/><path d="m28.125 53.9062h4.6875v2.3438h-4.6875z"/><path d="m7.03125 53.9062h16.40625v2.3438h-16.40625z"/><path d="m63.2812 5.85938h4.6876v2.34374h-4.6876z"/><path d="m49.2188 10.5469h4.6874v2.3437h-4.6874z"/><path d="m49.2188 15.2344h9.375v2.3437h-9.375z"/><path d="m49.2188 5.85938h11.7187v2.34374h-11.7187z"/><path d="m56.25 10.5469h11.7188v2.3437h-11.7188z"/><path d="m0 72.6562h9.375v2.3438h-9.375z"/><path d="m0 47.2017h4.6875v2.3437h-4.6875z"/><path d="m0 42.1875h18.75v2.3437h-18.75z"/><path d="m0 37.5h7.03125v2.3438h-7.03125z"/></g><path d="m63.715 23.4375h11.285v-23.4375h-32.8125v12.8906h-17.5781v-12.8906h-24.6094v24.6094h7.7179l8.6883 8.6883v-8.6883h3.5157v10.5468h10.5469v8.6884l8.6883-8.6884h10.0617v8.257c.0005.4852-.1494.9578-.4303 1.3538l-3.138 4.4374c-.4395.6215-1.153.9905-1.914.9905h-3.8927v-3.3199h-30.4688v2.3438h28.125v23.4374h-23.4375v2.3438h25.7813v-3.5156h5.5349l5.8594 3.5156h10.8713c2.2653 0 4.1015-1.8362 4.1015-4.1016v-1.9289c1.7373-.5201 2.928-2.1171 2.9297-3.9304v-1.9289c1.7372-.5202 2.928-2.1172 2.9297-3.9305v-1.9289c1.9512-.5819 3.1803-2.5074 2.8862-4.5227-.2941-2.0148-2.0216-3.5093-4.0581-3.5093h-12.3046v-7.0313c-.0052-4.5284-3.6747-8.198-8.2032-8.2031h-1.1718v-10.5469h4.6874v8.4068zm-49.6525-1.1719v5.3742l-5.37415-5.3742h-6.3446v-19.92185h19.92185v19.92185zm32.8125 10.5469h-8.6884l-5.3741 5.3741v-5.3741h-10.5469v-8.2031h2.3438v-9.375h17.5781v8.2031h4.6875zm3.8275 13.3078c.5607-.7908.8617-1.7373.86-2.7071v-6.9678c2.7266.5602 4.6846 2.9589 4.6875 5.7421v9.375h14.6484c.9711 0 1.7578.7868 1.7578 1.7578s-.7867 1.7578-1.7578 1.7578h-7.6172v2.3438h6.4454v1.7578c0 .971-.7868 1.7578-1.7578 1.7578h-7.0313v2.3437h5.8594v1.7579c0 .971-.7868 1.7578-1.7578 1.7578h-4.1016v2.3437h2.9297v1.7578c0 .9711-.7868 1.7578-1.7578 1.7578h-10.2225l-5.8593-3.5156h-6.1838v-16.6019h3.8927c1.5214-.0006 2.948-.7393 3.8274-1.9804zm-6.1713-25.0265v-18.75005h28.125v18.75005h-9.8087l-6.5975 5.6556v-5.6556z" fill="#2f5597"/><path d="m26.9531 23.4375h11.7188v2.3437h-11.7188z" fill="#bac4d2"/><path d="m33.9844 18.75h3.5156v2.3438h-3.5156z" fill="#bac4d2"/><path d="m26.9531 18.75h4.6875v2.3438h-4.6875z" fill="#bac4d2"/><path d="m4.6875 10.5469h9.375v2.3437h-9.375z" fill="#bac4d2"/><path d="m4.6875 15.2344h11.7187v2.3437h-11.7187z" fill="#bac4d2"/><path d="m4.6875 5.85938h3.51562v2.34374h-3.51562z" fill="#bac4d2"/><path d="m10.5469 5.85938h7.0312v2.34374h-7.0312z" fill="#bac4d2"/></svg>