<svg width="40" height="40" viewBox="0 0 40 40" fill="none" xmlns="http://www.w3.org/2000/svg">
<path d="M13.334 0C7.81115 0 3.33398 4.47717 3.33398 10V17.3333C3.3369 19.9094 5.42457 21.9971 8.00065 22H8.66732V20.6667H8.00065C6.16065 20.6645 4.66948 19.1733 4.66732 17.3333V10C4.66732 5.2135 8.54748 1.33333 13.334 1.33333C18.1205 1.33333 22.0007 5.2135 22.0007 10V17.3333C21.9985 19.1733 20.5073 20.6645 18.6673 20.6667H18.0007V22H18.6673C21.2434 21.9971 23.3311 19.9094 23.334 17.3333V10C23.334 4.47717 18.8568 0 13.334 0Z" fill="#314252" fill-opacity="0.5"/>
<path d="M5.49443 31.4193L5.98176 30.6519L4.85576 29.9373L4.36843 30.7053C2.89451 33.0279 3.00393 36.0186 4.64376 38.2273V39.9999H5.97709V37.9999C5.97717 37.8485 5.92567 37.7015 5.83109 37.5833C4.41376 35.8114 4.27851 33.3349 5.49443 31.4193Z" fill="#314252" fill-opacity="0.5"/>
<path d="M36.666 0H27.9993C26.1593 0.00216667 24.6682 1.49333 24.666 3.33333V10C24.6682 11.84 26.1593 13.3312 27.9993 13.3333H29.3327V16C29.3326 16.2696 29.4949 16.5127 29.744 16.616C29.8249 16.6497 29.9117 16.6669 29.9993 16.6667C30.1762 16.6667 30.3457 16.5963 30.4707 16.4713L33.6087 13.3333H36.666C38.506 13.3312 39.9972 11.84 39.9993 10V3.33333C39.9972 1.49333 38.506 0.00216667 36.666 0ZM38.666 10C38.666 11.1046 37.7706 12 36.666 12H33.3327C33.1558 12 32.9863 12.0703 32.8613 12.1953L30.666 14.3907V12.6667C30.666 12.2985 30.3675 12 29.9993 12H27.9993C26.8948 12 25.9993 11.1046 25.9993 10V3.33333C25.9993 2.22875 26.8948 1.33333 27.9993 1.33333H36.666C37.7706 1.33333 38.666 2.22875 38.666 3.33333V10Z" fill="#314252" fill-opacity="0.5"/>
<path d="M32.6667 3.33337H28V4.66671H32.6667V3.33337Z" fill="#314252" fill-opacity="0.5"/>
<path d="M36.6667 3.33337H34V4.66671H36.6667V3.33337Z" fill="#314252" fill-opacity="0.5"/>
<path d="M36.6667 6H28V7.33333H36.6667V6Z" fill="#314252" fill-opacity="0.5"/>
<path d="M32.6667 8.66663H28V9.99996H32.6667V8.66663Z" fill="#314252" fill-opacity="0.5"/>
<path d="M22.2989 30.7053L21.8115 29.9373L20.6855 30.6519L21.1729 31.4199C22.3889 33.3353 22.2536 35.8117 20.8362 37.5833C20.7416 37.7015 20.6901 37.8485 20.6902 37.9999V39.9999H22.0235V38.2273C23.6634 36.0186 23.7728 33.0279 22.2989 30.7053Z" fill="#314252" fill-opacity="0.5"/>
<path d="M39.3333 22.6667H33.3333C30.832 22.6696 28.7778 24.6441 28.676 27.1433L26.6667 30.7606V28C26.6638 25.4239 24.5761 23.3362 22 23.3333H19.5633L19.5453 23.3193L19.5333 23.3333H18C17.2636 23.3333 16.6667 22.7364 16.6667 22V20.4313C18.7266 19.242 19.9968 17.0452 20 14.6667V9.33333C19.999 8.22875 19.7242 7.14167 19.2 6.16934C19.0321 5.86 18.6526 5.73442 18.3333 5.88267L7.04933 11.192C6.81567 11.302 6.66658 11.5371 6.66667 11.7953V14.6667C6.66983 17.0452 7.94008 19.242 10 20.4313V22C10 22.7364 9.40308 23.3333 8.66667 23.3333H4.66667C2.09058 23.3362 0.00291667 25.4239 0 28V40H1.33333V28C1.3355 26.16 2.82667 24.6688 4.66667 24.6667H6.788L12.7913 33.0546C12.9147 33.2271 13.1127 33.3305 13.3247 33.3333H13.3333C13.5432 33.3333 13.7408 33.2345 13.8667 33.0666L20.2 24.6667H22C23.84 24.6688 25.3312 26.16 25.3333 28V33.3333C25.3337 33.7015 25.6324 33.9997 26.0006 33.9994C26.2424 33.9991 26.4652 33.8681 26.5827 33.6566L29.7253 28H33.5473L27.0473 40H28.564L35.0667 28H35.3333C37.9094 27.9971 39.9971 25.9094 40 23.3333C40 22.9652 39.7015 22.6667 39.3333 22.6667ZM8 14.6667V12.2187L18.294 7.37467C18.5403 7.99833 18.6667 8.66283 18.6667 9.33333V14.6667C18.6667 17.6122 16.2788 20 13.3333 20C10.3878 20 8 17.6122 8 14.6667ZM13.3473 31.5413L11.29 28.6666H15.514L13.3473 31.5413ZM16.5227 27.3333H10.3333L8.42467 24.6667H8.66667C10.1394 24.6667 11.3333 23.4727 11.3333 22V21.026C12.6352 21.4357 14.0315 21.4357 15.3333 21.026V22C15.3333 23.4727 16.5273 24.6667 18 24.6667H18.5333L16.5227 27.3333ZM35.3333 26.6667H30.0667C30.3854 25.1156 31.7498 24.0017 33.3333 24H38.6C38.2813 25.5511 36.9168 26.6649 35.3333 26.6667Z" fill="#314252" fill-opacity="0.5"/>
</svg>
