<svg width="40" height="40" viewBox="0 0 40 40" fill="none" xmlns="http://www.w3.org/2000/svg">
<g clip-path="url(#clip0)">
<path d="M25.6658 29.3756C24.0093 29.3756 22.666 30.7187 22.666 32.3756C22.666 34.0325 24.0093 35.3755 25.6658 35.3755C27.3229 35.3755 28.6658 34.0325 28.6658 32.3756C28.6643 30.7197 27.3221 29.3774 25.6658 29.3756ZM25.6658 34.0421C24.7457 34.0421 23.9992 33.2962 23.9992 32.3756C23.9992 31.4553 24.7457 30.7088 25.6658 30.7088C26.5865 30.7088 27.3324 31.4553 27.3324 32.3756C27.3324 33.2962 26.5865 34.0421 25.6658 34.0421Z" fill="#314252" fill-opacity="0.5"/>
<path d="M32.334 34.0421C30.6776 34.0421 29.334 35.3855 29.334 37.0425C29.334 38.699 30.6776 40.0425 32.334 40.0425C33.9909 40.0425 35.3343 38.699 35.3343 37.0425C35.3323 35.3864 33.9904 34.0443 32.334 34.0421ZM32.334 38.7089C31.4137 38.7089 30.6674 37.9629 30.6674 37.0425C30.6674 36.1218 31.4137 35.3755 32.334 35.3755C33.2548 35.3755 34.0008 36.1218 34.0008 37.0425C34.0008 37.9629 33.2548 38.7089 32.334 38.7089Z" fill="#314252" fill-opacity="0.5"/>
<path d="M0.557602 13.3666C1.6435 13.5476 2.49477 14.3994 2.67592 15.4858C2.7304 15.8062 3.00797 16.0411 3.33334 16.0411C3.65854 16.0411 3.93628 15.8062 3.99076 15.4858C4.17175 14.3994 5.02302 13.5476 6.10908 13.3666C6.43011 13.3122 6.6649 13.0344 6.6649 12.7091C6.6649 12.3835 6.43011 12.1063 6.10908 12.0518C5.02302 11.8702 4.17175 11.0187 3.99076 9.93248C3.93628 9.61162 3.65854 9.37683 3.33334 9.37683C3.00797 9.37683 2.7304 9.61162 2.67592 9.93248C2.49477 11.0187 1.6435 11.8702 0.557602 12.0518C0.236579 12.1063 0.00195312 12.3835 0.00195312 12.7091C0.00195312 13.0344 0.236579 13.3122 0.557602 13.3666ZM3.33334 11.7572C3.59304 12.1272 3.91556 12.449 4.28555 12.7091C3.91556 12.9691 3.59304 13.2911 3.33334 13.6611C3.07348 13.2911 2.75129 12.9691 2.3813 12.7091C2.75129 12.449 3.07348 12.1272 3.33334 11.7572Z" fill="#314252" fill-opacity="0.5"/>
<path d="M39.6224 8.10892L22.9559 0.108901C22.7733 0.0206657 22.5602 0.0206657 22.3774 0.108901L5.71095 8.14835C5.48652 8.25648 5.3413 8.48041 5.33428 8.7289C5.32692 8.9779 5.45861 9.20985 5.67602 9.33118L22.3426 18.6256C22.5448 18.7388 22.7905 18.7388 22.9927 18.6256L31.3338 13.953V22.7284C28.8271 22.8763 26.4407 23.8543 24.5512 25.5092L22.6673 27.1562L22.3446 26.8743L21.4668 27.8742L22.2288 28.5409C22.4798 28.7609 22.8548 28.7609 23.106 28.5409L25.4294 26.509C27.2486 24.9176 29.5838 24.0413 32.0006 24.0421C32.3689 24.0421 32.6673 23.744 32.6673 23.3755V13.2064L36.0006 11.3397V16.7089C35.6879 16.7087 35.4172 16.9258 35.3497 17.2309L34.0163 23.2313C33.9722 23.4285 34.0204 23.6355 34.1471 23.7928C34.2738 23.9507 34.4651 24.0426 34.6673 24.0421H38.6672C38.8695 24.0426 39.0611 23.9507 39.1877 23.7928C39.3142 23.6355 39.3624 23.4285 39.3184 23.2313L37.9854 17.2309C37.9175 16.9258 37.6466 16.7087 37.3338 16.7089V10.593L39.6593 9.2909C39.8764 9.16958 40.0081 8.93713 40.0002 8.68846C39.9924 8.4398 39.8468 8.21603 39.6224 8.10841V8.10892ZM37.8361 22.709H35.4987L36.534 18.0421H36.8007L37.8361 22.709ZM36.7601 9.38632C36.7522 9.38632 36.7452 9.38064 36.7365 9.3788L24.5621 8.09738C24.2614 7.17542 23.3405 6.6039 22.3804 6.7431C21.4208 6.88231 20.7004 7.69264 20.6744 8.66206C20.6485 9.63165 21.3238 10.4796 22.275 10.6702C23.2257 10.8608 24.1759 10.3395 24.5258 9.43462L34.7514 10.5092L22.6673 17.2782L7.44691 8.79107L22.6673 1.44881L37.8871 8.7543L36.7601 9.38632ZM23.3338 8.70885C23.3338 9.077 23.0357 9.37563 22.6673 9.37563C22.2992 9.37563 22.0006 9.077 22.0006 8.70885C22.0006 8.3407 22.2992 8.0424 22.6673 8.0424C23.0357 8.0424 23.3338 8.3407 23.3338 8.70885Z" fill="#314252" fill-opacity="0.5"/>
<path d="M32.9999 26.7089C31.3434 26.7089 30 28.0519 30 29.7089C30 31.3658 31.3434 32.709 32.9999 32.709C34.6568 32.709 36 31.3658 36 29.7089C35.9984 28.0529 34.6563 26.711 32.9999 26.7089ZM32.9999 31.3756C32.0797 31.3756 31.3332 30.6297 31.3332 29.7089C31.3332 28.7886 32.0797 28.0421 32.9999 28.0421C33.9205 28.0421 34.6668 28.7886 34.6668 29.7089C34.6668 30.6297 33.9205 31.3756 32.9999 31.3756Z" fill="#314252" fill-opacity="0.5"/>
<path d="M20.6667 35.0995V29.3756C20.6611 25.5542 18.3287 22.1216 14.7779 20.7088L16.5914 17.2228C16.7494 16.9175 16.6491 16.542 16.36 16.3563L15.6936 15.9287C14.6668 15.2775 13.3769 15.2001 12.2796 15.7235C11.6813 16.0076 10.9872 16.0076 10.3886 15.7235C9.29163 15.1989 8.00136 15.2765 6.97495 15.9287L6.30817 16.3563C6.01923 16.542 5.9188 16.9175 6.07689 17.2228L7.88856 20.7088C4.33825 22.1216 2.00586 25.5542 2.00001 29.3756V35.0995L0.609299 36.4899C0.0142106 37.0855 -0.163597 37.9805 0.158596 38.7576C0.480455 39.5352 1.23931 40.0424 2.08072 40.0424H20.5863C21.4277 40.0424 22.1865 39.5352 22.5086 38.7576C22.8308 37.9805 22.6526 37.0855 22.0577 36.4899L20.6667 35.0995ZM7.53929 17.1483L7.69404 17.049C8.33107 16.6459 9.1302 16.598 9.81035 16.9228C10.7738 17.3817 11.8929 17.3817 12.8568 16.9228C13.537 16.598 14.3358 16.6459 14.973 17.049L15.1275 17.1483L13.4872 20.3029C12.0722 19.9553 10.5948 19.9553 9.18017 20.3029L7.53929 17.1483ZM20.5863 38.7088H2.08072C1.77842 38.709 1.50586 38.5268 1.38988 38.2474C1.27424 37.9682 1.33824 37.6466 1.55215 37.4327L3.13788 35.8468C3.26338 35.722 3.33357 35.5524 3.33357 35.3754V29.3756C3.33357 24.9573 6.91529 21.3756 11.3332 21.3756C15.7515 21.3756 19.3333 24.9573 19.3333 29.3756V35.3754C19.3336 35.5524 19.4036 35.722 19.5291 35.8468L21.115 37.4327C21.3289 37.6466 21.3929 37.9682 21.2771 38.2474C21.1611 38.5268 20.8886 38.709 20.5863 38.7088Z" fill="#314252" fill-opacity="0.5"/>
<path d="M11.9994 29.3757H10.6662C10.2979 29.3757 9.99941 29.077 9.99941 28.7089C9.99941 28.3407 10.2979 28.0421 10.6662 28.0421H13.333V26.7089H11.9994V25.3755H10.6662V26.7089C9.56157 26.7089 8.66602 27.6043 8.66602 28.7089C8.66602 29.8132 9.56157 30.7089 10.6662 30.7089H11.9994C12.3677 30.7089 12.6662 31.0073 12.6662 31.3757C12.6662 31.7438 12.3677 32.0424 11.9994 32.0424H9.33263V33.3755H10.6662V34.7089H11.9994V33.3755C13.1044 33.3755 13.9994 32.4799 13.9994 31.3757C13.9994 30.2711 13.1044 29.3757 11.9994 29.3757Z" fill="#314252" fill-opacity="0.5"/>
</g>
<defs>
<clipPath id="clip0">
<rect width="40" height="40" fill="white"/>
</clipPath>
</defs>
</svg>
