<svg width="60" height="75" viewBox="0 0 60 75" fill="none" xmlns="http://www.w3.org/2000/svg">
<g opacity="0.3">
<path d="M20.3259 27.2619C21.1275 25.5693 23.0397 24.7809 24.6057 25.5009C24.9387 25.6545 25.2237 25.8747 25.4727 26.1315C25.8303 25.4235 26.4297 24.8829 27.1857 24.6129C27.9687 24.3327 28.8183 24.3735 29.5797 24.7227C30.0573 24.9429 30.4425 25.2753 30.7443 25.6635C30.9777 25.4961 31.2273 25.3485 31.5069 25.2489C32.2905 24.9687 33.1401 25.0095 33.9003 25.3587C34.2333 25.5117 34.5171 25.7241 34.7667 25.9653L36.7749 21.6093C37.4925 20.0535 39.3597 19.3785 40.9371 20.1057C41.6973 20.4561 42.2787 21.0777 42.5739 21.8553C42.8733 22.6401 42.8451 23.4903 42.4959 24.2463L37.5771 34.9155L37.7163 34.8183C39.1971 33.7641 41.2833 34.1049 42.3705 35.5761C43.0545 36.5013 43.5177 38.0235 41.8491 40.0221C41.7849 40.1001 35.2959 47.8239 29.0649 49.7187C28.9617 49.7505 28.8591 49.7649 28.7565 49.7649C28.3053 49.7649 27.8871 49.4727 27.7485 49.0173C27.5793 48.4605 27.8925 47.8707 28.4505 47.7021C33.1263 46.2783 38.5377 40.7007 40.2291 38.6709C41.1867 37.5237 40.8657 37.0887 40.6743 36.8289C40.2663 36.2769 39.4875 36.1455 38.9355 36.5385L35.8143 38.7387L34.7589 41.0283C34.5813 41.4147 34.1991 41.6409 33.8007 41.6409C33.6531 41.6409 33.5025 41.6097 33.3597 41.5443C32.8311 41.3007 32.5995 40.6737 32.8437 40.1451L40.5801 23.3625C40.6899 23.1243 40.6977 22.8561 40.6029 22.6047C40.5045 22.3467 40.3095 22.1391 40.0539 22.0209C39.5337 21.7815 38.9205 21.9921 38.6907 22.4919L35.4609 29.4975V29.4981L35.4603 29.4987L33.6957 33.3261C33.4521 33.8547 32.8257 34.0869 32.2965 33.8427C31.7679 33.5991 31.5363 32.9721 31.7805 32.4435L33.5457 28.6143C33.7749 28.1145 33.5391 27.5139 33.0183 27.2733C32.7615 27.1545 32.4777 27.1413 32.2173 27.2343C31.9653 27.3243 31.7655 27.5055 31.6551 27.7437L29.8905 31.5717C29.8905 31.5723 29.8899 31.5729 29.8899 31.5729L29.6493 32.0943C29.4717 32.4807 29.0901 32.7069 28.6911 32.7069C28.5435 32.7069 28.3929 32.6763 28.2501 32.6109C27.7215 32.3673 27.4905 31.7403 27.7347 31.2117L29.2239 27.9795C29.4543 27.4797 29.2179 26.8779 28.6977 26.6373C28.4403 26.5185 28.1565 26.5053 27.8961 26.5983C27.6441 26.6883 27.4443 26.8695 27.3345 27.1077L25.4463 31.2033C25.2033 31.7325 24.5763 31.9641 24.0471 31.7199C23.5185 31.4763 23.2869 30.8493 23.5311 30.3201L24.1149 29.0541C24.1149 29.0535 24.1149 29.0529 24.1155 29.0523C24.2745 28.7091 24.3069 28.3395 24.2097 28.0125C24.1605 27.8511 24.0339 27.5589 23.7237 27.4155C23.2113 27.1785 22.5255 27.5301 22.2255 28.1811C22.2135 28.2045 22.2021 28.2279 22.1901 28.2501C22.1469 28.3287 17.8317 36.2151 17.8119 43.1799C17.8095 43.7613 17.3379 44.2311 16.7571 44.2311C16.7559 44.2311 16.7547 44.2311 16.7535 44.2311C16.1709 44.2287 15.6999 43.7565 15.7023 43.1727C15.7239 35.8221 19.9671 27.9171 20.3259 27.2619Z" fill="black"/>
<path d="M40.2258 16.8106C39.8838 16.8106 39.5484 16.6444 39.345 16.3372C39.0246 15.8512 39.1584 15.1966 39.6438 14.8756L40.1892 14.515C33.3678 13.1032 26.0214 13.1686 19.842 14.7496C19.7544 14.7724 19.6662 14.7826 19.5792 14.7826C19.1094 14.7826 18.6804 14.4664 18.5586 13.99C18.4146 13.4254 18.7542 12.8512 19.3188 12.7066C25.8408 11.0386 33.5916 10.9594 40.7604 12.4636L40.284 11.7418C39.9624 11.2558 40.0962 10.6018 40.5822 10.2808C41.0688 9.95858 41.7222 10.093 42.0432 10.579L43.872 13.3468C44.0262 13.5802 44.0814 13.8652 44.0256 14.1388C43.9692 14.4136 43.8072 14.6536 43.5738 14.8084L40.8072 16.636C40.6278 16.7542 40.4256 16.8106 40.2258 16.8106Z" fill="black"/>
</g>
</svg>
