<svg width="60" height="75" viewBox="0 0 60 75" fill="none" xmlns="http://www.w3.org/2000/svg">
<g opacity="0.3">
<path d="M39.6741 27.2619C38.8725 25.5693 36.9603 24.7809 35.3943 25.5009C35.0613 25.6545 34.7763 25.8747 34.5273 26.1315C34.1697 25.4235 33.5703 24.8829 32.8143 24.6129C32.0313 24.3327 31.1817 24.3735 30.4203 24.7227C29.9427 24.9429 29.5575 25.2753 29.2557 25.6635C29.0223 25.4961 28.7727 25.3485 28.4931 25.2489C27.7095 24.9687 26.8599 25.0095 26.0997 25.3587C25.7667 25.5117 25.4829 25.7241 25.2333 25.9653L23.2251 21.6093C22.5075 20.0535 20.6403 19.3785 19.0629 20.1057C18.3027 20.4561 17.7213 21.0777 17.4261 21.8553C17.1267 22.6401 17.1549 23.4903 17.5041 24.2463L22.4229 34.9155L22.2837 34.8183C20.8029 33.7641 18.7167 34.1049 17.6295 35.5761C16.9455 36.5013 16.4823 38.0235 18.1509 40.0221C18.2151 40.1001 24.7041 47.8239 30.9351 49.7187C31.0383 49.7505 31.1409 49.7649 31.2435 49.7649C31.6947 49.7649 32.1129 49.4727 32.2515 49.0173C32.4207 48.4605 32.1075 47.8707 31.5495 47.7021C26.8737 46.2783 21.4623 40.7007 19.7709 38.6709C18.8133 37.5237 19.1343 37.0887 19.3257 36.8289C19.7337 36.2769 20.5125 36.1455 21.0645 36.5385L24.1857 38.7387L25.2411 41.0283C25.4187 41.4147 25.8009 41.6409 26.1993 41.6409C26.3469 41.6409 26.4975 41.6097 26.6403 41.5443C27.1689 41.3007 27.4005 40.6737 27.1563 40.1451L19.4199 23.3625C19.3101 23.1243 19.3023 22.8561 19.3971 22.6047C19.4955 22.3467 19.6905 22.1391 19.9461 22.0209C20.4663 21.7815 21.0795 21.9921 21.3093 22.4919L24.5391 29.4975V29.4981L24.5397 29.4987L26.3043 33.3261C26.5479 33.8547 27.1743 34.0869 27.7035 33.8427C28.2321 33.5991 28.4637 32.9721 28.2195 32.4435L26.4543 28.6143C26.2251 28.1145 26.4609 27.5139 26.9817 27.2733C27.2385 27.1545 27.5223 27.1413 27.7827 27.2343C28.0347 27.3243 28.2345 27.5055 28.3449 27.7437L30.1095 31.5717C30.1095 31.5723 30.1101 31.5729 30.1101 31.5729L30.3507 32.0943C30.5283 32.4807 30.9099 32.7069 31.3089 32.7069C31.4565 32.7069 31.6071 32.6763 31.7499 32.6109C32.2785 32.3673 32.5095 31.7403 32.2653 31.2117L30.7761 27.9795C30.5457 27.4797 30.7821 26.8779 31.3023 26.6373C31.5597 26.5185 31.8435 26.5053 32.1039 26.5983C32.3559 26.6883 32.5557 26.8695 32.6655 27.1077L34.5537 31.2033C34.7967 31.7325 35.4237 31.9641 35.9529 31.7199C36.4815 31.4763 36.7131 30.8493 36.4689 30.3201L35.8851 29.0541C35.8851 29.0535 35.8851 29.0529 35.8845 29.0523C35.7255 28.7091 35.6931 28.3395 35.7903 28.0125C35.8395 27.8511 35.9661 27.5589 36.2763 27.4155C36.7887 27.1785 37.4745 27.5301 37.7745 28.1811C37.7865 28.2045 37.7979 28.2279 37.8099 28.2501C37.8531 28.3287 42.1683 36.2151 42.1881 43.1799C42.1905 43.7613 42.6621 44.2311 43.2429 44.2311C43.2441 44.2311 43.2453 44.2311 43.2465 44.2311C43.8291 44.2287 44.3001 43.7565 44.2977 43.1727C44.2761 35.8221 40.0329 27.9171 39.6741 27.2619Z" fill="black"/>
<path d="M19.7742 16.8106C20.1162 16.8106 20.4516 16.6444 20.655 16.3372C20.9754 15.8512 20.8416 15.1966 20.3562 14.8756L19.8108 14.515C26.6322 13.1032 33.9786 13.1686 40.158 14.7496C40.2456 14.7724 40.3338 14.7826 40.4208 14.7826C40.8906 14.7826 41.3196 14.4664 41.4414 13.99C41.5854 13.4254 41.2458 12.8512 40.6812 12.7066C34.1592 11.0386 26.4084 10.9594 19.2396 12.4636L19.716 11.7418C20.0376 11.2558 19.9038 10.6018 19.4178 10.2808C18.9312 9.95858 18.2778 10.093 17.9568 10.579L16.128 13.3468C15.9738 13.5802 15.9186 13.8652 15.9744 14.1388C16.0308 14.4136 16.1928 14.6536 16.4262 14.8084L19.1928 16.636C19.3722 16.7542 19.5744 16.8106 19.7742 16.8106Z" fill="black"/>
</g>
</svg>
